%FSLAX25Y25*%
%MOIN*%
G70*
G01*
G75*
G04 Layer_Color=32768*
%ADD10C,0.01969*%
%ADD11R,0.03543X0.01772*%
%ADD12R,0.18898X0.18898*%
%ADD13R,0.01575X0.01575*%
%ADD14R,0.01772X0.01181*%
%ADD15R,0.01181X0.01181*%
%ADD16R,0.01181X0.01772*%
%ADD17R,0.01181X0.01181*%
%ADD18R,0.26772X0.26772*%
%ADD19R,0.03543X0.03937*%
%ADD20R,0.02165X0.02559*%
%ADD21R,0.01969X0.01969*%
%ADD22R,0.01378X0.01969*%
%ADD23R,0.07087X0.02362*%
%ADD24R,0.02362X0.01181*%
%ADD25R,0.02362X0.07874*%
%ADD26R,0.06299X0.02165*%
%ADD27R,0.01772X0.01378*%
%ADD28R,0.07480X0.07087*%
%ADD29R,0.05315X0.01575*%
%ADD30R,0.06299X0.08268*%
%ADD31O,0.03150X0.00984*%
%ADD32O,0.00984X0.03150*%
%ADD33R,0.05276X0.12284*%
%ADD34R,0.11181X0.12284*%
%ADD35R,0.18071X0.04370*%
%ADD36R,0.02756X0.01181*%
%ADD37R,0.06221X0.09252*%
%ADD38C,0.00984*%
%ADD39R,0.01181X0.03347*%
%ADD40R,0.03347X0.01181*%
%ADD41R,0.13386X0.13386*%
%ADD42R,0.04528X0.02992*%
%ADD43R,0.03937X0.03543*%
%ADD44R,0.02362X0.02362*%
%ADD45R,0.00984X0.01575*%
%ADD46R,0.05512X0.01969*%
%ADD47R,0.07284X0.02913*%
%ADD48R,0.04134X0.05512*%
%ADD49R,0.08661X0.20472*%
%ADD50R,0.18110X0.22047*%
%ADD51R,0.10984X0.07559*%
%ADD52C,0.05906*%
%ADD53R,0.09449X0.02992*%
%ADD54R,0.06693X0.02795*%
%ADD55R,0.01969X0.00984*%
%ADD56R,0.00984X0.01969*%
%ADD57R,0.09055X0.09055*%
%ADD58R,0.07520X0.02992*%
%ADD59O,0.02953X0.00984*%
%ADD60O,0.00984X0.02953*%
%ADD61R,0.17716X0.17716*%
%ADD62O,0.08268X0.01181*%
%ADD63O,0.01181X0.08268*%
%ADD64R,0.01969X0.01969*%
%ADD65R,0.04724X0.02953*%
%ADD66C,0.01378*%
%ADD67R,0.06299X0.19291*%
%ADD68R,0.05906X0.22047*%
%ADD69R,0.05709X0.04528*%
%ADD70R,0.02441X0.02441*%
%ADD71R,0.01811X0.01654*%
%ADD72R,0.03543X0.01575*%
%ADD73R,0.02559X0.02165*%
%ADD74R,0.01575X0.00984*%
%ADD75R,0.01969X0.05512*%
%ADD76R,0.03740X0.05512*%
G04:AMPARAMS|DCode=77|XSize=13.78mil|YSize=19.69mil|CornerRadius=0mil|HoleSize=0mil|Usage=FLASHONLY|Rotation=315.000|XOffset=0mil|YOffset=0mil|HoleType=Round|Shape=Rectangle|*
%AMROTATEDRECTD77*
4,1,4,-0.01183,-0.00209,0.00209,0.01183,0.01183,0.00209,-0.00209,-0.01183,-0.01183,-0.00209,0.0*
%
%ADD77ROTATEDRECTD77*%

%ADD78P,0.02784X4X360.0*%
%ADD79R,0.01969X0.01378*%
%ADD80R,0.02795X0.06693*%
%ADD81R,0.23622X0.07874*%
%ADD82R,0.05512X0.04134*%
%ADD83R,0.01575X0.01575*%
%ADD84R,0.02441X0.02441*%
%ADD85R,0.04528X0.10630*%
%ADD86R,0.10630X0.04528*%
%ADD87R,0.04528X0.07087*%
%ADD88R,0.04528X0.05709*%
%ADD89R,0.01654X0.01811*%
%ADD90R,0.07087X0.04528*%
%ADD91R,0.05512X0.03740*%
%ADD92C,0.01181*%
%ADD93C,0.00453*%
%ADD94C,0.03937*%
%ADD95C,0.01000*%
%ADD96C,0.03150*%
%ADD97C,0.01969*%
%ADD98C,0.01378*%
%ADD99C,0.00996*%
%ADD100C,0.00394*%
%ADD101C,0.00787*%
%ADD102C,0.01181*%
%ADD103C,0.00784*%
%ADD104C,0.00512*%
%ADD105R,0.09911X0.06594*%
%ADD106R,0.06791X1.25492*%
%ADD107R,0.18996X0.06496*%
%ADD108R,0.15453X0.49409*%
%ADD109R,0.02854X0.21358*%
%ADD110R,0.13976X0.11319*%
%ADD111R,0.14764X0.11122*%
%ADD112R,0.09153X0.17224*%
%ADD113R,0.08465X0.09843*%
%ADD114R,0.08661X0.12402*%
%ADD115R,0.13386X0.08169*%
%ADD116R,0.05315X0.93799*%
%ADD117R,0.17224X0.04528*%
%ADD118R,0.19193X0.03051*%
%ADD119R,0.10925X0.14469*%
%ADD120R,0.11614X0.04035*%
%ADD121R,0.02264X0.71752*%
%ADD122R,0.34842X0.01969*%
%ADD123R,0.78150X0.02461*%
%ADD124R,0.02461X0.13189*%
%ADD125R,0.16043X0.02264*%
%ADD126R,0.02658X0.42618*%
%ADD127R,0.25098X0.01969*%
%ADD128R,0.02165X0.76575*%
%ADD129R,0.68504X0.02165*%
%ADD130R,0.03347X0.05315*%
%ADD131R,0.02264X0.05512*%
%ADD132R,0.02431X1.19587*%
%ADD133R,0.10728X0.03445*%
%ADD134R,0.03839X0.08661*%
%ADD135R,0.14075X0.03839*%
%ADD136R,0.06594X0.04232*%
%ADD137R,0.13189X0.03051*%
%ADD138R,0.04921X0.18504*%
%ADD139R,0.09843X0.04134*%
%ADD140R,0.11713X0.02953*%
%ADD141R,0.04429X0.02756*%
%ADD142R,0.02362X0.02264*%
%ADD143R,0.08465X0.02854*%
%ADD144R,0.07087X0.21752*%
%ADD145R,0.10531X0.12598*%
%ADD146R,0.05315X0.10728*%
%ADD147R,0.04232X0.02854*%
%ADD148R,0.38287X0.06398*%
%ADD149R,0.38091X0.05118*%
%ADD150R,0.30807X0.08268*%
%ADD151R,0.30315X0.06102*%
%ADD152R,0.27756X0.05413*%
%ADD153R,0.19095X0.03937*%
%ADD154R,0.00886X0.01280*%
%ADD155R,0.39961X0.06594*%
%ADD156R,0.40256X0.05807*%
%ADD157R,0.30315X0.12008*%
%ADD158R,0.30709X0.06299*%
%ADD159R,0.30413X0.06496*%
%ADD160R,0.04134X0.05413*%
%ADD161R,0.02431X0.00820*%
%ADD162R,0.03642X0.11417*%
%ADD163R,0.34449X0.01969*%
%ADD164R,0.02430X0.17389*%
%ADD165R,0.92913X0.01870*%
%ADD166R,0.04429X0.41240*%
%ADD167R,0.03740X0.41043*%
%ADD168R,0.05807X0.33169*%
%ADD169R,0.60335X0.08465*%
%ADD170R,0.09843X0.11122*%
%ADD171R,0.14370X0.08760*%
%ADD172R,0.03740X0.24016*%
%ADD173R,0.42224X0.07874*%
%ADD174R,0.08563X0.19291*%
%ADD175R,0.16535X0.19291*%
%ADD176R,0.31693X0.08071*%
%ADD177R,0.06299X0.00394*%
%ADD178R,0.03543X0.00787*%
%ADD179R,0.01181X0.00984*%
%ADD180R,0.12303X0.06004*%
%ADD181R,0.08268X0.01476*%
%ADD182R,0.04823X0.07776*%
%ADD183R,0.14075X0.03740*%
%ADD184R,0.09941X0.01870*%
%ADD185C,0.07874*%
%ADD186C,0.04803*%
%ADD187C,0.09882*%
%ADD188C,0.06299*%
%ADD189C,0.15748*%
%ADD190C,0.07087*%
%ADD191C,0.02598*%
%ADD192C,0.01575*%
%ADD193C,0.02165*%
%ADD194C,0.00591*%
%ADD195C,0.04000*%
%ADD196C,0.08071*%
%ADD197C,0.05591*%
%ADD198C,0.10669*%
%ADD199C,0.13386*%
%ADD200C,0.05787*%
%ADD201C,0.02559*%
%ADD202C,0.03150*%
%ADD203C,0.02362*%
%ADD204C,0.02874*%
%ADD205C,0.00642*%
%ADD206R,0.01969X0.02756*%
%ADD207C,0.00787*%
%ADD208R,0.03071X0.03425*%
%ADD209R,0.01969X0.03248*%
%ADD210R,0.01969X0.01693*%
%ADD211R,0.05512X0.07087*%
%ADD212R,0.05906X0.03150*%
%ADD213R,0.07480X0.05512*%
%ADD214R,0.03000X0.05000*%
%ADD215R,0.10512X0.10000*%
%ADD216R,0.03583X0.04803*%
%ADD217R,0.04724X0.03543*%
%ADD218R,0.02992X0.06496*%
%ADD219R,0.07087X0.07874*%
%ADD220R,0.07874X0.07087*%
%ADD221R,0.05079X0.04882*%
%ADD222R,0.03347X0.01378*%
%ADD223R,0.07874X0.23622*%
%ADD224R,0.08661X0.02913*%
%ADD225R,0.02362X0.05118*%
%ADD226R,0.01772X0.05118*%
%ADD227R,0.01378X0.05118*%
%ADD228R,0.01969X0.01575*%
%ADD229R,0.03937X0.02756*%
%ADD230R,0.00945X0.03543*%
%ADD231R,0.03543X0.00945*%
%ADD232R,0.05512X0.03937*%
%ADD233R,0.10236X0.08661*%
%ADD234R,0.01614X0.01299*%
%ADD235P,0.03452X4X360.0*%
%ADD236R,0.41142X0.08268*%
%ADD237R,0.15846X0.19488*%
%ADD238R,0.08268X0.19193*%
%ADD239R,0.06102X1.26181*%
%ADD240R,0.13386X0.09055*%
%ADD241R,0.08465X0.07677*%
%ADD242R,0.13090X0.08366*%
%ADD243R,0.14764X0.09153*%
%ADD244R,0.14862X0.06201*%
%ADD245R,0.03839X0.93898*%
%ADD246R,0.23622X0.03740*%
%ADD247R,0.13681X0.20768*%
%ADD248R,0.12795X0.08071*%
%ADD249R,0.11811X0.16732*%
%ADD250R,0.44783X0.02756*%
%ADD251R,0.02165X0.73032*%
%ADD252R,0.34842X0.02067*%
%ADD253R,0.67618X0.02362*%
%ADD254R,0.02362X0.28051*%
%ADD255R,0.13878X0.02264*%
%ADD256R,0.02165X0.50394*%
%ADD257R,0.25295X0.01969*%
%ADD258R,0.02559X0.50984*%
%ADD259R,0.79823X0.01969*%
%ADD260R,0.02264X1.46260*%
%ADD261R,0.51476X0.01378*%
%ADD262R,0.01476X0.04626*%
%ADD263R,0.89173X0.01476*%
%ADD264R,0.02658X1.25984*%
%ADD265R,0.07284X0.75492*%
%ADD266R,0.41894X0.10102*%
%ADD267R,0.16965X0.06606*%
%ADD268R,0.29232X0.06299*%
%ADD269R,0.02067X0.02559*%
%ADD270R,0.02658X0.02953*%
%ADD271R,0.19193X0.05512*%
%ADD272R,0.03248X0.28937*%
%ADD273C,0.00984*%
%ADD274C,0.00472*%
%ADD275C,0.02362*%
%ADD276C,0.00500*%
%ADD277C,0.00700*%
%ADD278C,0.00100*%
%ADD279C,0.00591*%
%ADD280R,0.14370X0.01500*%
%ADD281R,0.03937X1.20791*%
%ADD282C,0.02769*%
%ADD283R,0.04343X0.02572*%
%ADD284R,0.19698X0.19698*%
%ADD285R,0.02375X0.02375*%
%ADD286R,0.02572X0.01981*%
%ADD287R,0.01981X0.01981*%
%ADD288R,0.01981X0.02572*%
%ADD289R,0.01981X0.01981*%
%ADD290R,0.27572X0.27572*%
%ADD291R,0.04343X0.04737*%
%ADD292R,0.02965X0.03359*%
%ADD293R,0.02769X0.02769*%
%ADD294R,0.02178X0.02769*%
%ADD295R,0.07887X0.03162*%
%ADD296R,0.03162X0.01981*%
%ADD297R,0.03162X0.08674*%
%ADD298R,0.07099X0.02965*%
%ADD299R,0.02572X0.02178*%
%ADD300R,0.08280X0.07887*%
%ADD301R,0.06115X0.02375*%
%ADD302R,0.07099X0.09068*%
%ADD303O,0.03950X0.01784*%
%ADD304O,0.01784X0.03950*%
%ADD305R,0.06076X0.13084*%
%ADD306R,0.11981X0.13084*%
%ADD307R,0.18871X0.05170*%
%ADD308R,0.03556X0.01981*%
%ADD309R,0.07021X0.10052*%
%ADD310C,0.01784*%
%ADD311R,0.01981X0.04147*%
%ADD312R,0.04147X0.01981*%
%ADD313R,0.14186X0.14186*%
%ADD314R,0.05328X0.03792*%
%ADD315R,0.04737X0.04343*%
%ADD316R,0.03162X0.03162*%
%ADD317R,0.01784X0.02375*%
%ADD318R,0.06312X0.02769*%
%ADD319R,0.08083X0.03713*%
%ADD320R,0.04934X0.06312*%
%ADD321R,0.09461X0.21272*%
%ADD322R,0.18910X0.22847*%
%ADD323R,0.11784X0.08359*%
%ADD324C,0.06706*%
%ADD325R,0.10249X0.03792*%
%ADD326R,0.07493X0.03595*%
%ADD327R,0.02769X0.01784*%
%ADD328R,0.01784X0.02769*%
%ADD329R,0.09855X0.09855*%
%ADD330R,0.08320X0.03792*%
%ADD331O,0.03753X0.01784*%
%ADD332O,0.01784X0.03753*%
%ADD333R,0.18517X0.18517*%
%ADD334O,0.09068X0.01981*%
%ADD335O,0.01981X0.09068*%
%ADD336R,0.02769X0.02769*%
%ADD337R,0.05524X0.03753*%
%ADD338C,0.02178*%
%ADD339R,0.07099X0.20091*%
%ADD340R,0.06706X0.22847*%
%ADD341R,0.06509X0.05328*%
%ADD342R,0.03241X0.03241*%
%ADD343R,0.02611X0.02454*%
%ADD344R,0.04343X0.02375*%
%ADD345R,0.03359X0.02965*%
%ADD346R,0.02375X0.01784*%
%ADD347R,0.02769X0.06312*%
%ADD348R,0.04540X0.06312*%
G04:AMPARAMS|DCode=349|XSize=21.78mil|YSize=27.69mil|CornerRadius=0mil|HoleSize=0mil|Usage=FLASHONLY|Rotation=315.000|XOffset=0mil|YOffset=0mil|HoleType=Round|Shape=Rectangle|*
%AMROTATEDRECTD349*
4,1,4,-0.01749,-0.00209,0.00209,0.01749,0.01749,0.00209,-0.00209,-0.01749,-0.01749,-0.00209,0.0*
%
%ADD349ROTATEDRECTD349*%

%ADD350P,0.03915X4X360.0*%
%ADD351R,0.02769X0.02178*%
%ADD352R,0.03595X0.07493*%
%ADD353R,0.24422X0.08674*%
%ADD354R,0.06312X0.04934*%
%ADD355R,0.02375X0.02375*%
%ADD356R,0.03241X0.03241*%
%ADD357R,0.05328X0.11430*%
%ADD358R,0.11430X0.05328*%
%ADD359R,0.05328X0.07887*%
%ADD360R,0.05328X0.06509*%
%ADD361R,0.02454X0.02611*%
%ADD362R,0.07887X0.05328*%
%ADD363R,0.06312X0.04540*%
%ADD364C,0.01981*%
%ADD365C,0.08674*%
%ADD366C,0.05603*%
%ADD367C,0.10682*%
%ADD368C,0.07099*%
%ADD369C,0.16548*%
%ADD370C,0.07887*%
%ADD371C,0.02375*%
%ADD372C,0.02965*%
%ADD373C,0.01391*%
%ADD374R,0.02769X0.03556*%
%ADD375C,0.01587*%
%ADD376R,0.03871X0.04225*%
%ADD377R,0.02769X0.04048*%
%ADD378R,0.02769X0.02493*%
%ADD379R,0.06312X0.07887*%
%ADD380R,0.06706X0.03950*%
%ADD381R,0.08280X0.06312*%
%ADD382R,0.03800X0.05800*%
%ADD383R,0.11312X0.10800*%
%ADD384R,0.04383X0.05603*%
%ADD385R,0.05524X0.04343*%
%ADD386R,0.03792X0.07296*%
%ADD387R,0.07887X0.08674*%
%ADD388R,0.08674X0.07887*%
%ADD389R,0.05879X0.05682*%
%ADD390R,0.04147X0.02178*%
%ADD391R,0.08674X0.24422*%
%ADD392R,0.09461X0.03713*%
%ADD393R,0.03162X0.05918*%
%ADD394R,0.02572X0.05918*%
%ADD395R,0.02178X0.05918*%
%ADD396R,0.02769X0.02375*%
%ADD397R,0.04737X0.03556*%
%ADD398R,0.01745X0.04343*%
%ADD399R,0.04343X0.01745*%
%ADD400R,0.06312X0.04737*%
%ADD401R,0.11036X0.09461*%
%ADD402R,0.02414X0.02099*%
%ADD403P,0.04583X4X360.0*%
%ADD404C,0.03398*%
%ADD405C,0.01575*%
%ADD406C,0.00197*%
%ADD407C,0.00000*%
D97*
X-4626Y-5118D02*
Y468602D01*
Y-5118D02*
X468602D01*
Y473228D01*
X-4626D02*
X468602D01*
X-4626Y468602D02*
Y473228D01*
D100*
X203559Y285882D02*
Y289819D01*
X201591Y287850D02*
X205528D01*
X241945Y249465D02*
Y326236D01*
X165173D02*
X241945D01*
X165173Y249465D02*
X241945D01*
X165173D02*
Y326236D01*
X84055Y170965D02*
X87992D01*
X86024Y168996D02*
Y172933D01*
X92914Y163583D02*
Y178346D01*
X79134D02*
X92914D01*
X79134Y163583D02*
X92914D01*
X79134D02*
Y178346D01*
X59665Y375964D02*
Y380925D01*
X57185Y376476D02*
Y380413D01*
X54705Y380925D02*
X59665D01*
X55216Y378445D02*
X59153D01*
X54705Y375964D02*
X59665D01*
X54705D02*
Y380925D01*
X246063Y402264D02*
Y406201D01*
X244094Y404232D02*
X248031D01*
X254921Y396752D02*
Y411713D01*
X237205D02*
X254921D01*
X237205Y396752D02*
X254921D01*
X237205D02*
Y411713D01*
X123917Y337795D02*
X127854D01*
X125886Y335827D02*
Y339764D01*
X133366Y331299D02*
Y344292D01*
X118405D02*
X133366D01*
X118405Y331299D02*
X133366D01*
X118405D02*
Y344292D01*
X316831Y202854D02*
X320768D01*
X318799Y200886D02*
Y204823D01*
X336909Y188681D02*
Y217028D01*
X300689D02*
X336909D01*
X300689Y188681D02*
X336909D01*
X300689D02*
Y217028D01*
X244390Y6165D02*
X248327D01*
X246358Y4197D02*
Y8134D01*
X284941Y-17850D02*
Y30181D01*
X207776D02*
X284941D01*
X207776Y-17850D02*
X284941D01*
X207776D02*
Y30181D01*
X441634Y170768D02*
Y227461D01*
X375492D02*
X441634D01*
X375492Y170768D02*
X441634D01*
X375492D02*
Y227461D01*
X207461Y404417D02*
Y418417D01*
X187461D02*
X207461D01*
X187461Y404417D02*
X207461D01*
X187461D02*
Y418417D01*
X140386Y219980D02*
Y230689D01*
X136386D02*
X140386D01*
X136386Y219980D02*
X140386D01*
X136386D02*
Y230689D01*
X206004Y453543D02*
Y457480D01*
X204035Y455512D02*
X207973D01*
X215945Y450984D02*
Y460039D01*
X195504D02*
X215945D01*
X195504Y450984D02*
X215945D01*
X195504D02*
Y460039D01*
X164370Y444980D02*
Y448917D01*
X162402Y446949D02*
X166339D01*
X168898Y437008D02*
Y457449D01*
X159843D02*
X168898D01*
X159843Y437008D02*
X168898D01*
X159843D02*
Y457449D01*
X99087Y79138D02*
Y161366D01*
X-12004D02*
X99087D01*
X-12004Y79138D02*
X99087D01*
X-12004D02*
Y161366D01*
X94906Y340697D02*
Y381051D01*
X54551D02*
X94906D01*
X54551Y340697D02*
X94906D01*
X54551D02*
Y381051D01*
X22343Y430709D02*
Y434646D01*
X20374Y432677D02*
X24311D01*
X30807Y422441D02*
Y442913D01*
X13878D02*
X30807D01*
X13878Y422441D02*
X30807D01*
X13878D02*
Y442913D01*
X147441Y209154D02*
X151378D01*
X149409Y207185D02*
Y211122D01*
X96045Y328740D02*
Y337795D01*
X85827D02*
X96045D01*
X85827Y328740D02*
X96045D01*
X85827D02*
Y337795D01*
X186221Y444685D02*
Y448622D01*
X184252Y446654D02*
X188189D01*
X200984Y435827D02*
Y457480D01*
X171457D02*
X200984D01*
X171457Y435827D02*
X200984D01*
X171457D02*
Y457480D01*
X295996Y373732D02*
Y384732D01*
X291996D02*
X295996D01*
X291996Y373732D02*
X295996D01*
X291996D02*
Y384732D01*
X102362Y165945D02*
Y169882D01*
X100394Y167913D02*
X104331D01*
X120472Y153150D02*
Y182677D01*
X84252D02*
X120472D01*
X84252Y153150D02*
X120472D01*
X84252D02*
Y182677D01*
X143602Y140453D02*
Y144390D01*
X141634Y142421D02*
X145571D01*
X158957Y131201D02*
Y153642D01*
X128248D02*
X158957D01*
X128248Y131201D02*
X158957D01*
X128248D02*
Y153642D01*
X18406Y255118D02*
Y259055D01*
X16437Y257087D02*
X20374D01*
X176772Y409646D02*
Y413583D01*
X174803Y411614D02*
X178740D01*
X237984Y88138D02*
Y92075D01*
X236016Y90106D02*
X239953D01*
X254323Y77705D02*
Y102508D01*
X221646D02*
X254323D01*
X221646Y77705D02*
X254323D01*
X221646D02*
Y102508D01*
X177067Y224705D02*
X181004D01*
X179035Y222736D02*
Y226673D01*
X192028Y208957D02*
Y240453D01*
X166043D02*
X192028D01*
X166043Y208957D02*
X192028D01*
X166043D02*
Y240453D01*
X373917Y389469D02*
Y393406D01*
X371949Y391437D02*
X375886D01*
X382973Y378839D02*
Y404035D01*
X364862D02*
X382973D01*
X364862Y378839D02*
X382973D01*
X364862D02*
Y404035D01*
X50984Y188287D02*
Y192224D01*
X56398Y185925D02*
Y194587D01*
X45571D02*
X56398D01*
X49016Y190256D02*
X52953D01*
X45571Y185925D02*
X56398D01*
X45571D02*
Y194587D01*
X42126Y185236D02*
Y189173D01*
X40157Y187205D02*
X44094D01*
X49902Y180079D02*
Y194331D01*
X34350D02*
X49902D01*
X34350Y180079D02*
X49902D01*
X34350D02*
Y194331D01*
X442618Y392126D02*
Y434055D01*
X414665D02*
X442618D01*
X414665Y392126D02*
X442618D01*
X414665D02*
Y434055D01*
X41339Y268307D02*
X45276D01*
X43307Y266338D02*
Y270276D01*
X367323Y265453D02*
Y269390D01*
X365354Y267421D02*
X369291D01*
X375591Y259154D02*
Y275689D01*
X359055D02*
X375591D01*
X359055Y259154D02*
X375591D01*
X359055D02*
Y275689D01*
X148622Y225590D02*
X152559D01*
X150591Y223622D02*
Y227559D01*
X154508Y221673D02*
Y229508D01*
X146673D02*
X154508D01*
X146673Y221673D02*
X154508D01*
X146673D02*
Y229508D01*
X37402Y201181D02*
Y225591D01*
X25197Y211417D02*
Y215354D01*
X12992Y225591D02*
X37402D01*
X23228Y213386D02*
X27165D01*
X12992Y201181D02*
X37402D01*
X12992D02*
Y225591D01*
X177559Y403937D02*
Y407874D01*
X175591Y405905D02*
X179527D01*
X192323Y395079D02*
Y416732D01*
X162795D02*
X192323D01*
X162795Y395079D02*
X192323D01*
X162795D02*
Y416732D01*
X97736Y329331D02*
Y333268D01*
X95768Y331299D02*
X99705D01*
X103150Y326083D02*
Y336516D01*
X92323D02*
X103150D01*
X92323Y326083D02*
X103150D01*
X92323D02*
Y336516D01*
X156693Y341634D02*
Y345571D01*
X163976Y336614D02*
Y350591D01*
X149409D02*
X163976D01*
X154725Y343603D02*
X158661D01*
X149409Y336614D02*
X163976D01*
X149409D02*
Y350591D01*
X124492Y427559D02*
X126492D01*
X125492Y426559D02*
Y428559D01*
X131004Y422047D02*
Y433071D01*
X119980D02*
X131004D01*
X119980Y422047D02*
X131004D01*
X119980D02*
Y433071D01*
X281201Y152150D02*
Y154150D01*
X280201Y153150D02*
X282201D01*
X286713Y147638D02*
Y158661D01*
X275689D02*
X286713D01*
X275689Y147638D02*
X286713D01*
X275689D02*
Y158661D01*
X419291Y363976D02*
Y367913D01*
X417323Y365945D02*
X421260D01*
X432087Y347441D02*
Y384449D01*
X406496D02*
X432087D01*
X406496Y347441D02*
X432087D01*
X406496D02*
Y384449D01*
X181890Y244783D02*
X185827D01*
X183858Y242815D02*
Y246752D01*
X52756Y234055D02*
Y237992D01*
X50787Y236024D02*
X54725D01*
X71756Y222024D02*
Y250024D01*
X33756D02*
X71756D01*
X33756Y222024D02*
X71756D01*
X33756D02*
Y250024D01*
X56693Y204921D02*
Y208858D01*
X54724Y206890D02*
X58662D01*
X69488Y195669D02*
Y218110D01*
X43898D02*
X69488D01*
X43898Y195669D02*
X69488D01*
X43898D02*
Y218110D01*
X195374Y369980D02*
Y373917D01*
X193405Y371949D02*
X197343D01*
X225591Y357776D02*
Y386122D01*
X165157D02*
X225591D01*
X165157Y357776D02*
X225591D01*
X165157D02*
Y386122D01*
X70965Y258169D02*
Y262106D01*
X68996Y260138D02*
X72933D01*
X82776Y245571D02*
Y274705D01*
X59154D02*
X82776D01*
X59154Y245571D02*
X82776D01*
X59154D02*
Y274705D01*
X439760Y80575D02*
Y97575D01*
X417760Y80575D02*
Y97575D01*
Y80575D02*
X439760D01*
X417760Y97575D02*
X439760D01*
X290551Y442224D02*
Y446161D01*
X288583Y444193D02*
X292520D01*
X304429Y423130D02*
Y465256D01*
X276673D02*
X304429D01*
X276673Y423130D02*
X304429D01*
X276673D02*
Y465256D01*
X61417Y13878D02*
Y48524D01*
X33661Y13878D02*
Y48524D01*
Y13878D02*
X61417D01*
X33661Y48524D02*
X61417D01*
X45571Y31201D02*
X49508D01*
X47539Y29232D02*
Y33169D01*
X302362Y7382D02*
Y11319D01*
X300394Y9351D02*
X304331D01*
X312008Y866D02*
Y17835D01*
X292717D02*
X312008D01*
X292717Y866D02*
X312008D01*
X292717D02*
Y17835D01*
X239764Y407480D02*
Y427953D01*
X229527Y415748D02*
Y419685D01*
X219291Y427953D02*
X239764D01*
X227559Y417717D02*
X231496D01*
X219291Y407480D02*
X239764D01*
X219291D02*
Y427953D01*
X134646Y90453D02*
Y94390D01*
X132677Y92421D02*
X136614D01*
X168898Y56988D02*
Y127854D01*
X100394D02*
X168898D01*
X100394Y56988D02*
X168898D01*
X100394D02*
Y127854D01*
X354035Y411713D02*
Y415650D01*
X352067Y413681D02*
X356004D01*
X237788Y88138D02*
Y92075D01*
X235819Y90106D02*
X239756D01*
X364665Y377362D02*
Y381299D01*
X371949Y372244D02*
Y386417D01*
X357382D02*
X371949D01*
X362697Y379331D02*
X366634D01*
X357382Y372244D02*
X371949D01*
X357382D02*
Y386417D01*
X288779Y447540D02*
Y451476D01*
X286811Y449508D02*
X290748D01*
X307087Y443602D02*
Y455413D01*
X270473D02*
X307087D01*
X270473Y443602D02*
X307087D01*
X270473D02*
Y455413D01*
X196161Y390059D02*
X200098D01*
X198130Y388091D02*
Y392028D01*
X201870Y382382D02*
Y399059D01*
X194390D02*
X201870D01*
X194390Y382382D02*
X201870D01*
X194390D02*
Y399059D01*
X349425Y233760D02*
Y271162D01*
X292338D02*
X349425D01*
X292338Y233760D02*
X349425D01*
X292338D02*
Y271162D01*
X440583Y271240D02*
Y344240D01*
X392945D02*
X440583D01*
X392945Y271240D02*
X440583D01*
X392945D02*
Y344240D01*
X57980Y441992D02*
Y469992D01*
X7980D02*
X57980D01*
X7980Y441992D02*
X57980D01*
X7980D02*
Y469992D01*
X18406Y268012D02*
Y271949D01*
X16437Y269980D02*
X20374D01*
X93504Y267717D02*
X97441D01*
X95472Y265748D02*
Y269685D01*
X169291Y147638D02*
X173229D01*
X171260Y145669D02*
Y149606D01*
X321260Y390846D02*
Y394784D01*
X319291Y392815D02*
X323228D01*
X328346Y377264D02*
Y408366D01*
X314173D02*
X328346D01*
X314173Y377264D02*
X328346D01*
X314173D02*
Y408366D01*
X328346Y428839D02*
Y432776D01*
X333760Y425492D02*
Y436122D01*
X322933D02*
X333760D01*
X326378Y430807D02*
X330315D01*
X322933Y425492D02*
X333760D01*
X322933D02*
Y436122D01*
X337402Y442815D02*
Y446752D01*
X345276Y437894D02*
Y451673D01*
X329528D02*
X345276D01*
X335433Y444783D02*
X339370D01*
X329528Y437894D02*
X345276D01*
X329528D02*
Y451673D01*
X356594Y445079D02*
X360531D01*
X366831Y437795D02*
Y452362D01*
X358563Y443110D02*
Y447047D01*
X350295Y452362D02*
X366831D01*
X350295Y437795D02*
X366831D01*
X350295D02*
Y452362D01*
X143602Y19094D02*
X147539D01*
X145571Y17126D02*
Y21063D01*
X158169Y-3543D02*
Y41732D01*
X132972D02*
X158169D01*
X132972Y-3543D02*
X158169D01*
X132972D02*
Y41732D01*
X70768Y432185D02*
X72736D01*
X71752Y431201D02*
Y433169D01*
X75752Y426685D02*
Y437685D01*
X67752D02*
X75752D01*
X67752Y426685D02*
X75752D01*
X67752D02*
Y437685D01*
X37894Y186713D02*
Y190650D01*
X44894Y183465D02*
Y193898D01*
X30894D02*
X44894D01*
X35925Y188681D02*
X39862D01*
X30894Y183465D02*
X44894D01*
X30894D02*
Y193898D01*
X268807Y441894D02*
Y469894D01*
X218807D02*
X268807D01*
X218807Y441894D02*
X268807D01*
X218807D02*
Y469894D01*
X17520Y115945D02*
Y119882D01*
X31398Y100591D02*
Y135236D01*
X3642D02*
X31398D01*
X15551Y117913D02*
X19488D01*
X3642Y100591D02*
X31398D01*
X3642D02*
Y135236D01*
X99087Y-5213D02*
Y77016D01*
X-12004D02*
X99087D01*
X-12004Y-5213D02*
X99087D01*
X-12004D02*
Y77016D01*
X68917Y279311D02*
Y284272D01*
X66437Y279823D02*
Y283760D01*
X63957Y284272D02*
X68917D01*
X64468Y281791D02*
X68405D01*
X63957Y279311D02*
X68917D01*
X63957D02*
Y284272D01*
X236240Y325866D02*
Y330827D01*
X233760Y326378D02*
Y330315D01*
X231279Y330827D02*
X236240D01*
X231791Y328346D02*
X235728D01*
X231279Y325866D02*
X236240D01*
X231279D02*
Y330827D01*
X32701Y405988D02*
Y407988D01*
X31701Y406988D02*
X33701D01*
X38213Y401476D02*
Y412500D01*
X27189D02*
X38213D01*
X27189Y401476D02*
X38213D01*
X27189D02*
Y412500D01*
X122441Y451658D02*
Y453658D01*
X121441Y452658D02*
X123441D01*
X127953Y447146D02*
Y458169D01*
X116929D02*
X127953D01*
X116929Y447146D02*
X127953D01*
X116929D02*
Y458169D01*
X243307Y378543D02*
Y382480D01*
X241339Y380512D02*
X245276D01*
X250433Y372736D02*
Y388287D01*
X236181D02*
X250433D01*
X236181Y372736D02*
X250433D01*
X236181D02*
Y388287D01*
X243209Y357677D02*
Y361614D01*
X241240Y359646D02*
X245177D01*
X250335Y351870D02*
Y367421D01*
X236083D02*
X250335D01*
X236083Y351870D02*
X250335D01*
X236083D02*
Y367421D01*
X127362Y176772D02*
X131299D01*
X129331Y174803D02*
Y178740D01*
X136457Y168996D02*
Y184547D01*
X122205D02*
X136457D01*
X122205Y168996D02*
X136457D01*
X122205D02*
Y184547D01*
X90748Y228740D02*
X94685D01*
X104921Y216535D02*
Y240945D01*
X92716Y226772D02*
Y230709D01*
X80512Y240945D02*
X104921D01*
X80512Y216535D02*
X104921D01*
X80512D02*
Y240945D01*
X354705Y87630D02*
Y91567D01*
X352736Y89599D02*
X356673D01*
X371043Y77197D02*
Y102000D01*
X338366D02*
X371043D01*
X338366Y77197D02*
X371043D01*
X338366D02*
Y102000D01*
X354697Y87398D02*
Y91335D01*
X352728Y89366D02*
X356665D01*
X349425Y304626D02*
Y342028D01*
X292339D02*
X349425D01*
X292339Y304626D02*
X349425D01*
X292339D02*
Y342028D01*
X388287Y232677D02*
Y236614D01*
X386319Y234646D02*
X390256D01*
X403642Y223425D02*
Y245866D01*
X372933D02*
X403642D01*
X372933Y223425D02*
X403642D01*
X372933D02*
Y245866D01*
X96138Y395600D02*
X103363Y388375D01*
X96960Y381972D02*
X103363Y388375D01*
X89735Y389197D02*
X96138Y395600D01*
X89735Y389197D02*
X96960Y381972D01*
X68683Y328937D02*
Y337992D01*
X58465D02*
X68683D01*
X58465Y328937D02*
X68683D01*
X58465D02*
Y337992D01*
X108465Y371180D02*
Y381398D01*
X99410D02*
X108465D01*
X99410Y371180D02*
X108465D01*
X99410D02*
Y381398D01*
X84726Y328740D02*
Y337795D01*
X74508D02*
X84726D01*
X74508Y328740D02*
X84726D01*
X74508D02*
Y337795D01*
X108366Y359959D02*
Y370177D01*
X99311D02*
X108366D01*
X99311Y359959D02*
X108366D01*
X99311D02*
Y370177D01*
X361122Y191142D02*
Y195079D01*
X359154Y193110D02*
X363091D01*
X370768Y184626D02*
Y201594D01*
X351476D02*
X370768D01*
X351476Y184626D02*
X370768D01*
X351476D02*
Y201594D01*
X361122Y208760D02*
Y212697D01*
X359154Y210728D02*
X363090D01*
X370768Y202244D02*
Y219213D01*
X351477D02*
X370768D01*
X351477Y202244D02*
X370768D01*
X351477D02*
Y219213D01*
X283071Y187894D02*
X287008D01*
X285039Y185925D02*
Y189862D01*
X293524Y178248D02*
Y197539D01*
X276555D02*
X293524D01*
X276555Y178248D02*
X293524D01*
X276555D02*
Y197539D01*
X265453Y187795D02*
X269390D01*
X267421Y185827D02*
Y189764D01*
X275905Y178150D02*
Y197441D01*
X258937D02*
X275905D01*
X258937Y178150D02*
X275905D01*
X258937D02*
Y197441D01*
X247539Y187697D02*
X251477D01*
X249508Y185728D02*
Y189665D01*
X257992Y178051D02*
Y197343D01*
X241024D02*
X257992D01*
X241024Y178051D02*
X257992D01*
X241024D02*
Y197343D01*
X412303Y138976D02*
Y142913D01*
X410335Y140945D02*
X414272D01*
X421949Y132461D02*
Y149429D01*
X402658D02*
X421949D01*
X402658Y132461D02*
X421949D01*
X402658D02*
Y149429D01*
X412205Y156890D02*
Y160827D01*
X410236Y158858D02*
X414173D01*
X421850Y150374D02*
Y167343D01*
X402559D02*
X421850D01*
X402559Y150374D02*
X421850D01*
X402559D02*
Y167343D01*
X187106Y128937D02*
Y132874D01*
X185138Y130905D02*
X189075D01*
X196752Y122421D02*
Y139390D01*
X177461D02*
X196752D01*
X177461Y122421D02*
X196752D01*
X177461D02*
Y139390D01*
X195472Y362008D02*
Y365945D01*
X193504Y363976D02*
X197441D01*
X225689Y349803D02*
Y378150D01*
X165256D02*
X225689D01*
X165256Y349803D02*
X225689D01*
X165256D02*
Y378150D01*
X155512Y186713D02*
Y190650D01*
X153543Y188681D02*
X157480D01*
X169512Y169681D02*
Y207681D01*
X141512D02*
X169512D01*
X141512Y169681D02*
X169512D01*
X141512D02*
Y207681D01*
X120374Y232776D02*
Y236713D01*
X118405Y234744D02*
X122343D01*
X133169Y223524D02*
Y245965D01*
X107579D02*
X133169D01*
X107579Y223524D02*
X133169D01*
X107579D02*
Y245965D01*
X119390Y208169D02*
Y212106D01*
X117421Y210138D02*
X121358D01*
X138390Y196138D02*
Y224138D01*
X100390D02*
X138390D01*
X100390Y196138D02*
X138390D01*
X100390D02*
Y224138D01*
X393602Y399508D02*
X397539D01*
X395571Y397539D02*
Y401476D01*
X401083Y419390D02*
X405020D01*
X403051Y417421D02*
Y421358D01*
X355906Y287500D02*
X359842D01*
X357874Y285532D02*
Y289469D01*
X406823Y403850D02*
Y414850D01*
X402823D02*
X406823D01*
X402823Y403850D02*
X406823D01*
X402823D02*
Y414850D01*
X101508Y165374D02*
Y176083D01*
X97508D02*
X101508D01*
X97508Y165374D02*
X101508D01*
X97508D02*
Y176083D01*
X114744Y186189D02*
Y190189D01*
X104035D02*
X114744D01*
X104035Y186189D02*
X114744D01*
X104035D02*
Y190189D01*
X191831Y429724D02*
X195768D01*
X193799Y427756D02*
Y431693D01*
X155118Y447835D02*
Y451772D01*
X153149Y449803D02*
X157087D01*
X180413Y453937D02*
Y457874D01*
X178445Y455905D02*
X182382D01*
X152854Y392224D02*
X156791D01*
X154823Y390256D02*
Y394193D01*
X158169Y422540D02*
Y426476D01*
X156201Y424508D02*
X160138D01*
X363091Y252461D02*
X367028D01*
X365059Y250492D02*
Y254429D01*
X359055Y249902D02*
Y253838D01*
X357086Y251870D02*
X361023D01*
X177756Y189075D02*
X181693D01*
X179724Y187106D02*
Y191043D01*
X183957Y164567D02*
Y168504D01*
X181988Y166535D02*
X185925D01*
X44587Y298524D02*
Y302461D01*
X42618Y300492D02*
X46555D01*
X154429Y239764D02*
Y243701D01*
X152461Y241732D02*
X156398D01*
X81791Y269882D02*
X85728D01*
X83760Y267913D02*
Y271850D01*
X363878Y305610D02*
Y309547D01*
X361909Y307579D02*
X365846D01*
X363878Y318996D02*
Y322933D01*
X361909Y320965D02*
X365846D01*
X68799Y240354D02*
X72736D01*
X70768Y238386D02*
Y242323D01*
X78347Y240748D02*
X82284D01*
X80315Y238779D02*
Y242716D01*
X18406Y242126D02*
Y246063D01*
X16437Y244094D02*
X20374D01*
X63626Y424539D02*
X67563D01*
X65594Y422571D02*
Y426508D01*
X50689Y424508D02*
X54626D01*
X52658Y422540D02*
Y426476D01*
X225295Y194685D02*
X229232D01*
X227264Y192716D02*
Y196653D01*
X231299Y338484D02*
X235236D01*
X233268Y336516D02*
Y340453D01*
X14173Y249606D02*
X18110D01*
X16142Y247638D02*
Y251575D01*
X14177Y257866D02*
X18114D01*
X16146Y255898D02*
Y259835D01*
X18602Y268209D02*
Y272146D01*
X16634Y270177D02*
X20571D01*
X18602Y281004D02*
Y284941D01*
X16634Y282972D02*
X20571D01*
X18784Y294197D02*
Y298134D01*
X16815Y296165D02*
X20752D01*
X18799Y307185D02*
Y311122D01*
X16831Y309154D02*
X20768D01*
X18307Y307579D02*
Y311516D01*
X16339Y309547D02*
X20276D01*
X18406Y294488D02*
Y298425D01*
X16437Y296457D02*
X20374D01*
X18406Y281398D02*
Y285335D01*
X16437Y283366D02*
X20374D01*
X308559Y70071D02*
X312496D01*
X310528Y68103D02*
Y72040D01*
X305020Y56792D02*
X308957D01*
X306988Y54823D02*
Y58760D01*
X288977Y48524D02*
X292914D01*
X290945Y46555D02*
Y50492D01*
X289961Y34449D02*
X293898D01*
X291929Y32481D02*
Y36418D01*
X293307Y146162D02*
X297244D01*
X295276Y144193D02*
Y148130D01*
X206791Y48032D02*
X210729D01*
X208760Y46063D02*
Y50000D01*
X189862Y67520D02*
X193799D01*
X191831Y65551D02*
Y69488D01*
X172835Y50394D02*
X176772D01*
X174803Y48425D02*
Y52362D01*
X173634Y34547D02*
X177571D01*
X175602Y32579D02*
Y36516D01*
X90748Y257677D02*
X94685D01*
X92716Y255709D02*
Y259646D01*
X118834Y257689D02*
X122772D01*
X120803Y255720D02*
Y259658D01*
X109449Y257677D02*
X113386D01*
X111417Y255709D02*
Y259646D01*
X100098Y257677D02*
X104035D01*
X102067Y255709D02*
Y259646D01*
X217421Y188189D02*
Y192126D01*
X215453Y190157D02*
X219390D01*
X198504Y188189D02*
Y192126D01*
X196536Y190157D02*
X200473D01*
X209055Y197736D02*
Y201673D01*
X207087Y199705D02*
X211024D01*
X185138Y338386D02*
X189075D01*
X187106Y336417D02*
Y340354D01*
X209055Y188091D02*
Y192027D01*
X207087Y190059D02*
X211024D01*
X194488Y338386D02*
X198425D01*
X196457Y336417D02*
Y340354D01*
X254465Y231902D02*
Y235839D01*
X252496Y233870D02*
X256433D01*
X251610Y342728D02*
Y346665D01*
X249642Y344697D02*
X253579D01*
X73622Y309941D02*
X77559D01*
X75590Y307972D02*
Y311909D01*
X64272Y309941D02*
X68209D01*
X66240Y307972D02*
Y311909D01*
X41929Y165649D02*
Y169587D01*
X39961Y167618D02*
X43898D01*
X49705Y160492D02*
Y174744D01*
X34154D02*
X49705D01*
X34154Y160492D02*
X49705D01*
X34154D02*
Y174744D01*
X111228Y441992D02*
Y469992D01*
X61228D02*
X111228D01*
X61228Y441992D02*
X111228D01*
X61228D02*
Y469992D01*
D406*
X156299Y205413D02*
Y212894D01*
X142520D02*
X156299D01*
X142520Y205413D02*
X156299D01*
X142520D02*
Y212894D01*
X280217Y118701D02*
X283957D01*
X282087Y116831D02*
Y120571D01*
X287992Y115748D02*
Y121654D01*
X276181D02*
X287992D01*
X276181Y115748D02*
X287992D01*
X276181D02*
Y121654D01*
X316634Y278839D02*
X318799D01*
X321457Y276870D02*
Y280807D01*
X317717Y277756D02*
Y279921D01*
X313976Y280807D02*
X321457D01*
X313976Y276870D02*
X321457D01*
X313976D02*
Y280807D01*
X89961Y333268D02*
X91929D01*
X90945Y332284D02*
Y334252D01*
X28905Y250787D02*
Y263386D01*
X9154D02*
X28905D01*
X9154Y250787D02*
X28905D01*
X9154D02*
Y263386D01*
X186024Y407087D02*
Y416142D01*
X166272D02*
X186024D01*
X166272Y407087D02*
X186024D01*
X166272D02*
Y416142D01*
X57677Y253937D02*
Y282677D01*
X28937D02*
X57677D01*
X28937Y253937D02*
X57677D01*
X28937D02*
Y282677D01*
X130807Y164862D02*
X134547D01*
X132677Y162992D02*
Y166732D01*
X138583Y161909D02*
Y167815D01*
X125677D02*
X138583D01*
X125677Y161909D02*
X138583D01*
X125677D02*
Y167815D01*
X282480Y424311D02*
X286220D01*
X284350Y422441D02*
Y426181D01*
X287303Y417311D02*
Y430217D01*
X281398D02*
X287303D01*
X281398Y417311D02*
X287303D01*
X281398D02*
Y430217D01*
X190748Y241043D02*
Y248524D01*
X176969D02*
X190748D01*
X176969Y241043D02*
X190748D01*
X176969D02*
Y248524D01*
X32579Y368799D02*
X36319D01*
X34449Y366929D02*
Y370669D01*
X37402Y362894D02*
Y374705D01*
X31496D02*
X37402D01*
X31496Y362894D02*
X37402D01*
X31496D02*
Y374705D01*
X50394Y383071D02*
X52559D01*
X55217Y381102D02*
Y385039D01*
X51476Y381988D02*
Y384154D01*
X47736Y385039D02*
X55217D01*
X47736Y381102D02*
X55217D01*
X47736D02*
Y385039D01*
X374311Y393406D02*
Y433957D01*
X333760D02*
X374311D01*
X333760Y393406D02*
X374311D01*
X333760D02*
Y433957D01*
X275386Y40697D02*
Y139516D01*
X200189D02*
X275386D01*
X200189Y40697D02*
X275386D01*
X200189D02*
Y139516D01*
X27657Y263681D02*
Y276279D01*
X9154D02*
X27657D01*
X9154Y263681D02*
X27657D01*
X9154D02*
Y276279D01*
X100000Y258465D02*
Y276969D01*
X90945D02*
X100000D01*
X90945Y258465D02*
X100000D01*
X90945D02*
Y276969D01*
X175197Y140748D02*
Y154528D01*
X167323D02*
X175197D01*
X167323Y140748D02*
X175197D01*
X167323D02*
Y154528D01*
X101772Y265354D02*
X105512D01*
X103642Y263484D02*
Y267224D01*
X106595Y259449D02*
Y271260D01*
X100689D02*
X106595D01*
X100689Y259449D02*
X106595D01*
X100689D02*
Y271260D01*
X375909Y198752D02*
X378272D01*
X377091Y197571D02*
Y199933D01*
X379453Y194618D02*
Y202886D01*
X374728D02*
X379453D01*
X374728Y194618D02*
X379453D01*
X374728D02*
Y202886D01*
X39311Y244193D02*
X40610D01*
X43307Y242224D02*
Y246162D01*
X39961Y243543D02*
Y244843D01*
X36614Y246162D02*
X43307D01*
X36614Y242224D02*
X43307D01*
X36614D02*
Y246162D01*
X18799Y50984D02*
X20965D01*
X19882Y49902D02*
Y52067D01*
X21850Y47244D02*
Y54724D01*
X17913D02*
X21850D01*
X17913Y47244D02*
X21850D01*
X17913D02*
Y54724D01*
X18012Y20768D02*
X20177D01*
X19094Y19685D02*
Y21850D01*
X21063Y17028D02*
Y24508D01*
X17126D02*
X21063D01*
X17126Y17028D02*
X21063D01*
X17126D02*
Y24508D01*
X27264Y140748D02*
X29429D01*
X32087Y138779D02*
Y142717D01*
X28346Y139665D02*
Y141831D01*
X24606Y142717D02*
X32087D01*
X24606Y138779D02*
X32087D01*
X24606D02*
Y142717D01*
X29724Y94587D02*
X31890D01*
X34547Y92618D02*
Y96555D01*
X30807Y93504D02*
Y95669D01*
X27067Y96555D02*
X34547D01*
X27067Y92618D02*
X34547D01*
X27067D02*
Y96555D01*
X420177Y241732D02*
X422342D01*
X425000Y239764D02*
Y243701D01*
X421260Y240650D02*
Y242815D01*
X417520Y243701D02*
X425000D01*
X417520Y239764D02*
X425000D01*
X417520D02*
Y243701D01*
X429823Y241732D02*
X433563D01*
X431693Y239862D02*
Y243602D01*
X438693Y238779D02*
Y244685D01*
X425787D02*
X438693D01*
X425787Y238779D02*
X438693D01*
X425787D02*
Y244685D01*
X420177Y258366D02*
X422342D01*
X425000Y256398D02*
Y260335D01*
X421260Y257283D02*
Y259449D01*
X417520Y260335D02*
X425000D01*
X417520Y256398D02*
X425000D01*
X417520D02*
Y260335D01*
X420177Y267028D02*
X422342D01*
X425000Y265059D02*
Y268996D01*
X421260Y265945D02*
Y268110D01*
X417520Y268996D02*
X425000D01*
X417520Y265059D02*
X425000D01*
X417520D02*
Y268996D01*
X420177Y232480D02*
X422342D01*
X425000Y230512D02*
Y234449D01*
X421260Y231398D02*
Y233563D01*
X417520Y234449D02*
X425000D01*
X417520Y230512D02*
X425000D01*
X417520D02*
Y234449D01*
X420177Y249803D02*
X422342D01*
X425000Y247835D02*
Y251772D01*
X421260Y248721D02*
Y250886D01*
X417520Y251772D02*
X425000D01*
X417520Y247835D02*
X425000D01*
X417520D02*
Y251772D01*
X429823Y258268D02*
X433563D01*
X431693Y256398D02*
Y260138D01*
X438693Y255315D02*
Y261221D01*
X425787D02*
X438693D01*
X425787Y255315D02*
X438693D01*
X425787D02*
Y261221D01*
X429823Y266929D02*
X433563D01*
X431693Y265059D02*
Y268799D01*
X438693Y263976D02*
Y269882D01*
X425787D02*
X438693D01*
X425787Y263976D02*
X438693D01*
X425787D02*
Y269882D01*
X429823Y232480D02*
X433563D01*
X431693Y230610D02*
Y234350D01*
X438693Y229528D02*
Y235433D01*
X425787D02*
X438693D01*
X425787Y229528D02*
X438693D01*
X425787D02*
Y235433D01*
X429823Y249803D02*
X433563D01*
X431693Y247933D02*
Y251673D01*
X438693Y246850D02*
Y252756D01*
X425787D02*
X438693D01*
X425787Y246850D02*
X438693D01*
X425787D02*
Y252756D01*
X392295Y39957D02*
Y138776D01*
X317098D02*
X392295D01*
X317098Y39957D02*
X392295D01*
X317098D02*
Y138776D01*
X374902Y379528D02*
X377067D01*
X375984Y378445D02*
Y380610D01*
X377953Y375787D02*
Y383268D01*
X374016D02*
X377953D01*
X374016Y375787D02*
X377953D01*
X374016D02*
Y383268D01*
X352559Y375689D02*
X354724D01*
X353642Y374606D02*
Y376772D01*
X355610Y371949D02*
Y379429D01*
X351673D02*
X355610D01*
X351673Y371949D02*
X355610D01*
X351673D02*
Y379429D01*
X348032Y378051D02*
X350197D01*
X349114Y376969D02*
Y379134D01*
X351083Y374311D02*
Y381791D01*
X347146D02*
X351083D01*
X347146Y374311D02*
X351083D01*
X347146D02*
Y381791D01*
X374902Y371063D02*
X377067D01*
X375984Y369980D02*
Y372146D01*
X377953Y367323D02*
Y374803D01*
X374016D02*
X377953D01*
X374016Y367323D02*
X377953D01*
X374016D02*
Y374803D01*
X315650Y426378D02*
X317815D01*
X320473Y424409D02*
Y428346D01*
X316732Y425295D02*
Y427460D01*
X312992Y428346D02*
X320473D01*
X312992Y424409D02*
X320473D01*
X312992D02*
Y428346D01*
X323622Y444488D02*
X325787D01*
X324705Y443406D02*
Y445571D01*
X326673Y440748D02*
Y448228D01*
X322736D02*
X326673D01*
X322736Y440748D02*
X326673D01*
X322736D02*
Y448228D01*
X370768Y444095D02*
X372933D01*
X371850Y443012D02*
Y445177D01*
X373819Y440354D02*
Y447835D01*
X369882D02*
X373819D01*
X369882Y440354D02*
X373819D01*
X369882D02*
Y447835D01*
X352854Y424902D02*
X355020D01*
X357677Y422933D02*
Y426870D01*
X353937Y423819D02*
Y425984D01*
X350197Y426870D02*
X357677D01*
X350197Y422933D02*
X357677D01*
X350197D02*
Y426870D01*
X330906Y379528D02*
X333071D01*
X333957Y375787D02*
Y383268D01*
X331988Y378445D02*
Y380610D01*
X330020Y383268D02*
X333957D01*
X330020Y375787D02*
X333957D01*
X330020D02*
Y383268D01*
X340650Y416732D02*
X342815D01*
X341732Y415650D02*
Y417815D01*
X343701Y412992D02*
Y420472D01*
X339764D02*
X343701D01*
X339764Y412992D02*
X343701D01*
X339764D02*
Y420472D01*
X328248Y430709D02*
X330413D01*
X333071Y428740D02*
Y432677D01*
X329331Y429626D02*
Y431791D01*
X325590Y432677D02*
X333071D01*
X325590Y428740D02*
X333071D01*
X325590D02*
Y432677D01*
X347736Y451279D02*
X349902D01*
X348819Y450197D02*
Y452362D01*
X350787Y447539D02*
Y455020D01*
X346850D02*
X350787D01*
X346850Y447539D02*
X350787D01*
X346850D02*
Y455020D01*
X366535Y450787D02*
X368701D01*
X371358Y448819D02*
Y452756D01*
X367618Y449705D02*
Y451870D01*
X363878Y452756D02*
X371358D01*
X363878Y448819D02*
X371358D01*
X363878D02*
Y452756D01*
X330217Y452756D02*
X332382D01*
X335039Y450787D02*
Y454725D01*
X331299Y451673D02*
Y453838D01*
X327559Y454725D02*
X335039D01*
X327559Y450787D02*
X335039D01*
X327559D02*
Y454725D01*
X384055Y406398D02*
X386220D01*
X388878Y404429D02*
Y408366D01*
X385138Y405315D02*
Y407480D01*
X381398Y408366D02*
X388878D01*
X381398Y404429D02*
X388878D01*
X381398D02*
Y408366D01*
X391732Y425394D02*
X393898D01*
X396555Y423425D02*
Y427362D01*
X392815Y424311D02*
Y426476D01*
X389075Y427362D02*
X396555D01*
X389075Y423425D02*
X396555D01*
X389075D02*
Y427362D01*
X342126Y446161D02*
X344291D01*
X343209Y445079D02*
Y447244D01*
X345177Y442421D02*
Y449902D01*
X341240D02*
X345177D01*
X341240Y442421D02*
X345177D01*
X341240D02*
Y449902D01*
X351969Y446260D02*
X354134D01*
X353051Y445177D02*
Y447342D01*
X355020Y442520D02*
Y450000D01*
X351083D02*
X355020D01*
X351083Y442520D02*
X355020D01*
X351083D02*
Y450000D01*
X337795Y446161D02*
X339961D01*
X338878Y445079D02*
Y447244D01*
X340846Y442421D02*
Y449902D01*
X336909D02*
X340846D01*
X336909Y442421D02*
X340846D01*
X336909D02*
Y449902D01*
X383268Y425394D02*
X385433D01*
X388091Y423425D02*
Y427362D01*
X384350Y424311D02*
Y426476D01*
X380610Y427362D02*
X388091D01*
X380610Y423425D02*
X388091D01*
X380610D02*
Y427362D01*
X391732Y429823D02*
X393898D01*
X396555Y427854D02*
Y431791D01*
X392815Y428740D02*
Y430905D01*
X389075Y431791D02*
X396555D01*
X389075Y427854D02*
X396555D01*
X389075D02*
Y431791D01*
X347835Y439173D02*
X350000D01*
X352658Y437205D02*
Y441142D01*
X348917Y438091D02*
Y440256D01*
X345177Y441142D02*
X352658D01*
X345177Y437205D02*
X352658D01*
X345177D02*
Y441142D01*
X372736Y446457D02*
X374902D01*
X373819Y445374D02*
Y447539D01*
X375787Y442717D02*
Y450197D01*
X371850D02*
X375787D01*
X371850Y442717D02*
X375787D01*
X371850D02*
Y450197D01*
X361122Y426772D02*
X363287D01*
X365945Y424803D02*
Y428740D01*
X362205Y425689D02*
Y427854D01*
X358465Y428740D02*
X365945D01*
X358465Y424803D02*
X365945D01*
X358465D02*
Y428740D01*
X366929Y455217D02*
X369094D01*
X371752Y453248D02*
Y457185D01*
X368012Y454134D02*
Y456299D01*
X364272Y457185D02*
X371752D01*
X364272Y453248D02*
X371752D01*
X364272D02*
Y457185D01*
X363681Y441929D02*
X365846D01*
X364764Y440846D02*
Y443012D01*
X366732Y438189D02*
Y445669D01*
X362795D02*
X366732D01*
X362795Y438189D02*
X366732D01*
X362795D02*
Y445669D01*
X262894Y220965D02*
X265059D01*
X263976Y219882D02*
Y222047D01*
X265945Y217224D02*
Y224705D01*
X262008D02*
X265945D01*
X262008Y217224D02*
X265945D01*
X262008D02*
Y224705D01*
X267126Y220965D02*
X269291D01*
X268209Y219882D02*
Y222047D01*
X270177Y217224D02*
Y224705D01*
X266240D02*
X270177D01*
X266240Y217224D02*
X270177D01*
X266240D02*
Y224705D01*
X378150Y249508D02*
X380315D01*
X382973Y247539D02*
Y251476D01*
X379232Y248425D02*
Y250590D01*
X375492Y251476D02*
X382973D01*
X375492Y247539D02*
X382973D01*
X375492D02*
Y251476D01*
X195374Y238189D02*
X197539D01*
X200197Y236220D02*
Y240157D01*
X196457Y237106D02*
Y239272D01*
X192717Y240157D02*
X200197D01*
X192717Y236220D02*
X200197D01*
X192717D02*
Y240157D01*
X346063Y193405D02*
X348228D01*
X350886Y191437D02*
Y195374D01*
X347146Y192323D02*
Y194488D01*
X343406Y195374D02*
X350886D01*
X343406Y191437D02*
X350886D01*
X343406D02*
Y195374D01*
X346063Y210630D02*
X348228D01*
X350886Y208662D02*
Y212598D01*
X347146Y209547D02*
Y211713D01*
X343406Y212598D02*
X350886D01*
X343406Y208662D02*
X350886D01*
X343406D02*
Y212598D01*
X283760Y202559D02*
X285925D01*
X284842Y201477D02*
Y203642D01*
X286811Y198819D02*
Y206299D01*
X282874D02*
X286811D01*
X282874Y198819D02*
X286811D01*
X282874D02*
Y206299D01*
X239961Y202264D02*
X242126D01*
X241043Y201181D02*
Y203346D01*
X243012Y198524D02*
Y206004D01*
X239075D02*
X243012D01*
X239075Y198524D02*
X243012D01*
X239075D02*
Y206004D01*
X266831Y202559D02*
X268996D01*
X267913Y201477D02*
Y203642D01*
X269882Y198819D02*
Y206299D01*
X265945D02*
X269882D01*
X265945Y198819D02*
X269882D01*
X265945D02*
Y206299D01*
X249311Y202461D02*
X251476D01*
X250394Y201378D02*
Y203543D01*
X252362Y198720D02*
Y206201D01*
X248425D02*
X252362D01*
X248425Y198720D02*
X252362D01*
X248425D02*
Y206201D01*
X244488Y202264D02*
X246654D01*
X245571Y201181D02*
Y203346D01*
X247539Y198524D02*
Y206004D01*
X243602D02*
X247539D01*
X243602Y198524D02*
X247539D01*
X243602D02*
Y206004D01*
X234449Y244981D02*
X236614D01*
X235531Y243898D02*
Y246063D01*
X237500Y241240D02*
Y248721D01*
X233563D02*
X237500D01*
X233563Y241240D02*
X237500D01*
X233563D02*
Y248721D01*
X241240Y301378D02*
X243406D01*
X242323Y300295D02*
Y302461D01*
X244291Y297638D02*
Y305118D01*
X240354D02*
X244291D01*
X240354Y297638D02*
X244291D01*
X240354D02*
Y305118D01*
X241043Y309154D02*
X243209D01*
X242126Y308071D02*
Y310236D01*
X244095Y305414D02*
Y312894D01*
X240158D02*
X244095D01*
X240158Y305414D02*
X244095D01*
X240158D02*
Y312894D01*
X82579Y337599D02*
X84744D01*
X87402Y335630D02*
Y339567D01*
X83661Y336516D02*
Y338681D01*
X79921Y339567D02*
X87402D01*
X79921Y335630D02*
X87402D01*
X79921D02*
Y339567D01*
X97638Y420374D02*
X99803D01*
X98721Y419291D02*
Y421457D01*
X100689Y416634D02*
Y424114D01*
X96752D02*
X100689D01*
X96752Y416634D02*
X100689D01*
X96752D02*
Y424114D01*
X45374Y336811D02*
X47539D01*
X50197Y334842D02*
Y338779D01*
X46457Y335729D02*
Y337894D01*
X42717Y338779D02*
X50197D01*
X42717Y334842D02*
X50197D01*
X42717D02*
Y338779D01*
X124606Y402756D02*
X126772D01*
X125689Y401673D02*
Y403839D01*
X127658Y399016D02*
Y406496D01*
X123721D02*
X127658D01*
X123721Y399016D02*
X127658D01*
X123721D02*
Y406496D01*
X28839Y351477D02*
X31004D01*
X33661Y349508D02*
Y353445D01*
X29921Y350394D02*
Y352559D01*
X26181Y353445D02*
X33661D01*
X26181Y349508D02*
X33661D01*
X26181D02*
Y353445D01*
X93602Y343898D02*
X95768D01*
X98425Y341929D02*
Y345866D01*
X94685Y342815D02*
Y344980D01*
X90945Y345866D02*
X98425D01*
X90945Y341929D02*
X98425D01*
X90945D02*
Y345866D01*
X93701Y339666D02*
X95866D01*
X98524Y337697D02*
Y341634D01*
X94784Y338583D02*
Y340748D01*
X91043Y341634D02*
X98524D01*
X91043Y337697D02*
X98524D01*
X91043D02*
Y341634D01*
X247047Y390846D02*
X249213D01*
X251870Y388878D02*
Y392815D01*
X248130Y389764D02*
Y391929D01*
X244390Y392815D02*
X251870D01*
X244390Y388878D02*
X251870D01*
X244390D02*
Y392815D01*
X247343Y370177D02*
X249508D01*
X252165Y368209D02*
Y372146D01*
X248425Y369095D02*
Y371260D01*
X244685Y372146D02*
X252165D01*
X244685Y368209D02*
X252165D01*
X244685D02*
Y372146D01*
X203295Y418508D02*
X205461D01*
X204378Y417425D02*
Y419591D01*
X206346Y414768D02*
Y422248D01*
X202409D02*
X206346D01*
X202409Y414768D02*
X206346D01*
X202409D02*
Y422248D01*
X194827Y406894D02*
X196992D01*
X195910Y405811D02*
Y407976D01*
X197878Y403154D02*
Y410634D01*
X193941D02*
X197878D01*
X193941Y403154D02*
X197878D01*
X193941D02*
Y410634D01*
X194783Y414764D02*
X196949D01*
X195866Y413681D02*
Y415846D01*
X197835Y411024D02*
Y418504D01*
X193897D02*
X197835D01*
X193897Y411024D02*
X197835D01*
X193897D02*
Y418504D01*
X272047Y158071D02*
X274213D01*
X273130Y156988D02*
Y159153D01*
X275098Y154331D02*
Y161811D01*
X271161D02*
X275098D01*
X271161Y154331D02*
X275098D01*
X271161D02*
Y161811D01*
X280512Y166535D02*
X282677D01*
X285335Y164567D02*
Y168504D01*
X281594Y165453D02*
Y167618D01*
X277854Y168504D02*
X285335D01*
X277854Y164567D02*
X285335D01*
X277854D02*
Y168504D01*
X80118Y182874D02*
X82284D01*
X81201Y181791D02*
Y183957D01*
X83170Y179134D02*
Y186614D01*
X79233D02*
X83170D01*
X79233Y179134D02*
X83170D01*
X79233D02*
Y186614D01*
X132677Y159449D02*
X134842D01*
X137500Y157480D02*
Y161417D01*
X133760Y158366D02*
Y160531D01*
X130020Y161417D02*
X137500D01*
X130020Y157480D02*
X137500D01*
X130020D02*
Y161417D01*
X78248Y180020D02*
X80413D01*
X83071Y178051D02*
Y181988D01*
X79331Y178937D02*
Y181102D01*
X75590Y181988D02*
X83071D01*
X75590Y178051D02*
X83071D01*
X75590D02*
Y181988D01*
X90453Y188779D02*
X92618D01*
X91535Y187697D02*
Y189862D01*
X93504Y185039D02*
Y192520D01*
X89567D02*
X93504D01*
X89567Y185039D02*
X93504D01*
X89567D02*
Y192520D01*
X78248Y175394D02*
X80413D01*
X83071Y173425D02*
Y177362D01*
X79331Y174311D02*
Y176476D01*
X75590Y177362D02*
X83071D01*
X75590Y173425D02*
X83071D01*
X75590D02*
Y177362D01*
X62894Y187205D02*
X65059D01*
X63976Y186122D02*
Y188287D01*
X65945Y183465D02*
Y190945D01*
X62008D02*
X65945D01*
X62008Y183465D02*
X65945D01*
X62008D02*
Y190945D01*
X110039Y192717D02*
X112205D01*
X114862Y190748D02*
Y194685D01*
X111122Y191634D02*
Y193799D01*
X107382Y194685D02*
X114862D01*
X107382Y190748D02*
X114862D01*
X107382D02*
Y194685D01*
X86024Y188779D02*
X88189D01*
X87106Y187697D02*
Y189862D01*
X89075Y185039D02*
Y192520D01*
X85138D02*
X89075D01*
X85138Y185039D02*
X89075D01*
X85138D02*
Y192520D01*
X122146Y158169D02*
X124311D01*
X123228Y157087D02*
Y159252D01*
X125197Y154429D02*
Y161909D01*
X121260D02*
X125197D01*
X121260Y154429D02*
X125197D01*
X121260D02*
Y161909D01*
X75197Y170965D02*
X77362D01*
X76280Y169882D02*
Y172047D01*
X78248Y167224D02*
Y174705D01*
X74311D02*
X78248D01*
X74311Y167224D02*
X78248D01*
X74311D02*
Y174705D01*
X75197Y178740D02*
X77362D01*
X76280Y177657D02*
Y179823D01*
X78248Y175000D02*
Y182480D01*
X74311D02*
X78248D01*
X74311Y175000D02*
X78248D01*
X74311D02*
Y182480D01*
X367028Y280610D02*
X369193D01*
X368110Y279528D02*
Y281693D01*
X370079Y276870D02*
Y284350D01*
X366142D02*
X370079D01*
X366142Y276870D02*
X370079D01*
X366142D02*
Y284350D01*
X359843Y274508D02*
X362008D01*
X364665Y272539D02*
Y276476D01*
X360925Y273425D02*
Y275590D01*
X357185Y276476D02*
X364665D01*
X357185Y272539D02*
X364665D01*
X357185D02*
Y276476D01*
X156693Y229331D02*
X158858D01*
X157776Y228248D02*
Y230413D01*
X159744Y225590D02*
Y233071D01*
X155807D02*
X159744D01*
X155807Y225590D02*
X159744D01*
X155807D02*
Y233071D01*
X160532Y225787D02*
X162697D01*
X165354Y223819D02*
Y227756D01*
X161614Y224705D02*
Y226870D01*
X157874Y227756D02*
X165354D01*
X157874Y223819D02*
X165354D01*
X157874D02*
Y227756D01*
X156693Y221457D02*
X158858D01*
X157776Y220374D02*
Y222539D01*
X159744Y217717D02*
Y225197D01*
X155807D02*
X159744D01*
X155807Y217717D02*
X159744D01*
X155807D02*
Y225197D01*
X142028Y225590D02*
X144193D01*
X143110Y224508D02*
Y226673D01*
X145079Y221850D02*
Y229331D01*
X141142D02*
X145079D01*
X141142Y221850D02*
X145079D01*
X141142D02*
Y229331D01*
X125394Y206791D02*
X127559D01*
X126476Y205709D02*
Y207874D01*
X128445Y203051D02*
Y210531D01*
X124508D02*
X128445D01*
X124508Y203051D02*
X128445D01*
X124508D02*
Y210531D01*
X79528Y209252D02*
X81693D01*
X80610Y208169D02*
Y210335D01*
X82579Y205512D02*
Y212992D01*
X78642D02*
X82579D01*
X78642Y205512D02*
X82579D01*
X78642D02*
Y212992D01*
X130020Y215059D02*
X132185D01*
X131102Y213977D02*
Y216142D01*
X133071Y211319D02*
Y218799D01*
X129134D02*
X133071D01*
X129134Y211319D02*
X133071D01*
X129134D02*
Y218799D01*
X121063Y210728D02*
X123228D01*
X122146Y209646D02*
Y211811D01*
X124114Y206988D02*
Y214469D01*
X120177D02*
X124114D01*
X120177Y206988D02*
X124114D01*
X120177D02*
Y214469D01*
X125394Y214764D02*
X127559D01*
X126476Y213681D02*
Y215846D01*
X128445Y211024D02*
Y218504D01*
X124508D02*
X128445D01*
X124508Y211024D02*
X128445D01*
X124508D02*
Y218504D01*
X122933Y235728D02*
X125098D01*
X124016Y234646D02*
Y236811D01*
X125984Y231988D02*
Y239469D01*
X122047D02*
X125984D01*
X122047Y231988D02*
X125984D01*
X122047D02*
Y239469D01*
X127165Y235728D02*
X129331D01*
X128248Y234646D02*
Y236811D01*
X130216Y231988D02*
Y239469D01*
X126279D02*
X130216D01*
X126279Y231988D02*
X130216D01*
X126279D02*
Y239469D01*
X124803Y229724D02*
X126968D01*
X129626Y227756D02*
Y231693D01*
X125886Y228642D02*
Y230807D01*
X122146Y231693D02*
X129626D01*
X122146Y227756D02*
X129626D01*
X122146D02*
Y231693D01*
X135728Y236614D02*
X137894D01*
X136811Y235532D02*
Y237697D01*
X138780Y232874D02*
Y240354D01*
X134843D02*
X138780D01*
X134843Y232874D02*
X138780D01*
X134843D02*
Y240354D01*
X58268Y221161D02*
X60433D01*
X63090Y219193D02*
Y223130D01*
X59350Y220079D02*
Y222244D01*
X55610Y223130D02*
X63090D01*
X55610Y219193D02*
X63090D01*
X55610D02*
Y223130D01*
X28248Y231693D02*
X30413D01*
X33071Y229724D02*
Y233661D01*
X29331Y230610D02*
Y232775D01*
X25591Y233661D02*
X33071D01*
X25591Y229724D02*
X33071D01*
X25591D02*
Y233661D01*
X64961Y229232D02*
X67126D01*
X66043Y228150D02*
Y230315D01*
X68012Y225492D02*
Y232973D01*
X64075D02*
X68012D01*
X64075Y225492D02*
X68012D01*
X64075D02*
Y232973D01*
X52165Y224114D02*
X54331D01*
X53248Y223032D02*
Y225197D01*
X55216Y220374D02*
Y227854D01*
X51279D02*
X55216D01*
X51279Y220374D02*
X55216D01*
X51279D02*
Y227854D01*
X58268Y225886D02*
X60433D01*
X63090Y223917D02*
Y227854D01*
X59350Y224803D02*
Y226968D01*
X55610Y227854D02*
X63090D01*
X55610Y223917D02*
X63090D01*
X55610D02*
Y227854D01*
X57677Y212500D02*
X59842D01*
X58760Y211417D02*
Y213583D01*
X60728Y208760D02*
Y216240D01*
X56791D02*
X60728D01*
X56791Y208760D02*
X60728D01*
X56791D02*
Y216240D01*
X62106Y216240D02*
X64272D01*
X63189Y215158D02*
Y217323D01*
X65157Y212500D02*
Y219981D01*
X61220D02*
X65157D01*
X61220Y212500D02*
X65157D01*
X61220D02*
Y219981D01*
X62205Y208268D02*
X64370D01*
X63287Y207185D02*
Y209350D01*
X65256Y204528D02*
Y212008D01*
X61319D02*
X65256D01*
X61319Y204528D02*
X65256D01*
X61319D02*
Y212008D01*
X68602Y211614D02*
X70768D01*
X73425Y209646D02*
Y213583D01*
X69685Y210532D02*
Y212697D01*
X65945Y213583D02*
X73425D01*
X65945Y209646D02*
X73425D01*
X65945D02*
Y213583D01*
X54725Y246260D02*
X56890D01*
X55807Y245177D02*
Y247342D01*
X57775Y242520D02*
Y250000D01*
X53838D02*
X57775D01*
X53838Y242520D02*
X57775D01*
X53838D02*
Y250000D01*
X48524Y240158D02*
X50689D01*
X53347Y238189D02*
Y242126D01*
X49606Y239075D02*
Y241240D01*
X45866Y242126D02*
X53347D01*
X45866Y238189D02*
X53347D01*
X45866D02*
Y242126D01*
X28248Y236024D02*
X30413D01*
X33071Y234055D02*
Y237992D01*
X29331Y234941D02*
Y237106D01*
X25591Y237992D02*
X33071D01*
X25591Y234055D02*
X33071D01*
X25591D02*
Y237992D01*
X56398Y240158D02*
X58563D01*
X61221Y238189D02*
Y242126D01*
X57480Y239075D02*
Y241240D01*
X53740Y242126D02*
X61221D01*
X53740Y238189D02*
X61221D01*
X53740D02*
Y242126D01*
X48720Y255610D02*
X50886D01*
X49803Y254528D02*
Y256693D01*
X51772Y251870D02*
Y259350D01*
X47835D02*
X51772D01*
X47835Y251870D02*
X51772D01*
X47835D02*
Y259350D01*
X28150Y251181D02*
X30315D01*
X32972Y249213D02*
Y253150D01*
X29232Y250098D02*
Y252264D01*
X25492Y253150D02*
X32972D01*
X25492Y249213D02*
X32972D01*
X25492D02*
Y253150D01*
X64764Y270669D02*
X66929D01*
X69587Y268701D02*
Y272638D01*
X65847Y269587D02*
Y271752D01*
X62106Y272638D02*
X69587D01*
X62106Y268701D02*
X69587D01*
X62106D02*
Y272638D01*
X68898Y266043D02*
X71063D01*
X73721Y264075D02*
Y268012D01*
X69980Y264961D02*
Y267126D01*
X66240Y268012D02*
X73721D01*
X66240Y264075D02*
X73721D01*
X66240D02*
Y268012D01*
X32185Y302461D02*
X34350D01*
X33268Y301378D02*
Y303543D01*
X35236Y298720D02*
Y306201D01*
X31299D02*
X35236D01*
X31299Y298720D02*
X35236D01*
X31299D02*
Y306201D01*
X62894Y263386D02*
X65059D01*
X63976Y262303D02*
Y264468D01*
X65945Y259646D02*
Y267126D01*
X62008D02*
X65945D01*
X62008Y259646D02*
X65945D01*
X62008D02*
Y267126D01*
X240846Y404626D02*
X243012D01*
X245669Y402658D02*
Y406595D01*
X241929Y403543D02*
Y405709D01*
X238189Y406595D02*
X245669D01*
X238189Y402658D02*
X245669D01*
X238189D02*
Y406595D01*
X294980Y71063D02*
X298720D01*
X296850Y69193D02*
Y72933D01*
X302756Y68110D02*
Y74016D01*
X290945D02*
X302756D01*
X290945Y68110D02*
X302756D01*
X290945D02*
Y74016D01*
X294980Y63484D02*
X298720D01*
X296850Y61614D02*
Y65354D01*
X302756Y60532D02*
Y66437D01*
X290945D02*
X302756D01*
X290945Y60532D02*
X302756D01*
X290945D02*
Y66437D01*
X341732Y46063D02*
X345472D01*
X343602Y44193D02*
Y47933D01*
X346555Y40157D02*
Y51969D01*
X340650D02*
X346555D01*
X340650Y40157D02*
X346555D01*
X340650D02*
Y51969D01*
X354331Y45866D02*
X358071D01*
X356201Y43996D02*
Y47736D01*
X359154Y39961D02*
Y51772D01*
X353248D02*
X359154D01*
X353248Y39961D02*
X359154D01*
X353248D02*
Y51772D01*
X368012Y45866D02*
X371752D01*
X369882Y43996D02*
Y47736D01*
X372835Y39961D02*
Y51772D01*
X366929D02*
X372835D01*
X366929Y39961D02*
X372835D01*
X366929D02*
Y51772D01*
X380709Y45866D02*
X384449D01*
X382579Y43996D02*
Y47736D01*
X385532Y39961D02*
Y51772D01*
X379626D02*
X385532D01*
X379626Y39961D02*
X385532D01*
X379626D02*
Y51772D01*
X335335Y46063D02*
X339075D01*
X337205Y44193D02*
Y47933D01*
X340158Y40157D02*
Y51969D01*
X334252D02*
X340158D01*
X334252Y40157D02*
X340158D01*
X334252D02*
Y51969D01*
X348032Y45866D02*
X351772D01*
X349902Y43996D02*
Y47736D01*
X352854Y39961D02*
Y51772D01*
X346949D02*
X352854D01*
X346949Y39961D02*
X352854D01*
X346949D02*
Y51772D01*
X361614Y45866D02*
X365354D01*
X363484Y43996D02*
Y47736D01*
X366437Y39961D02*
Y51772D01*
X360531D02*
X366437D01*
X360531Y39961D02*
X366437D01*
X360531D02*
Y51772D01*
X374213Y45866D02*
X377953D01*
X376083Y43996D02*
Y47736D01*
X379035Y39961D02*
Y51772D01*
X373130D02*
X379035D01*
X373130Y39961D02*
X379035D01*
X373130D02*
Y51772D01*
X332677Y94390D02*
X336417D01*
X334547Y92520D02*
Y96260D01*
X337500Y88484D02*
Y100295D01*
X331594D02*
X337500D01*
X331594Y88484D02*
X337500D01*
X331594D02*
Y100295D01*
X321162Y35433D02*
X323327D01*
X322244Y34351D02*
Y36516D01*
X324213Y31693D02*
Y39173D01*
X320275D02*
X324213D01*
X320275Y31693D02*
X324213D01*
X320275D02*
Y39173D01*
X363878Y147441D02*
X367618D01*
X365748Y145571D02*
Y149311D01*
X368701Y141535D02*
Y153347D01*
X362795D02*
X368701D01*
X362795Y141535D02*
X368701D01*
X362795D02*
Y153347D01*
X356988Y147441D02*
X360728D01*
X358858Y145571D02*
Y149311D01*
X361811Y141535D02*
Y153347D01*
X355906D02*
X361811D01*
X355906Y141535D02*
X361811D01*
X355906D02*
Y153347D01*
X349902Y147343D02*
X353642D01*
X351772Y145473D02*
Y149213D01*
X354725Y141437D02*
Y153248D01*
X348819D02*
X354725D01*
X348819Y141437D02*
X354725D01*
X348819D02*
Y153248D01*
X342815Y147539D02*
X346555D01*
X344685Y145669D02*
Y149409D01*
X347638Y141634D02*
Y153445D01*
X341732D02*
X347638D01*
X341732Y141634D02*
X347638D01*
X341732D02*
Y153445D01*
X335532Y67225D02*
X339272D01*
X337402Y65355D02*
Y69095D01*
X343307Y64272D02*
Y70177D01*
X331496D02*
X343307D01*
X331496Y64272D02*
X343307D01*
X331496D02*
Y70177D01*
X370866Y147539D02*
X374606D01*
X372736Y145669D02*
Y149409D01*
X375689Y141634D02*
Y153445D01*
X369783D02*
X375689D01*
X369783Y141634D02*
X375689D01*
X369783D02*
Y153445D01*
X379528Y147343D02*
X383268D01*
X381398Y145473D02*
Y149213D01*
X384350Y141437D02*
Y153248D01*
X378445D02*
X384350D01*
X378445Y141437D02*
X384350D01*
X378445D02*
Y153248D01*
X335532Y73425D02*
X339272D01*
X337402Y71555D02*
Y75295D01*
X343307Y70473D02*
Y76378D01*
X331496D02*
X343307D01*
X331496Y70473D02*
X343307D01*
X331496D02*
Y76378D01*
X397244Y123229D02*
X400984D01*
X399114Y121359D02*
Y125099D01*
X405020Y120276D02*
Y126181D01*
X393209D02*
X405020D01*
X393209Y120276D02*
X405020D01*
X393209D02*
Y126181D01*
X335630Y60630D02*
X339370D01*
X337500Y58760D02*
Y62500D01*
X343406Y57677D02*
Y63583D01*
X331594D02*
X343406D01*
X331594Y57677D02*
X343406D01*
X331594D02*
Y63583D01*
X395571Y87106D02*
X399311D01*
X397441Y85236D02*
Y88976D01*
X403347Y84154D02*
Y90059D01*
X391535D02*
X403347D01*
X391535Y84154D02*
X403347D01*
X391535D02*
Y90059D01*
X342323Y120177D02*
X346063D01*
X344193Y118307D02*
Y122047D01*
X350098Y117224D02*
Y123130D01*
X338287D02*
X350098D01*
X338287Y117224D02*
X350098D01*
X338287D02*
Y123130D01*
X395669Y80512D02*
X399409D01*
X397539Y78642D02*
Y82382D01*
X403445Y77559D02*
Y83465D01*
X391634D02*
X403445D01*
X391634Y77559D02*
X403445D01*
X391634D02*
Y83465D01*
X386122Y134055D02*
X389862D01*
X387992Y132185D02*
Y135925D01*
X393898Y131102D02*
Y137008D01*
X382086D02*
X393898D01*
X382086Y131102D02*
X393898D01*
X382086D02*
Y137008D01*
X395768Y73524D02*
X399508D01*
X397638Y71654D02*
Y75394D01*
X403543Y70571D02*
Y76477D01*
X391732D02*
X403543D01*
X391732Y70571D02*
X403543D01*
X391732D02*
Y76477D01*
X395965Y53543D02*
X399705D01*
X397835Y51674D02*
Y55414D01*
X403740Y50591D02*
Y56496D01*
X391929D02*
X403740D01*
X391929Y50591D02*
X403740D01*
X391929D02*
Y56496D01*
X396850Y78248D02*
X400591D01*
X398721Y76378D02*
Y80118D01*
X404626Y75295D02*
Y81201D01*
X392815D02*
X404626D01*
X392815Y75295D02*
X404626D01*
X392815D02*
Y81201D01*
X396850Y71358D02*
X400591D01*
X398721Y69488D02*
Y73228D01*
X404626Y68406D02*
Y74311D01*
X392815D02*
X404626D01*
X392815Y68406D02*
X404626D01*
X392815D02*
Y74311D01*
X396850Y64567D02*
X400591D01*
X398721Y62697D02*
Y66437D01*
X404626Y61614D02*
Y67520D01*
X392815D02*
X404626D01*
X392815Y61614D02*
X404626D01*
X392815D02*
Y67520D01*
X395866Y66732D02*
X399606D01*
X397736Y64862D02*
Y68602D01*
X403642Y63780D02*
Y69685D01*
X391831D02*
X403642D01*
X391831Y63780D02*
X403642D01*
X391831D02*
Y69685D01*
X395965Y60040D02*
X399705D01*
X397835Y58170D02*
Y61910D01*
X403740Y57087D02*
Y62992D01*
X391929D02*
X403740D01*
X391929Y57087D02*
X403740D01*
X391929D02*
Y62992D01*
X306496Y119685D02*
X310236D01*
X308366Y117815D02*
Y121555D01*
X314272Y116732D02*
Y122638D01*
X302461D02*
X314272D01*
X302461Y116732D02*
X314272D01*
X302461D02*
Y122638D01*
X306299Y112795D02*
X310039D01*
X308169Y110925D02*
Y114665D01*
X314075Y109843D02*
Y115748D01*
X302264D02*
X314075D01*
X302264Y109843D02*
X314075D01*
X302264D02*
Y115748D01*
X396850Y57677D02*
X400591D01*
X398721Y55807D02*
Y59547D01*
X404626Y54725D02*
Y60630D01*
X392815D02*
X404626D01*
X392815Y54725D02*
X404626D01*
X392815D02*
Y60630D01*
X306398Y106004D02*
X310138D01*
X308268Y104134D02*
Y107874D01*
X314173Y103051D02*
Y108957D01*
X302362D02*
X314173D01*
X302362Y103051D02*
X314173D01*
X302362D02*
Y108957D01*
X306398Y99016D02*
X310138D01*
X308268Y97146D02*
Y100886D01*
X314173Y96063D02*
Y101969D01*
X302362D02*
X314173D01*
X302362Y96063D02*
X314173D01*
X302362D02*
Y101969D01*
X306791Y80610D02*
X310531D01*
X308662Y78740D02*
Y82480D01*
X314567Y77658D02*
Y83563D01*
X302756D02*
X314567D01*
X302756Y77658D02*
X314567D01*
X302756D02*
Y83563D01*
X335433Y147736D02*
X339173D01*
X337303Y145866D02*
Y149606D01*
X340256Y141831D02*
Y153642D01*
X334350D02*
X340256D01*
X334350Y141831D02*
X340256D01*
X334350D02*
Y153642D01*
X306398Y91536D02*
X310138D01*
X308268Y89666D02*
Y93406D01*
X314173Y88583D02*
Y94488D01*
X302362D02*
X314173D01*
X302362Y88583D02*
X314173D01*
X302362D02*
Y94488D01*
X396949Y110335D02*
X400689D01*
X398819Y108465D02*
Y112205D01*
X404725Y107382D02*
Y113288D01*
X392913D02*
X404725D01*
X392913Y107382D02*
X404725D01*
X392913D02*
Y113288D01*
X332677Y107284D02*
X336417D01*
X334547Y105414D02*
Y109154D01*
X337500Y101378D02*
Y113189D01*
X331594D02*
X337500D01*
X331594Y101378D02*
X337500D01*
X331594D02*
Y113189D01*
X372539Y56890D02*
X376279D01*
X374410Y55020D02*
Y58760D01*
X380315Y53937D02*
Y59843D01*
X368504D02*
X380315D01*
X368504Y53937D02*
X380315D01*
X368504D02*
Y59843D01*
X397244Y116831D02*
X400984D01*
X399114Y114961D02*
Y118701D01*
X405020Y113878D02*
Y119784D01*
X393209D02*
X405020D01*
X393209Y113878D02*
X405020D01*
X393209D02*
Y119784D01*
X202953Y37795D02*
X206693D01*
X204823Y35925D02*
Y39665D01*
X207776Y31890D02*
Y43701D01*
X201870D02*
X207776D01*
X201870Y31890D02*
X207776D01*
X201870D02*
Y43701D01*
X179626Y62697D02*
X183366D01*
X181496Y60827D02*
Y64567D01*
X187402Y59744D02*
Y65650D01*
X175591D02*
X187402D01*
X175591Y59744D02*
X187402D01*
X175591D02*
Y65650D01*
X56496Y124409D02*
X60236D01*
X58366Y122539D02*
Y126279D01*
X64272Y121457D02*
Y127362D01*
X52460D02*
X64272D01*
X52460Y121457D02*
X64272D01*
X52460D02*
Y127362D01*
X56595Y130807D02*
X60335D01*
X58465Y128937D02*
Y132677D01*
X64370Y127854D02*
Y133760D01*
X52559D02*
X64370D01*
X52559Y127854D02*
X64370D01*
X52559D02*
Y133760D01*
X56595Y117913D02*
X60335D01*
X58465Y116043D02*
Y119783D01*
X64370Y114961D02*
Y120866D01*
X52559D02*
X64370D01*
X52559Y114961D02*
X64370D01*
X52559D02*
Y120866D01*
X56595Y111221D02*
X60335D01*
X58465Y109351D02*
Y113091D01*
X64370Y108268D02*
Y114173D01*
X52559D02*
X64370D01*
X52559Y108268D02*
X64370D01*
X52559D02*
Y114173D01*
X223614Y46654D02*
X227354D01*
X225484Y44784D02*
Y48524D01*
X228437Y40748D02*
Y52559D01*
X222532D02*
X228437D01*
X222532Y40748D02*
X228437D01*
X222532D02*
Y52559D01*
X237106Y46654D02*
X240846D01*
X238976Y44784D02*
Y48524D01*
X241929Y40748D02*
Y52559D01*
X236024D02*
X241929D01*
X236024Y40748D02*
X241929D01*
X236024D02*
Y52559D01*
X250197Y46654D02*
X253937D01*
X252067Y44784D02*
Y48524D01*
X255020Y40748D02*
Y52559D01*
X249114D02*
X255020D01*
X249114Y40748D02*
X255020D01*
X249114D02*
Y52559D01*
X263091Y46654D02*
X266831D01*
X264961Y44784D02*
Y48524D01*
X267914Y40748D02*
Y52559D01*
X262008D02*
X267914D01*
X262008Y40748D02*
X267914D01*
X262008D02*
Y52559D01*
X217709Y46654D02*
X221449D01*
X219579Y44784D02*
Y48524D01*
X222532Y40748D02*
Y52559D01*
X216626D02*
X222532D01*
X216626Y40748D02*
X222532D01*
X216626D02*
Y52559D01*
X230414Y46654D02*
X234154D01*
X232283Y44784D02*
Y48524D01*
X235236Y40748D02*
Y52559D01*
X229331D02*
X235236D01*
X229331Y40748D02*
X235236D01*
X229331D02*
Y52559D01*
X243799Y46654D02*
X247539D01*
X245669Y44784D02*
Y48524D01*
X248622Y40748D02*
Y52559D01*
X242717D02*
X248622D01*
X242717Y40748D02*
X248622D01*
X242717D02*
Y52559D01*
X256784Y46654D02*
X260524D01*
X258653Y44784D02*
Y48524D01*
X261606Y40748D02*
Y52559D01*
X255701D02*
X261606D01*
X255701Y40748D02*
X261606D01*
X255701D02*
Y52559D01*
X215354Y92618D02*
X219094D01*
X217224Y90748D02*
Y94488D01*
X220177Y86713D02*
Y98524D01*
X214272D02*
X220177D01*
X214272Y86713D02*
X220177D01*
X214272D02*
Y98524D01*
X203839Y38091D02*
X206004D01*
X204921Y37008D02*
Y39173D01*
X206890Y34350D02*
Y41831D01*
X202953D02*
X206890D01*
X202953Y34350D02*
X206890D01*
X202953D02*
Y41831D01*
X242717Y148229D02*
X246457D01*
X244587Y146359D02*
Y150099D01*
X247539Y142323D02*
Y154134D01*
X241634D02*
X247539D01*
X241634Y142323D02*
X247539D01*
X241634D02*
Y154134D01*
X236122Y148229D02*
X239862D01*
X237992Y146359D02*
Y150099D01*
X240945Y142323D02*
Y154134D01*
X235039D02*
X240945D01*
X235039Y142323D02*
X240945D01*
X235039D02*
Y154134D01*
X229528Y148229D02*
X233268D01*
X231398Y146359D02*
Y150099D01*
X234350Y142323D02*
Y154134D01*
X228445D02*
X234350D01*
X228445Y142323D02*
X234350D01*
X228445D02*
Y154134D01*
X222441Y148229D02*
X226181D01*
X224311Y146359D02*
Y150099D01*
X227264Y142323D02*
Y154134D01*
X221358D02*
X227264D01*
X221358Y142323D02*
X227264D01*
X221358D02*
Y154134D01*
X217914Y64567D02*
X221654D01*
X219783Y62697D02*
Y66437D01*
X225689Y61614D02*
Y67520D01*
X213878D02*
X225689D01*
X213878Y61614D02*
X225689D01*
X213878D02*
Y67520D01*
X251378Y148327D02*
X255118D01*
X253248Y146457D02*
Y150197D01*
X256201Y142421D02*
Y154233D01*
X250295D02*
X256201D01*
X250295Y142421D02*
X256201D01*
X250295D02*
Y154233D01*
X261024Y148327D02*
X264764D01*
X262894Y146457D02*
Y150197D01*
X265846Y142421D02*
Y154233D01*
X259941D02*
X265846D01*
X259941Y142421D02*
X265846D01*
X259941D02*
Y154233D01*
X218898Y71162D02*
X222638D01*
X220768Y69292D02*
Y73032D01*
X226673Y68209D02*
Y74114D01*
X214862D02*
X226673D01*
X214862Y68209D02*
X226673D01*
X214862D02*
Y74114D01*
X280217Y125000D02*
X283957D01*
X282087Y123130D02*
Y126870D01*
X287992Y122047D02*
Y127953D01*
X276181D02*
X287992D01*
X276181Y122047D02*
X287992D01*
X276181D02*
Y127953D01*
X217815Y58071D02*
X221555D01*
X219685Y56201D02*
Y59941D01*
X225591Y55118D02*
Y61024D01*
X213779D02*
X225591D01*
X213779Y55118D02*
X225591D01*
X213779D02*
Y61024D01*
X280610Y94292D02*
X284350D01*
X282480Y92422D02*
Y96162D01*
X288386Y91339D02*
Y97244D01*
X276575D02*
X288386D01*
X276575Y91339D02*
X288386D01*
X276575D02*
Y97244D01*
X280315Y59843D02*
X284055D01*
X282185Y57973D02*
Y61713D01*
X288091Y56890D02*
Y62796D01*
X276279D02*
X288091D01*
X276279Y56890D02*
X288091D01*
X276279D02*
Y62796D01*
X221949Y117618D02*
X225689D01*
X223819Y115748D02*
Y119488D01*
X229725Y114665D02*
Y120571D01*
X217913D02*
X229725D01*
X217913Y114665D02*
X229725D01*
X217913D02*
Y120571D01*
X280709Y87303D02*
X284449D01*
X282579Y85433D02*
Y89173D01*
X288484Y84351D02*
Y90256D01*
X276673D02*
X288484D01*
X276673Y84351D02*
X288484D01*
X276673D02*
Y90256D01*
X266535Y133760D02*
X270275D01*
X268406Y131890D02*
Y135630D01*
X271358Y127854D02*
Y139665D01*
X265453D02*
X271358D01*
X265453Y127854D02*
X271358D01*
X265453D02*
Y139665D01*
X280512Y80020D02*
X284252D01*
X282382Y78150D02*
Y81890D01*
X288287Y77067D02*
Y82973D01*
X276476D02*
X288287D01*
X276476Y77067D02*
X288287D01*
X276476D02*
Y82973D01*
X273622Y82382D02*
X277362D01*
X275492Y80512D02*
Y84252D01*
X281398Y79429D02*
Y85335D01*
X269587D02*
X281398D01*
X269587Y79429D02*
X281398D01*
X269587D02*
Y85335D01*
X273622Y75886D02*
X277362D01*
X275492Y74016D02*
Y77756D01*
X281398Y72933D02*
Y78839D01*
X269587D02*
X281398D01*
X269587Y72933D02*
X281398D01*
X269587D02*
Y78839D01*
X273524Y69685D02*
X277264D01*
X275394Y67815D02*
Y71555D01*
X281299Y66732D02*
Y72638D01*
X269488D02*
X281299D01*
X269488Y66732D02*
X281299D01*
X269488D02*
Y72638D01*
X280414Y73229D02*
X284154D01*
X282283Y71359D02*
Y75099D01*
X288189Y70276D02*
Y76181D01*
X276378D02*
X288189D01*
X276378Y70276D02*
X288189D01*
X276378D02*
Y76181D01*
X280414Y66437D02*
X284154D01*
X282283Y64567D02*
Y68307D01*
X288189Y63484D02*
Y69390D01*
X276378D02*
X288189D01*
X276378Y63484D02*
X288189D01*
X276378D02*
Y69390D01*
X188878Y118898D02*
X192618D01*
X190748Y117028D02*
Y120768D01*
X196654Y115945D02*
Y121851D01*
X184843D02*
X196654D01*
X184843Y115945D02*
X196654D01*
X184843D02*
Y121851D01*
X188878Y112402D02*
X192618D01*
X190748Y110532D02*
Y114272D01*
X196654Y109449D02*
Y115355D01*
X184843D02*
X196654D01*
X184843Y109449D02*
X196654D01*
X184843D02*
Y115355D01*
X273622Y59843D02*
X277362D01*
X275492Y57973D02*
Y61713D01*
X281398Y56890D02*
Y62796D01*
X269587D02*
X281398D01*
X269587Y56890D02*
X281398D01*
X269587D02*
Y62796D01*
X188780Y105807D02*
X192520D01*
X190650Y103937D02*
Y107677D01*
X196555Y102854D02*
Y108760D01*
X184744D02*
X196555D01*
X184744Y102854D02*
X196555D01*
X184744D02*
Y108760D01*
X188878Y99213D02*
X192618D01*
X190748Y97343D02*
Y101083D01*
X196654Y96260D02*
Y102165D01*
X184843D02*
X196654D01*
X184843Y96260D02*
X196654D01*
X184843D02*
Y102165D01*
X190256Y81792D02*
X193996D01*
X192126Y79922D02*
Y83662D01*
X198032Y78839D02*
Y84744D01*
X186220D02*
X198032D01*
X186220Y78839D02*
X198032D01*
X186220D02*
Y84744D01*
X215256Y148327D02*
X218996D01*
X217126Y146457D02*
Y150197D01*
X220079Y142421D02*
Y154233D01*
X214173D02*
X220079D01*
X214173Y142421D02*
X220079D01*
X214173D02*
Y154233D01*
X188780Y92520D02*
X192520D01*
X190650Y90650D02*
Y94390D01*
X196555Y89567D02*
Y95473D01*
X184744D02*
X196555D01*
X184744Y89567D02*
X196555D01*
X184744D02*
Y95473D01*
X254921Y115355D02*
X258661D01*
X256791Y113485D02*
Y117225D01*
X262697Y112402D02*
Y118307D01*
X250886D02*
X262697D01*
X250886Y112402D02*
X262697D01*
X250886D02*
Y118307D01*
X256004Y99410D02*
X259744D01*
X257874Y97540D02*
Y101280D01*
X260827Y93504D02*
Y105315D01*
X254921D02*
X260827D01*
X254921Y93504D02*
X260827D01*
X254921D02*
Y105315D01*
X277067Y48327D02*
X280807D01*
X278937Y46457D02*
Y50197D01*
X281890Y42421D02*
Y54233D01*
X275984D02*
X281890D01*
X275984Y42421D02*
X281890D01*
X275984D02*
Y54233D01*
X292323Y300492D02*
X294488D01*
X293406Y299410D02*
Y301575D01*
X295374Y296752D02*
Y304233D01*
X291437D02*
X295374D01*
X291437Y296752D02*
X295374D01*
X291437D02*
Y304233D01*
X320276Y274016D02*
X322441D01*
X325098Y272047D02*
Y275985D01*
X321358Y272933D02*
Y275098D01*
X317618Y275985D02*
X325098D01*
X317618Y272047D02*
X325098D01*
X317618D02*
Y275985D01*
X321457Y300492D02*
X323622D01*
X322539Y299410D02*
Y301575D01*
X324508Y296752D02*
Y304233D01*
X320571D02*
X324508D01*
X320571Y296752D02*
X324508D01*
X320571D02*
Y304233D01*
X325787Y300492D02*
X327953D01*
X326870Y299410D02*
Y301575D01*
X328838Y296752D02*
Y304233D01*
X324902D02*
X328838D01*
X324902Y296752D02*
X328838D01*
X324902D02*
Y304233D01*
X321358Y289469D02*
X323524D01*
X322441Y288386D02*
Y290551D01*
X324410Y285728D02*
Y293209D01*
X320473D02*
X324410D01*
X320473Y285728D02*
X324410D01*
X320473D02*
Y293209D01*
X321457Y300492D02*
X323622D01*
X322539Y299410D02*
Y301575D01*
X324508Y296752D02*
Y304233D01*
X320571D02*
X324508D01*
X320571Y296752D02*
X324508D01*
X320571D02*
Y304233D01*
X317126Y291929D02*
X319291D01*
X318209Y290847D02*
Y293012D01*
X320177Y288189D02*
Y295670D01*
X316240D02*
X320177D01*
X316240Y288189D02*
X320177D01*
X316240D02*
Y295670D01*
X306102Y300492D02*
X308268D01*
X307185Y299410D02*
Y301575D01*
X309154Y296752D02*
Y304233D01*
X305217D02*
X309154D01*
X305217Y296752D02*
X309154D01*
X305217D02*
Y304233D01*
X300591Y286221D02*
X302756D01*
X301673Y285138D02*
Y287303D01*
X303642Y282480D02*
Y289961D01*
X299705D02*
X303642D01*
X299705Y282480D02*
X303642D01*
X299705D02*
Y289961D01*
X302067Y300492D02*
X304232D01*
X303150Y299410D02*
Y301575D01*
X305118Y296752D02*
Y304232D01*
X301181D02*
X305118D01*
X301181Y296752D02*
X305118D01*
X301181D02*
Y304232D01*
X309646Y300492D02*
X311811D01*
X310728Y299410D02*
Y301575D01*
X312697Y296752D02*
Y304233D01*
X308760D02*
X312697D01*
X308760Y296752D02*
X312697D01*
X308760D02*
Y304233D01*
X302658Y275886D02*
X304823D01*
X303740Y274803D02*
Y276969D01*
X305709Y272146D02*
Y279626D01*
X301772D02*
X305709D01*
X301772Y272146D02*
X305709D01*
X301772D02*
Y279626D01*
X301870Y300492D02*
X304035D01*
X302953Y299410D02*
Y301575D01*
X304921Y296752D02*
Y304232D01*
X300984D02*
X304921D01*
X300984Y296752D02*
X304921D01*
X300984D02*
Y304232D01*
X296162Y275886D02*
X298327D01*
X297244Y274803D02*
Y276969D01*
X299213Y272146D02*
Y279626D01*
X295275D02*
X299213D01*
X295275Y272146D02*
X299213D01*
X295275D02*
Y279626D01*
X290453Y300492D02*
X292618D01*
X291535Y299410D02*
Y301575D01*
X293504Y296752D02*
Y304232D01*
X289567D02*
X293504D01*
X289567Y296752D02*
X293504D01*
X289567D02*
Y304232D01*
X288780Y268799D02*
X290945D01*
X289862Y267717D02*
Y269882D01*
X291831Y265059D02*
Y272540D01*
X287894D02*
X291831D01*
X287894Y265059D02*
X291831D01*
X287894D02*
Y272540D01*
X289764Y291831D02*
X291929D01*
X290846Y290748D02*
Y292914D01*
X292815Y288091D02*
Y295571D01*
X288878D02*
X292815D01*
X288878Y288091D02*
X292815D01*
X288878D02*
Y295571D01*
X312992Y286122D02*
X315157D01*
X314075Y285040D02*
Y287205D01*
X316043Y282382D02*
Y289862D01*
X312106D02*
X316043D01*
X312106Y282382D02*
X316043D01*
X312106D02*
Y289862D01*
X296162Y285729D02*
X298327D01*
X297244Y284646D02*
Y286811D01*
X299213Y281988D02*
Y289469D01*
X295275D02*
X299213D01*
X295275Y281988D02*
X299213D01*
X295275D02*
Y289469D01*
X305020Y286221D02*
X307185D01*
X306102Y285138D02*
Y287303D01*
X308071Y282480D02*
Y289961D01*
X304134D02*
X308071D01*
X304134Y282480D02*
X308071D01*
X304134D02*
Y289961D01*
X296850Y300492D02*
X299016D01*
X297933Y299410D02*
Y301575D01*
X299902Y296752D02*
Y304233D01*
X295965D02*
X299902D01*
X295965Y296752D02*
X299902D01*
X295965D02*
Y304233D01*
X296162Y275886D02*
X298327D01*
X297244Y274803D02*
Y276969D01*
X299213Y272146D02*
Y279626D01*
X295276D02*
X299213D01*
X295276Y272146D02*
X299213D01*
X295276D02*
Y279626D01*
X305709Y300492D02*
X307874D01*
X306791Y299410D02*
Y301575D01*
X308760Y296752D02*
Y304233D01*
X304823D02*
X308760D01*
X304823Y296752D02*
X308760D01*
X304823D02*
Y304233D01*
X308858Y275886D02*
X311024D01*
X309941Y274803D02*
Y276969D01*
X311910Y272146D02*
Y279626D01*
X307973D02*
X311910D01*
X307973Y272146D02*
X311910D01*
X307973D02*
Y279626D01*
X308957Y289666D02*
X311122D01*
X310039Y288583D02*
Y290748D01*
X312008Y285925D02*
Y293406D01*
X308071D02*
X312008D01*
X308071Y285925D02*
X312008D01*
X308071D02*
Y293406D01*
X312598Y320866D02*
X314764D01*
X317421Y318898D02*
Y322835D01*
X313681Y319784D02*
Y321949D01*
X309941Y322835D02*
X317421D01*
X309941Y318898D02*
X317421D01*
X309941D02*
Y322835D01*
X308268Y231004D02*
X310433D01*
X313091Y229036D02*
Y232973D01*
X309350Y229922D02*
Y232087D01*
X305610Y232973D02*
X313091D01*
X305610Y229036D02*
X313091D01*
X305610D02*
Y232973D01*
X276575Y395177D02*
X278740D01*
X281398Y393209D02*
Y397146D01*
X277658Y394095D02*
Y396260D01*
X273917Y397146D02*
X281398D01*
X273917Y393209D02*
X281398D01*
X273917D02*
Y397146D01*
X269882Y389370D02*
X272047D01*
X274705Y387402D02*
Y391338D01*
X270965Y388287D02*
Y390453D01*
X267224Y391338D02*
X274705D01*
X267224Y387402D02*
X274705D01*
X267224D02*
Y391338D01*
X271949Y378346D02*
X274114D01*
X276772Y376378D02*
Y380315D01*
X273031Y377264D02*
Y379429D01*
X269291Y380315D02*
X276772D01*
X269291Y376378D02*
X276772D01*
X269291D02*
Y380315D01*
X269783Y432185D02*
X271949D01*
X270866Y431102D02*
Y433268D01*
X272835Y428445D02*
Y435925D01*
X268898D02*
X272835D01*
X268898Y428445D02*
X272835D01*
X268898D02*
Y435925D01*
X281201Y384646D02*
X283366D01*
X286024Y382677D02*
Y386614D01*
X282283Y383563D02*
Y385728D01*
X278543Y386614D02*
X286024D01*
X278543Y382677D02*
X286024D01*
X278543D02*
Y386614D01*
X281004Y410039D02*
X283169D01*
X282087Y408957D02*
Y411122D01*
X284055Y406299D02*
Y413780D01*
X280118D02*
X284055D01*
X280118Y406299D02*
X284055D01*
X280118D02*
Y413780D01*
X265256Y346260D02*
X267421D01*
X266339Y345177D02*
Y347342D01*
X268307Y342520D02*
Y350000D01*
X264370D02*
X268307D01*
X264370Y342520D02*
X268307D01*
X264370D02*
Y350000D01*
X275886Y427264D02*
X278051D01*
X280709Y425295D02*
Y429232D01*
X276969Y426181D02*
Y428346D01*
X273228Y429232D02*
X280709D01*
X273228Y425295D02*
X280709D01*
X273228D02*
Y429232D01*
X273228Y422736D02*
X275394D01*
X278051Y420768D02*
Y424705D01*
X274311Y421654D02*
Y423819D01*
X270571Y424705D02*
X278051D01*
X270571Y420768D02*
X278051D01*
X270571D02*
Y424705D01*
X144390Y404528D02*
X146555D01*
X149213Y402559D02*
Y406496D01*
X145473Y403445D02*
Y405610D01*
X141732Y406496D02*
X149213D01*
X141732Y402559D02*
X149213D01*
X141732D02*
Y406496D01*
X134547Y414370D02*
X136713D01*
X135630Y413288D02*
Y415453D01*
X137599Y410630D02*
Y418111D01*
X133661D02*
X137599D01*
X133661Y410630D02*
X137599D01*
X133661D02*
Y418111D01*
X72047Y389469D02*
X74213D01*
X73130Y388386D02*
Y390551D01*
X75098Y385728D02*
Y393209D01*
X71161D02*
X75098D01*
X71161Y385728D02*
X75098D01*
X71161D02*
Y393209D01*
X47933Y302461D02*
X50099D01*
X49016Y301378D02*
Y303543D01*
X50984Y298721D02*
Y306201D01*
X47047D02*
X50984D01*
X47047Y298721D02*
X50984D01*
X47047D02*
Y306201D01*
X52461Y302461D02*
X54626D01*
X53543Y301378D02*
Y303543D01*
X55512Y298721D02*
Y306201D01*
X51575D02*
X55512D01*
X51575Y298721D02*
X55512D01*
X51575D02*
Y306201D01*
X43504Y302461D02*
X45669D01*
X44587Y301378D02*
Y303543D01*
X46555Y298721D02*
Y306201D01*
X42618D02*
X46555D01*
X42618Y298721D02*
X46555D01*
X42618D02*
Y306201D01*
X56988Y302461D02*
X59154D01*
X58071Y301378D02*
Y303543D01*
X60040Y298721D02*
Y306201D01*
X56103D02*
X60040D01*
X56103Y298721D02*
X60040D01*
X56103D02*
Y306201D01*
X102362Y335039D02*
X104527D01*
X107185Y333071D02*
Y337008D01*
X103445Y333957D02*
Y336122D01*
X99705Y337008D02*
X107185D01*
X99705Y333071D02*
X107185D01*
X99705D02*
Y337008D01*
X54035Y326870D02*
X56201D01*
X58858Y324902D02*
Y328839D01*
X55118Y325787D02*
Y327953D01*
X51378Y328839D02*
X58858D01*
X51378Y324902D02*
X58858D01*
X51378D02*
Y328839D01*
X45177Y335532D02*
X47343D01*
X50000Y333563D02*
Y337500D01*
X46260Y334449D02*
Y336614D01*
X42520Y337500D02*
X50000D01*
X42520Y333563D02*
X50000D01*
X42520D02*
Y337500D01*
X95859Y388084D02*
X97251Y389476D01*
X95859D02*
X97251Y388084D01*
X62599Y333465D02*
X64567D01*
X63583Y332481D02*
Y334449D01*
X103937Y375295D02*
Y377264D01*
X102953Y376280D02*
X104921D01*
X78642Y333268D02*
X80610D01*
X79626Y332284D02*
Y334252D01*
X103839Y364075D02*
Y366043D01*
X102854Y365059D02*
X104823D01*
X70571Y333169D02*
X72736D01*
X71654Y332087D02*
Y334252D01*
X73622Y329429D02*
Y336910D01*
X69685D02*
X73622D01*
X69685Y329429D02*
X73622D01*
X69685D02*
Y336910D01*
X102362Y339567D02*
X104527D01*
X107185Y337599D02*
Y341536D01*
X103445Y338484D02*
Y340650D01*
X99705Y341536D02*
X107185D01*
X99705Y337599D02*
X107185D01*
X99705D02*
Y341536D01*
X102559Y357382D02*
X104724D01*
X107382Y355414D02*
Y359350D01*
X103642Y356299D02*
Y358465D01*
X99902Y359350D02*
X107382D01*
X99902Y355414D02*
X107382D01*
X99902D02*
Y359350D01*
X102461Y343996D02*
X104626D01*
X107284Y342028D02*
Y345965D01*
X103543Y342914D02*
Y345079D01*
X99803Y345965D02*
X107284D01*
X99803Y342028D02*
X107284D01*
X99803D02*
Y345965D01*
X102559Y352953D02*
X104725D01*
X107382Y350985D02*
Y354922D01*
X103642Y351870D02*
Y354035D01*
X99901Y354922D02*
X107382D01*
X99901Y350985D02*
X107382D01*
X99901D02*
Y354922D01*
X102559Y348524D02*
X104724D01*
X107382Y346555D02*
Y350492D01*
X103642Y347441D02*
Y349606D01*
X99902Y350492D02*
X107382D01*
X99902Y346555D02*
X107382D01*
X99902D02*
Y350492D01*
X119390Y352953D02*
X121555D01*
X124213Y350984D02*
Y354921D01*
X120472Y351870D02*
Y354035D01*
X116732Y354921D02*
X124213D01*
X116732Y350984D02*
X124213D01*
X116732D02*
Y354921D01*
X70571Y333071D02*
X72736D01*
X71653Y331988D02*
Y334154D01*
X73622Y329331D02*
Y336811D01*
X69685D02*
X73622D01*
X69685Y329331D02*
X73622D01*
X69685D02*
Y336811D01*
X67225Y389469D02*
X69390D01*
X68307Y388386D02*
Y390551D01*
X70276Y385729D02*
Y393209D01*
X66339D02*
X70276D01*
X66339Y385729D02*
X70276D01*
X66339D02*
Y393209D01*
X74606Y409154D02*
X76772D01*
X75689Y408071D02*
Y410236D01*
X77657Y405413D02*
Y412894D01*
X73720D02*
X77657D01*
X73720Y405413D02*
X77657D01*
X73720D02*
Y412894D01*
X74410Y400492D02*
X76575D01*
X75492Y399410D02*
Y401575D01*
X77460Y396752D02*
Y404232D01*
X73523D02*
X77460D01*
X73523Y396752D02*
X77460D01*
X73523D02*
Y404232D01*
X84843Y400197D02*
X87008D01*
X85925Y399114D02*
Y401280D01*
X87894Y396457D02*
Y403937D01*
X83957D02*
X87894D01*
X83957Y396457D02*
X87894D01*
X83957D02*
Y403937D01*
X20571Y401870D02*
X24311D01*
X22441Y400000D02*
Y403740D01*
X28347Y398917D02*
Y404823D01*
X16535D02*
X28347D01*
X16535Y398917D02*
X28347D01*
X16535D02*
Y404823D01*
X47343Y376673D02*
X49508D01*
X52165Y374705D02*
Y378642D01*
X48425Y375591D02*
Y377756D01*
X44685Y378642D02*
X52165D01*
X44685Y374705D02*
X52165D01*
X44685D02*
Y378642D01*
X47343Y360925D02*
X49508D01*
X52165Y358957D02*
Y362894D01*
X48425Y359843D02*
Y362008D01*
X44685Y362894D02*
X52165D01*
X44685Y358957D02*
X52165D01*
X44685D02*
Y362894D01*
X229429Y434154D02*
X231594D01*
X230512Y433071D02*
Y435236D01*
X232480Y430413D02*
Y437894D01*
X228543D02*
X232480D01*
X228543Y430413D02*
X232480D01*
X228543D02*
Y437894D01*
X238681Y434449D02*
X240846D01*
X243504Y432480D02*
Y436417D01*
X239764Y433366D02*
Y435531D01*
X236024Y436417D02*
X243504D01*
X236024Y432480D02*
X243504D01*
X236024D02*
Y436417D01*
X402461Y395768D02*
Y403248D01*
X388681D02*
X402461D01*
X388681Y395768D02*
X402461D01*
X388681D02*
Y403248D01*
X409941Y415650D02*
Y423130D01*
X396161D02*
X409941D01*
X396161Y415650D02*
X409941D01*
X396161D02*
Y423130D01*
X66339Y333071D02*
X68504D01*
X67421Y331988D02*
Y334154D01*
X69390Y329331D02*
Y336811D01*
X65453D02*
X69390D01*
X65453Y329331D02*
X69390D01*
X65453D02*
Y336811D01*
X97146Y439666D02*
X99311D01*
X98228Y438583D02*
Y440748D01*
X100197Y435925D02*
Y443406D01*
X96260D02*
X100197D01*
X96260Y435925D02*
X100197D01*
X96260D02*
Y443406D01*
X102657Y348228D02*
X104823D01*
X107480Y346260D02*
Y350197D01*
X103740Y347146D02*
Y349311D01*
X100000Y350197D02*
X107480D01*
X100000Y346260D02*
X107480D01*
X100000D02*
Y350197D01*
X113287Y361811D02*
X115453D01*
X114370Y360729D02*
Y362894D01*
X116339Y358071D02*
Y365551D01*
X112401D02*
X116339D01*
X112401Y358071D02*
X116339D01*
X112401D02*
Y365551D01*
X124705Y410827D02*
X126870D01*
X125787Y409744D02*
Y411909D01*
X127756Y407087D02*
Y414567D01*
X123819D02*
X127756D01*
X123819Y407087D02*
X127756D01*
X123819D02*
Y414567D01*
X116929Y411024D02*
X119094D01*
X118012Y409941D02*
Y412106D01*
X119980Y407283D02*
Y414764D01*
X116043D02*
X119980D01*
X116043Y407283D02*
X119980D01*
X116043D02*
Y414764D01*
X20571Y351575D02*
X22736D01*
X25394Y349606D02*
Y353543D01*
X21654Y350492D02*
Y352658D01*
X17913Y353543D02*
X25394D01*
X17913Y349606D02*
X25394D01*
X17913D02*
Y353543D01*
X20079Y358760D02*
X22244D01*
X24902Y356791D02*
Y360728D01*
X21161Y357677D02*
Y359842D01*
X17421Y360728D02*
X24902D01*
X17421Y356791D02*
X24902D01*
X17421D02*
Y360728D01*
X20177Y366339D02*
X22342D01*
X25000Y364370D02*
Y368307D01*
X21260Y365256D02*
Y367421D01*
X17520Y368307D02*
X25000D01*
X17520Y364370D02*
X25000D01*
X17520D02*
Y368307D01*
X104429Y439666D02*
X106594D01*
X105512Y438583D02*
Y440748D01*
X107480Y435925D02*
Y443406D01*
X103543D02*
X107480D01*
X103543Y435925D02*
X107480D01*
X103543D02*
Y443406D01*
X19980Y373917D02*
X22146D01*
X24803Y371949D02*
Y375886D01*
X21063Y372835D02*
Y375000D01*
X17323Y375886D02*
X24803D01*
X17323Y371949D02*
X24803D01*
X17323D02*
Y375886D01*
X19882Y381496D02*
X22047D01*
X24705Y379528D02*
Y383465D01*
X20965Y380414D02*
Y382579D01*
X17224Y383465D02*
X24705D01*
X17224Y379528D02*
X24705D01*
X17224D02*
Y383465D01*
X50394Y402559D02*
X52559D01*
X51476Y401476D02*
Y403642D01*
X53445Y398819D02*
Y406299D01*
X49508D02*
X53445D01*
X49508Y398819D02*
X53445D01*
X49508D02*
Y406299D01*
X104921Y420374D02*
X107087D01*
X106004Y419291D02*
Y421457D01*
X107973Y416634D02*
Y424114D01*
X104035D02*
X107973D01*
X104035Y416634D02*
X107973D01*
X104035D02*
Y424114D01*
X28642Y335236D02*
X30807D01*
X33465Y333268D02*
Y337205D01*
X29724Y334154D02*
Y336319D01*
X25984Y337205D02*
X33465D01*
X25984Y333268D02*
X33465D01*
X25984D02*
Y337205D01*
X102854Y338878D02*
X105020D01*
X107677Y336910D02*
Y340846D01*
X103937Y337795D02*
Y339961D01*
X100197Y340846D02*
X107677D01*
X100197Y336910D02*
X107677D01*
X100197D02*
Y340846D01*
X124508Y377559D02*
X126673D01*
X125591Y376477D02*
Y378642D01*
X127559Y373819D02*
Y381299D01*
X123622D02*
X127559D01*
X123622Y373819D02*
X127559D01*
X123622D02*
Y381299D01*
X361614Y280610D02*
Y294390D01*
X354134D02*
X361614D01*
X354134Y280610D02*
X361614D01*
X354134D02*
Y294390D01*
X71752Y282776D02*
X74114D01*
X72933Y281594D02*
Y283957D01*
X75295Y278642D02*
Y286909D01*
X70571D02*
X75295D01*
X70571Y278642D02*
X75295D01*
X70571D02*
Y286909D01*
X233071Y335236D02*
X235433D01*
X238386Y332874D02*
Y337598D01*
X234252Y334055D02*
Y336417D01*
X230118Y337598D02*
X238386D01*
X230118Y332874D02*
X238386D01*
X230118D02*
Y337598D01*
X54036Y386221D02*
X56398D01*
X59350Y383858D02*
Y388583D01*
X55216Y385039D02*
Y387402D01*
X51083Y388583D02*
X59350D01*
X51083Y383858D02*
X59350D01*
X51083D02*
Y388583D01*
X371752Y409646D02*
X374114D01*
X372933Y408464D02*
Y410827D01*
X375295Y405512D02*
Y413779D01*
X370571D02*
X375295D01*
X370571Y405512D02*
X375295D01*
X370571D02*
Y413779D01*
X377461Y409646D02*
X379823D01*
X378642Y408464D02*
Y410827D01*
X381004Y405512D02*
Y413779D01*
X376279D02*
X381004D01*
X376279Y405512D02*
X381004D01*
X376279D02*
Y413779D01*
X383071Y410728D02*
X386811D01*
X384941Y408858D02*
Y412598D01*
X387894Y404823D02*
Y416634D01*
X381988D02*
X387894D01*
X381988Y404823D02*
X387894D01*
X381988D02*
Y416634D01*
X389961Y410728D02*
X393701D01*
X391831Y408858D02*
Y412598D01*
X394783Y404823D02*
Y416634D01*
X388878D02*
X394783D01*
X388878Y404823D02*
X394783D01*
X388878D02*
Y416634D01*
X380512Y427854D02*
X382874D01*
X381693Y426673D02*
Y429035D01*
X384055Y423721D02*
Y431988D01*
X379331D02*
X384055D01*
X379331Y423721D02*
X384055D01*
X379331D02*
Y431988D01*
X385827Y427854D02*
X388189D01*
X387008Y426673D02*
Y429035D01*
X389370Y423721D02*
Y431988D01*
X384646D02*
X389370D01*
X384646Y423721D02*
X389370D01*
X384646D02*
Y431988D01*
X391043Y429724D02*
X394783D01*
X392913Y427854D02*
Y431594D01*
X395866Y423819D02*
Y435630D01*
X389961D02*
X395866D01*
X389961Y423819D02*
X395866D01*
X389961D02*
Y435630D01*
X397441Y429724D02*
X401181D01*
X399311Y427854D02*
Y431594D01*
X402264Y423819D02*
Y435630D01*
X396358D02*
X402264D01*
X396358Y423819D02*
X402264D01*
X396358D02*
Y435630D01*
X313484Y448032D02*
X315846D01*
X318799Y445669D02*
Y450394D01*
X314665Y446850D02*
Y449213D01*
X310532Y450394D02*
X318799D01*
X310532Y445669D02*
X318799D01*
X310532D02*
Y450394D01*
X313484Y442815D02*
X315847D01*
X318799Y440453D02*
Y445177D01*
X314665Y441634D02*
Y443996D01*
X310532Y445177D02*
X318799D01*
X310532Y440453D02*
X318799D01*
X310532D02*
Y445177D01*
X357972Y367421D02*
X360334D01*
X359154Y366240D02*
Y368602D01*
X361516Y363287D02*
Y371555D01*
X356791D02*
X361516D01*
X356791Y363287D02*
X361516D01*
X356791D02*
Y371555D01*
X316437Y431102D02*
X318799D01*
X321752Y428740D02*
Y433465D01*
X317618Y429921D02*
Y432283D01*
X313484Y433465D02*
X321752D01*
X313484Y428740D02*
X321752D01*
X313484D02*
Y433465D01*
X386713Y385925D02*
X389075D01*
X392027Y383563D02*
Y388287D01*
X387894Y384744D02*
Y387106D01*
X383760Y388287D02*
X392027D01*
X383760Y383563D02*
X392027D01*
X383760D02*
Y388287D01*
X331004Y405807D02*
X333366D01*
X332185Y404626D02*
Y406988D01*
X334547Y401673D02*
Y409941D01*
X329823D02*
X334547D01*
X329823Y401673D02*
X334547D01*
X329823D02*
Y409941D01*
X338386Y383465D02*
X340748D01*
X339567Y382284D02*
Y384646D01*
X341929Y379331D02*
Y387598D01*
X337205D02*
X341929D01*
X337205Y379331D02*
X341929D01*
X337205D02*
Y387598D01*
X299311Y390158D02*
X301673D01*
X304626Y387795D02*
Y392520D01*
X300492Y388977D02*
Y391339D01*
X296358Y392520D02*
X304626D01*
X296358Y387795D02*
X304626D01*
X296358D02*
Y392520D01*
X299311Y395571D02*
X301673D01*
X304626Y393209D02*
Y397933D01*
X300492Y394390D02*
Y396752D01*
X296358Y397933D02*
X304626D01*
X296358Y393209D02*
X304626D01*
X296358D02*
Y397933D01*
X299311Y400886D02*
X301673D01*
X304626Y398524D02*
Y403248D01*
X300492Y399705D02*
Y402067D01*
X296358Y403248D02*
X304626D01*
X296358Y398524D02*
X304626D01*
X296358D02*
Y403248D01*
X299311Y406201D02*
X301673D01*
X304626Y403839D02*
Y408563D01*
X300492Y405020D02*
Y407382D01*
X296358Y408563D02*
X304626D01*
X296358Y403839D02*
X304626D01*
X296358D02*
Y408563D01*
X299311Y412106D02*
X301673D01*
X304626Y409744D02*
Y414468D01*
X300492Y410925D02*
Y413287D01*
X296358Y414468D02*
X304626D01*
X296358Y409744D02*
X304626D01*
X296358D02*
Y414468D01*
X299311Y417717D02*
X301673D01*
X304626Y415354D02*
Y420079D01*
X300492Y416536D02*
Y418898D01*
X296358Y420079D02*
X304626D01*
X296358Y415354D02*
X304626D01*
X296358D02*
Y420079D01*
X299311Y423228D02*
X301673D01*
X304626Y420866D02*
Y425591D01*
X300492Y422047D02*
Y424409D01*
X296358Y425591D02*
X304626D01*
X296358Y420866D02*
X304626D01*
X296358D02*
Y425591D01*
X299339Y428760D02*
X301701D01*
X304654Y426398D02*
Y431122D01*
X300520Y427579D02*
Y429941D01*
X296386Y431122D02*
X304654D01*
X296386Y426398D02*
X304654D01*
X296386D02*
Y431122D01*
X358268Y388189D02*
X360630D01*
X363583Y385827D02*
Y390551D01*
X359449Y387008D02*
Y389370D01*
X355315Y390551D02*
X363583D01*
X355315Y385827D02*
X363583D01*
X355315D02*
Y390551D01*
X319980Y421555D02*
X322343D01*
X325295Y419193D02*
Y423917D01*
X321161Y420374D02*
Y422736D01*
X317028Y423917D02*
X325295D01*
X317028Y419193D02*
X325295D01*
X317028D02*
Y423917D01*
X383563Y420472D02*
X385925D01*
X388878Y418110D02*
Y422835D01*
X384744Y419291D02*
Y421653D01*
X380610Y422835D02*
X388878D01*
X380610Y418110D02*
X388878D01*
X380610D02*
Y422835D01*
X271653Y221063D02*
X274016D01*
X272835Y219882D02*
Y222244D01*
X275197Y216929D02*
Y225197D01*
X270472D02*
X275197D01*
X270472Y216929D02*
X275197D01*
X270472D02*
Y225197D01*
X184449Y200689D02*
X186811D01*
X189764Y198327D02*
Y203051D01*
X185630Y199508D02*
Y201870D01*
X181496Y203051D02*
X189764D01*
X181496Y198327D02*
X189764D01*
X181496D02*
Y203051D01*
X184351Y205807D02*
X186713D01*
X189665Y203445D02*
Y208169D01*
X185531Y204626D02*
Y206988D01*
X181398Y208169D02*
X189665D01*
X181398Y203445D02*
X189665D01*
X181398D02*
Y208169D01*
X16634Y414469D02*
X20374D01*
X18504Y412599D02*
Y416339D01*
X21457Y408563D02*
Y420374D01*
X15551D02*
X21457D01*
X15551Y408563D02*
X21457D01*
X15551D02*
Y420374D01*
X16634Y386122D02*
X20374D01*
X18504Y384252D02*
Y387992D01*
X21457Y380217D02*
Y392028D01*
X15551D02*
X21457D01*
X15551Y380217D02*
X21457D01*
X15551D02*
Y392028D01*
X49016Y368799D02*
X51378D01*
X50197Y367618D02*
Y369981D01*
X52559Y364666D02*
Y372933D01*
X47835D02*
X52559D01*
X47835Y364666D02*
X52559D01*
X47835D02*
Y372933D01*
X24508Y414469D02*
X28248D01*
X26378Y412599D02*
Y416339D01*
X29331Y408563D02*
Y420374D01*
X23425D02*
X29331D01*
X23425Y408563D02*
X29331D01*
X23425D02*
Y420374D01*
X24508Y386122D02*
X28248D01*
X26378Y384252D02*
Y387992D01*
X29331Y380217D02*
Y392028D01*
X23425D02*
X29331D01*
X23425Y380217D02*
X29331D01*
X23425D02*
Y392028D01*
X43307Y368799D02*
X45669D01*
X48622Y366437D02*
Y371162D01*
X44488Y367618D02*
Y369981D01*
X40354Y371162D02*
X48622D01*
X40354Y366437D02*
X48622D01*
X40354D02*
Y371162D01*
X135925Y338485D02*
X138287D01*
X137106Y337303D02*
Y339666D01*
X139469Y334351D02*
Y342618D01*
X134744D02*
X139469D01*
X134744Y334351D02*
X139469D01*
X134744D02*
Y342618D01*
X82677Y331004D02*
X85039D01*
X87992Y328642D02*
Y333366D01*
X83858Y329823D02*
Y332185D01*
X79724Y333366D02*
X87992D01*
X79724Y328642D02*
X87992D01*
X79724D02*
Y333366D01*
X113878Y338878D02*
X116240D01*
X115059Y337697D02*
Y340059D01*
X117421Y334744D02*
Y343012D01*
X112697D02*
X117421D01*
X112697Y334744D02*
X117421D01*
X112697D02*
Y343012D01*
X131594Y349311D02*
X133957D01*
X132776Y348130D02*
Y350492D01*
X135138Y345177D02*
Y353445D01*
X130413D02*
X135138D01*
X130413Y345177D02*
X135138D01*
X130413D02*
Y353445D01*
X151673Y331496D02*
X154035D01*
X152854Y330315D02*
Y332678D01*
X155217Y327362D02*
Y335630D01*
X150492D02*
X155217D01*
X150492Y327362D02*
X155217D01*
X150492D02*
Y335630D01*
X151477Y356299D02*
X153839D01*
X152657Y355118D02*
Y357480D01*
X155020Y352165D02*
Y360433D01*
X150295D02*
X155020D01*
X150295Y352165D02*
X155020D01*
X150295D02*
Y360433D01*
X168209Y341831D02*
X170571D01*
X169390Y340650D02*
Y343012D01*
X171752Y337697D02*
Y345965D01*
X167028D02*
X171752D01*
X167028Y337697D02*
X171752D01*
X167028D02*
Y345965D01*
X61614Y333268D02*
X63977D01*
X62795Y332087D02*
Y334449D01*
X65158Y329134D02*
Y337402D01*
X60433D02*
X65158D01*
X60433Y329134D02*
X65158D01*
X60433D02*
Y337402D01*
X97441Y412106D02*
X99803D01*
X98622Y410925D02*
Y413288D01*
X100984Y407973D02*
Y416240D01*
X96260D02*
X100984D01*
X96260Y407973D02*
X100984D01*
X96260D02*
Y416240D01*
X97244Y431201D02*
X99606D01*
X98425Y430020D02*
Y432382D01*
X100787Y427067D02*
Y435335D01*
X96063D02*
X100787D01*
X96063Y427067D02*
X100787D01*
X96063D02*
Y435335D01*
X102559Y352854D02*
X104921D01*
X107874Y350492D02*
Y355217D01*
X103740Y351673D02*
Y354036D01*
X99606Y355217D02*
X107874D01*
X99606Y350492D02*
X107874D01*
X99606D02*
Y355217D01*
X48327Y329725D02*
X50689D01*
X49508Y328543D02*
Y330906D01*
X51870Y325591D02*
Y333858D01*
X47146D02*
X51870D01*
X47146Y325591D02*
X51870D01*
X47146D02*
Y333858D01*
X42815Y329725D02*
X45177D01*
X43996Y328543D02*
Y330906D01*
X46358Y325591D02*
Y333858D01*
X41634D02*
X46358D01*
X41634Y325591D02*
X46358D01*
X41634D02*
Y333858D01*
X122244Y388091D02*
X125984D01*
X124114Y386221D02*
Y389961D01*
X130020Y385138D02*
Y391043D01*
X118209D02*
X130020D01*
X118209Y385138D02*
X130020D01*
X118209D02*
Y391043D01*
X117126Y402658D02*
X119488D01*
X118307Y401477D02*
Y403839D01*
X120669Y398524D02*
Y406791D01*
X115945D02*
X120669D01*
X115945Y398524D02*
X120669D01*
X115945D02*
Y406791D01*
X102953Y361417D02*
X105315D01*
X104134Y360236D02*
Y362599D01*
X106496Y357284D02*
Y365551D01*
X101772D02*
X106496D01*
X101772Y357284D02*
X106496D01*
X101772D02*
Y365551D01*
X124606Y393799D02*
X126968D01*
X129921Y391437D02*
Y396162D01*
X125787Y392618D02*
Y394981D01*
X121654Y396162D02*
X129921D01*
X121654Y391437D02*
X129921D01*
X121654D02*
Y396162D01*
X25886Y340650D02*
X29626D01*
X27756Y338780D02*
Y342520D01*
X33661Y337697D02*
Y343602D01*
X21850D02*
X33661D01*
X21850Y337697D02*
X33661D01*
X21850D02*
Y343602D01*
X28346Y346555D02*
X30709D01*
X33661Y344193D02*
Y348917D01*
X29528Y345374D02*
Y347736D01*
X25394Y348917D02*
X33661D01*
X25394Y344193D02*
X33661D01*
X25394D02*
Y348917D01*
X28445Y366339D02*
X30807D01*
X33760Y363977D02*
Y368701D01*
X29626Y365158D02*
Y367520D01*
X25492Y368701D02*
X33760D01*
X25492Y363977D02*
X33760D01*
X25492D02*
Y368701D01*
X28346Y358662D02*
X30709D01*
X33661Y356299D02*
Y361024D01*
X29528Y357480D02*
Y359842D01*
X25394Y361024D02*
X33661D01*
X25394Y356299D02*
X33661D01*
X25394D02*
Y361024D01*
X104823Y431299D02*
X107185D01*
X106004Y430118D02*
Y432480D01*
X108366Y427166D02*
Y435433D01*
X103642D02*
X108366D01*
X103642Y427166D02*
X108366D01*
X103642D02*
Y435433D01*
X28346Y373819D02*
X30709D01*
X33661Y371457D02*
Y376181D01*
X29528Y372638D02*
Y375000D01*
X25394Y376181D02*
X33661D01*
X25394Y371457D02*
X33661D01*
X25394D02*
Y376181D01*
X28248Y381398D02*
X30610D01*
X33563Y379035D02*
Y383760D01*
X29429Y380217D02*
Y382579D01*
X25295Y383760D02*
X33563D01*
X25295Y379035D02*
X33563D01*
X25295D02*
Y383760D01*
X124901Y369193D02*
X127264D01*
X126083Y368012D02*
Y370374D01*
X128445Y365059D02*
Y373327D01*
X123721D02*
X128445D01*
X123721Y365059D02*
X128445D01*
X123721D02*
Y373327D01*
X55315Y402953D02*
X57677D01*
X56496Y401772D02*
Y404134D01*
X58858Y398819D02*
Y407087D01*
X54134D02*
X58858D01*
X54134Y398819D02*
X58858D01*
X54134D02*
Y407087D01*
X101772Y343602D02*
X104134D01*
X107087Y341240D02*
Y345965D01*
X102953Y342421D02*
Y344783D01*
X98819Y345965D02*
X107087D01*
X98819Y341240D02*
X107087D01*
X98819D02*
Y345965D01*
X28051Y330315D02*
X30413D01*
X33366Y327953D02*
Y332677D01*
X29232Y329134D02*
Y331496D01*
X25098Y332677D02*
X33366D01*
X25098Y327953D02*
X33366D01*
X25098D02*
Y332677D01*
X105118Y412106D02*
X107480D01*
X106299Y410925D02*
Y413287D01*
X108661Y407973D02*
Y416240D01*
X103937D02*
X108661D01*
X103937Y407973D02*
X108661D01*
X103937D02*
Y416240D01*
X50295Y387697D02*
X52658D01*
X55610Y385335D02*
Y390059D01*
X51476Y386516D02*
Y388878D01*
X47343Y390059D02*
X55610D01*
X47343Y385335D02*
X55610D01*
X47343D02*
Y390059D01*
X74311Y419980D02*
X76673D01*
X75492Y418799D02*
Y421162D01*
X77854Y415847D02*
Y424114D01*
X73130D02*
X77854D01*
X73130Y415847D02*
X77854D01*
X73130D02*
Y424114D01*
X66831Y419980D02*
X69193D01*
X68012Y418799D02*
Y421162D01*
X70374Y415847D02*
Y424114D01*
X65650D02*
X70374D01*
X65650Y415847D02*
X70374D01*
X65650D02*
Y424114D01*
X126673Y436811D02*
X130413D01*
X128543Y434941D02*
Y438681D01*
X134449Y433858D02*
Y439764D01*
X122638D02*
X134449D01*
X122638Y433858D02*
X134449D01*
X122638D02*
Y439764D01*
X133366Y411614D02*
X137106D01*
X135236Y409744D02*
Y413484D01*
X138189Y405709D02*
Y417520D01*
X132283D02*
X138189D01*
X132283Y405709D02*
X138189D01*
X132283D02*
Y417520D01*
X30906Y394193D02*
X34646D01*
X32776Y392323D02*
Y396063D01*
X35728Y388287D02*
Y400099D01*
X29823D02*
X35728D01*
X29823Y388287D02*
X35728D01*
X29823D02*
Y400099D01*
X40945Y412894D02*
X44685D01*
X42815Y411024D02*
Y414764D01*
X45768Y406988D02*
Y418799D01*
X39862D02*
X45768D01*
X39862Y406988D02*
X45768D01*
X39862D02*
Y418799D01*
X126673Y443012D02*
X130413D01*
X128543Y441142D02*
Y444882D01*
X134449Y440059D02*
Y445965D01*
X122638D02*
X134449D01*
X122638Y440059D02*
X134449D01*
X122638D02*
Y445965D01*
X103051Y435630D02*
X106791D01*
X104921Y433760D02*
Y437500D01*
X110827Y432677D02*
Y438583D01*
X99016D02*
X110827D01*
X99016Y432677D02*
X110827D01*
X99016D02*
Y438583D01*
X195276Y446752D02*
X197638D01*
X196457Y445571D02*
Y447933D01*
X198819Y442618D02*
Y450886D01*
X194095D02*
X198819D01*
X194095Y442618D02*
X198819D01*
X194095D02*
Y450886D01*
X200098Y419224D02*
Y438976D01*
X187500D02*
X200098D01*
X187500Y419224D02*
X200098D01*
X187500D02*
Y438976D01*
X165618Y443504D02*
Y456102D01*
X145866D02*
X165618D01*
X145866Y443504D02*
X165618D01*
X145866D02*
Y456102D01*
X189665Y451378D02*
Y460433D01*
X169913D02*
X189665D01*
X169913Y451378D02*
X189665D01*
X169913D02*
Y460433D01*
X203150Y410039D02*
X205512D01*
X204331Y408858D02*
Y411221D01*
X206693Y405906D02*
Y414173D01*
X201969D02*
X206693D01*
X201969Y405906D02*
X206693D01*
X201969D02*
Y414173D01*
X161122Y382972D02*
Y402724D01*
X148524D02*
X161122D01*
X148524Y382972D02*
X161122D01*
X148524D02*
Y402724D01*
X167421Y419980D02*
Y429036D01*
X147669D02*
X167421D01*
X147669Y419980D02*
X167421D01*
X147669D02*
Y429036D01*
X280315Y161909D02*
X282677D01*
X285630Y159547D02*
Y164272D01*
X281496Y160728D02*
Y163091D01*
X277362Y164272D02*
X285630D01*
X277362Y159547D02*
X285630D01*
X277362D02*
Y164272D01*
X279232Y148721D02*
X282972D01*
X281102Y146851D02*
Y150591D01*
X287008Y145768D02*
Y151673D01*
X275197D02*
X287008D01*
X275197Y145768D02*
X287008D01*
X275197D02*
Y151673D01*
X278543Y157185D02*
X282283D01*
X280413Y155315D02*
Y159055D01*
X286319Y154232D02*
Y160138D01*
X274508D02*
X286319D01*
X274508Y154232D02*
X286319D01*
X274508D02*
Y160138D01*
X62500Y178740D02*
X64862D01*
X63681Y177559D02*
Y179921D01*
X66043Y174606D02*
Y182874D01*
X61319D02*
X66043D01*
X61319Y174606D02*
X66043D01*
X61319D02*
Y182874D01*
X118209Y192815D02*
X120571D01*
X123524Y190453D02*
Y195177D01*
X119390Y191634D02*
Y193996D01*
X115256Y195177D02*
X123524D01*
X115256Y190453D02*
X123524D01*
X115256D02*
Y195177D01*
X361319Y289764D02*
X363681D01*
X366634Y287402D02*
Y292126D01*
X362500Y288583D02*
Y290945D01*
X358366Y292126D02*
X366634D01*
X358366Y287402D02*
X366634D01*
X358366D02*
Y292126D01*
X361319Y284744D02*
X363681D01*
X366634Y282382D02*
Y287106D01*
X362500Y283563D02*
Y285925D01*
X358366Y287106D02*
X366634D01*
X358366Y282382D02*
X366634D01*
X358366D02*
Y287106D01*
X372047Y280512D02*
X374410D01*
X373228Y279331D02*
Y281693D01*
X375590Y276378D02*
Y284646D01*
X370866D02*
X375590D01*
X370866Y276378D02*
X375590D01*
X370866D02*
Y284646D01*
X371949Y248524D02*
Y256398D01*
X358169D02*
X371949D01*
X358169Y248524D02*
X371949D01*
X358169D02*
Y256398D01*
X368307Y245571D02*
Y258169D01*
X349803D02*
X368307D01*
X349803Y245571D02*
X368307D01*
X349803D02*
Y258169D01*
X363681Y245669D02*
X366043D01*
X368996Y243307D02*
Y248031D01*
X364862Y244488D02*
Y246850D01*
X360728Y248031D02*
X368996D01*
X360728Y243307D02*
X368996D01*
X360728D02*
Y248031D01*
X162795Y219390D02*
X165157D01*
X163976Y218209D02*
Y220571D01*
X166339Y215256D02*
Y223524D01*
X161614D02*
X166339D01*
X161614Y215256D02*
X166339D01*
X161614D02*
Y223524D01*
X158602Y220177D02*
X159902D01*
X159252Y219528D02*
Y220827D01*
X161221Y216831D02*
Y223524D01*
X157283D02*
X161221D01*
X157283Y216831D02*
X161221D01*
X157283D02*
Y223524D01*
X152362Y236614D02*
X154725D01*
X153543Y235433D02*
Y237795D01*
X155905Y232480D02*
Y240748D01*
X151181D02*
X155905D01*
X151181Y232480D02*
X155905D01*
X151181D02*
Y240748D01*
X147343Y236614D02*
X149705D01*
X148524Y235433D02*
Y237795D01*
X150886Y232480D02*
Y240748D01*
X146161D02*
X150886D01*
X146161Y232480D02*
X150886D01*
X146161D02*
Y240748D01*
X159645Y209252D02*
X162008D01*
X164961Y206890D02*
Y211614D01*
X160827Y208071D02*
Y210433D01*
X156693Y211614D02*
X164961D01*
X156693Y206890D02*
X164961D01*
X156693D02*
Y211614D01*
X161319Y221850D02*
X163681D01*
X162500Y220669D02*
Y223031D01*
X164862Y217717D02*
Y225984D01*
X160138D02*
X164862D01*
X160138Y217717D02*
X164862D01*
X160138D02*
Y225984D01*
X186024Y178575D02*
Y198327D01*
X173425D02*
X186024D01*
X173425Y178575D02*
X186024D01*
X173425D02*
Y198327D01*
X193209Y160236D02*
Y172835D01*
X173457D02*
X193209D01*
X173457Y160236D02*
X193209D01*
X173457D02*
Y172835D01*
X141437Y236713D02*
X143799D01*
X142618Y235532D02*
Y237894D01*
X144980Y232579D02*
Y240846D01*
X140256D02*
X144980D01*
X140256Y232579D02*
X144980D01*
X140256D02*
Y240846D01*
X53839Y294193D02*
Y306791D01*
X34087D02*
X53839D01*
X34087Y294193D02*
X53839D01*
X34087D02*
Y306791D01*
X163681Y235433D02*
Y248031D01*
X145177D02*
X163681D01*
X145177Y235433D02*
X163681D01*
X145177D02*
Y248031D01*
X90059Y260630D02*
Y279134D01*
X77461D02*
X90059D01*
X77461Y260630D02*
X90059D01*
X77461D02*
Y279134D01*
X114370Y213386D02*
X116732D01*
X119685Y211024D02*
Y215748D01*
X115551Y212205D02*
Y214567D01*
X111417Y215748D02*
X119685D01*
X111417Y211024D02*
X119685D01*
X111417D02*
Y215748D01*
X114370Y208268D02*
X116732D01*
X119685Y205906D02*
Y210630D01*
X115551Y207087D02*
Y209449D01*
X111417Y210630D02*
X119685D01*
X111417Y205906D02*
X119685D01*
X111417D02*
Y210630D01*
X84488Y209547D02*
X85787D01*
X85138Y208898D02*
Y210197D01*
X87106Y206201D02*
Y212894D01*
X83169D02*
X87106D01*
X83169Y206201D02*
X87106D01*
X83169D02*
Y212894D01*
X129921Y206890D02*
X132284D01*
X131102Y205709D02*
Y208071D01*
X133465Y202756D02*
Y211024D01*
X128740D02*
X133465D01*
X128740Y202756D02*
X133465D01*
X128740D02*
Y211024D01*
X116437Y233465D02*
X118799D01*
X121752Y231102D02*
Y235827D01*
X117618Y232283D02*
Y234646D01*
X113484Y235827D02*
X121752D01*
X113484Y231102D02*
X121752D01*
X113484D02*
Y235827D01*
X116437Y238484D02*
X118799D01*
X121752Y236122D02*
Y240846D01*
X117618Y237303D02*
Y239665D01*
X113484Y240846D02*
X121752D01*
X113484Y236122D02*
X121752D01*
X113484D02*
Y240846D01*
X373130Y301279D02*
Y313878D01*
X354626D02*
X373130D01*
X354626Y301279D02*
X373130D01*
X354626D02*
Y313878D01*
X373130Y314665D02*
Y327264D01*
X354626D02*
X373130D01*
X354626Y314665D02*
X373130D01*
X354626D02*
Y327264D01*
X133465Y230118D02*
X135827D01*
X138779Y227756D02*
Y232480D01*
X134646Y228937D02*
Y231299D01*
X130512Y232480D02*
X138779D01*
X130512Y227756D02*
X138779D01*
X130512D02*
Y232480D01*
X77658Y236417D02*
Y244291D01*
X63878D02*
X77658D01*
X63878Y236417D02*
X77658D01*
X63878D02*
Y244291D01*
X87205Y236811D02*
Y244685D01*
X73425D02*
X87205D01*
X73425Y236811D02*
X87205D01*
X73425D02*
Y244685D01*
X28905Y237795D02*
Y250394D01*
X9154D02*
X28905D01*
X9154Y237795D02*
X28905D01*
X9154D02*
Y250394D01*
X76476Y210138D02*
X78838D01*
X81791Y207776D02*
Y212500D01*
X77658Y208957D02*
Y211319D01*
X73524Y212500D02*
X81791D01*
X73524Y207776D02*
X81791D01*
X73524D02*
Y212500D01*
X76476Y205118D02*
X78838D01*
X81791Y202756D02*
Y207480D01*
X77658Y203937D02*
Y206299D01*
X73524Y207480D02*
X81791D01*
X73524Y202756D02*
X81791D01*
X73524D02*
Y207480D01*
X76452Y200051D02*
X78815D01*
X81767Y197689D02*
Y202413D01*
X77634Y198870D02*
Y201232D01*
X73500Y202413D02*
X81767D01*
X73500Y197689D02*
X81767D01*
X73500D02*
Y202413D01*
X71894Y415287D02*
Y433791D01*
X59295D02*
X71894D01*
X59295Y415287D02*
X71894D01*
X59295D02*
Y433791D01*
X58957Y415256D02*
Y433760D01*
X46358D02*
X58957D01*
X46358Y415256D02*
X58957D01*
X46358D02*
Y433760D01*
X49803Y230512D02*
X52166D01*
X55118Y228150D02*
Y232874D01*
X50984Y229331D02*
Y231693D01*
X46850Y232874D02*
X55118D01*
X46850Y228150D02*
X55118D01*
X46850D02*
Y232874D01*
X42913Y224114D02*
X45276D01*
X44094Y222933D02*
Y225295D01*
X46457Y219980D02*
Y228248D01*
X41732D02*
X46457D01*
X41732Y219980D02*
X46457D01*
X41732D02*
Y228248D01*
X9783Y226673D02*
X11083D01*
X10433Y226024D02*
Y227323D01*
X12402Y223327D02*
Y230020D01*
X8465D02*
X12402D01*
X8465Y223327D02*
X12402D01*
X8465D02*
Y230020D01*
X58465Y230610D02*
X60827D01*
X63779Y228248D02*
Y232972D01*
X59646Y229429D02*
Y231791D01*
X55512Y232972D02*
X63779D01*
X55512Y228248D02*
X63779D01*
X55512D02*
Y232972D01*
X55512Y206201D02*
X57874D01*
X60827Y203839D02*
Y208563D01*
X56693Y205020D02*
Y207382D01*
X52559Y208563D02*
X60827D01*
X52559Y203839D02*
X60827D01*
X52559D02*
Y208563D01*
X55414Y218898D02*
X57776D01*
X60728Y216535D02*
Y221260D01*
X56595Y217716D02*
Y220079D01*
X52461Y221260D02*
X60728D01*
X52461Y216535D02*
X60728D01*
X52461D02*
Y221260D01*
X233563Y185433D02*
Y203937D01*
X220965D02*
X233563D01*
X220965Y185433D02*
X233563D01*
X220965D02*
Y203937D01*
X239567Y329232D02*
Y347736D01*
X226969D02*
X239567D01*
X226969Y329232D02*
X239567D01*
X226969D02*
Y347736D01*
X68504Y206988D02*
X70866D01*
X73819Y204626D02*
Y209350D01*
X69685Y205807D02*
Y208169D01*
X65551Y209350D02*
X73819D01*
X65551Y204626D02*
X73819D01*
X65551D02*
Y209350D01*
X12205Y232776D02*
X14567D01*
X17520Y230413D02*
Y235138D01*
X13386Y231595D02*
Y233957D01*
X9252Y235138D02*
X17520D01*
X9252Y230413D02*
X17520D01*
X9252D02*
Y235138D01*
X12303Y237795D02*
X14665D01*
X17618Y235433D02*
Y240158D01*
X13484Y236614D02*
Y238977D01*
X9350Y240158D02*
X17618D01*
X9350Y235433D02*
X17618D01*
X9350D02*
Y240158D01*
X12303Y242913D02*
X14665D01*
X17618Y240551D02*
Y245276D01*
X13484Y241732D02*
Y244095D01*
X9350Y245276D02*
X17618D01*
X9350Y240551D02*
X17618D01*
X9350D02*
Y245276D01*
X23031Y245669D02*
Y253543D01*
X9252D02*
X23031D01*
X9252Y245669D02*
X23031D01*
X9252D02*
Y253543D01*
X23036Y253929D02*
Y261803D01*
X9256D02*
X23036D01*
X9256Y253929D02*
X23036D01*
X9256D02*
Y261803D01*
X25886Y244193D02*
X28248D01*
X27067Y243012D02*
Y245374D01*
X29429Y240059D02*
Y248327D01*
X24705D02*
X29429D01*
X24705Y240059D02*
X29429D01*
X24705D02*
Y248327D01*
X31201Y244291D02*
X33563D01*
X32382Y243110D02*
Y245473D01*
X34744Y240158D02*
Y248425D01*
X30020D02*
X34744D01*
X30020Y240158D02*
X34744D01*
X30020D02*
Y248425D01*
X42224Y253150D02*
X44587D01*
X47539Y250787D02*
Y255512D01*
X43406Y251969D02*
Y254331D01*
X39272Y255512D02*
X47539D01*
X39272Y250787D02*
X47539D01*
X39272D02*
Y255512D01*
X35433Y254921D02*
X37795D01*
X36614Y253740D02*
Y256102D01*
X38976Y250787D02*
Y259055D01*
X34252D02*
X38976D01*
X34252Y250787D02*
X38976D01*
X34252D02*
Y259055D01*
X39567Y248819D02*
X41929D01*
X44882Y246457D02*
Y251181D01*
X40748Y247638D02*
Y250000D01*
X36614Y251181D02*
X44882D01*
X36614Y246457D02*
X44882D01*
X36614D02*
Y251181D01*
X47441Y246949D02*
X49803D01*
X48622Y245768D02*
Y248130D01*
X50984Y242815D02*
Y251083D01*
X46260D02*
X50984D01*
X46260Y242815D02*
X50984D01*
X46260D02*
Y251083D01*
X31890Y310728D02*
X34252D01*
X33071Y309547D02*
Y311910D01*
X35433Y306594D02*
Y314862D01*
X30709D02*
X35433D01*
X30709Y306594D02*
X35433D01*
X30709D02*
Y314862D01*
X27854Y263878D02*
Y276476D01*
X9350D02*
X27854D01*
X9350Y263878D02*
X27854D01*
X9350D02*
Y276476D01*
X27854Y276673D02*
Y289272D01*
X9350D02*
X27854D01*
X9350Y276673D02*
X27854D01*
X9350D02*
Y289272D01*
X28036Y289866D02*
Y302465D01*
X9532D02*
X28036D01*
X9532Y289866D02*
X28036D01*
X9532D02*
Y302465D01*
X28051Y302854D02*
Y315453D01*
X9547D02*
X28051D01*
X9547Y302854D02*
X28051D01*
X9547D02*
Y315453D01*
X69193Y261417D02*
X71555D01*
X74508Y259055D02*
Y263779D01*
X70374Y260236D02*
Y262598D01*
X66240Y263779D02*
X74508D01*
X66240Y259055D02*
X74508D01*
X66240D02*
Y263779D01*
X38287Y237992D02*
X40650D01*
X43602Y235630D02*
Y240354D01*
X39469Y236811D02*
Y239173D01*
X35335Y240354D02*
X43602D01*
X35335Y235630D02*
X43602D01*
X35335D02*
Y240354D01*
X27559Y303248D02*
Y315846D01*
X9055D02*
X27559D01*
X9055Y303248D02*
X27559D01*
X9055D02*
Y315846D01*
X27657Y290158D02*
Y302756D01*
X9154D02*
X27657D01*
X9154Y290158D02*
X27657D01*
X9154D02*
Y302756D01*
X27657Y277067D02*
Y289665D01*
X9154D02*
X27657D01*
X9154Y277067D02*
X27657D01*
X9154D02*
Y289665D01*
X229134Y401673D02*
X231496D01*
X234449Y399311D02*
Y404035D01*
X230315Y400492D02*
Y402854D01*
X226181Y404035D02*
X234449D01*
X226181Y399311D02*
X234449D01*
X226181D02*
Y404035D01*
X250591Y404429D02*
X254331D01*
X252461Y402559D02*
Y406299D01*
X258366Y401476D02*
Y407382D01*
X246555D02*
X258366D01*
X246555Y401476D02*
X258366D01*
X246555D02*
Y407382D01*
X250295Y419587D02*
X252657D01*
X253839Y415453D02*
Y423720D01*
X251476Y418406D02*
Y420768D01*
X249114Y423720D02*
X253839D01*
X249114Y415453D02*
X253839D01*
X249114D02*
Y423720D01*
X231102Y442028D02*
X233464D01*
X236417Y439665D02*
Y444390D01*
X232283Y440847D02*
Y443209D01*
X228150Y444390D02*
X236417D01*
X228150Y439665D02*
X236417D01*
X228150D02*
Y444390D01*
X242520Y447146D02*
X244882D01*
X247835Y444783D02*
Y449508D01*
X243701Y445965D02*
Y448327D01*
X239567Y449508D02*
X247835D01*
X239567Y444783D02*
X247835D01*
X239567D02*
Y449508D01*
X246555Y436516D02*
X248917D01*
X250098Y432382D02*
Y440650D01*
X247736Y435335D02*
Y437697D01*
X245374Y440650D02*
X250098D01*
X245374Y432382D02*
X250098D01*
X245374D02*
Y440650D01*
X238583Y439862D02*
X240945D01*
X243898Y437500D02*
Y442224D01*
X239764Y438681D02*
Y441043D01*
X235630Y442224D02*
X243898D01*
X235630Y437500D02*
X243898D01*
X235630D02*
Y442224D01*
X222638Y432579D02*
X225000D01*
X227953Y430217D02*
Y434941D01*
X223819Y431398D02*
Y433760D01*
X219685Y434941D02*
X227953D01*
X219685Y430217D02*
X227953D01*
X219685D02*
Y434941D01*
X250197Y433169D02*
X252559D01*
X255512Y430807D02*
Y435532D01*
X251378Y431988D02*
Y434350D01*
X247244Y435532D02*
X255512D01*
X247244Y430807D02*
X255512D01*
X247244D02*
Y435532D01*
X250197Y427165D02*
X252559D01*
X255512Y424803D02*
Y429528D01*
X251378Y425984D02*
Y428346D01*
X247244Y429528D02*
X255512D01*
X247244Y424803D02*
X255512D01*
X247244D02*
Y429528D01*
X250197Y421358D02*
X252559D01*
X255512Y418996D02*
Y423721D01*
X251378Y420177D02*
Y422539D01*
X247244Y423721D02*
X255512D01*
X247244Y418996D02*
X255512D01*
X247244D02*
Y423721D01*
X250197Y415650D02*
X252559D01*
X255512Y413287D02*
Y418012D01*
X251378Y414468D02*
Y416831D01*
X247244Y418012D02*
X255512D01*
X247244Y413287D02*
X255512D01*
X247244D02*
Y418012D01*
X214764Y427165D02*
X217126D01*
X215945Y425984D02*
Y428347D01*
X218307Y423032D02*
Y431299D01*
X213583D02*
X218307D01*
X213583Y423032D02*
X218307D01*
X213583D02*
Y431299D01*
X317417Y66134D02*
Y74008D01*
X303638D02*
X317417D01*
X303638Y66134D02*
X317417D01*
X303638D02*
Y74008D01*
X307677Y70571D02*
X310039D01*
X312992Y68209D02*
Y72933D01*
X308858Y69390D02*
Y71752D01*
X304725Y72933D02*
X312992D01*
X304725Y68209D02*
X312992D01*
X304725D02*
Y72933D01*
X299114Y56103D02*
X301477D01*
X300295Y54922D02*
Y57284D01*
X302658Y51969D02*
Y60236D01*
X297933D02*
X302658D01*
X297933Y51969D02*
X302658D01*
X297933D02*
Y60236D01*
X310925Y49902D02*
Y63681D01*
X303051D02*
X310925D01*
X303051Y49902D02*
X310925D01*
X303051D02*
Y63681D01*
X307677Y64862D02*
X310039D01*
X312992Y62500D02*
Y67225D01*
X308858Y63681D02*
Y66044D01*
X304725Y67225D02*
X312992D01*
X304725Y62500D02*
X312992D01*
X304725D02*
Y67225D01*
X296752Y45866D02*
X299114D01*
X297933Y44685D02*
Y47047D01*
X300295Y41732D02*
Y50000D01*
X295571D02*
X300295D01*
X295571Y41732D02*
X300295D01*
X295571D02*
Y50000D01*
X302067Y45768D02*
X304429D01*
X303248Y44587D02*
Y46949D01*
X305610Y41634D02*
Y49902D01*
X300886D02*
X305610D01*
X300886Y41634D02*
X305610D01*
X300886D02*
Y49902D01*
X307284Y45768D02*
X309646D01*
X308465Y44587D02*
Y46949D01*
X310827Y41634D02*
Y49902D01*
X306102D02*
X310827D01*
X306102Y41634D02*
X310827D01*
X306102D02*
Y49902D01*
X312740Y45724D02*
X315103D01*
X313921Y44543D02*
Y46905D01*
X316283Y41591D02*
Y49858D01*
X311559D02*
X316283D01*
X311559Y41591D02*
X316283D01*
X311559D02*
Y49858D01*
X294882Y41634D02*
Y55414D01*
X287008D02*
X294882D01*
X287008Y41634D02*
X294882D01*
X287008D02*
Y55414D01*
X313779Y34154D02*
X316142D01*
X314961Y32973D02*
Y35335D01*
X317323Y30020D02*
Y38287D01*
X312598D02*
X317323D01*
X312598Y30020D02*
X317323D01*
X312598D02*
Y38287D01*
X308465Y34154D02*
X310827D01*
X309646Y32973D02*
Y35335D01*
X312008Y30020D02*
Y38287D01*
X307283D02*
X312008D01*
X307283Y30020D02*
X312008D01*
X307283D02*
Y38287D01*
X303051Y34154D02*
X305413D01*
X304232Y32973D02*
Y35335D01*
X306594Y30020D02*
Y38287D01*
X301870D02*
X306594D01*
X301870Y30020D02*
X306594D01*
X301870D02*
Y38287D01*
X297681Y34295D02*
X300043D01*
X298862Y33114D02*
Y35477D01*
X301224Y30162D02*
Y38429D01*
X296500D02*
X301224D01*
X296500Y30162D02*
X301224D01*
X296500D02*
Y38429D01*
X295866Y27559D02*
Y41339D01*
X287992D02*
X295866D01*
X287992Y27559D02*
X295866D01*
X287992D02*
Y41339D01*
X328248Y146063D02*
X330610D01*
X329429Y144882D02*
Y147244D01*
X331791Y141929D02*
Y150197D01*
X327067D02*
X331791D01*
X327067Y141929D02*
X331791D01*
X327067D02*
Y150197D01*
X323031Y146063D02*
X325394D01*
X324213Y144882D02*
Y147244D01*
X326575Y141929D02*
Y150197D01*
X321850D02*
X326575D01*
X321850Y141929D02*
X326575D01*
X321850D02*
Y150197D01*
X317520Y146063D02*
X319882D01*
X318701Y144882D02*
Y147244D01*
X321063Y141929D02*
Y150197D01*
X316339D02*
X321063D01*
X316339Y141929D02*
X321063D01*
X316339D02*
Y150197D01*
X311909Y146063D02*
X314272D01*
X313091Y144882D02*
Y147244D01*
X315453Y141929D02*
Y150197D01*
X310728D02*
X315453D01*
X310728Y141929D02*
X315453D01*
X310728D02*
Y150197D01*
X306496Y146063D02*
X308858D01*
X307677Y144882D02*
Y147244D01*
X310039Y141929D02*
Y150197D01*
X305315D02*
X310039D01*
X305315Y141929D02*
X310039D01*
X305315D02*
Y150197D01*
X301146Y146008D02*
X303508D01*
X302327Y144827D02*
Y147189D01*
X304689Y141874D02*
Y150142D01*
X299965D02*
X304689D01*
X299965Y141874D02*
X304689D01*
X299965D02*
Y150142D01*
X299213Y139272D02*
Y153051D01*
X291339D02*
X299213D01*
X291339Y139272D02*
X299213D01*
X291339D02*
Y153051D01*
X353937Y58760D02*
X357677D01*
X355807Y56890D02*
Y60630D01*
X358760Y52854D02*
Y64666D01*
X352854D02*
X358760D01*
X352854Y52854D02*
X358760D01*
X352854D02*
Y64666D01*
X360729Y58760D02*
X364469D01*
X362598Y56890D02*
Y60630D01*
X365551Y52854D02*
Y64666D01*
X359646D02*
X365551D01*
X359646Y52854D02*
X365551D01*
X359646D02*
Y64666D01*
X363217Y110729D02*
X366957D01*
X365087Y108859D02*
Y112599D01*
X368039Y104823D02*
Y116634D01*
X362134D02*
X368039D01*
X362134Y104823D02*
X368039D01*
X362134D02*
Y116634D01*
X353347Y110925D02*
X357087D01*
X355217Y109055D02*
Y112795D01*
X358169Y105020D02*
Y116831D01*
X352264D02*
X358169D01*
X352264Y105020D02*
X358169D01*
X352264D02*
Y116831D01*
X215650Y44095D02*
Y51969D01*
X201870D02*
X215650D01*
X201870Y44095D02*
X215650D01*
X201870D02*
Y51969D01*
X190453Y70669D02*
X192815D01*
X195768Y68307D02*
Y73032D01*
X191634Y69488D02*
Y71851D01*
X187500Y73032D02*
X195768D01*
X187500Y68307D02*
X195768D01*
X187500D02*
Y73032D01*
X183760Y70177D02*
X186122D01*
X184941Y68996D02*
Y71358D01*
X187303Y66044D02*
Y74311D01*
X182579D02*
X187303D01*
X182579Y66044D02*
X187303D01*
X182579D02*
Y74311D01*
X195768Y60630D02*
Y74410D01*
X187894D02*
X195768D01*
X187894Y60630D02*
X195768D01*
X187894D02*
Y74410D01*
X190453Y64862D02*
X192815D01*
X195768Y62500D02*
Y67225D01*
X191634Y63681D02*
Y66044D01*
X187500Y67225D02*
X195768D01*
X187500Y62500D02*
X195768D01*
X187500D02*
Y67225D01*
X180512Y50099D02*
X182874D01*
X181693Y48917D02*
Y51280D01*
X184055Y45965D02*
Y54232D01*
X179331D02*
X184055D01*
X179331Y45965D02*
X184055D01*
X179331D02*
Y54232D01*
X185776Y50158D02*
X188138D01*
X186957Y48976D02*
Y51339D01*
X189319Y46024D02*
Y54291D01*
X184595D02*
X189319D01*
X184595Y46024D02*
X189319D01*
X184595D02*
Y54291D01*
X190945Y50197D02*
X193307D01*
X192126Y49016D02*
Y51378D01*
X194488Y46063D02*
Y54331D01*
X189764D02*
X194488D01*
X189764Y46063D02*
X194488D01*
X189764D02*
Y54331D01*
X196260Y50099D02*
X198622D01*
X197441Y48917D02*
Y51280D01*
X199803Y45965D02*
Y54232D01*
X195079D02*
X199803D01*
X195079Y45965D02*
X199803D01*
X195079D02*
Y54232D01*
X178740Y43504D02*
Y57284D01*
X170866D02*
X178740D01*
X170866Y43504D02*
X178740D01*
X170866D02*
Y57284D01*
X196590Y33701D02*
X198953D01*
X197772Y32520D02*
Y34882D01*
X200134Y29567D02*
Y37835D01*
X195410D02*
X200134D01*
X195410Y29567D02*
X200134D01*
X195410D02*
Y37835D01*
X191437Y33662D02*
X193799D01*
X192618Y32481D02*
Y34843D01*
X194980Y29528D02*
Y37795D01*
X190256D02*
X194980D01*
X190256Y29528D02*
X194980D01*
X190256D02*
Y37795D01*
X186319Y33760D02*
X188681D01*
X187500Y32579D02*
Y34941D01*
X189862Y29626D02*
Y37894D01*
X185138D02*
X189862D01*
X185138Y29626D02*
X189862D01*
X185138D02*
Y37894D01*
X181102Y33760D02*
X183465D01*
X182283Y32579D02*
Y34941D01*
X184646Y29626D02*
Y37894D01*
X179921D02*
X184646D01*
X179921Y29626D02*
X184646D01*
X179921D02*
Y37894D01*
X179539Y27657D02*
Y41437D01*
X171665D02*
X179539D01*
X171665Y27657D02*
X179539D01*
X171665D02*
Y41437D01*
X176870Y147736D02*
X179232D01*
X178051Y146555D02*
Y148917D01*
X180413Y143603D02*
Y151870D01*
X175689D02*
X180413D01*
X175689Y143603D02*
X180413D01*
X175689D02*
Y151870D01*
X182185Y147638D02*
X184547D01*
X183366Y146457D02*
Y148819D01*
X185728Y143504D02*
Y151772D01*
X181004D02*
X185728D01*
X181004Y143504D02*
X185728D01*
X181004D02*
Y151772D01*
X187402Y147638D02*
X189764D01*
X188583Y146457D02*
Y148819D01*
X190945Y143504D02*
Y151772D01*
X186221D02*
X190945D01*
X186221Y143504D02*
X190945D01*
X186221D02*
Y151772D01*
X192717Y147539D02*
X195079D01*
X193898Y146358D02*
Y148721D01*
X196260Y143406D02*
Y151673D01*
X191535D02*
X196260D01*
X191535Y143406D02*
X196260D01*
X191535D02*
Y151673D01*
X197933Y147539D02*
X200295D01*
X199114Y146358D02*
Y148721D01*
X201476Y143406D02*
Y151673D01*
X196752D02*
X201476D01*
X196752Y143406D02*
X201476D01*
X196752D02*
Y151673D01*
X203150Y147539D02*
X205512D01*
X204331Y146358D02*
Y148721D01*
X206693Y143406D02*
Y151673D01*
X201969D02*
X206693D01*
X201969Y143406D02*
X206693D01*
X201969D02*
Y151673D01*
X43898Y124409D02*
X47638D01*
X45768Y122539D02*
Y126279D01*
X51673Y121457D02*
Y127362D01*
X39862D02*
X51673D01*
X39862Y121457D02*
X51673D01*
X39862D02*
Y127362D01*
X43898Y130807D02*
X47638D01*
X45768Y128937D02*
Y132677D01*
X51673Y127854D02*
Y133760D01*
X39862D02*
X51673D01*
X39862Y127854D02*
X51673D01*
X39862D02*
Y133760D01*
X43898Y117819D02*
X47638D01*
X45768Y115949D02*
Y119689D01*
X51673Y114866D02*
Y120772D01*
X39862D02*
X51673D01*
X39862Y114866D02*
X51673D01*
X39862D02*
Y120772D01*
X43898Y111221D02*
X47638D01*
X45768Y109351D02*
Y113091D01*
X51673Y108268D02*
Y114173D01*
X39862D02*
X51673D01*
X39862Y108268D02*
X51673D01*
X39862D02*
Y114173D01*
X132776Y95571D02*
X136516D01*
X134646Y93701D02*
Y97441D01*
X137599Y89665D02*
Y101477D01*
X131693D02*
X137599D01*
X131693Y89665D02*
X137599D01*
X131693D02*
Y101477D01*
X141831Y95276D02*
X145571D01*
X143701Y93406D02*
Y97146D01*
X146654Y89370D02*
Y101181D01*
X140748D02*
X146654D01*
X140748Y89370D02*
X146654D01*
X140748D02*
Y101181D01*
X237106Y59154D02*
X240846D01*
X238976Y57284D02*
Y61024D01*
X241929Y53248D02*
Y65059D01*
X236024D02*
X241929D01*
X236024Y53248D02*
X241929D01*
X236024D02*
Y65059D01*
X243996Y59154D02*
X247736D01*
X245866Y57284D02*
Y61024D01*
X248819Y53248D02*
Y65059D01*
X242913D02*
X248819D01*
X242913Y53248D02*
X248819D01*
X242913D02*
Y65059D01*
X244390Y109843D02*
X248130D01*
X246260Y107973D02*
Y111713D01*
X249213Y103937D02*
Y115748D01*
X243307D02*
X249213D01*
X243307Y103937D02*
X249213D01*
X243307D02*
Y115748D01*
X237008Y109843D02*
X240748D01*
X238878Y107973D02*
Y111713D01*
X241831Y103937D02*
Y115748D01*
X235925D02*
X241831D01*
X235925Y103937D02*
X241831D01*
X235925D02*
Y115748D01*
X332481Y294291D02*
X334843D01*
X333662Y293110D02*
Y295473D01*
X336024Y290158D02*
Y298425D01*
X331299D02*
X336024D01*
X331299Y290158D02*
X336024D01*
X331299D02*
Y298425D01*
X338287Y294291D02*
X340650D01*
X339469Y293110D02*
Y295473D01*
X341831Y290158D02*
Y298425D01*
X337106D02*
X341831D01*
X337106Y290158D02*
X341831D01*
X337106D02*
Y298425D01*
X346555Y284941D02*
X350295D01*
X348425Y283071D02*
Y286811D01*
X351378Y279035D02*
Y290847D01*
X345472D02*
X351378D01*
X345472Y279035D02*
X351378D01*
X345472D02*
Y290847D01*
X332480Y285335D02*
X334842D01*
X333662Y284154D02*
Y286516D01*
X336024Y281201D02*
Y289469D01*
X331299D02*
X336024D01*
X331299Y281201D02*
X336024D01*
X331299D02*
Y289469D01*
X338287Y285335D02*
X340650D01*
X339469Y284154D02*
Y286516D01*
X341831Y281201D02*
Y289469D01*
X337106D02*
X341831D01*
X337106Y281201D02*
X341831D01*
X337106D02*
Y289469D01*
X346555Y298032D02*
X350295D01*
X348425Y296162D02*
Y299902D01*
X351378Y292126D02*
Y303937D01*
X345472D02*
X351378D01*
X345472Y292126D02*
X351378D01*
X345472D02*
Y303937D01*
X297736Y230807D02*
X300099D01*
X303051Y228445D02*
Y233169D01*
X298917Y229626D02*
Y231988D01*
X294784Y233169D02*
X303051D01*
X294784Y228445D02*
X303051D01*
X294784D02*
Y233169D01*
X316535Y243012D02*
X318898D01*
X321850Y240650D02*
Y245374D01*
X317717Y241831D02*
Y244193D01*
X313583Y245374D02*
X321850D01*
X313583Y240650D02*
X321850D01*
X313583D02*
Y245374D01*
X328642Y230807D02*
X331004D01*
X333957Y228445D02*
Y233169D01*
X329823Y229626D02*
Y231988D01*
X325689Y233169D02*
X333957D01*
X325689Y228445D02*
X333957D01*
X325689D02*
Y233169D01*
X345275Y251673D02*
X347638D01*
X346457Y250492D02*
Y252854D01*
X348819Y247540D02*
Y255807D01*
X344094D02*
X348819D01*
X344094Y247540D02*
X348819D01*
X344094D02*
Y255807D01*
X340059Y251673D02*
X342421D01*
X341240Y250492D02*
Y252854D01*
X343602Y247540D02*
Y255807D01*
X338878D02*
X343602D01*
X338878Y247540D02*
X343602D01*
X338878D02*
Y255807D01*
X342717Y230807D02*
X345079D01*
X348031Y228445D02*
Y233169D01*
X343898Y229626D02*
Y231988D01*
X339764Y233169D02*
X348031D01*
X339764Y228445D02*
X348031D01*
X339764D02*
Y233169D01*
X319783Y230807D02*
X322146D01*
X325098Y228445D02*
Y233169D01*
X320965Y229626D02*
Y231988D01*
X316831Y233169D02*
X325098D01*
X316831Y228445D02*
X325098D01*
X316831D02*
Y233169D01*
X299114Y268898D02*
X301477D01*
X304429Y266536D02*
Y271260D01*
X300295Y267717D02*
Y270079D01*
X296162Y271260D02*
X304429D01*
X296162Y266536D02*
X304429D01*
X296162D02*
Y271260D01*
X307973Y270768D02*
X310335D01*
X313287Y268406D02*
Y273130D01*
X309154Y269587D02*
Y271949D01*
X305020Y273130D02*
X313287D01*
X305020Y268406D02*
X313287D01*
X305020D02*
Y273130D01*
X334941Y274213D02*
X337303D01*
X340256Y271850D02*
Y276575D01*
X336122Y273032D02*
Y275394D01*
X331988Y276575D02*
X340256D01*
X331988Y271850D02*
X340256D01*
X331988D02*
Y276575D01*
X344390Y276181D02*
X346752D01*
X349705Y273819D02*
Y278543D01*
X345571Y275000D02*
Y277362D01*
X341437Y278543D02*
X349705D01*
X341437Y273819D02*
X349705D01*
X341437D02*
Y278543D01*
X332284Y261910D02*
X334646D01*
X337598Y259547D02*
Y264272D01*
X333465Y260728D02*
Y263091D01*
X329331Y264272D02*
X337598D01*
X329331Y259547D02*
X337598D01*
X329331D02*
Y264272D01*
X316535Y262106D02*
X318898D01*
X321850Y259744D02*
Y264469D01*
X317717Y260925D02*
Y263288D01*
X313583Y264469D02*
X321850D01*
X313583Y259744D02*
X321850D01*
X313583D02*
Y264469D01*
X331398Y270374D02*
X333760D01*
X336713Y268012D02*
Y272736D01*
X332579Y269193D02*
Y271555D01*
X328445Y272736D02*
X336713D01*
X328445Y268012D02*
X336713D01*
X328445D02*
Y272736D01*
X340158Y260138D02*
X342520D01*
X341339Y258957D02*
Y261319D01*
X343701Y256004D02*
Y264272D01*
X338976D02*
X343701D01*
X338976Y256004D02*
X343701D01*
X338976D02*
Y264272D01*
X335728Y229036D02*
X338090D01*
X336910Y227855D02*
Y230217D01*
X339272Y224902D02*
Y233169D01*
X334547D02*
X339272D01*
X334547Y224902D02*
X339272D01*
X334547D02*
Y233169D01*
X322835Y320866D02*
X325197D01*
X328150Y318504D02*
Y323229D01*
X324016Y319685D02*
Y322047D01*
X319882Y323229D02*
X328150D01*
X319882Y318504D02*
X328150D01*
X319882D02*
Y323229D01*
X338779Y306988D02*
X341142D01*
X344094Y304626D02*
Y309350D01*
X339961Y305807D02*
Y308170D01*
X335827Y309350D02*
X344094D01*
X335827Y304626D02*
X344094D01*
X335827D02*
Y309350D01*
X316634Y313977D02*
X318996D01*
X321949Y311614D02*
Y316339D01*
X317815Y312795D02*
Y315158D01*
X313681Y316339D02*
X321949D01*
X313681Y311614D02*
X321949D01*
X313681D02*
Y316339D01*
X337402Y301772D02*
X339764D01*
X342717Y299410D02*
Y304134D01*
X338583Y300591D02*
Y302953D01*
X334449Y304134D02*
X342717D01*
X334449Y299410D02*
X342717D01*
X334449D02*
Y304134D01*
X295571Y307677D02*
X297933D01*
X300886Y305315D02*
Y310039D01*
X296752Y306496D02*
Y308858D01*
X292618Y310039D02*
X300886D01*
X292618Y305315D02*
X300886D01*
X292618D02*
Y310039D01*
X329232Y306890D02*
X331595D01*
X334547Y304528D02*
Y309252D01*
X330413Y305709D02*
Y308071D01*
X326280Y309252D02*
X334547D01*
X326280Y304528D02*
X334547D01*
X326280D02*
Y309252D01*
X320472Y306890D02*
X322835D01*
X325787Y304528D02*
Y309252D01*
X321654Y305709D02*
Y308071D01*
X317520Y309252D02*
X325787D01*
X317520Y304528D02*
X325787D01*
X317520D02*
Y309252D01*
X345275Y321850D02*
X347638D01*
X346457Y320669D02*
Y323031D01*
X348819Y317717D02*
Y325984D01*
X344094D02*
X348819D01*
X344094Y317717D02*
X348819D01*
X344094D02*
Y325984D01*
X343110Y339666D02*
X345473D01*
X348425Y337303D02*
Y342028D01*
X344291Y338484D02*
Y340846D01*
X340158Y342028D02*
X348425D01*
X340158Y337303D02*
X348425D01*
X340158D02*
Y342028D01*
X335039Y345079D02*
X337402D01*
X340354Y342717D02*
Y347441D01*
X336221Y343898D02*
Y346260D01*
X332087Y347441D02*
X340354D01*
X332087Y342717D02*
X340354D01*
X332087D02*
Y347441D01*
X340158Y331201D02*
X342520D01*
X341339Y330020D02*
Y332382D01*
X343701Y327067D02*
Y335335D01*
X338976D02*
X343701D01*
X338976Y327067D02*
X343701D01*
X338976D02*
Y335335D01*
X332284Y332874D02*
X334646D01*
X337598Y330512D02*
Y335236D01*
X333465Y331693D02*
Y334055D01*
X329331Y335236D02*
X337598D01*
X329331Y330512D02*
X337598D01*
X329331D02*
Y335236D01*
X319685Y332874D02*
X322047D01*
X325000Y330512D02*
Y335236D01*
X320866Y331693D02*
Y334055D01*
X316732Y335236D02*
X325000D01*
X316732Y330512D02*
X325000D01*
X316732D02*
Y335236D01*
X318406Y345177D02*
X320768D01*
X323720Y342815D02*
Y347539D01*
X319587Y343996D02*
Y346358D01*
X315453Y347539D02*
X323720D01*
X315453Y342815D02*
X323720D01*
X315453D02*
Y347539D01*
X296260Y345177D02*
X298622D01*
X301575Y342815D02*
Y347539D01*
X297441Y343996D02*
Y346358D01*
X293307Y347539D02*
X301575D01*
X293307Y342815D02*
X301575D01*
X293307D02*
Y347539D01*
X305118Y345177D02*
X307481D01*
X310433Y342815D02*
Y347539D01*
X306299Y343996D02*
Y346358D01*
X302166Y347539D02*
X310433D01*
X302166Y342815D02*
X310433D01*
X302166D02*
Y347539D01*
X325787Y343307D02*
X328150D01*
X326969Y342126D02*
Y344488D01*
X329331Y339173D02*
Y347441D01*
X324606D02*
X329331D01*
X324606Y339173D02*
X329331D01*
X324606D02*
Y347441D01*
X333268Y345177D02*
X335630D01*
X338583Y342815D02*
Y347539D01*
X334449Y343996D02*
Y346358D01*
X330315Y347539D02*
X338583D01*
X330315Y342815D02*
X338583D01*
X330315D02*
Y347539D01*
X316536Y270669D02*
X318898D01*
X321850Y268307D02*
Y273032D01*
X317717Y269488D02*
Y271850D01*
X313583Y273032D02*
X321850D01*
X313583Y268307D02*
X321850D01*
X313583D02*
Y273032D01*
X323425Y275099D02*
X325787D01*
X324606Y273918D02*
Y276280D01*
X326969Y270965D02*
Y279232D01*
X322244D02*
X326969D01*
X322244Y270965D02*
X326969D01*
X322244D02*
Y279232D01*
X337402Y214961D02*
X339764D01*
X340945Y210827D02*
Y219095D01*
X338583Y213780D02*
Y216142D01*
X336221Y219095D02*
X340945D01*
X336221Y210827D02*
X340945D01*
X336221D02*
Y219095D01*
X207087Y275295D02*
X209449D01*
X208268Y274114D02*
Y276477D01*
X210630Y271162D02*
Y279429D01*
X205906D02*
X210630D01*
X205906Y271162D02*
X210630D01*
X205906D02*
Y279429D01*
X149114Y253642D02*
X151477D01*
X150295Y252461D02*
Y254823D01*
X152657Y249508D02*
Y257775D01*
X147933D02*
X152657D01*
X147933Y249508D02*
X152657D01*
X147933D02*
Y257775D01*
X97244Y248425D02*
Y266929D01*
X88189D02*
X97244D01*
X88189Y248425D02*
X97244D01*
X88189D02*
Y266929D01*
X140221Y266622D02*
X143961D01*
X142091Y264752D02*
Y268492D01*
X145043Y260717D02*
Y272528D01*
X139138D02*
X145043D01*
X139138Y260717D02*
X145043D01*
X139138D02*
Y272528D01*
X126817Y254441D02*
X130557D01*
X128687Y252571D02*
Y256311D01*
X131639Y248535D02*
Y260346D01*
X125734D02*
X131639D01*
X125734Y248535D02*
X131639D01*
X125734D02*
Y260346D01*
X133750Y254441D02*
X137490D01*
X135620Y252571D02*
Y256311D01*
X138573Y248535D02*
Y260346D01*
X132667D02*
X138573D01*
X132667Y248535D02*
X138573D01*
X132667D02*
Y260346D01*
X133823Y253752D02*
X136185D01*
X135004Y252571D02*
Y254933D01*
X137366Y249618D02*
Y257886D01*
X132642D02*
X137366D01*
X132642Y249618D02*
X137366D01*
X132642D02*
Y257886D01*
X138843Y253653D02*
X141205D01*
X140024Y252472D02*
Y254835D01*
X142386Y249520D02*
Y257787D01*
X137662D02*
X142386D01*
X137662Y249520D02*
X142386D01*
X137662D02*
Y257787D01*
X143996Y253642D02*
X146358D01*
X145177Y252461D02*
Y254823D01*
X147539Y249508D02*
Y257775D01*
X142815D02*
X147539D01*
X142815Y249508D02*
X147539D01*
X142815D02*
Y257775D01*
X126870Y266634D02*
X130610D01*
X128740Y264764D02*
Y268504D01*
X131693Y260728D02*
Y272539D01*
X125787D02*
X131693D01*
X125787Y260728D02*
X131693D01*
X125787D02*
Y272539D01*
X147181Y254441D02*
X150921D01*
X149051Y252571D02*
Y256311D01*
X152004Y248535D02*
Y260346D01*
X146098D02*
X152004D01*
X146098Y248535D02*
X152004D01*
X146098D02*
Y260346D01*
X140390Y254441D02*
X144130D01*
X142260Y252571D02*
Y256311D01*
X145213Y248535D02*
Y260346D01*
X139307D02*
X145213D01*
X139307Y248535D02*
X145213D01*
X139307D02*
Y260346D01*
X133365Y266622D02*
X137105D01*
X135235Y264752D02*
Y268492D01*
X138188Y260717D02*
Y272528D01*
X132282D02*
X138188D01*
X132282Y260717D02*
X138188D01*
X132282D02*
Y272528D01*
X147307Y266622D02*
X151047D01*
X149177Y264752D02*
Y268492D01*
X152130Y260717D02*
Y272528D01*
X146224D02*
X152130D01*
X146224Y260717D02*
X152130D01*
X146224D02*
Y272528D01*
X125331Y248437D02*
Y266941D01*
X116276D02*
X125331D01*
X116276Y248437D02*
X125331D01*
X116276D02*
Y266941D01*
X115945Y248425D02*
Y266929D01*
X106890D02*
X115945D01*
X106890Y248425D02*
X115945D01*
X106890D02*
Y266929D01*
X106595Y248425D02*
Y266929D01*
X97539D02*
X106595D01*
X97539Y248425D02*
X106595D01*
X97539D02*
Y266929D01*
X108205Y253827D02*
X110567D01*
X109386Y252646D02*
Y255008D01*
X111748Y249693D02*
Y257961D01*
X107024D02*
X111748D01*
X107024Y249693D02*
X111748D01*
X107024D02*
Y257961D01*
X113323Y253827D02*
X115685D01*
X114504Y252646D02*
Y255008D01*
X116866Y249693D02*
Y257961D01*
X112142D02*
X116866D01*
X112142Y249693D02*
X116866D01*
X112142D02*
Y257961D01*
X138744Y267039D02*
X141106D01*
X139925Y265858D02*
Y268220D01*
X142287Y262906D02*
Y271173D01*
X137563D02*
X142287D01*
X137563Y262906D02*
X142287D01*
X137563D02*
Y271173D01*
X133724Y267039D02*
X136086D01*
X134906Y265858D02*
Y268220D01*
X137268Y262906D02*
Y271173D01*
X132543D02*
X137268D01*
X132543Y262906D02*
X137268D01*
X132543D02*
Y271173D01*
X128508Y267039D02*
X130870D01*
X129689Y265858D02*
Y268220D01*
X132051Y262906D02*
Y271173D01*
X127327D02*
X132051D01*
X127327Y262906D02*
X132051D01*
X127327D02*
Y271173D01*
X123488Y267039D02*
X125850D01*
X124669Y265858D02*
Y268220D01*
X127032Y262906D02*
Y271173D01*
X122307D02*
X127032D01*
X122307Y262906D02*
X127032D01*
X122307D02*
Y271173D01*
X196161Y280020D02*
X198523D01*
X201476Y277658D02*
Y282382D01*
X197343Y278839D02*
Y281201D01*
X193209Y282382D02*
X201476D01*
X193209Y277658D02*
X201476D01*
X193209D02*
Y282382D01*
X213142Y297114D02*
X215504D01*
X214323Y295933D02*
Y298295D01*
X216685Y292980D02*
Y301248D01*
X211961D02*
X216685D01*
X211961Y292980D02*
X216685D01*
X211961D02*
Y301248D01*
X195819Y292488D02*
X198181D01*
X201134Y290126D02*
Y294850D01*
X197000Y291307D02*
Y293669D01*
X192866Y294850D02*
X201134D01*
X192866Y290126D02*
X201134D01*
X192866D02*
Y294850D01*
X213142Y287567D02*
X215504D01*
X214323Y286386D02*
Y288748D01*
X216685Y283433D02*
Y291701D01*
X211961D02*
X216685D01*
X211961Y283433D02*
X216685D01*
X211961D02*
Y291701D01*
X195917Y286189D02*
X198279D01*
X201232Y283827D02*
Y288551D01*
X197098Y285008D02*
Y287370D01*
X192965Y288551D02*
X201232D01*
X192965Y283827D02*
X201232D01*
X192965D02*
Y288551D01*
X118468Y267039D02*
X120831D01*
X119650Y265858D02*
Y268220D01*
X122012Y262906D02*
Y271173D01*
X117287D02*
X122012D01*
X117287Y262906D02*
X122012D01*
X117287D02*
Y271173D01*
X113449Y267039D02*
X115811D01*
X114630Y265858D02*
Y268220D01*
X116992Y262906D02*
Y271173D01*
X112268D02*
X116992D01*
X112268Y262906D02*
X116992D01*
X112268D02*
Y271173D01*
X108331Y267039D02*
X110693D01*
X109512Y265858D02*
Y268220D01*
X111874Y262906D02*
Y271173D01*
X107150D02*
X111874D01*
X107150Y262906D02*
X111874D01*
X107150D02*
Y271173D01*
X213386Y275394D02*
X215748D01*
X214567Y274213D02*
Y276575D01*
X216929Y271260D02*
Y279527D01*
X212205D02*
X216929D01*
X212205Y271260D02*
X216929D01*
X212205D02*
Y279527D01*
X118441Y253827D02*
X120803D01*
X119622Y252646D02*
Y255008D01*
X121984Y249693D02*
Y257961D01*
X117260D02*
X121984D01*
X117260Y249693D02*
X121984D01*
X117260D02*
Y257961D01*
X149079Y267138D02*
X151441D01*
X150260Y265956D02*
Y268319D01*
X152622Y263004D02*
Y271271D01*
X147898D02*
X152622D01*
X147898Y263004D02*
X152622D01*
X147898D02*
Y271271D01*
X143862Y267138D02*
X146224D01*
X145043Y265956D02*
Y268319D01*
X147406Y263004D02*
Y271271D01*
X142681D02*
X147406D01*
X142681Y263004D02*
X147406D01*
X142681D02*
Y271271D01*
X123488Y253949D02*
X125850D01*
X124669Y252768D02*
Y255130D01*
X127032Y249815D02*
Y258083D01*
X122307D02*
X127032D01*
X122307Y249815D02*
X127032D01*
X122307D02*
Y258083D01*
X128606Y253850D02*
X130969D01*
X129787Y252669D02*
Y255031D01*
X132150Y249716D02*
Y257984D01*
X127425D02*
X132150D01*
X127425Y249716D02*
X132150D01*
X127425D02*
Y257984D01*
X211319Y209941D02*
X213681D01*
X216634Y207579D02*
Y212303D01*
X212500Y208760D02*
Y211122D01*
X208366Y212303D02*
X216634D01*
X208366Y207579D02*
X216634D01*
X208366D02*
Y212303D01*
X211220Y215059D02*
X213583D01*
X216535Y212697D02*
Y217421D01*
X212402Y213878D02*
Y216240D01*
X208268Y217421D02*
X216535D01*
X208268Y212697D02*
X216535D01*
X208268D02*
Y217421D01*
X211220Y220177D02*
X213583D01*
X216535Y217815D02*
Y222539D01*
X212402Y218996D02*
Y221358D01*
X208268Y222539D02*
X216535D01*
X208268Y217815D02*
X216535D01*
X208268D02*
Y222539D01*
X211319Y225394D02*
X213681D01*
X216634Y223031D02*
Y227756D01*
X212500Y224213D02*
Y226575D01*
X208366Y227756D02*
X216634D01*
X208366Y223031D02*
X216634D01*
X208366D02*
Y227756D01*
X211220Y230512D02*
X213583D01*
X216535Y228150D02*
Y232874D01*
X212402Y229331D02*
Y231693D01*
X208268Y232874D02*
X216535D01*
X208268Y228150D02*
X216535D01*
X208268D02*
Y232874D01*
X205315Y298917D02*
X207677D01*
X210630Y296555D02*
Y301279D01*
X206496Y297736D02*
Y300098D01*
X202362Y301279D02*
X210630D01*
X202362Y296555D02*
X210630D01*
X202362D02*
Y301279D01*
X226673Y185630D02*
Y194685D01*
X208169D02*
X226673D01*
X208169Y185630D02*
X226673D01*
X208169D02*
Y194685D01*
X212205Y198031D02*
X215945D01*
X214075Y196161D02*
Y199901D01*
X219980Y195079D02*
Y200984D01*
X208169D02*
X219980D01*
X208169Y195079D02*
X219980D01*
X208169D02*
Y200984D01*
X212205Y204331D02*
X215945D01*
X214075Y202461D02*
Y206201D01*
X219980Y201378D02*
Y207283D01*
X208169D02*
X219980D01*
X208169Y201378D02*
X219980D01*
X208169D02*
Y207283D01*
X368799Y291339D02*
X371162D01*
X369980Y290158D02*
Y292520D01*
X372342Y287205D02*
Y295472D01*
X367618D02*
X372342D01*
X367618Y287205D02*
X372342D01*
X367618D02*
Y295472D01*
X365256Y289862D02*
X367618D01*
X370571Y287500D02*
Y292224D01*
X366437Y288681D02*
Y291043D01*
X362303Y292224D02*
X370571D01*
X362303Y287500D02*
X370571D01*
X362303D02*
Y292224D01*
X202441Y210138D02*
X204803D01*
X207756Y207776D02*
Y212500D01*
X203622Y208957D02*
Y211319D01*
X199488Y212500D02*
X207756D01*
X199488Y207776D02*
X207756D01*
X199488D02*
Y212500D01*
X202441Y215551D02*
X204803D01*
X207756Y213189D02*
Y217913D01*
X203622Y214370D02*
Y216732D01*
X199488Y217913D02*
X207756D01*
X199488Y213189D02*
X207756D01*
X199488D02*
Y217913D01*
X202441Y220819D02*
X204803D01*
X207756Y218457D02*
Y223181D01*
X203622Y219638D02*
Y222000D01*
X199488Y223181D02*
X207756D01*
X199488Y218457D02*
X207756D01*
X199488D02*
Y223181D01*
X202441Y226181D02*
X204803D01*
X207756Y223819D02*
Y228543D01*
X203622Y225000D02*
Y227362D01*
X199488Y228543D02*
X207756D01*
X199488Y223819D02*
X207756D01*
X199488D02*
Y228543D01*
X205512Y286221D02*
X207874D01*
X210827Y283858D02*
Y288583D01*
X206693Y285039D02*
Y287402D01*
X202559Y288583D02*
X210827D01*
X202559Y283858D02*
X210827D01*
X202559D02*
Y288583D01*
X205512Y292815D02*
X207874D01*
X210827Y290453D02*
Y295177D01*
X206693Y291634D02*
Y293996D01*
X202559Y295177D02*
X210827D01*
X202559Y290453D02*
X210827D01*
X202559D02*
Y295177D01*
X207756Y185630D02*
Y194685D01*
X189252D02*
X207756D01*
X189252Y185630D02*
X207756D01*
X189252D02*
Y194685D01*
X199980Y198031D02*
X203720D01*
X201850Y196161D02*
Y199901D01*
X207756Y195079D02*
Y200984D01*
X195945D02*
X207756D01*
X195945Y195079D02*
X207756D01*
X195945D02*
Y200984D01*
X199980Y204331D02*
X203720D01*
X201850Y202461D02*
Y206201D01*
X207756Y201378D02*
Y207283D01*
X195945D02*
X207756D01*
X195945Y201378D02*
X207756D01*
X195945D02*
Y207283D01*
X228543Y256988D02*
X230906D01*
X229724Y255807D02*
Y258169D01*
X232087Y252854D02*
Y261122D01*
X227362D02*
X232087D01*
X227362Y252854D02*
X232087D01*
X227362D02*
Y261122D01*
X197638Y256201D02*
X200000D01*
X198819Y255020D02*
Y257382D01*
X201181Y252067D02*
Y260335D01*
X196457D02*
X201181D01*
X196457Y252067D02*
X201181D01*
X196457D02*
Y260335D01*
X211390Y267389D02*
X214731Y264048D01*
X209303Y261960D02*
X210973Y263631D01*
X208885Y258202D02*
X214731Y264048D01*
X209303Y263630D02*
X210973Y261960D01*
X205544Y261543D02*
X211390Y267389D01*
X205544Y261543D02*
X208885Y258202D01*
X208366Y306693D02*
X210728D01*
X209547Y305512D02*
Y307874D01*
X211909Y302559D02*
Y310827D01*
X207185D02*
X211909D01*
X207185Y302559D02*
X211909D01*
X207185D02*
Y310827D01*
X205414Y255118D02*
X207776D01*
X210728Y252756D02*
Y257480D01*
X206594Y253937D02*
Y256299D01*
X202461Y257480D02*
X210728D01*
X202461Y252756D02*
X210728D01*
X202461D02*
Y257480D01*
X208661Y317815D02*
X211023D01*
X213976Y315453D02*
Y320177D01*
X209842Y316634D02*
Y318996D01*
X205709Y320177D02*
X213976D01*
X205709Y315453D02*
X213976D01*
X205709D02*
Y320177D01*
X203937Y306693D02*
X206299D01*
X205118Y305512D02*
Y307874D01*
X207480Y302559D02*
Y310827D01*
X202756D02*
X207480D01*
X202756Y302559D02*
X207480D01*
X202756D02*
Y310827D01*
X201745Y270538D02*
X205085Y267198D01*
X199657Y265110D02*
X201327Y266780D01*
X199239Y261351D02*
X205085Y267198D01*
X199657Y266780D02*
X201327Y265110D01*
X195899Y264692D02*
X201745Y270538D01*
X195899Y264692D02*
X199239Y261351D01*
X196949Y333465D02*
X199311D01*
X198130Y332283D02*
Y334646D01*
X200492Y329331D02*
Y337598D01*
X195768D02*
X200492D01*
X195768Y329331D02*
X200492D01*
X195768D02*
Y337598D01*
X221654Y335236D02*
X225394D01*
X223524Y333366D02*
Y337106D01*
X226476Y329331D02*
Y341142D01*
X220571D02*
X226476D01*
X220571Y329331D02*
X226476D01*
X220571D02*
Y341142D01*
X190650Y335138D02*
X194390D01*
X192520Y333268D02*
Y337008D01*
X195473Y329232D02*
Y341043D01*
X189567D02*
X195473D01*
X189567Y329232D02*
X195473D01*
X189567D02*
Y341043D01*
X203949Y226709D02*
X207689D01*
X205819Y224839D02*
Y228579D01*
X211724Y223756D02*
Y229661D01*
X199913D02*
X211724D01*
X199913Y223756D02*
X211724D01*
X199913D02*
Y229661D01*
X218307Y195177D02*
Y204232D01*
X199803D02*
X218307D01*
X199803Y195177D02*
X218307D01*
X199803D02*
Y204232D01*
X201968Y333366D02*
X204331D01*
X203150Y332185D02*
Y334547D01*
X205512Y329232D02*
Y337500D01*
X200787D02*
X205512D01*
X200787Y329232D02*
X205512D01*
X200787D02*
Y337500D01*
X206976Y333464D02*
X209338D01*
X208157Y332283D02*
Y334645D01*
X210520Y329331D02*
Y337598D01*
X205795D02*
X210520D01*
X205795Y329331D02*
X210520D01*
X205795D02*
Y337598D01*
X217027Y217008D02*
X219390D01*
X222342Y214646D02*
Y219370D01*
X218209Y215827D02*
Y218189D01*
X214075Y219370D02*
X222342D01*
X214075Y214646D02*
X222342D01*
X214075D02*
Y219370D01*
X217027Y221996D02*
X219390D01*
X222342Y219634D02*
Y224358D01*
X218209Y220815D02*
Y223177D01*
X214075Y224358D02*
X222342D01*
X214075Y219634D02*
X222342D01*
X214075D02*
Y224358D01*
X199311Y321260D02*
X201673D01*
X204626Y318898D02*
Y323622D01*
X200492Y320079D02*
Y322441D01*
X196358Y323622D02*
X204626D01*
X196358Y318898D02*
X204626D01*
X196358D02*
Y323622D01*
X174213Y308366D02*
X176575D01*
X179527Y306004D02*
Y310728D01*
X175394Y307185D02*
Y309547D01*
X171260Y310728D02*
X179527D01*
X171260Y306004D02*
X179527D01*
X171260D02*
Y310728D01*
X191634Y329134D02*
Y347638D01*
X182579D02*
X191634D01*
X182579Y329134D02*
X191634D01*
X182579D02*
Y347638D01*
X202461Y335236D02*
X206201D01*
X204331Y333366D02*
Y337106D01*
X207283Y329331D02*
Y341142D01*
X201378D02*
X207283D01*
X201378Y329331D02*
X207283D01*
X201378D02*
Y341142D01*
X208957Y335236D02*
X212697D01*
X210827Y333366D02*
Y337106D01*
X213780Y329331D02*
Y341142D01*
X207874D02*
X213780D01*
X207874Y329331D02*
X213780D01*
X207874D02*
Y341142D01*
X217027Y212008D02*
X219390D01*
X222342Y209646D02*
Y214370D01*
X218209Y210827D02*
Y213189D01*
X214075Y214370D02*
X222342D01*
X214075Y209646D02*
X222342D01*
X214075D02*
Y214370D01*
X218307Y314567D02*
X220669D01*
X223622Y312205D02*
Y316929D01*
X219488Y313386D02*
Y315748D01*
X215354Y316929D02*
X223622D01*
X215354Y312205D02*
X223622D01*
X215354D02*
Y316929D01*
X175787Y316043D02*
X178150D01*
X176969Y314862D02*
Y317225D01*
X179331Y311910D02*
Y320177D01*
X174606D02*
X179331D01*
X174606Y311910D02*
X179331D01*
X174606D02*
Y320177D01*
X230905Y320965D02*
X233268D01*
X236220Y318602D02*
Y323327D01*
X232087Y319784D02*
Y322146D01*
X227953Y323327D02*
X236220D01*
X227953Y318602D02*
X236220D01*
X227953D02*
Y323327D01*
X196260Y311516D02*
X198622D01*
X201575Y309154D02*
Y313878D01*
X197441Y310335D02*
Y312697D01*
X193307Y313878D02*
X201575D01*
X193307Y309154D02*
X201575D01*
X193307D02*
Y313878D01*
X213386Y306988D02*
X215748D01*
X214567Y305807D02*
Y308169D01*
X216929Y302854D02*
Y311122D01*
X212205D02*
X216929D01*
X212205Y302854D02*
X216929D01*
X212205D02*
Y311122D01*
X219685Y259350D02*
X222047D01*
X220866Y258169D02*
Y260532D01*
X223228Y255217D02*
Y263484D01*
X218504D02*
X223228D01*
X218504Y255217D02*
X223228D01*
X218504D02*
Y263484D01*
X217224Y333465D02*
X219586D01*
X218406Y332283D02*
Y334646D01*
X220768Y329331D02*
Y337598D01*
X216043D02*
X220768D01*
X216043Y329331D02*
X220768D01*
X216043D02*
Y337598D01*
X181890Y306988D02*
X184252D01*
X183071Y305807D02*
Y308169D01*
X185433Y302854D02*
Y311122D01*
X180709D02*
X185433D01*
X180709Y302854D02*
X185433D01*
X180709D02*
Y311122D01*
X227237Y314928D02*
X230578Y311587D01*
X225149Y309500D02*
X226819Y311170D01*
X224731Y305741D02*
X230578Y311587D01*
X225149Y311170D02*
X226819Y309499D01*
X221391Y309082D02*
X227237Y314928D01*
X221391Y309082D02*
X224731Y305741D01*
X186516Y314665D02*
X188878D01*
X191831Y312303D02*
Y317028D01*
X187697Y313484D02*
Y315847D01*
X183563Y317028D02*
X191831D01*
X183563Y312303D02*
X191831D01*
X183563D02*
Y317028D01*
X212043Y333433D02*
X214405D01*
X213224Y332252D02*
Y334614D01*
X215587Y329299D02*
Y337567D01*
X210862D02*
X215587D01*
X210862Y329299D02*
X215587D01*
X210862D02*
Y337567D01*
X217027Y206988D02*
X219390D01*
X222342Y204626D02*
Y209350D01*
X218209Y205807D02*
Y208169D01*
X214075Y209350D02*
X222342D01*
X214075Y204626D02*
X222342D01*
X214075D02*
Y209350D01*
X218307Y185531D02*
Y194587D01*
X199803D02*
X218307D01*
X199803Y185531D02*
X218307D01*
X199803D02*
Y194587D01*
X215256Y335236D02*
X218996D01*
X217126Y333366D02*
Y337106D01*
X220079Y329331D02*
Y341142D01*
X214173D02*
X220079D01*
X214173Y329331D02*
X220079D01*
X214173D02*
Y341142D01*
X203870Y220508D02*
X207610D01*
X205740Y218638D02*
Y222378D01*
X211646Y217555D02*
Y223461D01*
X199834D02*
X211646D01*
X199834Y217555D02*
X211646D01*
X199834D02*
Y223461D01*
X203870Y214110D02*
X207610D01*
X205740Y212240D02*
Y215980D01*
X211646Y211157D02*
Y217063D01*
X199834D02*
X211646D01*
X199834Y211157D02*
X211646D01*
X199834D02*
Y217063D01*
X203870Y207614D02*
X207610D01*
X205740Y205744D02*
Y209484D01*
X211646Y204661D02*
Y210567D01*
X199834D02*
X211646D01*
X199834Y204661D02*
X211646D01*
X199834D02*
Y210567D01*
X200984Y329134D02*
Y347638D01*
X191929D02*
X200984D01*
X191929Y329134D02*
X200984D01*
X191929D02*
Y347638D01*
X268933Y264087D02*
X271295D01*
X270114Y262905D02*
Y265268D01*
X272476Y259953D02*
Y268220D01*
X267752D02*
X272476D01*
X267752Y259953D02*
X272476D01*
X267752D02*
Y268220D01*
X258008Y248535D02*
X260370D01*
X263323Y246173D02*
Y250898D01*
X259189Y247354D02*
Y249717D01*
X255055Y250898D02*
X263323D01*
X255055Y246173D02*
X263323D01*
X255055D02*
Y250898D01*
X263717Y229343D02*
Y238398D01*
X245213D02*
X263717D01*
X245213Y229343D02*
X263717D01*
X245213D02*
Y238398D01*
X260862Y340169D02*
Y349224D01*
X242358D02*
X260862D01*
X242358Y340169D02*
X260862D01*
X242358D02*
Y349224D01*
X252890Y336035D02*
X256630D01*
X254760Y334165D02*
Y337905D01*
X260665Y333083D02*
Y338988D01*
X248854D02*
X260665D01*
X248854Y333083D02*
X260665D01*
X248854D02*
Y338988D01*
X252988Y328949D02*
X256728D01*
X254858Y327079D02*
Y330819D01*
X260764Y325996D02*
Y331902D01*
X248953D02*
X260764D01*
X248953Y325996D02*
X260764D01*
X248953D02*
Y331902D01*
X255732Y242280D02*
X259472D01*
X257602Y240409D02*
Y244149D01*
X263508Y239327D02*
Y245232D01*
X251697D02*
X263508D01*
X251697Y239327D02*
X263508D01*
X251697D02*
Y245232D01*
X188189Y294390D02*
X190551D01*
X189370Y293209D02*
Y295571D01*
X191732Y290256D02*
Y298524D01*
X187008D02*
X191732D01*
X187008Y290256D02*
X191732D01*
X187008D02*
Y298524D01*
X180413Y264272D02*
X182775D01*
X185728Y261910D02*
Y266634D01*
X181595Y263091D02*
Y265453D01*
X177461Y266634D02*
X185728D01*
X177461Y261910D02*
X185728D01*
X177461D02*
Y266634D01*
X177362Y254724D02*
X179724D01*
X182677Y252362D02*
Y257087D01*
X178543Y253543D02*
Y255906D01*
X174409Y257087D02*
X182677D01*
X174409Y252362D02*
X182677D01*
X174409D02*
Y257087D01*
X172342Y278543D02*
X174705D01*
X173524Y277362D02*
Y279724D01*
X175886Y274410D02*
Y282677D01*
X171161D02*
X175886D01*
X171161Y274410D02*
X175886D01*
X171161D02*
Y282677D01*
X159055Y265059D02*
X161417D01*
X164370Y262697D02*
Y267421D01*
X160236Y263878D02*
Y266240D01*
X156102Y267421D02*
X164370D01*
X156102Y262697D02*
X164370D01*
X156102D02*
Y267421D01*
X159154Y270079D02*
X161516D01*
X164469Y267717D02*
Y272441D01*
X160335Y268898D02*
Y271260D01*
X156201Y272441D02*
X164469D01*
X156201Y267717D02*
X164469D01*
X156201D02*
Y272441D01*
X169291Y300787D02*
X171653D01*
X170472Y299606D02*
Y301968D01*
X172835Y296654D02*
Y304921D01*
X168110D02*
X172835D01*
X168110Y296654D02*
X172835D01*
X168110D02*
Y304921D01*
X159154Y275098D02*
X161516D01*
X164469Y272736D02*
Y277461D01*
X160335Y273917D02*
Y276280D01*
X156201Y277461D02*
X164469D01*
X156201Y272736D02*
X164469D01*
X156201D02*
Y277461D01*
X94193Y299409D02*
X96555D01*
X95374Y298228D02*
Y300591D01*
X97736Y295276D02*
Y303543D01*
X93012D02*
X97736D01*
X93012Y295276D02*
X97736D01*
X93012D02*
Y303543D01*
X81461Y313276D02*
X85201D01*
X83331Y311406D02*
Y315146D01*
X86283Y307370D02*
Y319181D01*
X80378D02*
X86283D01*
X80378Y307370D02*
X86283D01*
X80378D02*
Y319181D01*
X87760Y313276D02*
X91500D01*
X89630Y311406D02*
Y315146D01*
X92583Y307370D02*
Y319181D01*
X86677D02*
X92583D01*
X86677Y307370D02*
X92583D01*
X86677D02*
Y319181D01*
X94059Y313276D02*
X97799D01*
X95929Y311406D02*
Y315146D01*
X98882Y307370D02*
Y319181D01*
X92976D02*
X98882D01*
X92976Y307370D02*
X98882D01*
X92976D02*
Y319181D01*
X80118Y300689D02*
Y319193D01*
X71063D02*
X80118D01*
X71063Y300689D02*
X80118D01*
X71063D02*
Y319193D01*
X257713Y264087D02*
X260075D01*
X258894Y262905D02*
Y265268D01*
X261256Y259953D02*
Y268220D01*
X256532D02*
X261256D01*
X256532Y259953D02*
X261256D01*
X256532D02*
Y268220D01*
X256630Y312807D02*
X258992D01*
X257811Y311626D02*
Y313988D01*
X260173Y308673D02*
Y316941D01*
X255449D02*
X260173D01*
X255449Y308673D02*
X260173D01*
X255449D02*
Y316941D01*
X262338Y312807D02*
X264701D01*
X263520Y311626D02*
Y313988D01*
X265882Y308673D02*
Y316941D01*
X261157D02*
X265882D01*
X261157Y308673D02*
X265882D01*
X261157D02*
Y316941D01*
X263421Y264087D02*
X265783D01*
X264602Y262905D02*
Y265268D01*
X266965Y259953D02*
Y268220D01*
X262240D02*
X266965D01*
X262240Y259953D02*
X266965D01*
X262240D02*
Y268220D01*
X246590Y257492D02*
X248953D01*
X247772Y256311D02*
Y258673D01*
X250134Y253358D02*
Y261626D01*
X245409D02*
X250134D01*
X245409Y253358D02*
X250134D01*
X245409D02*
Y261626D01*
X250370Y303162D02*
X252732D01*
X251551Y301980D02*
Y304343D01*
X253913Y299028D02*
Y307295D01*
X249189D02*
X253913D01*
X249189Y299028D02*
X253913D01*
X249189D02*
Y307295D01*
X256433Y303161D02*
X258795D01*
X257614Y301980D02*
Y304343D01*
X259976Y299028D02*
Y307295D01*
X255252D02*
X259976D01*
X255252Y299028D02*
X259976D01*
X255252D02*
Y307295D01*
X262339Y303161D02*
X264701D01*
X263520Y301980D02*
Y304343D01*
X265882Y299028D02*
Y307295D01*
X261157D02*
X265882D01*
X261157Y299028D02*
X265882D01*
X261157D02*
Y307295D01*
X246492Y266350D02*
X248854D01*
X247673Y265169D02*
Y267532D01*
X250035Y262217D02*
Y270484D01*
X245311D02*
X250035D01*
X245311Y262217D02*
X250035D01*
X245311D02*
Y270484D01*
X241276Y268417D02*
X243638D01*
X242457Y267236D02*
Y269599D01*
X244819Y264283D02*
Y272551D01*
X240094D02*
X244819D01*
X240094Y264283D02*
X244819D01*
X240094D02*
Y272551D01*
X234090Y267335D02*
X236453D01*
X239405Y264972D02*
Y269697D01*
X235272Y266154D02*
Y268516D01*
X231138Y269697D02*
X239405D01*
X231138Y264972D02*
X239405D01*
X231138D02*
Y269697D01*
X178740Y297342D02*
X181102D01*
X179921Y296161D02*
Y298523D01*
X182283Y293209D02*
Y301476D01*
X177559D02*
X182283D01*
X177559Y293209D02*
X182283D01*
X177559D02*
Y301476D01*
X182087Y284744D02*
X184449D01*
X183268Y283563D02*
Y285925D01*
X185630Y280610D02*
Y288878D01*
X180905D02*
X185630D01*
X180905Y280610D02*
X185630D01*
X180905D02*
Y288878D01*
X191240Y272244D02*
X193602D01*
X192421Y271063D02*
Y273425D01*
X194783Y268110D02*
Y276378D01*
X190059D02*
X194783D01*
X190059Y268110D02*
X194783D01*
X190059D02*
Y276378D01*
X169291Y269193D02*
X171653D01*
X170472Y268012D02*
Y270374D01*
X172835Y265059D02*
Y273327D01*
X168110D02*
X172835D01*
X168110Y265059D02*
X172835D01*
X168110D02*
Y273327D01*
X188189Y259252D02*
X190551D01*
X189370Y258071D02*
Y260433D01*
X191732Y255118D02*
Y263386D01*
X187008D02*
X191732D01*
X187008Y255118D02*
X191732D01*
X187008D02*
Y263386D01*
X175591Y288090D02*
X177953D01*
X176772Y286909D02*
Y289271D01*
X179134Y283957D02*
Y292224D01*
X174409D02*
X179134D01*
X174409Y283957D02*
X179134D01*
X174409D02*
Y292224D01*
X181890Y275394D02*
X184252D01*
X183071Y274213D02*
Y276575D01*
X185433Y271260D02*
Y279527D01*
X180709D02*
X185433D01*
X180709Y271260D02*
X185433D01*
X180709D02*
Y279527D01*
X159055Y259842D02*
X161417D01*
X164370Y257480D02*
Y262205D01*
X160236Y258662D02*
Y261024D01*
X156102Y262205D02*
X164370D01*
X156102Y257480D02*
X164370D01*
X156102D02*
Y262205D01*
X99212Y299409D02*
X101575D01*
X100394Y298228D02*
Y300591D01*
X102756Y295276D02*
Y303543D01*
X98032D02*
X102756D01*
X98032Y295276D02*
X102756D01*
X98032D02*
Y303543D01*
X87697Y301181D02*
X91437D01*
X89567Y299311D02*
Y303051D01*
X92520Y295275D02*
Y307087D01*
X86614D02*
X92520D01*
X86614Y295275D02*
X92520D01*
X86614D02*
Y307087D01*
X81398Y301181D02*
X85138D01*
X83268Y299311D02*
Y303051D01*
X86221Y295275D02*
Y307087D01*
X80315D02*
X86221D01*
X80315Y295275D02*
X86221D01*
X80315D02*
Y307087D01*
X100394Y313287D02*
X104134D01*
X102264Y311417D02*
Y315157D01*
X105217Y307382D02*
Y319193D01*
X99311D02*
X105217D01*
X99311Y307382D02*
X105217D01*
X99311D02*
Y319193D01*
X70768Y300689D02*
Y319193D01*
X61713D02*
X70768D01*
X61713Y300689D02*
X70768D01*
X61713D02*
Y319193D01*
X92323Y253839D02*
X94685D01*
X93504Y252658D02*
Y255020D01*
X95866Y249705D02*
Y257973D01*
X91142D02*
X95866D01*
X91142Y249705D02*
X95866D01*
X91142D02*
Y257973D01*
X97776Y253839D02*
X100138D01*
X98957Y252658D02*
Y255020D01*
X101319Y249705D02*
Y257973D01*
X96595D02*
X101319D01*
X96595Y249705D02*
X101319D01*
X96595D02*
Y257973D01*
X103150Y253839D02*
X105512D01*
X104331Y252658D02*
Y255020D01*
X106693Y249705D02*
Y257973D01*
X101969D02*
X106693D01*
X101969Y249705D02*
X106693D01*
X101969D02*
Y257973D01*
X196063Y298917D02*
X198425D01*
X201378Y296555D02*
Y301279D01*
X197244Y297736D02*
Y300098D01*
X193110Y301279D02*
X201378D01*
X193110Y296555D02*
X201378D01*
X193110D02*
Y301279D01*
X144291Y412402D02*
X146653D01*
X149606Y410040D02*
Y414764D01*
X145473Y411221D02*
Y413583D01*
X141339Y414764D02*
X149606D01*
X141339Y410040D02*
X149606D01*
X141339D02*
Y414764D01*
X134449Y406496D02*
X136811D01*
X135630Y405315D02*
Y407677D01*
X137992Y402362D02*
Y410630D01*
X133268D02*
X137992D01*
X133268Y402362D02*
X137992D01*
X133268D02*
Y410630D01*
X134449Y422244D02*
X136811D01*
X135630Y421063D02*
Y423425D01*
X137992Y418110D02*
Y426378D01*
X133268D02*
X137992D01*
X133268Y418110D02*
X137992D01*
X133268D02*
Y426378D01*
X54429Y312205D02*
X56791D01*
X59744Y309843D02*
Y314567D01*
X55610Y311024D02*
Y313386D01*
X51476Y314567D02*
X59744D01*
X51476Y309843D02*
X59744D01*
X51476D02*
Y314567D01*
X56595Y333760D02*
X58957D01*
X57776Y332579D02*
Y334941D01*
X60138Y329626D02*
Y337894D01*
X55413D02*
X60138D01*
X55413Y329626D02*
X60138D01*
X55413D02*
Y337894D01*
X51575Y333760D02*
X53937D01*
X52756Y332579D02*
Y334941D01*
X55118Y329626D02*
Y337894D01*
X50394D02*
X55118D01*
X50394Y329626D02*
X55118D01*
X50394D02*
Y337894D01*
X38681Y333858D02*
X41043D01*
X39862Y332677D02*
Y335039D01*
X42224Y329725D02*
Y337992D01*
X37500D02*
X42224D01*
X37500Y329725D02*
X42224D01*
X37500D02*
Y337992D01*
X79626Y400197D02*
X81988D01*
X80807Y399016D02*
Y401378D01*
X83169Y396063D02*
Y404331D01*
X78445D02*
X83169D01*
X78445Y396063D02*
X83169D01*
X78445D02*
Y404331D01*
X51279Y164173D02*
X53445D01*
X52362Y163091D02*
Y165256D01*
X54331Y160433D02*
Y167913D01*
X50394D02*
X54331D01*
X50394Y160433D02*
X54331D01*
X50394D02*
Y167913D01*
X17717Y191732D02*
X19882D01*
X22539Y189764D02*
Y193701D01*
X18799Y190650D02*
Y192815D01*
X15059Y193701D02*
X22539D01*
X15059Y189764D02*
X22539D01*
X15059D02*
Y193701D01*
X17618Y186516D02*
X19783D01*
X22441Y184547D02*
Y188484D01*
X18701Y185433D02*
Y187599D01*
X14961Y188484D02*
X22441D01*
X14961Y184547D02*
X22441D01*
X14961D02*
Y188484D01*
X25492Y191732D02*
X27658D01*
X30315Y189764D02*
Y193701D01*
X26575Y190650D02*
Y192815D01*
X22835Y193701D02*
X30315D01*
X22835Y189764D02*
X30315D01*
X22835D02*
Y193701D01*
X25492Y186516D02*
X27658D01*
X30315Y184547D02*
Y188484D01*
X26575Y185433D02*
Y187598D01*
X22835Y188484D02*
X30315D01*
X22835Y184547D02*
X30315D01*
X22835D02*
Y188484D01*
X51378Y185335D02*
X53543D01*
X52461Y184252D02*
Y186417D01*
X54429Y181595D02*
Y189075D01*
X50492D02*
X54429D01*
X50492Y181595D02*
X54429D01*
X50492D02*
Y189075D01*
X30315Y187697D02*
X32480D01*
X31398Y186614D02*
Y188780D01*
X33366Y183957D02*
Y191437D01*
X29429D02*
X33366D01*
X29429Y183957D02*
X33366D01*
X29429D02*
Y191437D01*
X58071Y190354D02*
X60236D01*
X59153Y189272D02*
Y191437D01*
X61122Y186614D02*
Y194095D01*
X57185D02*
X61122D01*
X57185Y186614D02*
X61122D01*
X57185D02*
Y194095D01*
X381102Y198721D02*
X383465D01*
X382283Y197539D02*
Y199902D01*
X384646Y194587D02*
Y202854D01*
X379921D02*
X384646D01*
X379921Y194587D02*
X384646D01*
X379921D02*
Y202854D01*
D407*
X89961Y333268D02*
X91929D01*
X95859Y389476D02*
X97251Y388084D01*
X62599Y333465D02*
X64567D01*
X103937Y375295D02*
Y377264D01*
X78642Y333268D02*
X80610D01*
X103839Y364075D02*
Y366043D01*
M02*
