%FSLAX25Y25*%
%MOIN*%
G70*
G01*
G75*
G04 Layer_Physical_Order=4*
G04 Layer_Color=16440176*
%ADD10C,0.01969*%
%ADD11R,0.03543X0.01772*%
%ADD12R,0.18898X0.18898*%
%ADD13R,0.01575X0.01575*%
%ADD14R,0.01772X0.01181*%
%ADD15R,0.01181X0.01181*%
%ADD16R,0.01181X0.01772*%
%ADD17R,0.01181X0.01181*%
%ADD18R,0.26772X0.26772*%
%ADD19R,0.03543X0.03937*%
%ADD20R,0.02165X0.02559*%
%ADD21R,0.01969X0.01969*%
%ADD22R,0.01378X0.01969*%
%ADD23R,0.07087X0.02362*%
%ADD24R,0.02362X0.01181*%
%ADD25R,0.02362X0.07874*%
%ADD26R,0.06299X0.02165*%
%ADD27R,0.01772X0.01378*%
%ADD28R,0.07480X0.07087*%
%ADD29R,0.05315X0.01575*%
%ADD30R,0.06299X0.08268*%
%ADD31O,0.03150X0.00984*%
%ADD32O,0.00984X0.03150*%
%ADD33R,0.05276X0.12284*%
%ADD34R,0.11181X0.12284*%
%ADD35R,0.18071X0.04370*%
%ADD36R,0.02756X0.01181*%
%ADD37R,0.06221X0.09252*%
%ADD38C,0.00984*%
%ADD39R,0.01181X0.03347*%
%ADD40R,0.03347X0.01181*%
%ADD41R,0.13386X0.13386*%
%ADD42R,0.04528X0.02992*%
%ADD43R,0.03937X0.03543*%
%ADD44R,0.02362X0.02362*%
%ADD45R,0.00984X0.01575*%
%ADD46R,0.05512X0.01969*%
%ADD47R,0.07284X0.02913*%
%ADD48R,0.04134X0.05512*%
%ADD49R,0.08661X0.20472*%
%ADD50R,0.18110X0.22047*%
%ADD51R,0.10984X0.07559*%
%ADD52C,0.05906*%
%ADD53R,0.09449X0.02992*%
%ADD54R,0.06693X0.02795*%
%ADD55R,0.01969X0.00984*%
%ADD56R,0.00984X0.01969*%
%ADD57R,0.09055X0.09055*%
%ADD58R,0.07520X0.02992*%
%ADD59O,0.02953X0.00984*%
%ADD60O,0.00984X0.02953*%
%ADD61R,0.17716X0.17716*%
%ADD62O,0.08268X0.01181*%
%ADD63O,0.01181X0.08268*%
%ADD64R,0.01969X0.01969*%
%ADD65R,0.04724X0.02953*%
%ADD66C,0.01378*%
%ADD67R,0.06299X0.19291*%
%ADD68R,0.05906X0.22047*%
%ADD69R,0.05709X0.04528*%
%ADD70R,0.02441X0.02441*%
%ADD71R,0.01811X0.01654*%
%ADD72R,0.03543X0.01575*%
%ADD73R,0.02559X0.02165*%
%ADD74R,0.01575X0.00984*%
%ADD75R,0.01969X0.05512*%
%ADD76R,0.03740X0.05512*%
G04:AMPARAMS|DCode=77|XSize=13.78mil|YSize=19.69mil|CornerRadius=0mil|HoleSize=0mil|Usage=FLASHONLY|Rotation=315.000|XOffset=0mil|YOffset=0mil|HoleType=Round|Shape=Rectangle|*
%AMROTATEDRECTD77*
4,1,4,-0.01183,-0.00209,0.00209,0.01183,0.01183,0.00209,-0.00209,-0.01183,-0.01183,-0.00209,0.0*
%
%ADD77ROTATEDRECTD77*%

%ADD78P,0.02784X4X360.0*%
%ADD79R,0.01969X0.01378*%
%ADD80R,0.02795X0.06693*%
%ADD81R,0.23622X0.07874*%
%ADD82R,0.05512X0.04134*%
%ADD83R,0.01575X0.01575*%
%ADD84R,0.02441X0.02441*%
%ADD85R,0.04528X0.10630*%
%ADD86R,0.10630X0.04528*%
%ADD87R,0.04528X0.07087*%
%ADD88R,0.04528X0.05709*%
%ADD89R,0.01654X0.01811*%
%ADD90R,0.07087X0.04528*%
%ADD91R,0.05512X0.03740*%
%ADD92C,0.01181*%
%ADD93C,0.01000*%
%ADD94C,0.00453*%
%ADD95C,0.03150*%
%ADD96C,0.01969*%
%ADD97C,0.01378*%
%ADD98C,0.03937*%
%ADD99C,0.00996*%
%ADD100C,0.00394*%
%ADD101C,0.00787*%
%ADD102C,0.01181*%
%ADD103C,0.00784*%
%ADD104C,0.00512*%
%ADD105C,0.00600*%
%ADD106R,0.09911X0.06594*%
%ADD107R,0.06791X1.25492*%
%ADD108R,0.18996X0.06496*%
%ADD109R,0.15453X0.49409*%
%ADD110R,0.02854X0.21358*%
%ADD111R,0.13976X0.11319*%
%ADD112R,0.14764X0.11122*%
%ADD113R,0.09153X0.17224*%
%ADD114R,0.08465X0.09843*%
%ADD115R,0.08661X0.12402*%
%ADD116R,0.13386X0.08169*%
%ADD117R,0.05315X0.93799*%
%ADD118R,0.17224X0.04528*%
%ADD119R,0.19193X0.03051*%
%ADD120R,0.10925X0.14469*%
%ADD121R,0.11614X0.04035*%
%ADD122R,0.02264X0.71752*%
%ADD123R,0.34842X0.01969*%
%ADD124R,0.78150X0.02461*%
%ADD125R,0.02461X0.13189*%
%ADD126R,0.16043X0.02264*%
%ADD127R,0.02658X0.42618*%
%ADD128R,0.25098X0.01969*%
%ADD129R,0.02165X0.76575*%
%ADD130R,0.68504X0.02165*%
%ADD131R,0.03347X0.05315*%
%ADD132R,0.02264X0.05512*%
%ADD133R,0.02431X1.19587*%
%ADD134R,0.10728X0.03445*%
%ADD135R,0.03839X0.08661*%
%ADD136R,0.14075X0.03839*%
%ADD137R,0.06594X0.04232*%
%ADD138R,0.13189X0.03051*%
%ADD139R,0.04921X0.18504*%
%ADD140R,0.09843X0.04134*%
%ADD141R,0.11713X0.02953*%
%ADD142R,0.04429X0.02756*%
%ADD143R,0.02362X0.02264*%
%ADD144R,0.08465X0.02854*%
%ADD145R,0.07087X0.21752*%
%ADD146R,0.10531X0.12598*%
%ADD147R,0.05315X0.10728*%
%ADD148R,0.04232X0.02854*%
%ADD149R,0.38287X0.06398*%
%ADD150R,0.38091X0.05118*%
%ADD151R,0.30807X0.08268*%
%ADD152R,0.30315X0.06102*%
%ADD153R,0.27756X0.05413*%
%ADD154R,0.19095X0.03937*%
%ADD155R,0.00886X0.01280*%
%ADD156R,0.39961X0.06594*%
%ADD157R,0.40256X0.05807*%
%ADD158R,0.30315X0.12008*%
%ADD159R,0.30709X0.06299*%
%ADD160R,0.30413X0.06496*%
%ADD161R,0.04134X0.05413*%
%ADD162R,0.02431X0.00820*%
%ADD163R,0.03642X0.11417*%
%ADD164R,0.34449X0.01969*%
%ADD165R,0.02430X0.17389*%
%ADD166R,0.92913X0.01870*%
%ADD167R,0.04429X0.41240*%
%ADD168R,0.03740X0.41043*%
%ADD169R,0.14075X0.18504*%
%ADD170R,0.05807X0.33169*%
%ADD171R,0.60335X0.08465*%
%ADD172R,0.09843X0.11122*%
%ADD173R,0.14370X0.08760*%
%ADD174R,0.03740X0.24016*%
%ADD175R,0.42224X0.07874*%
%ADD176R,0.08563X0.19291*%
%ADD177R,0.16535X0.19291*%
%ADD178R,0.31693X0.08071*%
%ADD179R,0.06299X0.00394*%
%ADD180R,0.03543X0.00787*%
%ADD181R,0.01181X0.00984*%
%ADD182R,0.12303X0.06004*%
%ADD183R,0.08268X0.01476*%
%ADD184R,0.04823X0.07776*%
%ADD185R,0.14075X0.03740*%
%ADD186R,0.12992X0.01870*%
%ADD187C,0.07874*%
%ADD188C,0.04803*%
%ADD189C,0.09882*%
%ADD190C,0.06299*%
%ADD191C,0.15748*%
%ADD192C,0.07087*%
%ADD193C,0.02598*%
%ADD194C,0.01575*%
%ADD195C,0.02165*%
%ADD196C,0.00591*%
%ADD197C,0.04000*%
%ADD198C,0.08071*%
%ADD199C,0.05591*%
%ADD200C,0.10669*%
%ADD201C,0.13386*%
%ADD202C,0.05787*%
%ADD203C,0.02559*%
%ADD204C,0.02362*%
%ADD205C,0.03150*%
D10*
X51279Y271201D02*
D03*
X46752Y271201D02*
D03*
Y276319D02*
D03*
X46752Y266083D02*
D03*
X51181Y261457D02*
D03*
X43307D02*
D03*
X47244D02*
D03*
X42224Y271201D02*
D03*
X36909Y276319D02*
D03*
Y271201D02*
D03*
Y266083D02*
D03*
X39370Y261457D02*
D03*
X35433D02*
D03*
X360531Y420177D02*
D03*
X356201D02*
D03*
X360531Y415846D02*
D03*
X356201D02*
D03*
Y411516D02*
D03*
X360531Y407185D02*
D03*
Y411516D02*
D03*
X356201Y407185D02*
D03*
X351870Y415846D02*
D03*
Y420177D02*
D03*
X347539Y415846D02*
D03*
Y420177D02*
D03*
X351870Y411516D02*
D03*
Y407185D02*
D03*
X347539Y411516D02*
D03*
Y407185D02*
D03*
X42815Y406201D02*
D03*
D92*
X48622Y341142D02*
D03*
X52559Y341043D02*
D03*
X225000Y439665D02*
D03*
X251673Y447342D02*
D03*
X249114Y447146D02*
D03*
X341762Y209302D02*
D03*
X176673Y418701D02*
D03*
X10236Y215354D02*
D03*
X75590Y294390D02*
D03*
X375295Y92323D02*
D03*
X328051Y142323D02*
D03*
X329429Y150492D02*
D03*
X6791Y257087D02*
D03*
X408169Y232382D02*
D03*
X196590Y214110D02*
D03*
X6988Y269980D02*
D03*
X272835Y436811D02*
D03*
X423740Y153858D02*
D03*
X423898Y163858D02*
D03*
X319390Y435138D02*
D03*
X238189Y349410D02*
D03*
X119882Y272441D02*
D03*
X8366Y232776D02*
D03*
X31988Y239469D02*
D03*
X7382Y242913D02*
D03*
X5610Y290059D02*
D03*
X79137Y112900D02*
D03*
X110925Y89961D02*
D03*
X110945Y84921D02*
D03*
X110984Y69921D02*
D03*
X110905Y74921D02*
D03*
X111018Y103330D02*
D03*
X108163Y102739D02*
D03*
X110886Y114921D02*
D03*
X110866Y119921D02*
D03*
X272835Y444095D02*
D03*
X322539Y375492D02*
D03*
X164961Y332283D02*
D03*
X169390Y325984D02*
D03*
X63386Y280512D02*
D03*
X273031Y455217D02*
D03*
X322146Y373327D02*
D03*
X166240Y326772D02*
D03*
X161319Y331693D02*
D03*
X62992Y282579D02*
D03*
X56988Y389764D02*
D03*
X272638Y441732D02*
D03*
X272736Y439370D02*
D03*
X232874Y126083D02*
D03*
X229134Y181496D02*
D03*
X148327Y379921D02*
D03*
X160925Y334842D02*
D03*
X320177Y16929D02*
D03*
X62795Y287205D02*
D03*
X63386Y297047D02*
D03*
X58858Y289961D02*
D03*
X55512Y289469D02*
D03*
X392126Y123228D02*
D03*
X423898Y135945D02*
D03*
X423799Y145945D02*
D03*
X369193Y65945D02*
D03*
X314862Y18012D02*
D03*
X258366Y54823D02*
D03*
X234055Y62285D02*
D03*
X386122Y380216D02*
D03*
X344882Y305217D02*
D03*
X336319Y271358D02*
D03*
X262205Y267028D02*
D03*
X106004Y273622D02*
D03*
X263289Y94865D02*
D03*
X400787Y144095D02*
D03*
X397736Y146555D02*
D03*
X385039Y138386D02*
D03*
X337965Y124480D02*
D03*
X289469Y16240D02*
D03*
X279232Y130610D02*
D03*
X267421Y140650D02*
D03*
X199114Y131102D02*
D03*
X174803Y125984D02*
D03*
X174702Y136895D02*
D03*
X221055Y122335D02*
D03*
X387008Y180709D02*
D03*
X380118Y205315D02*
D03*
X385039Y200492D02*
D03*
X387205Y183268D02*
D03*
X388681Y209350D02*
D03*
X390748Y192028D02*
D03*
X373524Y257382D02*
D03*
X371161Y233661D02*
D03*
X268110Y210925D02*
D03*
X263878Y210827D02*
D03*
X304823Y394094D02*
D03*
X296358Y401575D02*
D03*
X230118Y251181D02*
D03*
X253346Y226083D02*
D03*
X255807Y223031D02*
D03*
X255020Y210630D02*
D03*
X243110Y249016D02*
D03*
X256693Y209449D02*
D03*
X237795Y197047D02*
D03*
X374587Y188110D02*
D03*
X372421Y205728D02*
D03*
X372657Y198110D02*
D03*
X372224Y215728D02*
D03*
X285138Y175394D02*
D03*
X280039Y175709D02*
D03*
X272421Y175768D02*
D03*
X266437Y175295D02*
D03*
X266831Y172146D02*
D03*
X239961Y182185D02*
D03*
X297047Y379232D02*
D03*
X284350Y418012D02*
D03*
X272342Y426575D02*
D03*
X285531Y412008D02*
D03*
X270374Y404626D02*
D03*
X276279Y419291D02*
D03*
X278937Y419095D02*
D03*
X255906Y386319D02*
D03*
X259350Y367421D02*
D03*
X265453Y337500D02*
D03*
X255118Y367618D02*
D03*
X191535Y244783D02*
D03*
X204232Y398327D02*
D03*
X235335Y384843D02*
D03*
X146162Y358169D02*
D03*
X219587Y425457D02*
D03*
X48917Y313484D02*
D03*
X44390Y313386D02*
D03*
X353051Y428248D02*
D03*
X364862Y434744D02*
D03*
X366831Y402854D02*
D03*
X327362Y437894D02*
D03*
X332185Y424508D02*
D03*
X332283Y410827D02*
D03*
X332185Y400787D02*
D03*
X317421Y375886D02*
D03*
X335925Y375492D02*
D03*
X339665Y400886D02*
D03*
X341240Y399114D02*
D03*
X343209Y399213D02*
D03*
X353051Y399409D02*
D03*
X353642Y369291D02*
D03*
X371063Y379331D02*
D03*
X375984Y365846D02*
D03*
X362303Y400591D02*
D03*
X387106Y402559D02*
D03*
X366732Y406791D02*
D03*
X367914Y416634D02*
D03*
X367913Y418602D02*
D03*
X367913Y422539D02*
D03*
X365748Y423032D02*
D03*
X367421Y426772D02*
D03*
X370079Y438583D02*
D03*
X378150Y448425D02*
D03*
X368356Y447490D02*
D03*
X352264Y451279D02*
D03*
X343209Y451772D02*
D03*
X328051Y448524D02*
D03*
X349508Y424902D02*
D03*
X343602Y435101D02*
D03*
X325886Y452756D02*
D03*
X309941Y442815D02*
D03*
X249606Y430118D02*
D03*
X253642Y410532D02*
D03*
X266240Y378346D02*
D03*
X338878Y452362D02*
D03*
X325098Y374016D02*
D03*
X336417Y431693D02*
D03*
X328642Y424508D02*
D03*
X355807Y384646D02*
D03*
X316339Y421555D02*
D03*
X391043Y420472D02*
D03*
X339567Y377756D02*
D03*
X368799Y391831D02*
D03*
X339272Y391338D02*
D03*
X330217Y420571D02*
D03*
X375984D02*
D03*
X357087Y427854D02*
D03*
X347342Y424606D02*
D03*
X351083Y428051D02*
D03*
X368209Y444095D02*
D03*
X362500Y453642D02*
D03*
X358563Y453740D02*
D03*
X356594Y453740D02*
D03*
X362500Y434842D02*
D03*
X356594Y436417D02*
D03*
X358563Y436417D02*
D03*
X360532Y434744D02*
D03*
X348524Y446063D02*
D03*
X214567Y418701D02*
D03*
Y416732D02*
D03*
X214665Y414764D02*
D03*
X242618Y420669D02*
D03*
X136221Y436811D02*
D03*
X136811Y445079D02*
D03*
X121457Y436811D02*
D03*
X121358Y443012D02*
D03*
X111122Y337205D02*
D03*
X24311Y335236D02*
D03*
X147244Y408465D02*
D03*
X48130Y355315D02*
D03*
X48228Y358071D02*
D03*
X97638Y331299D02*
D03*
X42717Y363583D02*
D03*
X42815Y374114D02*
D03*
X46457Y374410D02*
D03*
Y363189D02*
D03*
X54626Y367028D02*
D03*
X54626Y370571D02*
D03*
X50984Y312205D02*
D03*
X53347Y307677D02*
D03*
X57382Y307481D02*
D03*
X244390Y156988D02*
D03*
X225098Y229036D02*
D03*
X224803Y226181D02*
D03*
X261713Y89370D02*
D03*
X261614Y91339D02*
D03*
X316339Y96260D02*
D03*
Y94292D02*
D03*
X299016Y91339D02*
D03*
X301280Y106201D02*
D03*
X330610Y160236D02*
D03*
X323819Y165748D02*
D03*
X307579Y162500D02*
D03*
X318307Y168504D02*
D03*
X307776Y170669D02*
D03*
X299705Y120079D02*
D03*
X299311Y113484D02*
D03*
X311860Y174163D02*
D03*
X301132Y176526D02*
D03*
X296457Y99508D02*
D03*
X292421Y216240D02*
D03*
X283469Y212300D02*
D03*
X278445Y212500D02*
D03*
X213681Y177264D02*
D03*
X204134Y174902D02*
D03*
X204429Y170965D02*
D03*
X205807Y179916D02*
D03*
X218701Y181693D02*
D03*
X182352Y92845D02*
D03*
X231102Y156496D02*
D03*
X182087Y113386D02*
D03*
X182324Y118956D02*
D03*
X183957Y107579D02*
D03*
X247736Y253740D02*
D03*
X260728Y308366D02*
D03*
X262598Y254429D02*
D03*
X245669Y336122D02*
D03*
X261519Y338881D02*
D03*
X248327Y243701D02*
D03*
X242126Y244488D02*
D03*
X238780Y245374D02*
D03*
X242224Y246949D02*
D03*
X299016Y210433D02*
D03*
X297047Y200492D02*
D03*
X299016Y205610D02*
D03*
X338858Y210354D02*
D03*
X189567Y208662D02*
D03*
X175394Y230020D02*
D03*
X332776Y84351D02*
D03*
X360433Y107579D02*
D03*
X338189Y110433D02*
D03*
X380807Y57087D02*
D03*
X371260Y60236D02*
D03*
X302165Y80610D02*
D03*
X404823Y110335D02*
D03*
X302327Y150063D02*
D03*
Y141402D02*
D03*
X298862Y29484D02*
D03*
X311414Y60823D02*
D03*
X289764Y41536D02*
D03*
X300295Y51378D02*
D03*
X306988Y50295D02*
D03*
X313189Y57677D02*
D03*
X314071Y74307D02*
D03*
X318016Y70666D02*
D03*
X317819Y62792D02*
D03*
X317622Y58855D02*
D03*
X307087Y74508D02*
D03*
X329134Y78543D02*
D03*
X328937Y68504D02*
D03*
X344705Y71378D02*
D03*
X328937Y66634D02*
D03*
X391437Y86516D02*
D03*
X391339Y84449D02*
D03*
X391240Y78347D02*
D03*
X391339Y66634D02*
D03*
X405807Y68110D02*
D03*
X405905Y77166D02*
D03*
X405217Y120276D02*
D03*
X391240Y62599D02*
D03*
X242569Y106693D02*
D03*
X178051Y152165D02*
D03*
X182283Y38976D02*
D03*
Y29232D02*
D03*
X181693Y55217D02*
D03*
X173622Y43012D02*
D03*
X196850Y61516D02*
D03*
X198819Y54429D02*
D03*
X198917Y38878D02*
D03*
X212303Y57579D02*
D03*
X189862Y75788D02*
D03*
X187992Y75886D02*
D03*
X212008Y67323D02*
D03*
X263484Y77362D02*
D03*
X263583Y69390D02*
D03*
X263484Y53642D02*
D03*
X278642Y56004D02*
D03*
X253346Y104823D02*
D03*
X278937Y42028D02*
D03*
X285236Y121851D02*
D03*
X263583Y115158D02*
D03*
X249803Y115355D02*
D03*
X285433Y63288D02*
D03*
X214075Y68406D02*
D03*
X229724Y71162D02*
D03*
X180708Y98022D02*
D03*
X213780Y82973D02*
D03*
X215650Y81201D02*
D03*
X150295Y98425D02*
D03*
X139173Y92421D02*
D03*
X176280Y142913D02*
D03*
X213878Y139961D02*
D03*
X246358Y139469D02*
D03*
X263290Y120661D02*
D03*
X263335Y100933D02*
D03*
X262795Y87303D02*
D03*
X263484Y73327D02*
D03*
X252658Y53937D02*
D03*
X240740Y39280D02*
D03*
X228929Y39461D02*
D03*
X217118Y39477D02*
D03*
X213181Y39477D02*
D03*
X198228Y69193D02*
D03*
X212941Y110776D02*
D03*
X181693Y43996D02*
D03*
X186957Y43949D02*
D03*
X297933Y40945D02*
D03*
X316728Y110036D02*
D03*
X361587Y126012D02*
D03*
X332059Y126110D02*
D03*
X379425Y119878D02*
D03*
X379524Y100193D02*
D03*
X379721Y88382D02*
D03*
X379721Y72634D02*
D03*
X371162Y38878D02*
D03*
X359350Y38386D02*
D03*
X346654Y39075D02*
D03*
X334028Y39496D02*
D03*
X327559Y45866D02*
D03*
X329228Y72634D02*
D03*
X137106Y334547D02*
D03*
X137697Y350886D02*
D03*
X165453Y339862D02*
D03*
X165847Y347244D02*
D03*
X152854Y327264D02*
D03*
X137205Y343996D02*
D03*
X139862Y420669D02*
D03*
X89764Y391732D02*
D03*
X83464Y402166D02*
D03*
X82185Y393799D02*
D03*
X87992Y385433D02*
D03*
X78666Y380831D02*
D03*
X84055Y394882D02*
D03*
X86122Y393799D02*
D03*
X21752Y340650D02*
D03*
X25492Y346555D02*
D03*
X25098Y330315D02*
D03*
X56496Y407185D02*
D03*
X31299Y356496D02*
D03*
X30315Y363878D02*
D03*
X34449Y375689D02*
D03*
X33661Y381398D02*
D03*
X47343Y387697D02*
D03*
X46654Y327953D02*
D03*
X98622Y408268D02*
D03*
X106299Y408366D02*
D03*
X106004Y427461D02*
D03*
X95965Y429429D02*
D03*
X116240Y400886D02*
D03*
X121555Y393799D02*
D03*
X108563Y359744D02*
D03*
X109153Y351181D02*
D03*
X110138Y342717D02*
D03*
X121653Y331988D02*
D03*
X105807Y331299D02*
D03*
X98327Y324882D02*
D03*
X78642Y411024D02*
D03*
X84646Y327559D02*
D03*
X121653Y368406D02*
D03*
X151083Y333268D02*
D03*
X118012Y415945D02*
D03*
X128839Y412795D02*
D03*
X128543Y382481D02*
D03*
X117520Y359842D02*
D03*
X122441Y350492D02*
D03*
X109350Y347047D02*
D03*
X73721Y328150D02*
D03*
X58956Y327764D02*
D03*
X55709Y342961D02*
D03*
X16732Y379134D02*
D03*
X16142Y373917D02*
D03*
X16535Y366339D02*
D03*
X16634Y358760D02*
D03*
X16732Y351575D02*
D03*
X98721Y424311D02*
D03*
X109055Y422343D02*
D03*
X51476Y407185D02*
D03*
X129035Y416043D02*
D03*
X135236Y399902D02*
D03*
X93996Y435728D02*
D03*
X42815Y420079D02*
D03*
X46654Y383071D02*
D03*
X32701Y400024D02*
D03*
X230512Y429331D02*
D03*
X228543Y405610D02*
D03*
X217520Y420669D02*
D03*
X232480Y405709D02*
D03*
X241634Y418701D02*
D03*
X235925Y431201D02*
D03*
X244882Y439862D02*
D03*
X224606Y429035D02*
D03*
X225689Y405610D02*
D03*
X217421Y412795D02*
D03*
X241437D02*
D03*
X257087Y427165D02*
D03*
X257480Y421358D02*
D03*
X257579Y415650D02*
D03*
X256594Y433169D02*
D03*
X219094Y432579D02*
D03*
X262205Y404429D02*
D03*
X328839Y416437D02*
D03*
X327067Y418602D02*
D03*
X345079Y388681D02*
D03*
X335138Y384941D02*
D03*
X375787Y400886D02*
D03*
X367914Y439961D02*
D03*
X408169Y409350D02*
D03*
X392815Y385925D02*
D03*
X315846Y433760D02*
D03*
X359154Y362992D02*
D03*
X319685Y448032D02*
D03*
X367618Y404823D02*
D03*
X391831Y417028D02*
D03*
X402953Y399508D02*
D03*
X375886Y414665D02*
D03*
X399311Y435925D02*
D03*
X406791Y424016D02*
D03*
X304626Y417717D02*
D03*
X169390Y347736D02*
D03*
X57382Y261417D02*
D03*
X58366Y267224D02*
D03*
X45374Y248917D02*
D03*
X58169Y263386D02*
D03*
X51083Y245177D02*
D03*
X35531Y312500D02*
D03*
X47638Y253150D02*
D03*
X60236Y264370D02*
D03*
X57972Y272736D02*
D03*
X45866Y236614D02*
D03*
X33957Y236024D02*
D03*
X36024Y249705D02*
D03*
X53248Y251772D02*
D03*
X42314Y258259D02*
D03*
X50886Y219291D02*
D03*
X11811Y213189D02*
D03*
X48130Y219390D02*
D03*
X13178Y211406D02*
D03*
X40945Y218110D02*
D03*
Y209646D02*
D03*
X50787Y222736D02*
D03*
X46555D02*
D03*
X64173Y221161D02*
D03*
X34744Y220965D02*
D03*
X13287Y228051D02*
D03*
X10433Y222835D02*
D03*
X24508Y231693D02*
D03*
X21260Y231299D02*
D03*
X10728Y217323D02*
D03*
X21250Y199890D02*
D03*
X27165Y199902D02*
D03*
X38583Y217323D02*
D03*
X134449Y241732D02*
D03*
X139567Y201575D02*
D03*
X81496Y220374D02*
D03*
X74410Y214370D02*
D03*
X82480Y204134D02*
D03*
X79134Y224803D02*
D03*
X90748Y242323D02*
D03*
X96653Y242126D02*
D03*
X92716Y214567D02*
D03*
X94685Y213484D02*
D03*
X76673Y234350D02*
D03*
X78839Y234547D02*
D03*
X74409Y234154D02*
D03*
X150591Y214764D02*
D03*
X155315Y227362D02*
D03*
X157776Y234350D02*
D03*
X163583Y212697D02*
D03*
X153740Y220472D02*
D03*
X151083Y238386D02*
D03*
X142618Y242028D02*
D03*
Y232480D02*
D03*
X143110Y220768D02*
D03*
X214024Y118650D02*
D03*
X213831Y116681D02*
D03*
X213240Y108807D02*
D03*
X213141Y102902D02*
D03*
X213142Y100933D02*
D03*
X212941Y93059D02*
D03*
X199264Y91091D02*
D03*
X199803Y79429D02*
D03*
X215059Y35728D02*
D03*
X219087Y35638D02*
D03*
X221055Y35539D02*
D03*
X226961Y35721D02*
D03*
X230898Y35736D02*
D03*
X232866Y35441D02*
D03*
X238772Y35917D02*
D03*
X244677Y35736D02*
D03*
X250583Y35622D02*
D03*
X254520Y35622D02*
D03*
X262394Y35441D02*
D03*
X263039Y59595D02*
D03*
X262941Y61563D02*
D03*
X263240Y75343D02*
D03*
X263433Y81248D02*
D03*
X263335Y83217D02*
D03*
X278051Y99508D02*
D03*
X263338Y102902D02*
D03*
X263433Y108807D02*
D03*
X263335Y110776D02*
D03*
X263240Y122587D02*
D03*
X263335Y124555D02*
D03*
X263289Y126559D02*
D03*
X258661Y125689D02*
D03*
X252756D02*
D03*
X242709Y125894D02*
D03*
X234835Y125894D02*
D03*
X224992Y125681D02*
D03*
X223024Y125697D02*
D03*
X219087Y125598D02*
D03*
X323201Y129063D02*
D03*
X329918Y117910D02*
D03*
X330016Y115941D02*
D03*
X329721Y108067D02*
D03*
X329720Y102162D02*
D03*
X317224Y101083D02*
D03*
Y91732D02*
D03*
X329524Y90351D02*
D03*
X317028Y77658D02*
D03*
X330512Y39272D02*
D03*
X336221Y38484D02*
D03*
X344488Y54429D02*
D03*
X347807Y54500D02*
D03*
X350886Y54724D02*
D03*
X366535Y52854D02*
D03*
X371555Y52756D02*
D03*
X381201Y38189D02*
D03*
X378346Y61516D02*
D03*
X378445Y63681D02*
D03*
X377464Y74603D02*
D03*
X378146Y80508D02*
D03*
X378153Y82477D02*
D03*
X377661Y90351D02*
D03*
X377563Y94288D02*
D03*
X377457Y102162D02*
D03*
X378252Y108067D02*
D03*
X379531Y110036D02*
D03*
X378055Y121847D02*
D03*
X373398Y125618D02*
D03*
X371429Y124776D02*
D03*
X358957Y125492D02*
D03*
X351744Y126012D02*
D03*
X349114Y125886D02*
D03*
X341902Y125815D02*
D03*
X339961Y124409D02*
D03*
X335996Y125858D02*
D03*
X92323Y183169D02*
D03*
X127657Y159449D02*
D03*
X125591Y186024D02*
D03*
X95768Y167717D02*
D03*
X59744Y173031D02*
D03*
X126575Y192815D02*
D03*
X123228Y164272D02*
D03*
X72047Y181595D02*
D03*
X146555Y225590D02*
D03*
X117618Y189961D02*
D03*
X377264Y275098D02*
D03*
X94784Y186516D02*
D03*
X133071Y187500D02*
D03*
X253642Y356102D02*
D03*
X251870Y357776D02*
D03*
X125492Y153937D02*
D03*
X279134Y112795D02*
D03*
X377756Y115453D02*
D03*
X138583Y183661D02*
D03*
X14764Y182579D02*
D03*
X127067Y142421D02*
D03*
X28543Y193996D02*
D03*
X55709Y194980D02*
D03*
X32579Y193898D02*
D03*
X56102Y190354D02*
D03*
X27264Y182776D02*
D03*
X56890Y183661D02*
D03*
X59153Y184154D02*
D03*
X277658Y385138D02*
D03*
X268996Y387008D02*
D03*
X275689Y392913D02*
D03*
X196260Y244685D02*
D03*
X399803Y413681D02*
D03*
Y409842D02*
D03*
X403839Y429921D02*
D03*
X413484Y407579D02*
D03*
X411516Y418110D02*
D03*
X403150Y364075D02*
D03*
X434646Y375492D02*
D03*
X392028Y363189D02*
D03*
X434449Y365748D02*
D03*
X404567Y380945D02*
D03*
X433760Y356201D02*
D03*
X165157Y116536D02*
D03*
X258260Y39378D02*
D03*
X165157Y118437D02*
D03*
X260531Y39378D02*
D03*
X163976Y86319D02*
D03*
X234736Y39280D02*
D03*
X163976Y88221D02*
D03*
X237008Y39280D02*
D03*
X165059Y103575D02*
D03*
X248721Y39469D02*
D03*
X165059Y101673D02*
D03*
X246449Y39469D02*
D03*
X164173Y72965D02*
D03*
X225098Y39378D02*
D03*
X164173Y71063D02*
D03*
X222827Y39378D02*
D03*
X325394Y230807D02*
D03*
X339665Y227264D02*
D03*
X404665Y350945D02*
D03*
X321260Y436713D02*
D03*
X384260Y251762D02*
D03*
X79232Y227067D02*
D03*
X38484Y213386D02*
D03*
X105807Y226575D02*
D03*
X106102Y223917D02*
D03*
X106496Y231693D02*
D03*
X106791Y228937D02*
D03*
X140650Y231988D02*
D03*
X336614Y198327D02*
D03*
X337303Y206988D02*
D03*
X340846Y410039D02*
D03*
X367520Y434941D02*
D03*
X348819Y443307D02*
D03*
X76477Y432185D02*
D03*
X110039Y430610D02*
D03*
X94587Y439173D02*
D03*
X269685Y437697D02*
D03*
X296752Y420472D02*
D03*
X32579Y163878D02*
D03*
X61614Y164862D02*
D03*
X58563Y167126D02*
D03*
X17323Y444291D02*
D03*
X73701Y438307D02*
D03*
X129528Y317618D02*
D03*
X116535Y370472D02*
D03*
X105610Y395768D02*
D03*
X108858Y395472D02*
D03*
X99410Y395669D02*
D03*
X14370Y444291D02*
D03*
X71063Y438307D02*
D03*
X253248Y353248D02*
D03*
X201279Y174705D02*
D03*
X121850Y359744D02*
D03*
X119390Y317323D02*
D03*
X129331Y313090D02*
D03*
X119291Y313091D02*
D03*
Y307776D02*
D03*
X129232Y307874D02*
D03*
X119291Y304331D02*
D03*
X129232D02*
D03*
X109153Y295374D02*
D03*
X111221Y279823D02*
D03*
X138583D02*
D03*
X139961Y277264D02*
D03*
X110335Y275886D02*
D03*
X152559Y307185D02*
D03*
X154921Y305217D02*
D03*
X150886Y316634D02*
D03*
X150984Y312992D02*
D03*
X144390Y317224D02*
D03*
X163386Y326476D02*
D03*
X135728Y325984D02*
D03*
X139075Y325984D02*
D03*
X105709Y285827D02*
D03*
X119882Y285728D02*
D03*
X157874Y301772D02*
D03*
X113976Y352756D02*
D03*
X122047Y346260D02*
D03*
X65551Y396555D02*
D03*
X106890Y393602D02*
D03*
X79035Y393996D02*
D03*
X202362Y172146D02*
D03*
X213681Y179626D02*
D03*
X217815Y179823D02*
D03*
X228445Y156398D02*
D03*
X242323Y157087D02*
D03*
X324410Y157480D02*
D03*
X329134D02*
D03*
X300295Y178445D02*
D03*
X315354D02*
D03*
X276476Y210827D02*
D03*
X301870Y217717D02*
D03*
X109350Y316142D02*
D03*
X128051Y325197D02*
D03*
X150295Y325295D02*
D03*
X167028Y333465D02*
D03*
X159252Y330709D02*
D03*
X154232Y283268D02*
D03*
X138484Y285925D02*
D03*
X110039Y332185D02*
D03*
X9843Y452559D02*
D03*
X108169Y462598D02*
D03*
X363484Y38484D02*
D03*
X365748D02*
D03*
X79137Y42719D02*
D03*
X377362Y38681D02*
D03*
X375295D02*
D03*
X342224Y38976D02*
D03*
X339862D02*
D03*
X89862Y24409D02*
D03*
X354035Y38681D02*
D03*
X351476D02*
D03*
X58563Y457870D02*
D03*
X199646Y444153D02*
D03*
X433957Y73032D02*
D03*
X433858Y387992D02*
D03*
X408563Y89075D02*
D03*
X216531Y457870D02*
D03*
X260236Y452949D02*
D03*
X35335Y94587D02*
D03*
X263583Y71358D02*
D03*
X32776Y140748D02*
D03*
X22047Y22736D02*
D03*
X23228Y49016D02*
D03*
X391142Y64469D02*
D03*
X391732Y70669D02*
D03*
X440158Y249803D02*
D03*
X420079Y254429D02*
D03*
X427854Y236910D02*
D03*
X347441Y215256D02*
D03*
X350295Y218406D02*
D03*
X348819Y216732D02*
D03*
X415256Y267126D02*
D03*
X263090Y65354D02*
D03*
X16732Y377166D02*
D03*
X16634Y371358D02*
D03*
X16535Y363779D02*
D03*
X16634Y361122D02*
D03*
X16732Y349114D02*
D03*
X24213Y332677D02*
D03*
X55512Y340945D02*
D03*
X44685Y381595D02*
D03*
D94*
X313067Y258760D02*
Y258894D01*
X277165Y278445D02*
X278496Y279775D01*
X358405Y453642D02*
X358661D01*
X228884Y260675D02*
X231890Y257668D01*
X225787Y265984D02*
X227181Y267378D01*
X225787Y263771D02*
Y265984D01*
X240370Y375689D02*
X265977D01*
X206594Y341913D02*
X240370Y375689D01*
X206594Y275138D02*
Y341913D01*
X248441Y384957D02*
X269094D01*
X203346Y339862D02*
X248441Y384957D01*
X203346Y275040D02*
Y339862D01*
X239469Y367618D02*
X255118D01*
X210787Y338937D02*
X239469Y367618D01*
X210787Y315890D02*
Y338937D01*
X210502Y315604D02*
X210787Y315890D01*
X210502Y274608D02*
Y315604D01*
Y274608D02*
X211433Y273677D01*
X216423Y249836D02*
X217903Y248356D01*
X216423Y262919D02*
X217732Y264229D01*
X48917Y323162D02*
X58803Y333047D01*
X48917Y313484D02*
Y323162D01*
X44390Y313386D02*
X44390Y313386D01*
Y319831D01*
X266240Y378346D02*
X266339Y378445D01*
X267536D01*
X197047Y338583D02*
X249721Y391256D01*
X197047Y275040D02*
Y338583D01*
X320965Y369882D02*
X325098Y374016D01*
X237303Y369882D02*
X320965D01*
X209941Y342520D02*
X237303Y369882D01*
X209941Y316240D02*
Y342520D01*
X209901Y316240D02*
X209941D01*
X208283Y314622D02*
X209901Y316240D01*
X292342Y403252D02*
Y434567D01*
X291496Y435000D02*
X300591Y444095D01*
X290650Y435351D02*
X310250Y454951D01*
X291496Y403602D02*
Y435000D01*
X290650Y403953D02*
Y435351D01*
X310250Y454951D02*
X357096D01*
X362500Y428543D02*
Y434842D01*
X360433Y426476D02*
X362500Y428543D01*
X293209Y423228D02*
X296457Y426476D01*
X293209Y402921D02*
Y423228D01*
X267536Y378445D02*
X292342Y403252D01*
X272851Y384957D02*
X291496Y403602D01*
X357096Y454951D02*
X358405Y453642D01*
X277953Y391256D02*
X290650Y403953D01*
X332185Y377657D02*
Y384744D01*
X318799Y364272D02*
X332185Y377657D01*
X335138Y378248D02*
Y384941D01*
X318012Y361122D02*
X335138Y378248D01*
X53347Y307677D02*
Y326394D01*
X57382Y307481D02*
X57480Y307579D01*
X79110Y346433D02*
X79650D01*
X77461Y344784D02*
X79110Y346433D01*
X77461Y334795D02*
Y344784D01*
X73965Y331299D02*
X77461Y334795D01*
X59449Y331299D02*
X73965D01*
X57480Y329331D02*
X59449Y331299D01*
X76575Y345327D02*
X77681Y346433D01*
X76575Y335106D02*
Y345327D01*
X73654Y332185D02*
X76575Y335106D01*
X59138Y332185D02*
X73654D01*
X53347Y326394D02*
X59138Y332185D01*
X73744Y346433D02*
X74606Y345571D01*
Y335532D02*
Y345571D01*
X73228Y334154D02*
X74606Y335532D01*
X58712Y334154D02*
X73228D01*
X44390Y319831D02*
X58712Y334154D01*
X73319Y333047D02*
X75713Y335441D01*
Y346433D01*
X58803Y333047D02*
X73319D01*
X100886Y393996D02*
X106383D01*
X101870Y392618D02*
X130905Y363583D01*
X98228Y394193D02*
X107825Y384597D01*
X123917Y368504D01*
X133858Y278937D02*
Y363189D01*
X105463Y391585D02*
X133858Y363189D01*
X109646Y375295D02*
X111024Y373918D01*
Y359449D02*
Y373918D01*
X123917Y275000D02*
X130020Y268898D01*
X113189Y350295D02*
X114961Y348524D01*
X133858Y278937D02*
X140847Y271949D01*
X187992D01*
X167618Y309547D02*
X173031Y304134D01*
X150591Y306004D02*
X150689D01*
X158957Y293996D02*
X175130D01*
X150394Y302559D02*
X158957Y293996D01*
X150099Y298425D02*
Y298425D01*
X150443Y287352D02*
X152953Y284843D01*
X173031Y304134D02*
X184154D01*
X157579Y290945D02*
X190358D01*
X150099Y298425D02*
X157579Y290945D01*
X140945Y282284D02*
X148031Y275197D01*
X152953Y284843D02*
X190847D01*
X148031Y275197D02*
X178378D01*
X114961Y271949D02*
X121161Y265748D01*
X184154Y304134D02*
X186236Y302051D01*
X190358Y290945D02*
X192016Y292602D01*
X175295Y297343D02*
X176787Y298835D01*
X175130Y293996D02*
X176787Y295654D01*
X190847Y284843D02*
X192563Y283126D01*
X178378Y275197D02*
X179937Y273638D01*
X187992Y271949D02*
X189386Y270555D01*
X130020Y268898D02*
X175228D01*
X176787Y267339D01*
X121161Y265748D02*
X175295D01*
X176815Y264229D01*
X202165Y249998D02*
X203543Y251376D01*
Y259520D01*
X201984Y261079D02*
X203543Y259520D01*
X281201Y185138D02*
X303839Y162500D01*
X307579D01*
X286122Y188189D02*
X303642Y170669D01*
X307776D01*
X299705Y120079D02*
Y125886D01*
X320079Y146260D01*
Y169291D01*
X296358Y116437D02*
X299311Y113484D01*
X296358Y116437D02*
Y125886D01*
X315846Y145374D01*
Y166437D01*
X279488Y214213D02*
X281201Y212500D01*
X204429Y170965D02*
X207480Y174016D01*
X215748Y184646D02*
Y240548D01*
Y184646D02*
X218701Y181693D01*
X179242Y111593D02*
X180896Y109939D01*
X179242Y111593D02*
Y139479D01*
X180482Y112106D02*
Y138947D01*
X182352Y92845D02*
Y110236D01*
X180482Y112106D02*
X182352Y110236D01*
X179242Y139479D02*
X211221Y171457D01*
X180482Y138947D02*
X220768Y179232D01*
X218228Y234626D02*
X220768Y232087D01*
Y179232D02*
Y232087D01*
X207480Y237303D02*
X208268Y238091D01*
Y240847D01*
X215748Y240548D02*
X216142Y240943D01*
X218228Y234626D02*
Y238110D01*
X218455Y238337D01*
X206693Y251378D02*
Y268969D01*
Y251378D02*
X208268Y249803D01*
X209744Y250295D02*
Y265917D01*
Y250295D02*
X211417Y248622D01*
X242945Y214213D02*
X279488D01*
X232895Y224263D02*
X242945Y214213D01*
X232895Y224263D02*
Y229626D01*
X217954Y244567D02*
X232895Y229626D01*
X282776Y215453D02*
X286122Y212106D01*
X243459Y215453D02*
X282776D01*
X234135Y224777D02*
X243459Y215453D01*
X234135Y224777D02*
Y230450D01*
X218778Y245807D02*
X234135Y230450D01*
X203602Y245807D02*
X218778D01*
X290945Y191339D02*
Y212500D01*
X286654Y216791D02*
X290945Y212500D01*
X243875Y216791D02*
X286654D01*
X235375Y225291D02*
X243875Y216791D01*
X235375Y225291D02*
Y230964D01*
X219291Y247047D02*
X235375Y230964D01*
X237047Y225372D02*
Y231063D01*
X219390Y248721D02*
X237047Y231063D01*
X219390Y248721D02*
Y259421D01*
X287264Y218051D02*
X295374Y209941D01*
X244368Y218051D02*
X287264D01*
X237047Y225372D02*
X244368Y218051D01*
X201398Y244567D02*
X217954D01*
X197244Y248721D02*
X201398Y244567D01*
X200591Y248819D02*
X203602Y245807D01*
X247795Y297343D02*
X272539D01*
X247795Y296401D02*
Y297343D01*
X246890Y296401D02*
X247795D01*
X246890D02*
Y298266D01*
X245984D02*
X246890D01*
X245984Y296401D02*
Y298266D01*
X245079Y296401D02*
X245984D01*
X245079D02*
Y298266D01*
X244173D02*
X245079D01*
X244173Y296401D02*
Y298266D01*
X243268Y296401D02*
X244173D01*
X243268D02*
Y298266D01*
X242362D02*
X243268D01*
X242362Y296401D02*
Y298266D01*
X241457Y296401D02*
X242362D01*
X241457D02*
Y298266D01*
X240551D02*
X241457D01*
X240551Y296401D02*
Y298266D01*
X239646Y296401D02*
X240551D01*
X239646D02*
Y298266D01*
X238740D02*
X239646D01*
X238740Y297343D02*
Y298266D01*
X222500Y297343D02*
X238740D01*
X249508Y294193D02*
X277165D01*
X249508Y293264D02*
Y294193D01*
X248603Y293264D02*
X249508D01*
X248603D02*
Y295122D01*
X247697D02*
X248603D01*
X247697Y293264D02*
Y295122D01*
X246791Y293264D02*
X247697D01*
X246791D02*
Y295122D01*
X245886D02*
X246791D01*
X245886Y293264D02*
Y295122D01*
X244980Y293264D02*
X245886D01*
X244980D02*
Y295122D01*
X244075D02*
X244980D01*
X244075Y293264D02*
Y295122D01*
X243169Y293264D02*
X244075D01*
X243169D02*
Y295122D01*
X242264D02*
X243169D01*
X242264Y293264D02*
Y295122D01*
X241358Y293264D02*
X242264D01*
X241358D02*
Y295122D01*
X240453D02*
X241358D01*
X240453Y293264D02*
Y295122D01*
X239547Y293264D02*
X240453D01*
X239547D02*
Y295122D01*
X238642D02*
X239547D01*
X238642Y294193D02*
Y295122D01*
X223228Y294193D02*
X238642D01*
X228799Y300492D02*
X238642D01*
X250413D02*
X266929D01*
X250413D02*
Y301440D01*
X249508D02*
X250413D01*
X249508Y299545D02*
Y301440D01*
X248603Y299545D02*
X249508D01*
X248603D02*
Y301440D01*
X247697D02*
X248603D01*
X247697Y299545D02*
Y301440D01*
X246791Y299545D02*
X247697D01*
X246791D02*
Y301440D01*
X245886D02*
X246791D01*
X245886Y299545D02*
Y301440D01*
X244980Y299545D02*
X245886D01*
X244980D02*
Y301440D01*
X244075D02*
X244980D01*
X244075Y299545D02*
Y301440D01*
X243169Y299545D02*
X244075D01*
X243169D02*
Y301440D01*
X242264D02*
X243169D01*
X242264Y299545D02*
Y301440D01*
X241358Y299545D02*
X242264D01*
X241358D02*
Y301440D01*
X240453D02*
X241358D01*
X240453Y299545D02*
Y301440D01*
X239547Y299545D02*
X240453D01*
X239547D02*
Y301440D01*
X238642D02*
X239547D01*
X238642Y300492D02*
Y301440D01*
X254410Y264272D02*
X269882D01*
X254410Y263324D02*
Y264272D01*
X253504Y263324D02*
X254410D01*
X253504D02*
Y265219D01*
X252599D02*
X253504D01*
X252599Y263324D02*
Y265219D01*
X251693Y263324D02*
X252599D01*
X251693D02*
Y265219D01*
X250787D02*
X251693D01*
X250787Y263324D02*
Y265219D01*
X249882Y263324D02*
X250787D01*
X249882D02*
Y265219D01*
X248976D02*
X249882D01*
X248976Y263324D02*
Y265219D01*
X248071Y263324D02*
X248976D01*
X248071D02*
Y265219D01*
X247165D02*
X248071D01*
X247165Y263324D02*
Y265219D01*
X246260Y263324D02*
X247165D01*
X246260D02*
Y265219D01*
X245354D02*
X246260D01*
X245354Y263324D02*
Y265219D01*
X244449Y263324D02*
X245354D01*
X244449D02*
Y265219D01*
X243543D02*
X244449D01*
X243543Y263324D02*
Y265219D01*
X242638Y263324D02*
X243543D01*
X242638D02*
Y265219D01*
X241732D02*
X242638D01*
X241732Y263324D02*
Y265219D01*
X240827Y263324D02*
X241732D01*
X240827D02*
Y264272D01*
X239469D02*
X240827D01*
X271358Y237500D02*
Y262795D01*
X231949Y265847D02*
X237894D01*
X269882Y264272D02*
X271358Y262795D01*
X237894Y265847D02*
X239469Y264272D01*
X231961Y259449D02*
X238543D01*
X253032D02*
X264665D01*
X253032Y258490D02*
Y259449D01*
X252126Y258490D02*
X253032D01*
X252126D02*
Y260408D01*
X251221D02*
X252126D01*
X251221Y258490D02*
Y260408D01*
X250315Y258490D02*
X251221D01*
X250315D02*
Y260408D01*
X249410D02*
X250315D01*
X249410Y258490D02*
Y260408D01*
X248504Y258490D02*
X249410D01*
X248504D02*
Y260408D01*
X247599D02*
X248504D01*
X247599Y258490D02*
Y260408D01*
X246693Y258490D02*
X247599D01*
X246693D02*
Y260408D01*
X245788D02*
X246693D01*
X245788Y258490D02*
Y260408D01*
X244882Y258490D02*
X245788D01*
X244882D02*
Y260408D01*
X243976D02*
X244882D01*
X243976Y258490D02*
Y260408D01*
X243071Y258490D02*
X243976D01*
X243071D02*
Y260408D01*
X242165D02*
X243071D01*
X242165Y258490D02*
Y260408D01*
X241260Y258490D02*
X242165D01*
X241260D02*
Y260408D01*
X240354D02*
X241260D01*
X240354Y258490D02*
Y260408D01*
X239449Y258490D02*
X240354D01*
X239449D02*
Y260408D01*
X238543D02*
X239449D01*
X238543Y259449D02*
Y260408D01*
X265709Y284646D02*
X280709D01*
X265709Y283689D02*
Y284646D01*
X264803Y283689D02*
X265709D01*
X264803D02*
Y285603D01*
X263898D02*
X264803D01*
X263898Y283689D02*
Y285603D01*
X262992Y283689D02*
X263898D01*
X262992D02*
Y285603D01*
X262087D02*
X262992D01*
X262087Y283689D02*
Y285603D01*
X261181Y283689D02*
X262087D01*
X261181D02*
Y285603D01*
X260276D02*
X261181D01*
X260276Y284646D02*
Y285603D01*
X259370Y284646D02*
X260276D01*
X259370D02*
Y285603D01*
X258465D02*
X259370D01*
X258465Y284646D02*
Y285603D01*
X257559Y284646D02*
X258465D01*
X257559D02*
Y285603D01*
X256654D02*
X257559D01*
X256654Y284646D02*
Y285603D01*
X255748Y284646D02*
X256654D01*
X255748D02*
Y285603D01*
X254843D02*
X255748D01*
X254843Y284646D02*
Y285603D01*
X253937Y284646D02*
X254843D01*
X253937D02*
Y285603D01*
X253032D02*
X253937D01*
X253032Y284646D02*
Y285603D01*
X252126Y284646D02*
X253032D01*
X252126D02*
Y285603D01*
X251221D02*
X252126D01*
X251221Y284646D02*
Y285603D01*
X250315Y284646D02*
X251221D01*
X250315D02*
Y285603D01*
X249410D02*
X250315D01*
X249410Y284646D02*
Y285603D01*
X248504Y284646D02*
X249410D01*
X248504D02*
Y285603D01*
X247599D02*
X248504D01*
X247599Y284646D02*
Y285603D01*
X246693Y284646D02*
X247599D01*
X246693D02*
Y285603D01*
X245788D02*
X246693D01*
X245788Y284646D02*
Y285603D01*
X244882Y284646D02*
X245788D01*
X244882D02*
Y285603D01*
X243976D02*
X244882D01*
X243976Y284646D02*
Y285603D01*
X243071Y284646D02*
X243976D01*
X243071D02*
Y285603D01*
X242165D02*
X243071D01*
X242165Y284646D02*
Y285603D01*
X241260Y284646D02*
X242165D01*
X241260D02*
Y285603D01*
X240354D02*
X241260D01*
X240354Y284646D02*
Y285603D01*
X239449Y284646D02*
X240354D01*
X239449D02*
Y285603D01*
X238543D02*
X239449D01*
X238543Y284646D02*
Y285603D01*
X228642Y284646D02*
X238543D01*
X256142Y272146D02*
X270965D01*
X231949D02*
X238937D01*
X256142D02*
Y273088D01*
X255236D02*
X256142D01*
X255236Y271203D02*
Y273088D01*
X254331Y271203D02*
X255236D01*
X254331D02*
Y273088D01*
X253425D02*
X254331D01*
X253425Y271203D02*
Y273088D01*
X252520Y271203D02*
X253425D01*
X252520D02*
Y273088D01*
X251614D02*
X252520D01*
X251614Y271203D02*
Y273088D01*
X250709Y271203D02*
X251614D01*
X250709D02*
Y273088D01*
X249803D02*
X250709D01*
X249803Y271203D02*
Y273088D01*
X248898Y271203D02*
X249803D01*
X248898D02*
Y273088D01*
X247992D02*
X248898D01*
X247992Y271203D02*
Y273088D01*
X247087Y271203D02*
X247992D01*
X247087D02*
Y273088D01*
X246181D02*
X247087D01*
X246181Y271203D02*
Y273088D01*
X245276Y271203D02*
X246181D01*
X245276D02*
Y273088D01*
X244370D02*
X245276D01*
X244370Y271203D02*
Y273088D01*
X243465Y271203D02*
X244370D01*
X243465D02*
Y273088D01*
X242559D02*
X243465D01*
X242559Y271203D02*
Y273088D01*
X241654Y271203D02*
X242559D01*
X241654D02*
Y273088D01*
X240748D02*
X241654D01*
X240748Y271203D02*
Y273088D01*
X239843Y271203D02*
X240748D01*
X239843D02*
Y273088D01*
X238937D02*
X239843D01*
X238937Y272146D02*
Y273088D01*
X258622Y278445D02*
X277165D01*
X258622D02*
Y279392D01*
X257717D02*
X258622D01*
X257717Y277498D02*
Y279392D01*
X256811Y277498D02*
X257717D01*
X256811D02*
Y279392D01*
X255906D02*
X256811D01*
X255906Y277498D02*
Y279392D01*
X255000Y277498D02*
X255906D01*
X255000D02*
Y279392D01*
X254095D02*
X255000D01*
X254095Y277498D02*
Y279392D01*
X253189Y277498D02*
X254095D01*
X253189D02*
Y279392D01*
X252284D02*
X253189D01*
X252284Y277498D02*
Y279392D01*
X251378Y277498D02*
X252284D01*
X251378D02*
Y279392D01*
X250473D02*
X251378D01*
X250473Y277498D02*
Y279392D01*
X249567Y277498D02*
X250473D01*
X249567D02*
Y279392D01*
X248661D02*
X249567D01*
X248661Y277498D02*
Y279392D01*
X247756Y277498D02*
X248661D01*
X247756D02*
Y279392D01*
X246850D02*
X247756D01*
X246850Y278445D02*
Y279392D01*
X244047Y278445D02*
X246850D01*
X228799D02*
X238614D01*
X244047Y277498D02*
Y278445D01*
X243142Y277498D02*
X244047D01*
X243142D02*
Y279392D01*
X242236D02*
X243142D01*
X242236Y277498D02*
Y279392D01*
X241331Y277498D02*
X242236D01*
X241331D02*
Y279392D01*
X240425D02*
X241331D01*
X240425Y277498D02*
Y279392D01*
X239520Y277498D02*
X240425D01*
X239520D02*
Y279392D01*
X238614D02*
X239520D01*
X238614Y278445D02*
Y279392D01*
X232047Y303740D02*
X238642D01*
X258563D02*
X283957D01*
X258563Y302765D02*
Y303740D01*
X257658Y302765D02*
X258563D01*
X257658D02*
Y304715D01*
X256752D02*
X257658D01*
X256752Y302765D02*
Y304715D01*
X255847Y302765D02*
X256752D01*
X255847D02*
Y304715D01*
X254941D02*
X255847D01*
X254941Y302765D02*
Y304715D01*
X254036Y302765D02*
X254941D01*
X254036D02*
Y304715D01*
X253130D02*
X254036D01*
X253130Y302766D02*
Y304715D01*
X252225Y302766D02*
X253130D01*
X252225D02*
Y304715D01*
X251319D02*
X252225D01*
X251319Y302766D02*
Y304715D01*
X250413Y302766D02*
X251319D01*
X250413D02*
Y304715D01*
X249508D02*
X250413D01*
X249508Y302766D02*
Y304715D01*
X248603Y302766D02*
X249508D01*
X248603D02*
Y304715D01*
X247697D02*
X248603D01*
X247697Y302766D02*
Y304715D01*
X246791Y302766D02*
X247697D01*
X246791D02*
Y304715D01*
X245886D02*
X246791D01*
X245886Y302766D02*
Y304715D01*
X244980Y302766D02*
X245886D01*
X244980D02*
Y304715D01*
X244075D02*
X244980D01*
X244075Y302766D02*
Y304715D01*
X243169Y302766D02*
X244075D01*
X243169D02*
Y304715D01*
X242264D02*
X243169D01*
X242264Y302766D02*
Y304715D01*
X241358Y302766D02*
X242264D01*
X241358D02*
Y304715D01*
X240453D02*
X241358D01*
X240453Y302766D02*
Y304715D01*
X239547Y302766D02*
X240453D01*
X239547D02*
Y304715D01*
X238642D02*
X239547D01*
X238642Y303740D02*
Y304715D01*
X231890Y319331D02*
X238445D01*
X259272D02*
X281732D01*
X259272D02*
Y320305D01*
X258366D02*
X259272D01*
X258366Y318357D02*
Y320305D01*
X257461Y318357D02*
X258366D01*
X257461D02*
Y320305D01*
X256555D02*
X257461D01*
X256555Y318357D02*
Y320305D01*
X255650Y318357D02*
X256555D01*
X255650D02*
Y320305D01*
X254744D02*
X255650D01*
X254744Y318357D02*
Y320305D01*
X253839Y318357D02*
X254744D01*
X253839D02*
Y320305D01*
X252933D02*
X253839D01*
X252933Y318357D02*
Y320305D01*
X252028Y318357D02*
X252933D01*
X252028D02*
Y320305D01*
X251122D02*
X252028D01*
X251122Y318357D02*
Y320305D01*
X250217Y318357D02*
X251122D01*
X250217D02*
Y320305D01*
X249311D02*
X250217D01*
X249311Y318357D02*
Y320305D01*
X248406Y318357D02*
X249311D01*
X248406D02*
Y320305D01*
X247500D02*
X248406D01*
X247500Y318357D02*
Y320305D01*
X246595Y318357D02*
X247500D01*
X246595D02*
Y320305D01*
X245689D02*
X246595D01*
X245689Y318357D02*
Y320305D01*
X244784Y318357D02*
X245689D01*
X244784D02*
Y320305D01*
X243878D02*
X244784D01*
X243878Y318357D02*
Y320305D01*
X242972Y318357D02*
X243878D01*
X242972D02*
Y320305D01*
X242067D02*
X242972D01*
X242067Y318357D02*
Y320305D01*
X241161Y318357D02*
X242067D01*
X241161D02*
Y320305D01*
X240256D02*
X241161D01*
X240256Y318357D02*
Y320305D01*
X239350Y318357D02*
X240256D01*
X239350D02*
Y320305D01*
X238445D02*
X239350D01*
X238445Y319331D02*
Y320305D01*
X260374Y281693D02*
X282382D01*
X260374Y280722D02*
Y281693D01*
X259469Y280722D02*
X260374D01*
X259469D02*
Y282664D01*
X258563D02*
X259469D01*
X258563Y280722D02*
Y282664D01*
X257658Y280722D02*
X258563D01*
X257658D02*
Y282664D01*
X256752D02*
X257658D01*
X256752Y280722D02*
Y282664D01*
X255847Y280722D02*
X256752D01*
X255847D02*
Y282664D01*
X254941D02*
X255847D01*
X254941Y280722D02*
Y282664D01*
X254036Y280722D02*
X254941D01*
X254036D02*
Y282664D01*
X253130D02*
X254036D01*
X253130Y280722D02*
Y282664D01*
X252225Y280722D02*
X253130D01*
X252225D02*
Y282664D01*
X251319D02*
X252225D01*
X251319Y280722D02*
Y282664D01*
X250413Y280722D02*
X251319D01*
X250413D02*
Y282664D01*
X249508D02*
X250413D01*
X249508Y280722D02*
Y282664D01*
X248603Y280722D02*
X249508D01*
X248603D02*
Y282664D01*
X247697D02*
X248603D01*
X247697Y280722D02*
Y282664D01*
X246791Y280722D02*
X247697D01*
X246791D02*
Y282664D01*
X245886D02*
X246791D01*
X245886Y280722D02*
Y282664D01*
X244980Y280722D02*
X245886D01*
X244980D02*
Y282664D01*
X244075D02*
X244980D01*
X244075Y280722D02*
Y282664D01*
X243169Y280722D02*
X244075D01*
X243169D02*
Y282664D01*
X242264D02*
X243169D01*
X242264Y280722D02*
Y282664D01*
X241358Y280722D02*
X242264D01*
X241358D02*
Y282664D01*
X240453D02*
X241358D01*
X240453Y280722D02*
Y282664D01*
X239547Y280722D02*
X240453D01*
X239547D02*
Y282664D01*
X238642D02*
X239547D01*
X238642Y281693D02*
Y282664D01*
X225748Y281693D02*
X238642D01*
X266240Y238072D02*
X268308Y236004D01*
X320551D01*
X323917Y239370D01*
Y240748D01*
X324606Y241437D01*
X326378D01*
X327264Y242323D01*
Y244670D01*
X328756Y246162D01*
X266240Y238072D02*
Y257874D01*
X264665Y259449D02*
X266240Y257874D01*
X230331Y261079D02*
X231961Y259449D01*
X231850Y287795D02*
X287500D01*
X271358Y237303D02*
X271368Y237313D01*
X286910Y319784D02*
X287303D01*
X285630Y318504D02*
X286910Y319784D01*
X285630Y305414D02*
Y318504D01*
X282874Y320473D02*
Y323229D01*
X283858Y324213D01*
X284252D01*
X281732Y319331D02*
X282874Y320473D01*
X283957Y303740D02*
X285630Y305414D01*
X278996Y296024D02*
X288627D01*
X293705Y290945D01*
X268691Y269360D02*
X286880D01*
X267579Y270473D02*
X268691Y269360D01*
X286880D02*
X293110Y275591D01*
X266929Y300492D02*
X268209Y301772D01*
Y302067D01*
X282382Y281693D02*
X283524Y282835D01*
X284449D01*
X228799Y275295D02*
X275886D01*
X277461Y276870D01*
X280709Y284646D02*
X282382Y286319D01*
X270965Y272146D02*
X271752Y272933D01*
Y273819D01*
X272539Y297343D02*
X273232Y298035D01*
Y298820D01*
X297441Y298229D02*
X298266Y297404D01*
X297260Y329626D02*
X299091Y327796D01*
X298266Y297343D02*
Y297404D01*
X299091Y260536D02*
Y297343D01*
Y327796D01*
X298266Y297343D02*
X299091D01*
X297315Y258760D02*
X299091Y260536D01*
X302091Y281595D02*
Y315347D01*
X300410Y317028D02*
X302091Y315347D01*
X300689Y281595D02*
X302091D01*
Y247827D02*
Y281595D01*
X300398Y246134D02*
X302091Y247827D01*
X230331Y317772D02*
X231890Y319331D01*
X230331Y302024D02*
X232047Y303740D01*
X314831Y294231D02*
Y327803D01*
X313008Y329626D02*
X314831Y327803D01*
X314793Y294193D02*
X314831Y294231D01*
X313287Y294193D02*
X314793D01*
X314831Y260658D02*
Y294231D01*
X313067Y258894D02*
X314831Y260658D01*
X313008Y258760D02*
X313067D01*
X227181Y298874D02*
X228799Y300492D01*
X220882Y295725D02*
X222500Y297343D01*
X222441Y293406D02*
X223228Y294193D01*
X222441Y290984D02*
Y293406D01*
X220882Y289425D02*
X222441Y290984D01*
X230331Y264229D02*
X231949Y265847D01*
X230331Y270528D02*
X231949Y272146D01*
X295756Y315524D02*
X297260Y317028D01*
X295756Y281595D02*
Y315524D01*
X294094Y281595D02*
X295756D01*
Y247673D02*
Y281595D01*
Y247673D02*
X297260Y246169D01*
X227181Y273677D02*
X228799Y275295D01*
X308354Y281563D02*
Y315382D01*
X306709Y317028D02*
X308354Y315382D01*
X308323Y281595D02*
X308354Y281563D01*
X306791Y281595D02*
X308323D01*
X308354Y247744D02*
Y281563D01*
X306756Y246146D02*
X308354Y247744D01*
X227181Y276827D02*
X228799Y278445D01*
X224031Y279977D02*
X225748Y281693D01*
X227181Y283185D02*
X228642Y284646D01*
X227181Y283126D02*
Y283185D01*
X230331Y286276D02*
X231850Y287795D01*
X277165Y294193D02*
X278996Y296024D01*
X317998Y265705D02*
X319253Y266961D01*
X317998Y260376D02*
Y265705D01*
X316378Y258756D02*
X317998Y260376D01*
X316220Y258756D02*
X316378D01*
X316158Y335925D02*
X317910Y334173D01*
X316189Y265063D02*
Y266323D01*
X317910Y268043D01*
X309858Y332776D02*
X311595Y331040D01*
X309941Y261910D02*
X311595Y263563D01*
X303591Y246146D02*
X305276Y247831D01*
X303547Y246146D02*
X303591D01*
X303642Y281595D02*
X305252D01*
X305276Y281571D01*
Y247831D02*
Y281571D01*
Y315311D01*
X310039Y296063D02*
Y296476D01*
X310906Y297343D01*
X311595D01*
Y263563D02*
Y297343D01*
Y331040D01*
X316240Y300492D02*
X317910D01*
Y268043D02*
Y300492D01*
Y334173D01*
X303559Y317028D02*
X305276Y315311D01*
X238780Y245374D02*
X239104Y245699D01*
X243278D01*
X243898Y245079D01*
X310236Y221260D02*
X314409Y217087D01*
X217732Y261079D02*
X219390Y259421D01*
X211433Y270528D02*
X212992Y268969D01*
Y248819D02*
Y268969D01*
X208283Y267378D02*
X209744Y265917D01*
X205134Y270528D02*
X206693Y268969D01*
X195685Y270528D02*
X197244Y268969D01*
Y248721D02*
Y268969D01*
X200591Y248819D02*
Y268772D01*
X198835Y270528D02*
X200591Y268772D01*
X231890Y240847D02*
X238287Y234449D01*
Y225886D02*
Y234449D01*
X231890Y240847D02*
Y257668D01*
X238287Y225886D02*
X244882Y219291D01*
X293996D01*
X297047Y216240D01*
Y200492D02*
Y216240D01*
X212992Y248819D02*
X214764Y247047D01*
X219291D01*
X180708Y98022D02*
X180896Y98211D01*
Y109939D01*
X159350Y297343D02*
X175295D01*
X150689Y306004D02*
X159350Y297343D01*
X57480Y307579D02*
Y329331D01*
X111811Y319981D02*
Y335039D01*
X67323Y394882D02*
X88211Y373994D01*
Y368005D02*
Y373994D01*
Y368005D02*
X100886Y355330D01*
Y330414D02*
Y355330D01*
Y330414D02*
X108267Y323032D01*
Y318204D02*
Y323032D01*
X132283Y326083D02*
Y361319D01*
X118012Y368307D02*
X119587Y366733D01*
Y328839D02*
Y366733D01*
Y328839D02*
X121956Y326469D01*
Y317914D02*
Y326469D01*
X130905Y360138D02*
Y363583D01*
X136304Y356708D02*
Y364075D01*
Y356708D02*
X140945Y352067D01*
X106383Y393996D02*
X136304Y364075D01*
X138976Y357382D02*
X142027D01*
X144587Y354823D01*
Y326280D02*
Y354823D01*
X227181Y349114D02*
X239189Y361122D01*
X224031Y349114D02*
X239189Y364272D01*
X205134Y273677D02*
X206594Y275138D01*
X201984Y273677D02*
X203346Y275040D01*
X195685Y273677D02*
X197047Y275040D01*
X227181Y320921D02*
Y349114D01*
X224031Y320921D02*
Y349114D01*
X239189Y364272D02*
X318799D01*
X239189Y361122D02*
X318012D01*
X332185Y384744D02*
X336122Y388681D01*
X345079D01*
X276575Y386221D02*
X277658Y385138D01*
X276508Y386221D02*
X276575D01*
X265977Y375689D02*
X276508Y386221D01*
X293209Y402921D01*
X268996Y385055D02*
Y387008D01*
Y385055D02*
X269094Y384957D01*
X272851D01*
X275689Y391354D02*
Y392913D01*
X275590Y391256D02*
X275689Y391354D01*
X249721Y391256D02*
X275590D01*
X277953D01*
X202362Y176673D02*
X204134Y174902D01*
X202362Y235138D02*
X206890Y239666D01*
X207480Y235502D02*
X208268D01*
Y234262D02*
Y235502D01*
X206693Y234262D02*
X208268D01*
X206693Y233022D02*
Y234262D01*
Y233022D02*
X208268D01*
Y231782D02*
Y233022D01*
X206693Y231782D02*
X208268D01*
X206693Y230541D02*
Y231782D01*
Y230541D02*
X208268D01*
Y229301D02*
Y230541D01*
X206693Y229301D02*
X208268D01*
X206693Y228061D02*
Y229301D01*
Y228061D02*
X208268D01*
Y226821D02*
Y228061D01*
X206693Y226821D02*
X208268D01*
X206693Y225581D02*
Y226821D01*
Y225581D02*
X208268D01*
Y224341D02*
Y225581D01*
X206693Y224341D02*
X208268D01*
X206693Y223100D02*
Y224341D01*
Y223100D02*
X208268D01*
Y221860D02*
Y223100D01*
X206693Y221860D02*
X208268D01*
X206693Y220620D02*
Y221860D01*
Y220620D02*
X208268D01*
Y219380D02*
Y220620D01*
X206693Y219380D02*
X208268D01*
X206693Y218140D02*
Y219380D01*
Y218140D02*
X208268D01*
Y216900D02*
Y218140D01*
X206693Y216900D02*
X208268D01*
X206693Y215659D02*
Y216900D01*
Y215659D02*
X208268D01*
Y214419D02*
Y215659D01*
X206693Y214419D02*
X208268D01*
X206693Y213179D02*
Y214419D01*
Y213179D02*
X208268D01*
Y211939D02*
Y213179D01*
X206693Y211939D02*
X208268D01*
X206693Y210699D02*
Y211939D01*
Y210699D02*
X208268D01*
Y209459D02*
Y210699D01*
X206693Y209459D02*
X208268D01*
X206693Y208218D02*
Y209459D01*
Y208218D02*
X208268D01*
Y206978D02*
Y208218D01*
X206693Y206978D02*
X208268D01*
X206693Y205738D02*
Y206978D01*
Y205738D02*
X208268D01*
Y204498D02*
Y205738D01*
X206693Y204498D02*
X208268D01*
X206693Y203258D02*
Y204498D01*
Y203258D02*
X208268D01*
Y202018D02*
Y203258D01*
X206693Y202018D02*
X208268D01*
X206693Y200778D02*
Y202018D01*
Y200778D02*
X208268D01*
Y199537D02*
Y200778D01*
X206693Y199537D02*
X208268D01*
X206693Y198297D02*
Y199537D01*
Y198297D02*
X208268D01*
Y197057D02*
Y198297D01*
X206693Y197057D02*
X208268D01*
X206693Y195817D02*
Y197057D01*
Y195817D02*
X208268D01*
Y194577D02*
Y195817D01*
X206693Y194577D02*
X208268D01*
X206693Y193336D02*
Y194577D01*
Y193336D02*
X208268D01*
Y192096D02*
Y193336D01*
X206693Y192096D02*
X208268D01*
X206693Y190856D02*
Y192096D01*
Y190856D02*
X208268D01*
Y189616D02*
Y190856D01*
X206693Y189616D02*
X208268D01*
X206693Y188376D02*
Y189616D01*
Y188376D02*
X208268D01*
Y187136D02*
Y188376D01*
X206693Y187136D02*
X208268D01*
X206693Y185896D02*
Y187136D01*
Y185896D02*
X208268D01*
Y184655D02*
Y185896D01*
X206693Y184655D02*
X208268D01*
X206693Y183415D02*
Y184655D01*
Y183415D02*
X208268D01*
Y182175D02*
Y183415D01*
X207480Y182175D02*
X208268D01*
X207480Y180935D02*
Y182175D01*
Y180935D02*
X208268D01*
Y179695D02*
Y180935D01*
X207480Y179695D02*
X208268D01*
X207480Y174016D02*
Y179695D01*
Y235502D02*
Y237303D01*
X211221Y229892D02*
Y237992D01*
Y229892D02*
X212008D01*
Y228652D02*
Y229892D01*
X210433Y228652D02*
X212008D01*
X210433Y227411D02*
Y228652D01*
Y227411D02*
X211221D01*
Y171457D02*
Y227411D01*
X202362Y231270D02*
Y235138D01*
Y231270D02*
X203150D01*
Y230030D02*
Y231270D01*
X201575Y230030D02*
X203150D01*
X201575Y228789D02*
Y230030D01*
Y228789D02*
X203150D01*
Y227549D02*
Y228789D01*
X201575Y227549D02*
X203150D01*
X201575Y226309D02*
Y227549D01*
Y226309D02*
X203150D01*
Y225069D02*
Y226309D01*
X201575Y225069D02*
X203150D01*
X201575Y223829D02*
Y225069D01*
Y223829D02*
X203150D01*
Y222589D02*
Y223829D01*
X201575Y222589D02*
X203150D01*
X201575Y221348D02*
Y222589D01*
Y221348D02*
X203150D01*
Y220108D02*
Y221348D01*
X201575Y220108D02*
X203150D01*
X201575Y218868D02*
Y220108D01*
Y218868D02*
X203150D01*
Y217628D02*
Y218868D01*
X201575Y217628D02*
X203150D01*
X201575Y216388D02*
Y217628D01*
Y216388D02*
X203150D01*
Y215148D02*
Y216388D01*
X202362Y215148D02*
X203150D01*
X202362Y176673D02*
Y215148D01*
X295374Y198789D02*
Y209941D01*
Y198789D02*
X296162D01*
Y197549D02*
Y198789D01*
X294587Y197549D02*
X296162D01*
X294587Y196309D02*
Y197549D01*
Y196309D02*
X295374D01*
Y193996D02*
Y196309D01*
X297978Y191392D02*
X298535Y191949D01*
X299412Y191072D01*
X298855Y190515D02*
X299412Y191072D01*
X298298Y189959D02*
X298855Y190515D01*
X298298Y189959D02*
X299175Y189082D01*
X299732Y189638D01*
X300289Y190195D01*
X301166Y189318D01*
X300052Y188205D02*
X301166Y189318D01*
X300052Y188205D02*
X300929Y187328D01*
X301486Y187885D01*
X302042Y188441D01*
X302919Y187565D01*
X301806Y186451D02*
X302919Y187565D01*
X301806Y186451D02*
X302683Y185574D01*
X303239Y186131D01*
X303796Y186688D01*
X304673Y185811D01*
X304116Y185254D02*
X304673Y185811D01*
X303560Y184697D02*
X304116Y185254D01*
X303560Y184697D02*
X304436Y183820D01*
X304993Y184377D01*
X305550Y184934D01*
X306427Y184057D01*
X305870Y183500D02*
X306427Y184057D01*
X305313Y182943D02*
X305870Y183500D01*
X305313Y182943D02*
X306190Y182066D01*
X306747Y182623D01*
X307304Y183180D01*
X308181Y182303D01*
X307624Y181746D02*
X308181Y182303D01*
X307067Y181189D02*
X307624Y181746D01*
X307067Y181189D02*
X307944Y180312D01*
X309058Y181426D01*
X309935Y180549D01*
X309378Y179992D02*
X309935Y180549D01*
X308821Y179436D02*
X309378Y179992D01*
X308821Y179436D02*
X309698Y178559D01*
X310812Y179672D01*
X311689Y178795D01*
X311132Y178238D02*
X311689Y178795D01*
X310575Y177682D02*
X311132Y178238D01*
X310575Y177682D02*
X311452Y176805D01*
X312009Y177362D01*
X312565Y177918D01*
X313442Y177041D01*
X312886Y176485D02*
X313442Y177041D01*
X312886Y176485D02*
X313763Y175608D01*
X314319Y176164D01*
X315196Y175287D01*
X314639Y174731D02*
X315196Y175287D01*
X314083Y174174D02*
X314639Y174731D01*
X314083Y174174D02*
X314960Y173297D01*
X315516Y173854D01*
X295374Y193996D02*
X297978Y191392D01*
X315516Y173854D02*
X320079Y169291D01*
X292811Y189473D02*
X293367Y190030D01*
X294244Y189153D01*
X293688Y188596D02*
X294244Y189153D01*
X293131Y188039D02*
X293688Y188596D01*
X293131Y188039D02*
X294008Y187162D01*
X294564Y187719D01*
X295121Y188276D01*
X295998Y187399D01*
X294885Y186285D02*
X295998Y187399D01*
X294885Y186285D02*
X295761Y185409D01*
X296318Y185965D01*
X296875Y186522D01*
X297752Y185645D01*
X296638Y184532D02*
X297752Y185645D01*
X296638Y184532D02*
X297515Y183655D01*
X298072Y184212D01*
X298629Y184768D01*
X299506Y183891D01*
X298949Y183335D02*
X299506Y183891D01*
X298392Y182778D02*
X298949Y183335D01*
X298392Y182778D02*
X299269Y181901D01*
X299826Y182458D01*
X290945Y191339D02*
X292811Y189473D01*
X299826Y182458D02*
X315846Y166437D01*
X281201Y210600D02*
X281988D01*
Y209360D02*
Y210600D01*
X280413Y209360D02*
X281988D01*
X280413Y208120D02*
Y209360D01*
Y208120D02*
X281988D01*
Y206880D02*
Y208120D01*
X280413Y206880D02*
X281988D01*
X280413Y205640D02*
Y206880D01*
Y205640D02*
X281988D01*
Y204400D02*
Y205640D01*
X280413Y204400D02*
X281988D01*
X280413Y203159D02*
Y204400D01*
Y203159D02*
X281988D01*
Y201919D02*
Y203159D01*
X280413Y201919D02*
X281988D01*
X280413Y200679D02*
Y201919D01*
Y200679D02*
X281988D01*
Y199439D02*
Y200679D01*
X280413Y199439D02*
X281988D01*
X280413Y198199D02*
Y199439D01*
Y198199D02*
X281988D01*
Y196959D02*
Y198199D01*
X280413Y196959D02*
X281988D01*
X280413Y195719D02*
Y196959D01*
Y195719D02*
X281988D01*
Y194478D02*
Y195719D01*
X280413Y194478D02*
X281988D01*
X280413Y193238D02*
Y194478D01*
Y193238D02*
X281201D01*
Y185138D02*
Y193238D01*
Y210600D02*
Y212500D01*
X286122Y210108D02*
Y212106D01*
Y210108D02*
X286910D01*
Y208868D02*
Y210108D01*
X286122Y208868D02*
X286910D01*
X286122Y188189D02*
Y208868D01*
X114961Y346427D02*
Y348524D01*
Y346427D02*
X115748D01*
Y345187D02*
Y346427D01*
X114173Y345187D02*
X115748D01*
X114173Y343947D02*
Y345187D01*
Y343947D02*
X115748D01*
Y342707D02*
Y343947D01*
X114173Y342707D02*
X115748D01*
X114173Y341466D02*
Y342707D01*
Y341466D02*
X115748D01*
Y340226D02*
Y341466D01*
X114173Y340226D02*
X115748D01*
X114173Y338986D02*
Y340226D01*
Y338986D02*
X115748D01*
Y337746D02*
Y338986D01*
X114173Y337746D02*
X115748D01*
X114173Y336506D02*
Y337746D01*
Y336506D02*
X115748D01*
Y335266D02*
Y336506D01*
X114173Y335266D02*
X115748D01*
X114173Y334026D02*
Y335266D01*
Y334026D02*
X115748D01*
Y332785D02*
Y334026D01*
X114173Y332785D02*
X115748D01*
X114173Y331545D02*
Y332785D01*
Y331545D02*
X115748D01*
Y330305D02*
Y331545D01*
X114173Y330305D02*
X115748D01*
X114173Y329065D02*
Y330305D01*
Y329065D02*
X115748D01*
Y327825D02*
Y329065D01*
X114173Y327825D02*
X115748D01*
X114173Y326585D02*
Y327825D01*
Y326585D02*
X115748D01*
Y325344D02*
Y326585D01*
X114173Y325344D02*
X115748D01*
X114173Y324104D02*
Y325344D01*
Y324104D02*
X115748D01*
Y322864D02*
Y324104D01*
X114173Y322864D02*
X115748D01*
X114173Y321624D02*
Y322864D01*
Y321624D02*
X115748D01*
Y320384D02*
Y321624D01*
X114173Y320384D02*
X115748D01*
X114173Y319144D02*
Y320384D01*
Y319144D02*
X115748D01*
Y317903D02*
Y319144D01*
X114173Y317903D02*
X115748D01*
X114173Y316663D02*
Y317903D01*
Y316663D02*
X114961D01*
Y271949D02*
Y316663D01*
X140945Y314734D02*
Y352067D01*
Y314734D02*
X141732D01*
Y313494D02*
Y314734D01*
X140157Y313494D02*
X141732D01*
X140157Y312254D02*
Y313494D01*
Y312254D02*
X141732D01*
Y311014D02*
Y312254D01*
X140157Y311014D02*
X141732D01*
X140157Y309774D02*
Y311014D01*
Y309774D02*
X141732D01*
Y308533D02*
Y309774D01*
X140157Y308533D02*
X141732D01*
X140157Y307293D02*
Y308533D01*
Y307293D02*
X141732D01*
Y306053D02*
Y307293D01*
X140945Y306053D02*
X141732D01*
X140945Y282284D02*
Y306053D01*
X123917Y290915D02*
Y368504D01*
Y290915D02*
X124705D01*
Y289675D02*
Y290915D01*
X123917Y289675D02*
X124705D01*
X123917Y275000D02*
Y289675D01*
X150787Y309547D02*
X167618D01*
X108564Y309548D02*
X111413D01*
X192016Y292602D02*
X192535D01*
X111516Y298425D02*
X113189Y300098D01*
Y311713D01*
X78246Y321360D02*
Y323913D01*
Y321360D02*
X87136Y312471D01*
X67913Y325886D02*
X69557Y324242D01*
X60433Y324016D02*
Y325000D01*
X61319Y325886D01*
X67913D01*
X69557Y323061D02*
Y324242D01*
Y323061D02*
X88090Y304528D01*
X106594Y281693D02*
X111024D01*
X66536Y321752D02*
Y323917D01*
Y321752D02*
X106594Y281693D01*
X106663Y311683D02*
Y312471D01*
X105423Y311683D02*
X106663D01*
X105423D02*
Y313258D01*
X104183D02*
X105423D01*
X104183Y311683D02*
Y313258D01*
X102943Y311683D02*
X104183D01*
X102943D02*
Y312471D01*
X87136D02*
X102943D01*
X106663D02*
X112431D01*
X113189Y311713D01*
X101683Y304528D02*
X103543D01*
X101683Y303740D02*
Y304528D01*
X100443Y303740D02*
X101683D01*
X100443D02*
Y305315D01*
X99203D02*
X100443D01*
X99203Y304528D02*
Y305315D01*
X88090Y304528D02*
X99203D01*
X103543D02*
X108564Y309548D01*
X292342Y434567D02*
X296880Y439104D01*
X353907D02*
X356594Y436417D01*
X314409Y217087D02*
X329075D01*
X308760Y220374D02*
X316142Y212992D01*
X325886D01*
X333662Y205217D01*
X242126Y233803D02*
X255555Y220374D01*
X255867Y221260D02*
X310236D01*
X243898Y233229D02*
X255867Y221260D01*
X243898Y233229D02*
Y245079D01*
X242126Y233803D02*
Y244488D01*
X255555Y220374D02*
X308760D01*
X333662Y201279D02*
Y205217D01*
Y201279D02*
X336614Y198327D01*
X334301Y209990D02*
Y211860D01*
Y209990D02*
X337303Y206988D01*
X329075Y217087D02*
X334301Y211860D01*
X348524Y444095D02*
X348819Y443799D01*
Y443307D02*
Y443799D01*
X301112Y439104D02*
Y440679D01*
X302352D01*
Y437529D02*
Y440679D01*
Y437529D02*
X303592D01*
Y440679D01*
X304833D01*
Y437529D02*
Y440679D01*
Y437529D02*
X306073D01*
Y439104D01*
X296880D02*
X301112D01*
X306073D02*
X308553D01*
Y437529D02*
Y439104D01*
Y437529D02*
X309793D01*
Y440679D01*
X311034D01*
Y439104D02*
Y440679D01*
Y439104D02*
X353907D01*
X300591Y444095D02*
X304951D01*
Y445669D01*
X306191D01*
Y442520D02*
Y445669D01*
Y442520D02*
X307431D01*
Y445669D01*
X308671D01*
Y444095D02*
Y445669D01*
Y444095D02*
X309911D01*
Y445669D01*
X311152D01*
Y442520D02*
Y445669D01*
Y442520D02*
X312392D01*
Y444095D01*
X348524D01*
X307608Y426476D02*
Y428051D01*
X308848D01*
Y424902D02*
Y428051D01*
Y424902D02*
X310089D01*
Y426476D01*
X296457D02*
X307608D01*
X310089D02*
X360433D01*
X216423Y249836D02*
Y262919D01*
X225787Y263771D02*
X226369Y263189D01*
D100*
X197593Y51521D02*
G03*
X200272Y48842I1997J-683D01*
G01*
X193519Y56195D02*
G03*
X196007Y53107I1806J-1091D01*
G01*
X189254Y60460D02*
G03*
X189397Y60975I-852J515D01*
G01*
X189254Y60460D02*
G03*
X192151Y57562I1806J-1091D01*
G01*
X189397Y60975D02*
G03*
X187886Y61827I-996J0D01*
G01*
X193519Y56195D02*
G03*
X193662Y56710I-852J515D01*
G01*
D02*
G03*
X192151Y57562I-996J0D01*
G01*
X207944Y45521D02*
G03*
X211733Y45521I1895J929D01*
G01*
X174606Y83799D02*
G03*
X173849Y84766I-996J0D01*
G01*
Y82832D02*
G03*
X174606Y83799I-238J967D01*
G01*
X173425Y88710D02*
G03*
X173849Y84766I929J-1895D01*
G01*
X180724Y68989D02*
G03*
X183621Y66092I1806J-1091D01*
G01*
X185132Y65240D02*
G03*
X183621Y66092I-996J0D01*
G01*
X180868Y69504D02*
G03*
X179356Y70357I-996J0D01*
G01*
X184989Y64724D02*
G03*
X185132Y65240I-852J515D01*
G01*
X184989Y64724D02*
G03*
X187886Y61827I1806J-1091D01*
G01*
X173849Y82832D02*
G03*
X173425Y78889I505J-2049D01*
G01*
X180724Y68989D02*
G03*
X180868Y69504I-852J515D01*
G01*
X176268Y72846D02*
G03*
X179356Y70357I1997J-683D01*
G01*
X200787Y49903D02*
G03*
X200105Y49986I-394J-394D01*
G01*
X198817Y51642D02*
G03*
X198654Y52036I-557J0D01*
G01*
X198737Y51354D02*
G03*
X200105Y49986I852J-515D01*
G01*
X194472Y55619D02*
G03*
X194776Y56710I-1806J1091D01*
G01*
X194472Y55619D02*
G03*
X195840Y54251I852J-515D01*
G01*
X190207Y59883D02*
G03*
X190511Y60975I-1806J1091D01*
G01*
X194776Y56710D02*
G03*
X191575Y58516I-2110J0D01*
G01*
X198737Y51354D02*
G03*
X198817Y51642I-477J288D01*
G01*
X196522Y54168D02*
G03*
X195840Y54251I-394J-394D01*
G01*
X211347Y46635D02*
G03*
X210806Y46211I0J-557D01*
G01*
X208872Y46209D02*
G03*
X208331Y46635I-542J-131D01*
G01*
X208872Y46211D02*
G03*
X208872Y46209I967J239D01*
G01*
D02*
G03*
X210806Y46211I966J241D01*
G01*
X174116Y87782D02*
G03*
X174539Y88323I-133J541D01*
G01*
X174116Y87782D02*
G03*
X174116Y85848I238J-967D01*
G01*
X175721Y83799D02*
G03*
X174116Y85848I-2110J0D01*
G01*
Y81751D02*
G03*
X175721Y83799I-505J2049D01*
G01*
X174116Y81751D02*
G03*
X174116Y79817I238J-967D01*
G01*
X186247Y65240D02*
G03*
X183045Y67046I-2110J0D01*
G01*
X185942Y64148D02*
G03*
X186247Y65240I-1806J1091D01*
G01*
X181677Y68413D02*
G03*
X181982Y69504I-1806J1091D01*
G01*
X181677Y68413D02*
G03*
X183045Y67046I852J-515D01*
G01*
X190511Y60975D02*
G03*
X187310Y62781I-2110J0D01*
G01*
X190207Y59883D02*
G03*
X191575Y58516I852J-515D01*
G01*
X185942Y64148D02*
G03*
X187310Y62781I852J-515D01*
G01*
X177493Y72966D02*
G03*
X177330Y73360I-557J0D01*
G01*
X174539Y79276D02*
G03*
X174116Y79817I-557J0D01*
G01*
X177413Y72678D02*
G03*
X177493Y72966I-477J288D01*
G01*
X181982Y69504D02*
G03*
X178780Y71311I-2110J0D01*
G01*
X177413Y72678D02*
G03*
X178780Y71311I852J-515D01*
G01*
X124705Y34735D02*
G03*
X125009Y35827I-1806J1091D01*
G01*
D02*
G03*
X121808Y37633I-2110J0D01*
G01*
X129274Y31562D02*
G03*
X126073Y33368I-2110J0D01*
G01*
X128970Y30470D02*
G03*
X129274Y31562I-1806J1091D01*
G01*
X124705Y34735D02*
G03*
X126073Y33368I852J-515D01*
G01*
X148863Y27165D02*
G03*
X144919Y26742I-1895J-929D01*
G01*
X142985D02*
G03*
X138888Y26742I-2049J-505D01*
G01*
X142985D02*
G03*
X144919Y26742I967J238D01*
G01*
X136954D02*
G03*
X138888Y26742I967J238D01*
G01*
X131019Y29020D02*
G03*
X130337Y29103I-394J-394D01*
G01*
X128970Y30470D02*
G03*
X130337Y29103I852J-515D01*
G01*
X136954Y26742D02*
G03*
X136413Y27165I-541J-133D01*
G01*
X111910Y47530D02*
G03*
X112214Y48621I-1806J1091D01*
G01*
X111910Y47530D02*
G03*
X113278Y46163I852J-515D01*
G01*
X112214Y48621D02*
G03*
X109421Y50618I-2110J0D01*
G01*
X116175Y43265D02*
G03*
X116479Y44356I-1806J1091D01*
G01*
X116175Y43265D02*
G03*
X117543Y41898I852J-515D01*
G01*
X116479Y44356D02*
G03*
X113278Y46163I-2110J0D01*
G01*
X120440Y39000D02*
G03*
X120744Y40091I-1806J1091D01*
G01*
X120440Y39000D02*
G03*
X121808Y37633I852J-515D01*
G01*
X120744Y40091D02*
G03*
X117543Y41898I-2110J0D01*
G01*
X123751Y35311D02*
G03*
X123895Y35827I-852J515D01*
G01*
X128160Y31562D02*
G03*
X126649Y32414I-996J0D01*
G01*
X123751Y35311D02*
G03*
X126649Y32414I1806J-1091D01*
G01*
X147935Y26475D02*
G03*
X146001Y26475I-967J-238D01*
G01*
X141903D02*
G03*
X139970Y26475I-967J-238D01*
G01*
X147935D02*
G03*
X148476Y26051I541J133D01*
G01*
X141903Y26475D02*
G03*
X146001Y26475I2049J505D01*
G01*
X128016Y31047D02*
G03*
X128160Y31562I-852J515D01*
G01*
X128016Y31047D02*
G03*
X130505Y27959I1806J-1091D01*
G01*
X136026Y26051D02*
G03*
X139970Y26475I1895J929D01*
G01*
X111100Y48621D02*
G03*
X109589Y49474I-996J0D01*
G01*
X110957Y48106D02*
G03*
X111100Y48621I-852J515D01*
G01*
X110957Y48106D02*
G03*
X113854Y45209I1806J-1091D01*
G01*
X108907Y49557D02*
G03*
X109589Y49474I394J394D01*
G01*
X115222Y43841D02*
G03*
X115365Y44356I-852J515D01*
G01*
X119630Y40091D02*
G03*
X118119Y40944I-996J0D01*
G01*
X115222Y43841D02*
G03*
X118119Y40944I1806J-1091D01*
G01*
X119486Y39576D02*
G03*
X119630Y40091I-852J515D01*
G01*
X123895Y35827D02*
G03*
X122384Y36679I-996J0D01*
G01*
X119486Y39576D02*
G03*
X122384Y36679I1806J-1091D01*
G01*
X115365Y44356D02*
G03*
X113854Y45209I-996J0D01*
G01*
X100132Y89672D02*
G03*
X101116Y90656I-0J984D01*
G01*
X99575Y101927D02*
G03*
X100132Y97806I557J-2023D01*
G01*
Y89672D02*
G03*
X99575Y89115I0J-557D01*
G01*
Y85371D02*
G03*
X99575Y81821I1607J-1775D01*
G01*
X100689Y88633D02*
G03*
X102230Y90656I-557J2023D01*
G01*
X100689Y82088D02*
G03*
X100450Y82546I-557J0D01*
G01*
Y84647D02*
G03*
X100689Y85104I-318J457D01*
G01*
X100132Y100888D02*
G03*
X100689Y101445I0J557D01*
G01*
X100132Y100888D02*
G03*
X100132Y98920I0J-984D01*
G01*
X100450Y84647D02*
G03*
X100450Y82546I732J-1051D01*
G01*
X100132Y95837D02*
G03*
X101116Y96821I-0J984D01*
G01*
D02*
G03*
X100132Y97806I-984J0D01*
G01*
X101116Y90656D02*
G03*
X100132Y91640I-984J0D01*
G01*
Y95837D02*
G03*
X100132Y91640I0J-2098D01*
G01*
Y94723D02*
G03*
X102230Y96821I-0J2098D01*
G01*
D02*
G03*
X100132Y98920I-2098J0D01*
G01*
X102230Y90656D02*
G03*
X100132Y92754I-2098J0D01*
G01*
Y94723D02*
G03*
X100132Y92754I0J-984D01*
G01*
X196007Y53107D02*
X197593Y51521D01*
X203594Y45521D02*
X207944D01*
X211733D02*
X244814D01*
X200272Y48842D02*
X203594Y45521D01*
X173425Y88710D02*
Y92716D01*
Y75689D02*
Y78889D01*
Y75689D02*
X176268Y72846D01*
X200787Y49903D02*
X204055Y46635D01*
X211347D02*
X245276D01*
X204055D02*
X208331D01*
X196522Y54168D02*
X198654Y52036D01*
X174539Y76151D02*
X177330Y73360D01*
X174539Y76151D02*
Y79276D01*
X148863Y27165D02*
X357169Y27165D01*
X131019Y29020D02*
X132874Y27165D01*
X136413Y27165D01*
X107185Y52854D02*
X109421Y50618D01*
X148476Y26051D02*
X357631D01*
X130505Y27959D02*
X132413Y26051D01*
X136026D01*
X106724Y51740D02*
X108907Y49557D01*
X79137Y42787D02*
X79992D01*
X99575Y85371D02*
Y89115D01*
Y101927D02*
Y105051D01*
Y76946D02*
Y81821D01*
X100689Y101445D02*
Y105513D01*
X100689Y85104D02*
X100689Y88633D01*
X100689Y82088D02*
X100689Y77408D01*
X76693Y107909D02*
Y110455D01*
X79137Y112900D01*
X89272Y107382D02*
X97244D01*
X89272Y108496D02*
X97706D01*
X109041Y71864D02*
X110984Y69921D01*
X104657Y71864D02*
X109041D01*
X99575Y76946D02*
X104657Y71864D01*
X97244Y107382D02*
X99575Y105051D01*
X108962Y72979D02*
X110905Y74921D01*
X100689Y77408D02*
X105118Y72979D01*
X108962D01*
X97706Y108496D02*
X100689Y105513D01*
X86693Y103898D02*
Y104803D01*
X89272Y107382D01*
X86693Y111075D02*
Y111890D01*
Y111075D02*
X89272Y108496D01*
X84516Y131465D02*
X97452D01*
X84054Y132579D02*
X97914D01*
X81988Y130512D02*
X84054Y132579D01*
X113976Y103839D02*
Y107776D01*
X102084Y119668D02*
X113976Y107776D01*
X113189Y103051D02*
X113976Y103839D01*
X102084Y119668D02*
Y126833D01*
X111018Y103330D02*
X111296Y103051D01*
X113189D01*
X97452Y131465D02*
X102084Y126833D01*
X115091Y103377D02*
Y108237D01*
X103198Y120130D02*
X115091Y108237D01*
X103198Y120130D02*
Y127295D01*
X113535Y101822D02*
X115091Y103377D01*
X109081Y101822D02*
X113535D01*
X108163Y102739D02*
X109081Y101822D01*
X97914Y132579D02*
X103198Y127295D01*
X76693Y123894D02*
Y125677D01*
X78150Y127134D01*
X76693Y129705D02*
Y131886D01*
Y129705D02*
X78150Y128248D01*
Y127134D02*
X81631D01*
X82776Y128279D01*
Y129724D01*
X78150Y128248D02*
X81169D01*
X81661Y128740D01*
Y130186D01*
X81988Y130512D01*
Y130512D01*
X82776Y129724D02*
X84516Y131465D01*
X228839Y260720D02*
X228884Y260675D01*
X228839Y260720D02*
Y262598D01*
X243110Y249016D02*
X244980Y247146D01*
X248648Y386319D02*
X255906D01*
X200394Y338065D02*
X248648Y386319D01*
X200394Y303583D02*
Y338065D01*
X198835Y302024D02*
X200394Y303583D01*
X173425Y323228D02*
X180315D01*
X175197Y324508D02*
X179232D01*
X179331Y324410D01*
X244173Y56299D02*
X258839Y41634D01*
X259953Y39957D02*
Y42095D01*
X244635Y57413D02*
X259953Y42095D01*
X231268Y57413D02*
X244635D01*
X176839Y91893D02*
Y99311D01*
X170933Y105217D02*
Y112992D01*
Y105217D02*
X176839Y99311D01*
X200326Y86779D02*
X207381Y79724D01*
X176839Y91893D02*
X181952Y86779D01*
X200326D01*
X165157Y116536D02*
X165453D01*
X165945Y117028D01*
X166898D01*
X170933Y112992D01*
X258260Y39378D02*
X258839Y39957D01*
X207381Y79724D02*
X207382D01*
X230806Y56299D01*
X177953Y92354D02*
Y99773D01*
X172047Y105678D02*
X177627Y100099D01*
Y100099D02*
Y100099D01*
X182413Y87894D02*
X200787D01*
X177627Y100099D02*
X177953Y99773D01*
Y92354D02*
X182413Y87894D01*
X165157Y118437D02*
X165453Y118142D01*
X172047Y105678D02*
Y113454D01*
X165453Y118142D02*
X167359D01*
X172047Y113454D01*
X259953Y39957D02*
X260531Y39378D01*
X200787Y87894D02*
X231268Y57413D01*
X258839Y39957D02*
Y41634D01*
X230806Y56299D02*
X244173D01*
X165059Y103575D02*
X165748D01*
X165059Y101673D02*
X165354Y101969D01*
X165748Y103575D02*
X166240Y103083D01*
X167064D01*
X167064D02*
X168240Y101906D01*
Y99477D02*
Y101906D01*
Y99477D02*
X174539Y93178D01*
Y88323D02*
Y93178D01*
X248142Y40047D02*
X248721Y39469D01*
X165354Y101969D02*
X166602D01*
X167126Y101445D01*
Y99016D02*
Y101445D01*
Y99016D02*
X173425Y92716D01*
X246449Y39469D02*
X247028Y40047D01*
X244814Y45521D02*
X247028Y43307D01*
X245276Y46635D02*
X248142Y43769D01*
X247028Y40047D02*
Y43307D01*
X248142Y40047D02*
Y43769D01*
X244980Y236122D02*
Y247146D01*
Y236122D02*
X255807Y225295D01*
Y223031D02*
Y225295D01*
X79920Y44291D02*
X81366Y45737D01*
X77559Y44291D02*
X79920D01*
X81366Y53710D02*
X81692Y54036D01*
X81366Y45737D02*
Y53710D01*
X81692Y54036D02*
Y54036D01*
X83889Y56232D01*
X93394D01*
X96772Y52854D01*
X107185D01*
X357169Y27165D02*
X364059Y34055D01*
Y37910D01*
X363484Y38484D02*
X364059Y37910D01*
X82480Y45276D02*
Y53248D01*
X84350Y55118D01*
X92932D02*
X96310Y51740D01*
X84350Y55118D02*
X92932D01*
X96310Y51740D02*
X106724D01*
X357631Y26051D02*
X365173Y33594D01*
Y37910D01*
X365748Y38484D01*
X76693Y43425D02*
X77559Y44291D01*
X76693Y39543D02*
Y43425D01*
X79992Y42787D02*
X82480Y45276D01*
X86693Y43524D02*
X89921Y46752D01*
X90342Y47866D02*
X99477D01*
X86693Y51516D02*
X90342Y47866D01*
X113354Y25227D02*
Y26151D01*
Y26151D02*
Y32413D01*
Y26151D02*
X113354Y26151D01*
X118700Y19882D02*
X150295D01*
X113354Y26151D02*
X113354D01*
X113354Y25227D02*
X118700Y19882D01*
X99016Y46752D02*
X113354Y32413D01*
X165287Y4890D02*
X357253D01*
X150295Y19882D02*
X165287Y4890D01*
X357253D02*
X376886Y24523D01*
Y38205D01*
X377362Y38681D01*
X114469Y25689D02*
Y32875D01*
X99477Y47866D02*
X114469Y32875D01*
X150756Y20996D02*
X165748Y6004D01*
X114469Y25689D02*
X119162Y20996D01*
X150756D01*
X165748Y6004D02*
X356791D01*
X375772Y24984D01*
Y38205D01*
X375295Y38681D02*
X375772Y38205D01*
X89921Y46752D02*
X99016D01*
X86693Y21240D02*
X89862Y24409D01*
X86693Y19547D02*
Y21240D01*
X194095Y223327D02*
X195276Y222146D01*
X194095Y223327D02*
Y287106D01*
X186236Y286276D02*
X187854Y287894D01*
X193307D02*
X194095Y287106D01*
X187854Y287894D02*
X193307D01*
X190354Y224508D02*
X193996Y220866D01*
X190354Y249016D02*
X191043Y249705D01*
X189386Y264229D02*
X190004D01*
X191043Y263189D01*
X190354Y224508D02*
Y249016D01*
X191043Y249705D02*
Y263189D01*
X226369Y263189D02*
X228248D01*
X228839Y262598D01*
D187*
X264469Y17165D02*
D03*
X246358D02*
D03*
X228248D02*
D03*
D188*
X86693Y143858D02*
D03*
Y135866D02*
D03*
Y127874D02*
D03*
X76693Y131886D02*
D03*
Y123894D02*
D03*
Y139484D02*
D03*
Y115902D02*
D03*
X86693Y103898D02*
D03*
Y111890D02*
D03*
X76693Y99917D02*
D03*
X86693Y95906D02*
D03*
X76693Y107909D02*
D03*
X21693Y147539D02*
D03*
X11693D02*
D03*
X21693Y92224D02*
D03*
X11693D02*
D03*
X399323Y302740D02*
D03*
Y312740D02*
D03*
Y292740D02*
D03*
Y332740D02*
D03*
Y322740D02*
D03*
Y282740D02*
D03*
X86693Y59508D02*
D03*
Y51516D02*
D03*
Y43524D02*
D03*
X76693Y47535D02*
D03*
Y39543D02*
D03*
Y55134D02*
D03*
Y31551D02*
D03*
X86693Y19547D02*
D03*
Y27539D02*
D03*
X76693Y15567D02*
D03*
X86693Y11555D02*
D03*
X76693Y23559D02*
D03*
X21693Y63189D02*
D03*
X11693D02*
D03*
X21693Y7874D02*
D03*
X11693D02*
D03*
D189*
X72716Y87776D02*
D03*
X63189Y151988D02*
D03*
X33189D02*
D03*
X42717Y87776D02*
D03*
X72716Y3425D02*
D03*
X63189Y67638D02*
D03*
X33189D02*
D03*
X42717Y3425D02*
D03*
D190*
X50197Y151988D02*
D03*
X55709Y87776D02*
D03*
X50197Y67638D02*
D03*
X55709Y3425D02*
D03*
D191*
X440945Y451673D02*
D03*
X9744Y169980D02*
D03*
X6004Y327658D02*
D03*
X436221Y22146D02*
D03*
D192*
X147146Y10236D02*
D03*
D193*
X325886Y209941D02*
D03*
X321161Y205217D02*
D03*
X325886D02*
D03*
X321161Y209941D02*
D03*
X316437Y205217D02*
D03*
X325886Y195768D02*
D03*
X321161Y200492D02*
D03*
X325886D02*
D03*
X316437D02*
D03*
X321161Y195768D02*
D03*
X316437D02*
D03*
X311713Y209941D02*
D03*
X316437D02*
D03*
X311713Y205217D02*
D03*
Y195768D02*
D03*
Y200492D02*
D03*
X367323Y269783D02*
D03*
Y265059D02*
D03*
X29921Y218110D02*
D03*
Y213386D02*
D03*
X25197Y218110D02*
D03*
X29921Y208661D02*
D03*
X25197Y213386D02*
D03*
Y208661D02*
D03*
X20472Y213386D02*
D03*
Y218110D02*
D03*
Y208661D02*
D03*
X231890Y420079D02*
D03*
Y415354D02*
D03*
X227165Y420079D02*
D03*
Y415354D02*
D03*
X358563Y445079D02*
D03*
X97441Y233465D02*
D03*
X92716D02*
D03*
X97441Y228740D02*
D03*
Y224016D02*
D03*
X92716Y228740D02*
D03*
Y224016D02*
D03*
X87992Y233465D02*
D03*
Y228740D02*
D03*
Y224016D02*
D03*
D194*
X85555Y371701D02*
D03*
Y367370D02*
D03*
Y363039D02*
D03*
X81225Y371701D02*
D03*
X79059Y369536D02*
D03*
X76894Y371701D02*
D03*
X83390Y369536D02*
D03*
Y365205D02*
D03*
X81225Y367370D02*
D03*
Y363039D02*
D03*
X83390Y360874D02*
D03*
X79059Y365205D02*
D03*
X74728Y369536D02*
D03*
X76894Y367370D02*
D03*
X74728Y365205D02*
D03*
X76894Y363039D02*
D03*
X79059Y360874D02*
D03*
X74728D02*
D03*
X85555Y358709D02*
D03*
Y354378D02*
D03*
Y350047D02*
D03*
X81225Y358709D02*
D03*
X83390Y356543D02*
D03*
X79059D02*
D03*
X81225Y354378D02*
D03*
X83390Y352213D02*
D03*
X81225Y350047D02*
D03*
X76894Y358709D02*
D03*
Y354378D02*
D03*
X74728Y356543D02*
D03*
X79059Y352213D02*
D03*
X76894Y350047D02*
D03*
X74728Y352213D02*
D03*
X72563Y371701D02*
D03*
Y367370D02*
D03*
X70398Y369536D02*
D03*
Y365205D02*
D03*
X72563Y363039D02*
D03*
X70398Y360874D02*
D03*
X68232Y371701D02*
D03*
Y367370D02*
D03*
X66067Y369536D02*
D03*
Y365205D02*
D03*
X68232Y363039D02*
D03*
X66067Y360874D02*
D03*
X63902Y371701D02*
D03*
Y367370D02*
D03*
Y363039D02*
D03*
X72563Y358709D02*
D03*
X70398Y356543D02*
D03*
X68232Y358709D02*
D03*
X72563Y354378D02*
D03*
X70398Y352213D02*
D03*
X68232Y354378D02*
D03*
X66067Y356543D02*
D03*
Y352213D02*
D03*
X63902Y354378D02*
D03*
X68232Y350047D02*
D03*
X72563D02*
D03*
X63902Y358709D02*
D03*
Y350047D02*
D03*
X123992Y427559D02*
D03*
X126992D02*
D03*
X279701Y153150D02*
D03*
X282701D02*
D03*
X31201Y406988D02*
D03*
X34201D02*
D03*
X122441Y454158D02*
D03*
Y451158D02*
D03*
X74728Y360874D02*
D03*
D195*
X432972Y435630D02*
D03*
X96063Y194095D02*
D03*
X40059Y310433D02*
D03*
X271535Y461693D02*
D03*
X39370Y76673D02*
D03*
X287205Y160827D02*
D03*
X280807Y144783D02*
D03*
X373228Y285827D02*
D03*
X357677Y242421D02*
D03*
X357874Y279626D02*
D03*
X364272Y281496D02*
D03*
Y293898D02*
D03*
X359154Y259252D02*
D03*
X360728Y298031D02*
D03*
X137795Y241929D02*
D03*
X195276Y175394D02*
D03*
X141339Y176181D02*
D03*
X159744Y249606D02*
D03*
X85532Y259154D02*
D03*
X73819Y231102D02*
D03*
X377461Y269291D02*
D03*
X351181Y275787D02*
D03*
X378346Y265453D02*
D03*
X357776Y262795D02*
D03*
X357579Y268406D02*
D03*
X350984Y265453D02*
D03*
X351181Y271358D02*
D03*
X344685Y292520D02*
D03*
X224410Y217913D02*
D03*
X224311Y214764D02*
D03*
X199508Y231201D02*
D03*
X192717Y183366D02*
D03*
X199311Y182776D02*
D03*
X195965Y230315D02*
D03*
X189860Y451378D02*
D03*
X215256Y449016D02*
D03*
X168996Y455905D02*
D03*
X171260Y449154D02*
D03*
X170866Y444095D02*
D03*
X185039Y429528D02*
D03*
X149213Y456594D02*
D03*
X204528Y426870D02*
D03*
X149508Y441043D02*
D03*
X205020Y448819D02*
D03*
X205118Y363681D02*
D03*
X185236Y372244D02*
D03*
X195866Y418799D02*
D03*
X177854Y388484D02*
D03*
X205211Y402073D02*
D03*
X162598Y414468D02*
D03*
X327559Y287500D02*
D03*
X331201Y300984D02*
D03*
X327953Y281299D02*
D03*
X285377Y289892D02*
D03*
X292323Y263583D02*
D03*
X107283Y314173D02*
D03*
X102264Y306791D02*
D03*
X98622Y293012D02*
D03*
X158366Y253543D02*
D03*
X162598Y253740D02*
D03*
X154429Y253642D02*
D03*
X154528Y250098D02*
D03*
X191781Y328396D02*
D03*
X172441Y328642D02*
D03*
X21260Y228051D02*
D03*
X27165Y227953D02*
D03*
X96653Y208858D02*
D03*
X90748Y208858D02*
D03*
X58957Y252264D02*
D03*
X198772Y65500D02*
D03*
X193405Y75000D02*
D03*
X215205Y54035D02*
D03*
X310630Y73917D02*
D03*
X332677Y54921D02*
D03*
X180955Y203297D02*
D03*
X59153Y435039D02*
D03*
X36024Y290453D02*
D03*
X367126Y298031D02*
D03*
X357185Y299114D02*
D03*
X206292Y132291D02*
D03*
X72342Y218504D02*
D03*
X64370Y171457D02*
D03*
X140256Y217224D02*
D03*
X97244Y189862D02*
D03*
X81201Y187795D02*
D03*
X76280Y165453D02*
D03*
X107362Y184075D02*
D03*
Y150413D02*
D03*
X68898Y181693D02*
D03*
X45956Y183846D02*
D03*
X21752Y195472D02*
D03*
X126575Y145866D02*
D03*
X308661Y456693D02*
D03*
X58760Y411614D02*
D03*
X4232Y125394D02*
D03*
X4075Y120413D02*
D03*
X31358Y115413D02*
D03*
X31280Y110413D02*
D03*
X65847Y135236D02*
D03*
X67815Y128248D02*
D03*
X61713Y106496D02*
D03*
X68701Y110925D02*
D03*
D196*
X274213Y337894D02*
D03*
X278937Y338484D02*
D03*
X274606Y344783D02*
D03*
X275492Y329035D02*
D03*
X275699Y251565D02*
D03*
X275787Y260236D02*
D03*
X286713Y277756D02*
D03*
X306791Y280118D02*
D03*
X287303Y313878D02*
D03*
X278740Y324213D02*
D03*
X258858Y292618D02*
D03*
X300590Y294980D02*
D03*
X286713Y273819D02*
D03*
X289469Y232480D02*
D03*
X283858Y243799D02*
D03*
X284252Y232480D02*
D03*
X271850Y234350D02*
D03*
X268996Y238976D02*
D03*
X256299Y255610D02*
D03*
X268504Y252067D02*
D03*
X266142Y273819D02*
D03*
X264272Y280217D02*
D03*
X267224Y286221D02*
D03*
X268406Y289370D02*
D03*
X267815Y292618D02*
D03*
X268406Y295866D02*
D03*
X267717Y298917D02*
D03*
X268209Y308465D02*
D03*
X274606Y311713D02*
D03*
X269685Y323524D02*
D03*
X336619Y434863D02*
D03*
X192535Y270528D02*
D03*
X275984Y433957D02*
D03*
X300605Y273341D02*
D03*
X41142Y391535D02*
D03*
X254921Y373917D02*
D03*
X205134Y314622D02*
D03*
X261713Y367224D02*
D03*
X214622Y317772D02*
D03*
X59646Y376772D02*
D03*
X59547Y375098D02*
D03*
X53543Y391535D02*
D03*
X198835Y314622D02*
D03*
Y317772D02*
D03*
X195685Y314622D02*
D03*
Y317772D02*
D03*
X188681Y324311D02*
D03*
X190354Y324016D02*
D03*
X186811Y324508D02*
D03*
X191535Y325590D02*
D03*
X183087Y270528D02*
D03*
X192535Y257929D02*
D03*
X186236Y273677D02*
D03*
X183087Y267378D02*
D03*
X227181Y257929D02*
D03*
X220882Y254780D02*
D03*
X224031Y261079D02*
D03*
X217732Y273677D02*
D03*
X300410Y335925D02*
D03*
X306709D02*
D03*
X237628Y292618D02*
D03*
X341354Y265059D02*
D03*
X309858D02*
D03*
X303559D02*
D03*
X297260D02*
D03*
X335055D02*
D03*
X236630Y261079D02*
D03*
X170528Y314622D02*
D03*
X183126Y320921D02*
D03*
X205134Y302024D02*
D03*
X201984D02*
D03*
X198835D02*
D03*
X195685D02*
D03*
X205134Y257929D02*
D03*
X208283D02*
D03*
X211433D02*
D03*
X214583Y261079D02*
D03*
Y264229D02*
D03*
X198835Y267378D02*
D03*
X195685D02*
D03*
X309858Y243012D02*
D03*
X54823Y350984D02*
D03*
X64862Y346555D02*
D03*
X208283Y314622D02*
D03*
X214610Y305173D02*
D03*
X217760Y314622D02*
D03*
X208323Y317772D02*
D03*
X205134Y308350D02*
D03*
X179937Y311473D02*
D03*
X173638Y292535D02*
D03*
X176815Y302024D02*
D03*
X186276Y298874D02*
D03*
X192535Y302024D02*
D03*
X189386Y311473D02*
D03*
X192563Y305173D02*
D03*
X189386D02*
D03*
X186236Y308323D02*
D03*
X83071Y341240D02*
D03*
X95720Y351032D02*
D03*
X72835Y340846D02*
D03*
X99504Y339666D02*
D03*
X87524Y346520D02*
D03*
X85630Y346457D02*
D03*
X83563D02*
D03*
X89221Y361859D02*
D03*
X89055Y355953D02*
D03*
X89173Y359843D02*
D03*
X89173Y365748D02*
D03*
Y363878D02*
D03*
Y369685D02*
D03*
X63902Y375272D02*
D03*
X60283Y355953D02*
D03*
X60287Y357922D02*
D03*
X60287Y365795D02*
D03*
X60284Y361859D02*
D03*
X69807Y375221D02*
D03*
X73744Y375272D02*
D03*
X67323Y394882D02*
D03*
X54921Y352953D02*
D03*
X67815Y346457D02*
D03*
X79650Y346433D02*
D03*
X77681Y346433D02*
D03*
X73744D02*
D03*
X75713Y346433D02*
D03*
X111811Y319981D02*
D03*
Y335039D02*
D03*
X117323Y326083D02*
D03*
Y337894D02*
D03*
X136516Y348524D02*
D03*
X105463Y391585D02*
D03*
X101870Y392618D02*
D03*
X100886Y393996D02*
D03*
X98228Y394193D02*
D03*
X109646Y375295D02*
D03*
X111024Y359449D02*
D03*
X118012Y368307D02*
D03*
X108169Y343996D02*
D03*
X110433Y307677D02*
D03*
X111417Y311221D02*
D03*
X110330Y306005D02*
D03*
X111122Y304232D02*
D03*
X71776Y337622D02*
D03*
Y346433D02*
D03*
X150394Y323425D02*
D03*
X144980Y319685D02*
D03*
X138976Y357382D02*
D03*
X113189Y350295D02*
D03*
X111713Y316240D02*
D03*
X111614Y314764D02*
D03*
X145571Y312992D02*
D03*
X111122Y291929D02*
D03*
X111516Y298425D02*
D03*
X112008Y275197D02*
D03*
Y287303D02*
D03*
X111122Y293996D02*
D03*
Y302658D02*
D03*
X111413Y309548D02*
D03*
X141142Y275197D02*
D03*
X138583Y281693D02*
D03*
X150591Y293996D02*
D03*
X155217Y307874D02*
D03*
X151673Y299311D02*
D03*
X151083Y314862D02*
D03*
X150591Y304232D02*
D03*
X150295Y295965D02*
D03*
X150787Y309547D02*
D03*
X150591Y306004D02*
D03*
X150394Y302559D02*
D03*
X150099Y298425D02*
D03*
X150443Y287352D02*
D03*
X170488Y261079D02*
D03*
X170473Y264272D02*
D03*
X170488Y295752D02*
D03*
Y292602D02*
D03*
Y257929D02*
D03*
X189386Y302024D02*
D03*
X186236Y302051D02*
D03*
X179976Y302024D02*
D03*
X192535Y292602D02*
D03*
X176787Y298835D02*
D03*
X173638D02*
D03*
X186276Y295725D02*
D03*
X183224D02*
D03*
X176787Y295654D02*
D03*
X173638Y295685D02*
D03*
X179937Y292575D02*
D03*
X180075Y286276D02*
D03*
X192563Y283126D02*
D03*
X192520Y279921D02*
D03*
X179937Y276787D02*
D03*
X189386Y273638D02*
D03*
X179937D02*
D03*
X173638Y273677D02*
D03*
X189386Y270555D02*
D03*
X179965Y270528D02*
D03*
X189425Y267378D02*
D03*
X179937D02*
D03*
X176787Y267339D02*
D03*
X173638Y267378D02*
D03*
X176815Y264229D02*
D03*
X173638D02*
D03*
X186236Y261079D02*
D03*
X173665Y257929D02*
D03*
X211122Y252264D02*
D03*
X202165Y249998D02*
D03*
X214341Y237410D02*
D03*
X209646Y242518D02*
D03*
X216142Y240943D02*
D03*
X219537Y237352D02*
D03*
X218455Y238337D02*
D03*
X217135Y239558D02*
D03*
X214576Y241545D02*
D03*
X211221Y237992D02*
D03*
X211417Y241437D02*
D03*
X208268Y240847D02*
D03*
X206890Y239666D02*
D03*
X205315Y240945D02*
D03*
X224902Y250966D02*
D03*
X217903Y248356D02*
D03*
X223228Y250787D02*
D03*
X205315Y250197D02*
D03*
X221457Y250591D02*
D03*
X214665Y250787D02*
D03*
X208406Y251516D02*
D03*
X208268Y249803D02*
D03*
X211417Y248622D02*
D03*
X233480Y267378D02*
D03*
X236630Y276827D02*
D03*
X312992Y313878D02*
D03*
X322457Y335925D02*
D03*
X322457Y265059D02*
D03*
X325596Y246061D02*
D03*
X325606Y317028D02*
D03*
X319307Y243012D02*
D03*
X316158D02*
D03*
X297260Y239862D02*
D03*
X300410D02*
D03*
X309858D02*
D03*
X331906D02*
D03*
X344504D02*
D03*
Y243012D02*
D03*
X341354Y258760D02*
D03*
X325606Y265059D02*
D03*
X331906Y261910D02*
D03*
Y265059D02*
D03*
X322457Y261910D02*
D03*
X335055D02*
D03*
X341354D02*
D03*
X338205Y265059D02*
D03*
X344504D02*
D03*
X306709D02*
D03*
X300410D02*
D03*
X335055Y313878D02*
D03*
X331906D02*
D03*
Y335925D02*
D03*
X309858D02*
D03*
X303559D02*
D03*
X297260D02*
D03*
X341354Y310729D02*
D03*
X344504D02*
D03*
X322457D02*
D03*
X328756D02*
D03*
X338205D02*
D03*
X331906D02*
D03*
X335055D02*
D03*
X344504Y313878D02*
D03*
X256798Y292884D02*
D03*
X341354Y329626D02*
D03*
X335055Y335925D02*
D03*
Y332776D02*
D03*
X341354D02*
D03*
Y335925D02*
D03*
X344504D02*
D03*
X331906Y332776D02*
D03*
X316158D02*
D03*
X319307D02*
D03*
X297260Y310729D02*
D03*
X303559D02*
D03*
X300410D02*
D03*
X325606Y313878D02*
D03*
Y310729D02*
D03*
X236630Y308323D02*
D03*
X217732Y292575D02*
D03*
Y289425D02*
D03*
X227181Y267378D02*
D03*
X220882Y292575D02*
D03*
X224031Y317772D02*
D03*
X227181Y311473D02*
D03*
X220882Y308323D02*
D03*
X224031Y302024D02*
D03*
X217732D02*
D03*
X214583Y298874D02*
D03*
Y295725D02*
D03*
X217732D02*
D03*
X214583Y292575D02*
D03*
Y286276D02*
D03*
Y279977D02*
D03*
Y273677D02*
D03*
X220882Y276827D02*
D03*
X217732Y283126D02*
D03*
Y276827D02*
D03*
X224031Y270528D02*
D03*
X289695Y275304D02*
D03*
X341354Y317028D02*
D03*
X233480Y311473D02*
D03*
X338205Y317028D02*
D03*
X233480Y308323D02*
D03*
X328756Y258760D02*
D03*
X257939Y256299D02*
D03*
X233480Y261079D02*
D03*
X325606Y258760D02*
D03*
X259124Y256299D02*
D03*
X233480Y264229D02*
D03*
X224031Y292575D02*
D03*
X341354Y246162D02*
D03*
X233480Y279977D02*
D03*
X338205Y246162D02*
D03*
X233480Y276827D02*
D03*
X316437Y281595D02*
D03*
X316158Y317028D02*
D03*
X316158Y246162D02*
D03*
X227181Y292575D02*
D03*
X319307Y317028D02*
D03*
X318996Y281595D02*
D03*
X319307Y246162D02*
D03*
X233480Y292575D02*
D03*
X328756Y329626D02*
D03*
X233480Y295725D02*
D03*
X325606Y329626D02*
D03*
X254921Y322902D02*
D03*
Y324213D02*
D03*
X285827Y245079D02*
D03*
X292618Y232382D02*
D03*
X284252Y230906D02*
D03*
X293406Y243209D02*
D03*
X328756Y246162D02*
D03*
X287500Y287795D02*
D03*
X266968Y258997D02*
D03*
X272904Y256959D02*
D03*
X269587Y258268D02*
D03*
X266535Y235925D02*
D03*
X274902Y234547D02*
D03*
X268366Y253839D02*
D03*
X272904Y238622D02*
D03*
X271368Y237313D02*
D03*
X275534Y241675D02*
D03*
X279242Y252451D02*
D03*
X277264Y249508D02*
D03*
X284941Y247835D02*
D03*
X286870Y251142D02*
D03*
X268602Y305315D02*
D03*
X281500Y318013D02*
D03*
X287303Y319784D02*
D03*
X287402Y321260D02*
D03*
X284256Y315651D02*
D03*
X269685Y322047D02*
D03*
X284252Y324213D02*
D03*
X275591Y327658D02*
D03*
X275856Y326181D02*
D03*
X269783Y342421D02*
D03*
X272641Y346558D02*
D03*
X278547Y343802D02*
D03*
X288878Y338543D02*
D03*
X286421Y339766D02*
D03*
X282874Y341142D02*
D03*
X280118Y337303D02*
D03*
X277165Y345177D02*
D03*
X271162Y347933D02*
D03*
X274213Y309981D02*
D03*
X267815Y283169D02*
D03*
X267579Y270473D02*
D03*
X268209Y302067D02*
D03*
X270276Y292717D02*
D03*
X284449Y282835D02*
D03*
X266339Y280217D02*
D03*
X293307Y273918D02*
D03*
X293110Y275591D02*
D03*
X292943Y277136D02*
D03*
X292819Y282775D02*
D03*
X293898Y286910D02*
D03*
X293907Y289163D02*
D03*
X293705Y290945D02*
D03*
X276381Y273917D02*
D03*
X277461Y276870D02*
D03*
X278449Y279823D02*
D03*
X284157Y292225D02*
D03*
X280118Y283268D02*
D03*
X282382Y286319D02*
D03*
X274905Y277066D02*
D03*
X273141Y280286D02*
D03*
X271752Y273819D02*
D03*
X269488Y270669D02*
D03*
X271952Y286417D02*
D03*
X269393D02*
D03*
X217858Y286276D02*
D03*
X271654Y289469D02*
D03*
X273232Y298820D02*
D03*
X271162Y295965D02*
D03*
X269787Y299016D02*
D03*
X217732Y279977D02*
D03*
X297441Y298229D02*
D03*
X297260Y329626D02*
D03*
X297315Y258760D02*
D03*
X227181Y270528D02*
D03*
X300410Y317028D02*
D03*
X300689Y281595D02*
D03*
X300398Y246134D02*
D03*
X224031Y273677D02*
D03*
X300410Y329626D02*
D03*
X300410Y258772D02*
D03*
X297441Y294193D02*
D03*
X224031Y276827D02*
D03*
X300410Y332776D02*
D03*
X300412Y261945D02*
D03*
X297342Y296260D02*
D03*
X220882Y279977D02*
D03*
X303559Y313878D02*
D03*
X303642Y278445D02*
D03*
X303563Y242992D02*
D03*
X220882Y283126D02*
D03*
X303559Y332776D02*
D03*
X303559Y261910D02*
D03*
X300689Y297343D02*
D03*
X224031Y283126D02*
D03*
X309941Y298229D02*
D03*
X310201Y267118D02*
D03*
X306736Y261874D02*
D03*
X306709Y332776D02*
D03*
X227181Y286276D02*
D03*
X306709Y329626D02*
D03*
X306693Y294193D02*
D03*
X306740Y258752D02*
D03*
X227181Y289425D02*
D03*
X306709Y313878D02*
D03*
X306791Y278445D02*
D03*
X306709Y243047D02*
D03*
X220882Y286276D02*
D03*
X319307Y329626D02*
D03*
X322933Y294193D02*
D03*
X319252Y258744D02*
D03*
X224031Y298874D02*
D03*
X335055Y317028D02*
D03*
X230331Y317772D02*
D03*
X328756Y317028D02*
D03*
X230331Y302024D02*
D03*
X313008Y329626D02*
D03*
X313287Y294193D02*
D03*
X313008Y258760D02*
D03*
X227181Y298874D02*
D03*
X313008Y332776D02*
D03*
X313287Y297343D02*
D03*
X313008Y261910D02*
D03*
X220882Y295725D02*
D03*
X309858Y329626D02*
D03*
X310039Y294193D02*
D03*
X309858Y258760D02*
D03*
X220882Y289425D02*
D03*
X230331D02*
D03*
X328756Y243012D02*
D03*
X230331Y264229D02*
D03*
X297260Y332776D02*
D03*
X297256Y261910D02*
D03*
X294094Y297343D02*
D03*
X230331Y270528D02*
D03*
X297260Y317028D02*
D03*
X297260Y246169D02*
D03*
X294094Y281595D02*
D03*
X227181Y273677D02*
D03*
X306709Y317028D02*
D03*
X306791Y281595D02*
D03*
X306756Y246146D02*
D03*
X227181Y276827D02*
D03*
X297260Y313878D02*
D03*
X297260Y243036D02*
D03*
X294094Y278445D02*
D03*
X224031Y279977D02*
D03*
X303559Y329626D02*
D03*
X303642Y294193D02*
D03*
X303567Y258748D02*
D03*
X227181Y283126D02*
D03*
X344504Y246162D02*
D03*
X230331Y286276D02*
D03*
X224031D02*
D03*
X233480Y317772D02*
D03*
X224031Y295725D02*
D03*
Y289425D02*
D03*
X233480Y257929D02*
D03*
X230331D02*
D03*
Y261079D02*
D03*
Y267378D02*
D03*
X233480Y270528D02*
D03*
Y273677D02*
D03*
X230331D02*
D03*
Y276827D02*
D03*
Y279977D02*
D03*
X227181D02*
D03*
X230331Y283126D02*
D03*
X233480Y286276D02*
D03*
Y289425D02*
D03*
X230331Y292575D02*
D03*
Y295725D02*
D03*
X227181D02*
D03*
X233480Y298835D02*
D03*
X230331Y298874D02*
D03*
X233480Y302024D02*
D03*
Y305173D02*
D03*
X230331D02*
D03*
Y308323D02*
D03*
Y311473D02*
D03*
Y314622D02*
D03*
Y320921D02*
D03*
X233480Y314622D02*
D03*
Y283126D02*
D03*
X341354Y243012D02*
D03*
X338205D02*
D03*
X335055Y246162D02*
D03*
X331906D02*
D03*
X322457Y239862D02*
D03*
X341354D02*
D03*
X338205D02*
D03*
X335055D02*
D03*
Y243012D02*
D03*
X328756Y239862D02*
D03*
X325606D02*
D03*
X331906Y243012D02*
D03*
X325606D02*
D03*
X303559Y239862D02*
D03*
X322457Y243012D02*
D03*
Y246079D02*
D03*
X344504Y258760D02*
D03*
Y261910D02*
D03*
X338205Y258760D02*
D03*
Y261910D02*
D03*
X335055Y258760D02*
D03*
X331906D02*
D03*
X328756Y261910D02*
D03*
X325606Y335925D02*
D03*
X320866Y337402D02*
D03*
X333563Y337599D02*
D03*
X322457Y332776D02*
D03*
X325606Y261910D02*
D03*
X322457Y258760D02*
D03*
X322457Y317028D02*
D03*
X319307Y261910D02*
D03*
X316158D02*
D03*
X316220Y258756D02*
D03*
X316158Y335925D02*
D03*
X316189Y265063D02*
D03*
X313008Y317028D02*
D03*
X316158Y313878D02*
D03*
X319307D02*
D03*
X316158Y310729D02*
D03*
X309858Y313878D02*
D03*
Y310729D02*
D03*
X322457Y313878D02*
D03*
X316154Y239906D02*
D03*
X316158Y329626D02*
D03*
X319253Y266961D02*
D03*
X313016Y246087D02*
D03*
X309858Y332776D02*
D03*
X309858Y261910D02*
D03*
X303559Y317028D02*
D03*
X303547Y246146D02*
D03*
X300410Y313878D02*
D03*
X300429Y242984D02*
D03*
X300689Y278445D02*
D03*
X303642Y281595D02*
D03*
X313287D02*
D03*
X316240Y275295D02*
D03*
X316240Y300492D02*
D03*
X310039Y296063D02*
D03*
X319783Y297343D02*
D03*
X328756Y313878D02*
D03*
X331906Y317028D02*
D03*
X338205Y313878D02*
D03*
X341354D02*
D03*
X344504Y317028D02*
D03*
X322457Y329626D02*
D03*
X331906D02*
D03*
X335055D02*
D03*
X325606Y332776D02*
D03*
X328756D02*
D03*
X338205Y329626D02*
D03*
Y332776D02*
D03*
X344504Y329626D02*
D03*
Y332776D02*
D03*
X329528Y347638D02*
D03*
X240159Y266633D02*
D03*
X217732Y257929D02*
D03*
X224031D02*
D03*
X217732Y261079D02*
D03*
X220882Y264229D02*
D03*
X214583Y267378D02*
D03*
X211433D02*
D03*
X208283D02*
D03*
X205134D02*
D03*
Y270528D02*
D03*
X211433D02*
D03*
X198835Y273677D02*
D03*
X201984Y270528D02*
D03*
X195685D02*
D03*
X201984Y267378D02*
D03*
Y257929D02*
D03*
X195685D02*
D03*
X198835Y261079D02*
D03*
Y270528D02*
D03*
X201984Y261079D02*
D03*
X208283Y264229D02*
D03*
Y270528D02*
D03*
Y273677D02*
D03*
X195685Y264229D02*
D03*
X201984D02*
D03*
X205134Y261079D02*
D03*
X211433D02*
D03*
X214583Y257929D02*
D03*
X198835D02*
D03*
X217732Y267378D02*
D03*
X220882Y261079D02*
D03*
X224031Y264229D02*
D03*
X227181D02*
D03*
X224031Y267378D02*
D03*
X214583Y270528D02*
D03*
X217732D02*
D03*
X220882Y273677D02*
D03*
X211433D02*
D03*
X220882Y270528D02*
D03*
X217732Y264229D02*
D03*
X81618Y346433D02*
D03*
X89126Y371701D02*
D03*
X89126Y357922D02*
D03*
X76476Y391240D02*
D03*
X89764Y376870D02*
D03*
X89122Y350047D02*
D03*
X37402Y332284D02*
D03*
X85555Y375177D02*
D03*
X22343Y422047D02*
D03*
X62599Y323918D02*
D03*
X60433Y324016D02*
D03*
X64567Y323917D02*
D03*
X66536D02*
D03*
X70473D02*
D03*
X76376Y323913D02*
D03*
X78246D02*
D03*
X80413Y323819D02*
D03*
X82085Y323913D02*
D03*
X87599Y323819D02*
D03*
X89664Y323913D02*
D03*
X94095Y323819D02*
D03*
X92028D02*
D03*
X108267Y318204D02*
D03*
X120965Y366043D02*
D03*
X119783Y326083D02*
D03*
X117323Y372244D02*
D03*
X126575Y326280D02*
D03*
X125984Y361713D02*
D03*
X132283Y326083D02*
D03*
Y361319D02*
D03*
X121956Y317914D02*
D03*
X138287Y377264D02*
D03*
X148622Y325492D02*
D03*
X130905Y360138D02*
D03*
X109547Y379429D02*
D03*
X129528Y326280D02*
D03*
X144587D02*
D03*
X205134Y264229D02*
D03*
X198835Y276827D02*
D03*
X195685Y261079D02*
D03*
X227181Y320921D02*
D03*
X224031Y320921D02*
D03*
X205134Y273677D02*
D03*
X201984D02*
D03*
X195685D02*
D03*
Y298874D02*
D03*
X198835D02*
D03*
X205134D02*
D03*
X211433D02*
D03*
Y295725D02*
D03*
X208283Y298874D02*
D03*
X211433Y302024D02*
D03*
X205134Y295725D02*
D03*
X208283Y292575D02*
D03*
X211433Y289425D02*
D03*
X208283Y286276D02*
D03*
X211433D02*
D03*
X208283Y289425D02*
D03*
X211433Y292575D02*
D03*
X195685Y295725D02*
D03*
Y292575D02*
D03*
Y289425D02*
D03*
X192535Y286276D02*
D03*
X195685D02*
D03*
Y283126D02*
D03*
Y279977D02*
D03*
Y276827D02*
D03*
X201984D02*
D03*
X205134D02*
D03*
X208283Y279977D02*
D03*
X205134D02*
D03*
X201984D02*
D03*
X198835D02*
D03*
Y283126D02*
D03*
X201984D02*
D03*
X205134D02*
D03*
X208283D02*
D03*
X189386Y276827D02*
D03*
X214583D02*
D03*
X211433D02*
D03*
Y279977D02*
D03*
Y283126D02*
D03*
X214583D02*
D03*
X205134Y286276D02*
D03*
X201984D02*
D03*
X198835D02*
D03*
Y289425D02*
D03*
X201984D02*
D03*
X205134D02*
D03*
X214583D02*
D03*
X205134Y292575D02*
D03*
X201984D02*
D03*
X198835D02*
D03*
X208283Y295725D02*
D03*
X201984D02*
D03*
X198835D02*
D03*
X260728Y314579D02*
D03*
X180315Y323228D02*
D03*
X173425D02*
D03*
X175197Y324508D02*
D03*
X179331Y324410D02*
D03*
X183087Y257929D02*
D03*
X173638Y261079D02*
D03*
X176787Y254780D02*
D03*
X179937Y264229D02*
D03*
X170488Y267378D02*
D03*
X189386Y261079D02*
D03*
X183087Y273677D02*
D03*
X173638Y276827D02*
D03*
X186236Y283126D02*
D03*
X176787Y286276D02*
D03*
X189386Y292575D02*
D03*
X179964Y295725D02*
D03*
X170488Y298874D02*
D03*
X186319Y267323D02*
D03*
X183071Y289370D02*
D03*
X176772Y270571D02*
D03*
X170544Y283071D02*
D03*
X179921Y279921D02*
D03*
X173638Y308323D02*
D03*
X183114Y305173D02*
D03*
X176787Y317732D02*
D03*
X186236Y314622D02*
D03*
X195685Y311473D02*
D03*
X198835Y320921D02*
D03*
X208283Y302024D02*
D03*
X214583D02*
D03*
X208283Y254780D02*
D03*
X211433Y264229D02*
D03*
X224016Y254823D02*
D03*
X192563Y254780D02*
D03*
X235236Y323917D02*
D03*
X201984Y314622D02*
D03*
X211417Y311516D02*
D03*
X192618Y317717D02*
D03*
X198862Y305173D02*
D03*
X214567Y320965D02*
D03*
X189386Y308350D02*
D03*
X198819Y252165D02*
D03*
X208283Y276827D02*
D03*
X111024Y281693D02*
D03*
X224016Y305217D02*
D03*
X31791Y437106D02*
D03*
X214567Y254823D02*
D03*
X186236Y286276D02*
D03*
X195276Y222146D02*
D03*
X189386Y264229D02*
D03*
X193996Y220866D02*
D03*
X220882Y267378D02*
D03*
X230118Y246555D02*
D03*
X227181Y261079D02*
D03*
M02*
