%FSLAX25Y25*%
%MOIN*%
G70*
G01*
G75*
G04 Layer_Color=16711935*
%ADD10C,0.01969*%
%ADD11C,0.01181*%
%ADD12R,0.05906X0.22047*%
%ADD13R,0.06299X0.19291*%
%ADD14R,0.02441X0.02441*%
%ADD15R,0.02559X0.02165*%
%ADD16R,0.02165X0.02559*%
%ADD17R,0.05512X0.03740*%
%ADD18R,0.02441X0.02441*%
%ADD19R,0.07087X0.04528*%
%ADD20R,0.03937X0.03543*%
%ADD21R,0.03543X0.03937*%
%ADD22R,0.04528X0.07087*%
%ADD23R,0.05709X0.04528*%
%ADD24R,0.04528X0.10630*%
%ADD25R,0.04528X0.05709*%
%ADD26R,0.10630X0.04528*%
%ADD27R,0.01654X0.01811*%
%ADD28R,0.01575X0.01575*%
%ADD29R,0.05512X0.04134*%
%ADD30R,0.08661X0.20472*%
%ADD31R,0.23622X0.07874*%
%ADD32R,0.06693X0.02795*%
%ADD33R,0.02795X0.06693*%
%ADD34R,0.01969X0.01969*%
%ADD35R,0.01969X0.01378*%
%ADD36R,0.01969X0.01969*%
%ADD37R,0.01378X0.01969*%
G04:AMPARAMS|DCode=38|XSize=13.78mil|YSize=19.69mil|CornerRadius=0mil|HoleSize=0mil|Usage=FLASHONLY|Rotation=315.000|XOffset=0mil|YOffset=0mil|HoleType=Round|Shape=Rectangle|*
%AMROTATEDRECTD38*
4,1,4,-0.01183,-0.00209,0.00209,0.01183,0.01183,0.00209,-0.00209,-0.01183,-0.01183,-0.00209,0.0*
%
%ADD38ROTATEDRECTD38*%

%ADD39P,0.02784X4X360.0*%
%ADD40R,0.06299X0.02165*%
%ADD41C,0.01378*%
%ADD42O,0.08268X0.01181*%
%ADD43O,0.01181X0.08268*%
%ADD44R,0.03347X0.01181*%
%ADD45R,0.01181X0.03347*%
%ADD46R,0.13386X0.13386*%
%ADD47R,0.03740X0.05512*%
%ADD48R,0.01575X0.00984*%
%ADD49R,0.01969X0.05512*%
%ADD50R,0.00984X0.01575*%
%ADD51R,0.05512X0.01969*%
%ADD52R,0.09449X0.02992*%
%ADD53R,0.03543X0.01575*%
%ADD54R,0.01811X0.01654*%
%ADD55R,0.04724X0.02953*%
%ADD56O,0.02953X0.00984*%
%ADD57O,0.00984X0.02953*%
%ADD58R,0.17716X0.17716*%
%ADD59R,0.07520X0.02992*%
%ADD60R,0.00984X0.01969*%
%ADD61R,0.01969X0.00984*%
%ADD62R,0.09055X0.09055*%
%ADD63C,0.05906*%
%ADD64R,0.10984X0.07559*%
%ADD65R,0.18110X0.22047*%
%ADD66R,0.04134X0.05512*%
%ADD67R,0.07284X0.02913*%
%ADD68R,0.02362X0.02362*%
%ADD69R,0.04528X0.02992*%
%ADD70C,0.00984*%
%ADD71R,0.02756X0.01181*%
%ADD72R,0.06221X0.09252*%
%ADD73O,0.03150X0.00984*%
%ADD74O,0.00984X0.03150*%
%ADD75R,0.18071X0.04370*%
%ADD76R,0.11181X0.12284*%
%ADD77R,0.05276X0.12284*%
%ADD78R,0.06299X0.08268*%
%ADD79R,0.05315X0.01575*%
%ADD80R,0.07480X0.07087*%
%ADD81R,0.01772X0.01378*%
%ADD82R,0.02362X0.07874*%
%ADD83R,0.01181X0.01181*%
%ADD84R,0.02362X0.01181*%
%ADD85R,0.07087X0.02362*%
%ADD86R,0.01772X0.01181*%
%ADD87R,0.01181X0.01772*%
%ADD88R,0.01181X0.01181*%
%ADD89R,0.26772X0.26772*%
%ADD90R,0.01575X0.01575*%
%ADD91R,0.03543X0.01772*%
%ADD92R,0.18898X0.18898*%
%ADD93C,0.00453*%
%ADD94C,0.03150*%
%ADD95C,0.00512*%
%ADD96C,0.01000*%
%ADD97C,0.00394*%
%ADD98C,0.01969*%
%ADD99C,0.01378*%
%ADD100C,0.03937*%
%ADD101C,0.00787*%
%ADD102C,0.00784*%
%ADD103C,0.00996*%
%ADD104C,0.01181*%
%ADD105R,0.09941X0.01870*%
%ADD106R,0.14075X0.03740*%
%ADD107R,0.04823X0.07776*%
%ADD108R,0.08268X0.01476*%
%ADD109R,0.12303X0.06004*%
%ADD110R,0.01181X0.00984*%
%ADD111R,0.03543X0.00787*%
%ADD112R,0.06299X0.00394*%
%ADD113R,0.31693X0.08071*%
%ADD114R,0.16535X0.19291*%
%ADD115R,0.08563X0.19291*%
%ADD116R,0.42224X0.07874*%
%ADD117R,0.03740X0.24016*%
%ADD118R,0.14370X0.08760*%
%ADD119R,0.09843X0.11122*%
%ADD120R,0.60335X0.08465*%
%ADD121R,0.05807X0.33169*%
%ADD122R,0.03740X0.41043*%
%ADD123R,0.04429X0.41240*%
%ADD124R,0.92913X0.01870*%
%ADD125R,0.02430X0.17389*%
%ADD126R,0.34449X0.01969*%
%ADD127R,0.03642X0.11417*%
%ADD128R,0.02431X0.00820*%
%ADD129R,0.04134X0.05413*%
%ADD130R,0.30413X0.06496*%
%ADD131R,0.30709X0.06299*%
%ADD132R,0.30315X0.12008*%
%ADD133R,0.40256X0.05807*%
%ADD134R,0.39961X0.06594*%
%ADD135R,0.00886X0.01280*%
%ADD136R,0.19095X0.03937*%
%ADD137R,0.27756X0.05413*%
%ADD138R,0.30315X0.06102*%
%ADD139R,0.30807X0.08268*%
%ADD140R,0.38091X0.05118*%
%ADD141R,0.38287X0.06398*%
%ADD142R,0.04232X0.02854*%
%ADD143R,0.05315X0.10728*%
%ADD144R,0.10531X0.12598*%
%ADD145R,0.07087X0.21752*%
%ADD146R,0.08465X0.02854*%
%ADD147R,0.02362X0.02264*%
%ADD148R,0.04429X0.02756*%
%ADD149R,0.11713X0.02953*%
%ADD150R,0.09843X0.04134*%
%ADD151R,0.04921X0.18504*%
%ADD152R,0.13189X0.03051*%
%ADD153R,0.06594X0.04232*%
%ADD154R,0.14075X0.03839*%
%ADD155R,0.03839X0.08661*%
%ADD156R,0.10728X0.03445*%
%ADD157R,0.02431X1.19587*%
%ADD158R,0.02264X0.05512*%
%ADD159R,0.03347X0.05315*%
%ADD160R,0.68504X0.02165*%
%ADD161R,0.02165X0.76575*%
%ADD162R,0.25098X0.01969*%
%ADD163R,0.02658X0.42618*%
%ADD164R,0.16043X0.02264*%
%ADD165R,0.02461X0.13189*%
%ADD166R,0.78150X0.02461*%
%ADD167R,0.34842X0.01969*%
%ADD168R,0.02264X0.71752*%
%ADD169R,0.11614X0.04035*%
%ADD170R,0.10925X0.14469*%
%ADD171R,0.19193X0.03051*%
%ADD172R,0.17224X0.04528*%
%ADD173R,0.05315X0.93799*%
%ADD174R,0.13386X0.08169*%
%ADD175R,0.08661X0.12402*%
%ADD176R,0.08465X0.09843*%
%ADD177R,0.09153X0.17224*%
%ADD178R,0.14764X0.11122*%
%ADD179R,0.13976X0.11319*%
%ADD180R,0.02854X0.21358*%
%ADD181R,0.15453X0.49409*%
%ADD182R,0.18996X0.06496*%
%ADD183R,0.06791X1.25492*%
%ADD184R,0.09911X0.06594*%
%ADD185C,0.15748*%
%ADD186C,0.09882*%
%ADD187C,0.06299*%
%ADD188C,0.04803*%
%ADD189C,0.07087*%
%ADD190C,0.07874*%
%ADD191C,0.00591*%
%ADD192C,0.02165*%
%ADD193C,0.01575*%
%ADD194C,0.02598*%
%ADD195C,0.04000*%
%ADD196C,0.13386*%
%ADD197C,0.10669*%
%ADD198C,0.05591*%
%ADD199C,0.05787*%
%ADD200C,0.08071*%
%ADD201C,0.02362*%
%ADD202C,0.03150*%
%ADD203C,0.02559*%
%ADD204C,0.02874*%
%ADD205C,0.00642*%
%ADD206P,0.03452X4X360.0*%
%ADD207R,0.07874X0.23622*%
%ADD208R,0.07087X0.07874*%
%ADD209C,0.00787*%
%ADD210R,0.01614X0.01299*%
%ADD211R,0.10236X0.08661*%
%ADD212R,0.00945X0.03543*%
%ADD213R,0.03543X0.00945*%
%ADD214R,0.05512X0.03937*%
%ADD215R,0.03937X0.02756*%
%ADD216R,0.01969X0.01575*%
%ADD217R,0.01378X0.05118*%
%ADD218R,0.01772X0.05118*%
%ADD219R,0.02362X0.05118*%
%ADD220R,0.08661X0.02913*%
%ADD221R,0.03347X0.01378*%
%ADD222R,0.05079X0.04882*%
%ADD223R,0.07874X0.07087*%
%ADD224R,0.02992X0.06496*%
%ADD225R,0.04724X0.03543*%
%ADD226R,0.03583X0.04803*%
%ADD227R,0.10512X0.10000*%
%ADD228R,0.03000X0.05000*%
%ADD229R,0.07480X0.05512*%
%ADD230R,0.05906X0.03150*%
%ADD231R,0.05512X0.07087*%
%ADD232R,0.01969X0.03248*%
%ADD233R,0.01969X0.01693*%
%ADD234R,0.03071X0.03425*%
%ADD235R,0.01969X0.02756*%
%ADD236R,0.03248X0.28937*%
%ADD237R,0.19193X0.05512*%
%ADD238R,0.02658X0.02953*%
%ADD239R,0.02067X0.02559*%
%ADD240R,0.29232X0.06299*%
%ADD241R,0.16965X0.06606*%
%ADD242R,0.41894X0.10102*%
%ADD243R,0.07284X0.75492*%
%ADD244R,0.02658X1.25984*%
%ADD245R,0.89173X0.01476*%
%ADD246R,0.01476X0.04626*%
%ADD247R,0.51476X0.01378*%
%ADD248R,0.02264X1.46260*%
%ADD249R,0.79823X0.01969*%
%ADD250R,0.02559X0.50984*%
%ADD251R,0.25295X0.01969*%
%ADD252R,0.02165X0.50394*%
%ADD253R,0.13878X0.02264*%
%ADD254R,0.02362X0.28051*%
%ADD255R,0.67618X0.02362*%
%ADD256R,0.34842X0.02067*%
%ADD257R,0.02165X0.73032*%
%ADD258R,0.44783X0.02756*%
%ADD259R,0.11811X0.16732*%
%ADD260R,0.12795X0.08071*%
%ADD261R,0.13681X0.20768*%
%ADD262R,0.23622X0.03740*%
%ADD263R,0.03839X0.93898*%
%ADD264R,0.14862X0.06201*%
%ADD265R,0.14764X0.09153*%
%ADD266R,0.13090X0.08366*%
%ADD267R,0.08465X0.07677*%
%ADD268R,0.13386X0.09055*%
%ADD269R,0.06102X1.26181*%
%ADD270R,0.08268X0.19193*%
%ADD271R,0.15846X0.19488*%
%ADD272R,0.41142X0.08268*%
%ADD273C,0.00984*%
%ADD274C,0.00472*%
%ADD275C,0.02362*%
%ADD276C,0.00100*%
%ADD277C,0.00700*%
%ADD278C,0.00500*%
%ADD279C,0.00591*%
%ADD280R,0.03937X1.20791*%
%ADD281R,0.14370X0.01500*%
%ADD282C,0.02769*%
%ADD283C,0.01981*%
%ADD284R,0.06706X0.22847*%
%ADD285R,0.07099X0.20091*%
%ADD286R,0.03241X0.03241*%
%ADD287R,0.03359X0.02965*%
%ADD288R,0.02965X0.03359*%
%ADD289R,0.06312X0.04540*%
%ADD290R,0.03241X0.03241*%
%ADD291R,0.07887X0.05328*%
%ADD292R,0.04737X0.04343*%
%ADD293R,0.04343X0.04737*%
%ADD294R,0.05328X0.07887*%
%ADD295R,0.06509X0.05328*%
%ADD296R,0.05328X0.11430*%
%ADD297R,0.05328X0.06509*%
%ADD298R,0.11430X0.05328*%
%ADD299R,0.02454X0.02611*%
%ADD300R,0.02375X0.02375*%
%ADD301R,0.06312X0.04934*%
%ADD302R,0.09461X0.21272*%
%ADD303R,0.24422X0.08674*%
%ADD304R,0.07493X0.03595*%
%ADD305R,0.03595X0.07493*%
%ADD306R,0.02769X0.02769*%
%ADD307R,0.02769X0.02178*%
%ADD308R,0.02769X0.02769*%
%ADD309R,0.02178X0.02769*%
G04:AMPARAMS|DCode=310|XSize=21.78mil|YSize=27.69mil|CornerRadius=0mil|HoleSize=0mil|Usage=FLASHONLY|Rotation=315.000|XOffset=0mil|YOffset=0mil|HoleType=Round|Shape=Rectangle|*
%AMROTATEDRECTD310*
4,1,4,-0.01749,-0.00209,0.00209,0.01749,0.01749,0.00209,-0.00209,-0.01749,-0.01749,-0.00209,0.0*
%
%ADD310ROTATEDRECTD310*%

%ADD311P,0.03915X4X360.0*%
%ADD312R,0.07099X0.02965*%
%ADD313C,0.02178*%
%ADD314O,0.09068X0.01981*%
%ADD315O,0.01981X0.09068*%
%ADD316R,0.04147X0.01981*%
%ADD317R,0.01981X0.04147*%
%ADD318R,0.14186X0.14186*%
%ADD319R,0.04540X0.06312*%
%ADD320R,0.02375X0.01784*%
%ADD321R,0.02769X0.06312*%
%ADD322R,0.01784X0.02375*%
%ADD323R,0.06312X0.02769*%
%ADD324R,0.10249X0.03792*%
%ADD325R,0.04343X0.02375*%
%ADD326R,0.02611X0.02454*%
%ADD327R,0.05524X0.03753*%
%ADD328O,0.03753X0.01784*%
%ADD329O,0.01784X0.03753*%
%ADD330R,0.18517X0.18517*%
%ADD331R,0.08320X0.03792*%
%ADD332R,0.01784X0.02769*%
%ADD333R,0.02769X0.01784*%
%ADD334R,0.09855X0.09855*%
%ADD335C,0.06706*%
%ADD336R,0.11784X0.08359*%
%ADD337R,0.18910X0.22847*%
%ADD338R,0.04934X0.06312*%
%ADD339R,0.08083X0.03713*%
%ADD340R,0.03162X0.03162*%
%ADD341R,0.05328X0.03792*%
%ADD342C,0.01784*%
%ADD343R,0.03556X0.01981*%
%ADD344R,0.07021X0.10052*%
%ADD345O,0.03950X0.01784*%
%ADD346O,0.01784X0.03950*%
%ADD347R,0.18871X0.05170*%
%ADD348R,0.11981X0.13084*%
%ADD349R,0.06076X0.13084*%
%ADD350R,0.07099X0.09068*%
%ADD351R,0.06115X0.02375*%
%ADD352R,0.08280X0.07887*%
%ADD353R,0.02572X0.02178*%
%ADD354R,0.03162X0.08674*%
%ADD355R,0.01981X0.01981*%
%ADD356R,0.03162X0.01981*%
%ADD357R,0.07887X0.03162*%
%ADD358R,0.02572X0.01981*%
%ADD359R,0.01981X0.02572*%
%ADD360R,0.01981X0.01981*%
%ADD361R,0.27572X0.27572*%
%ADD362R,0.02375X0.02375*%
%ADD363R,0.04343X0.02572*%
%ADD364R,0.19698X0.19698*%
%ADD365C,0.16548*%
%ADD366C,0.10682*%
%ADD367C,0.07099*%
%ADD368C,0.05603*%
%ADD369C,0.07887*%
%ADD370C,0.08674*%
%ADD371C,0.01391*%
%ADD372C,0.02965*%
%ADD373C,0.02375*%
%ADD374P,0.04583X4X360.0*%
%ADD375R,0.08674X0.24422*%
%ADD376R,0.07887X0.08674*%
%ADD377C,0.01587*%
%ADD378R,0.02414X0.02099*%
%ADD379R,0.11036X0.09461*%
%ADD380R,0.01745X0.04343*%
%ADD381R,0.04343X0.01745*%
%ADD382R,0.06312X0.04737*%
%ADD383R,0.04737X0.03556*%
%ADD384R,0.02769X0.02375*%
%ADD385R,0.02178X0.05918*%
%ADD386R,0.02572X0.05918*%
%ADD387R,0.03162X0.05918*%
%ADD388R,0.09461X0.03713*%
%ADD389R,0.04147X0.02178*%
%ADD390R,0.05879X0.05682*%
%ADD391R,0.08674X0.07887*%
%ADD392R,0.03792X0.07296*%
%ADD393R,0.05524X0.04343*%
%ADD394R,0.04383X0.05603*%
%ADD395R,0.11312X0.10800*%
%ADD396R,0.03800X0.05800*%
%ADD397R,0.08280X0.06312*%
%ADD398R,0.06706X0.03950*%
%ADD399R,0.06312X0.07887*%
%ADD400R,0.02769X0.04048*%
%ADD401R,0.02769X0.02493*%
%ADD402R,0.03871X0.04225*%
%ADD403R,0.02769X0.03556*%
%ADD404C,0.03398*%
%ADD405C,0.01575*%
%ADD406C,0.00197*%
D97*
X380681Y53540D02*
G03*
X380681Y53540I-1969J0D01*
G01*
X367106Y96095D02*
G03*
X367106Y96095I-1969J0D01*
G01*
X88386Y222441D02*
G03*
X88386Y222441I-1969J0D01*
G01*
X26181Y105394D02*
G03*
X26181Y105394I-1969J0D01*
G01*
X362697Y446260D02*
G03*
X362697Y446260I-1969J0D01*
G01*
X320866Y397933D02*
G03*
X320866Y397933I-1969J0D01*
G01*
X263772Y54280D02*
G03*
X263772Y54280I-1969J0D01*
G01*
X370335Y399350D02*
G03*
X370335Y399350I-1969J0D01*
G01*
X156890Y61654D02*
G03*
X156890Y61654I-1969J0D01*
G01*
X235827Y422047D02*
G03*
X235827Y422047I-1969J0D01*
G01*
X56201Y18681D02*
G03*
X56201Y18681I-1969J0D01*
G01*
X175413Y412008D02*
G03*
X175413Y412008I-1969J0D01*
G01*
X33465Y219685D02*
G03*
X33465Y219685I-1969J0D01*
G01*
X366929Y265059D02*
G03*
X366929Y265059I-1969J0D01*
G01*
X53740Y259842D02*
G03*
X53740Y259842I-1969J0D01*
G01*
X378740Y385039D02*
G03*
X378740Y385039I-1969J0D01*
G01*
X174508Y213681D02*
G03*
X174508Y213681I-1969J0D01*
G01*
X250386Y96602D02*
G03*
X250386Y96602I-1969J0D01*
G01*
X117815Y172047D02*
G03*
X117815Y172047I-1969J0D01*
G01*
X184075Y452756D02*
G03*
X184075Y452756I-1969J0D01*
G01*
X29311Y429709D02*
G03*
X29311Y429709I-1969J0D01*
G01*
X62721Y346898D02*
G03*
X62721Y346898I-1969J0D01*
G01*
X308760Y210925D02*
G03*
X308760Y210925I-1969J0D01*
G01*
X250886Y405709D02*
G03*
X250886Y405709I-1969J0D01*
G01*
X62228Y442992D02*
Y473622D01*
Y442992D02*
X110228D01*
X62228Y473622D02*
X110228D01*
Y442992D02*
Y473622D01*
X381102Y200886D02*
X383465D01*
X381102Y196555D02*
Y200886D01*
X383465Y196555D02*
Y200886D01*
X381102Y196555D02*
X383465D01*
X58071Y192421D02*
X60236D01*
X58071Y188287D02*
Y192421D01*
X60236Y188287D02*
Y192421D01*
X58071Y188287D02*
X60236D01*
X30315Y189764D02*
X32480D01*
X30315Y185630D02*
Y189764D01*
X32480Y185630D02*
Y189764D01*
X30315Y185630D02*
X32480D01*
X51378Y187401D02*
X53543D01*
X51378Y183268D02*
Y187401D01*
X53543Y183268D02*
Y187401D01*
X51378Y183268D02*
X53543D01*
X24508Y185433D02*
X28642D01*
X24508D02*
Y187598D01*
X28642D01*
Y185433D02*
Y187598D01*
X24508Y190650D02*
X28642D01*
X24508D02*
Y192815D01*
X28642D01*
Y190650D02*
Y192815D01*
X16634Y185433D02*
X20768D01*
X16634D02*
Y187599D01*
X20768D01*
Y185433D02*
Y187599D01*
X16732Y190650D02*
X20866D01*
X16732D02*
Y192815D01*
X20866D01*
Y190650D02*
Y192815D01*
X51279Y166240D02*
X53445D01*
X51279Y162106D02*
Y166240D01*
X53445Y162106D02*
Y166240D01*
X51279Y162106D02*
X53445D01*
X38976Y161476D02*
Y173760D01*
Y161476D02*
X44882D01*
X38976Y173760D02*
X44882D01*
Y161476D02*
Y173760D01*
X79626Y402362D02*
X81988D01*
X79626Y398031D02*
Y402362D01*
X81988Y398031D02*
Y402362D01*
X79626Y398031D02*
X81988D01*
X38681Y336024D02*
X41043D01*
X38681Y331693D02*
Y336024D01*
X41043Y331693D02*
Y336024D01*
X38681Y331693D02*
X41043D01*
X51575Y335925D02*
X53937D01*
X51575Y331594D02*
Y335925D01*
X53937Y331594D02*
Y335925D01*
X51575Y331594D02*
X53937D01*
X56595Y335925D02*
X58957D01*
X56595Y331594D02*
Y335925D01*
X58957Y331594D02*
Y335925D01*
X56595Y331594D02*
X58957D01*
X53445Y311024D02*
X57776D01*
X53445D02*
Y313386D01*
X57776D01*
Y311024D02*
Y313386D01*
X134449Y424410D02*
X136811D01*
X134449Y420079D02*
Y424410D01*
X136811Y420079D02*
Y424410D01*
X134449Y420079D02*
X136811D01*
X134449Y408662D02*
X136811D01*
X134449Y404331D02*
Y408662D01*
X136811Y404331D02*
Y408662D01*
X134449Y404331D02*
X136811D01*
X143307Y411221D02*
X147638D01*
X143307D02*
Y413583D01*
X147638D01*
Y411221D02*
Y413583D01*
X195079Y297736D02*
X199409D01*
X195079D02*
Y300098D01*
X199409D01*
Y297736D02*
Y300098D01*
X103150Y256004D02*
X105512D01*
X103150Y251673D02*
Y256004D01*
X105512Y251673D02*
Y256004D01*
X103150Y251673D02*
X105512D01*
X97776Y256004D02*
X100138D01*
X97776Y251673D02*
Y256004D01*
X100138Y251673D02*
Y256004D01*
X97776Y251673D02*
X100138D01*
X92323Y256004D02*
X94685D01*
X92323Y251673D02*
Y256004D01*
X94685Y251673D02*
Y256004D01*
X92323Y251673D02*
X94685D01*
X62697Y303248D02*
X69784D01*
X62697Y316634D02*
X69784D01*
X62697Y303248D02*
Y316634D01*
X69784Y303248D02*
Y316634D01*
X100394Y309843D02*
Y316732D01*
Y309843D02*
X104134D01*
X100394Y316732D02*
X104134D01*
Y309843D02*
Y316732D01*
X81398Y297736D02*
Y304626D01*
Y297736D02*
X85138D01*
X81398Y304626D02*
X85138D01*
Y297736D02*
Y304626D01*
X87697Y297736D02*
Y304626D01*
Y297736D02*
X91437D01*
X87697Y304626D02*
X91437D01*
Y297736D02*
Y304626D01*
X99212Y301575D02*
X101575D01*
X99212Y297244D02*
Y301575D01*
X101575Y297244D02*
Y301575D01*
X99212Y297244D02*
X101575D01*
X158071Y258662D02*
X162402D01*
X158071D02*
Y261024D01*
X162402D01*
Y258662D02*
Y261024D01*
X181890Y277559D02*
X184252D01*
X181890Y273228D02*
Y277559D01*
X184252Y273228D02*
Y277559D01*
X181890Y273228D02*
X184252D01*
X175591Y290256D02*
X177953D01*
X175591Y285925D02*
Y290256D01*
X177953Y285925D02*
Y290256D01*
X175591Y285925D02*
X177953D01*
X188189Y261417D02*
X190551D01*
X188189Y257087D02*
Y261417D01*
X190551Y257087D02*
Y261417D01*
X188189Y257087D02*
X190551D01*
X169291Y271358D02*
X171653D01*
X169291Y267027D02*
Y271358D01*
X171653Y267027D02*
Y271358D01*
X169291Y267027D02*
X171653D01*
X191240Y274410D02*
X193602D01*
X191240Y270079D02*
Y274410D01*
X193602Y270079D02*
Y274410D01*
X191240Y270079D02*
X193602D01*
X182087Y286910D02*
X184449D01*
X182087Y282579D02*
Y286910D01*
X184449Y282579D02*
Y286910D01*
X182087Y282579D02*
X184449D01*
X178740Y299508D02*
X181102D01*
X178740Y295177D02*
Y299508D01*
X181102Y295177D02*
Y299508D01*
X178740Y295177D02*
X181102D01*
X233106Y266154D02*
X237437D01*
X233106D02*
Y268516D01*
X237437D01*
Y266154D02*
Y268516D01*
X241276Y270583D02*
X243638D01*
X241276Y266252D02*
Y270583D01*
X243638Y266252D02*
Y270583D01*
X241276Y266252D02*
X243638D01*
X246492Y268516D02*
X248854D01*
X246492Y264185D02*
Y268516D01*
X248854Y264185D02*
Y268516D01*
X246492Y264185D02*
X248854D01*
X262339Y305327D02*
X264701D01*
X262339Y300996D02*
Y305327D01*
X264701Y300996D02*
Y305327D01*
X262339Y300996D02*
X264701D01*
X256433Y305327D02*
X258795D01*
X256433Y300996D02*
Y305327D01*
X258795Y300996D02*
Y305327D01*
X256433Y300996D02*
X258795D01*
X250370Y305327D02*
X252732D01*
X250370Y300996D02*
Y305327D01*
X252732Y300996D02*
Y305327D01*
X250370Y300996D02*
X252732D01*
X246590Y259658D02*
X248953D01*
X246590Y255327D02*
Y259658D01*
X248953Y255327D02*
Y259658D01*
X246590Y255327D02*
X248953D01*
X263421Y266252D02*
X265783D01*
X263421Y261921D02*
Y266252D01*
X265783Y261921D02*
Y266252D01*
X263421Y261921D02*
X265783D01*
X262338Y314972D02*
X264701D01*
X262338Y310642D02*
Y314972D01*
X264701Y310642D02*
Y314972D01*
X262338Y310642D02*
X264701D01*
X256630Y314972D02*
X258992D01*
X256630Y310642D02*
Y314972D01*
X258992Y310642D02*
Y314972D01*
X256630Y310642D02*
X258992D01*
X257713Y266252D02*
X260075D01*
X257713Y261921D02*
Y266252D01*
X260075Y261921D02*
Y266252D01*
X257713Y261921D02*
X260075D01*
X72047Y303248D02*
X79134D01*
X72047Y316634D02*
X79134D01*
X72047Y303248D02*
Y316634D01*
X79134Y303248D02*
Y316634D01*
X94059Y309831D02*
Y316721D01*
Y309831D02*
X97799D01*
X94059Y316721D02*
X97799D01*
Y309831D02*
Y316721D01*
X87760Y309831D02*
Y316721D01*
Y309831D02*
X91500D01*
X87760Y316721D02*
X91500D01*
Y309831D02*
Y316721D01*
X81461Y309831D02*
Y316721D01*
Y309831D02*
X85201D01*
X81461Y316721D02*
X85201D01*
Y309831D02*
Y316721D01*
X94193Y301575D02*
X96555D01*
X94193Y297244D02*
Y301575D01*
X96555Y297244D02*
Y301575D01*
X94193Y297244D02*
X96555D01*
X158169Y273917D02*
X162500D01*
X158169D02*
Y276280D01*
X162500D01*
Y273917D02*
Y276280D01*
X169291Y302953D02*
X171653D01*
X169291Y298622D02*
Y302953D01*
X171653Y298622D02*
Y302953D01*
X169291Y298622D02*
X171653D01*
X158169Y268898D02*
X162500D01*
X158169D02*
Y271260D01*
X162500D01*
Y268898D02*
Y271260D01*
X158071Y263878D02*
X162402D01*
X158071D02*
Y266240D01*
X162402D01*
Y263878D02*
Y266240D01*
X172342Y280709D02*
X174705D01*
X172342Y276378D02*
Y280709D01*
X174705Y276378D02*
Y280709D01*
X172342Y276378D02*
X174705D01*
X176378Y253543D02*
X180709D01*
X176378D02*
Y255906D01*
X180709D01*
Y253543D02*
Y255906D01*
X179429Y263091D02*
X183760D01*
X179429D02*
Y265453D01*
X183760D01*
Y263091D02*
Y265453D01*
X188189Y296555D02*
X190551D01*
X188189Y292224D02*
Y296555D01*
X190551Y292224D02*
Y296555D01*
X188189Y292224D02*
X190551D01*
X254157Y240409D02*
Y244149D01*
Y240409D02*
X261047D01*
X254157Y244149D02*
X261047D01*
Y240409D02*
Y244149D01*
X251413Y327079D02*
Y330819D01*
Y327079D02*
X258303D01*
X251413Y330819D02*
X258303D01*
Y327079D02*
Y330819D01*
X251315Y334165D02*
Y337905D01*
Y334165D02*
X258205D01*
X251315Y337905D02*
X258205D01*
Y334165D02*
Y337905D01*
X244917Y341154D02*
X258303D01*
X244917D02*
Y348240D01*
X258303D01*
Y341154D02*
Y348240D01*
X247772Y230327D02*
Y237414D01*
Y230327D02*
X261157D01*
X247772Y237414D02*
X261157D01*
Y230327D02*
Y237414D01*
X257024Y247354D02*
X261354D01*
X257024D02*
Y249717D01*
X261354D01*
Y247354D02*
Y249717D01*
X268933Y266252D02*
X271295D01*
X268933Y261921D02*
Y266252D01*
X271295Y261921D02*
Y266252D01*
X268933Y261921D02*
X271295D01*
X192913Y331693D02*
X200000D01*
X192913Y345079D02*
X200000D01*
X192913Y331693D02*
Y345079D01*
X200000Y331693D02*
Y345079D01*
X202295Y205744D02*
Y209484D01*
Y205744D02*
X209185D01*
X202295Y209484D02*
X209185D01*
Y205744D02*
Y209484D01*
X202295Y212240D02*
Y215980D01*
Y212240D02*
X209185D01*
X202295Y215980D02*
X209185D01*
Y212240D02*
Y215980D01*
X202295Y218638D02*
Y222378D01*
Y218638D02*
X209185D01*
X202295Y222378D02*
X209185D01*
Y218638D02*
Y222378D01*
X215256Y331791D02*
Y338681D01*
Y331791D02*
X218996D01*
X215256Y338681D02*
X218996D01*
Y331791D02*
Y338681D01*
X202362Y186516D02*
X215748D01*
X202362D02*
Y193602D01*
X215748D01*
Y186516D02*
Y193602D01*
X216043Y205807D02*
X220374D01*
X216043D02*
Y208169D01*
X220374D01*
Y205807D02*
Y208169D01*
X212043Y335598D02*
X214405D01*
X212043Y331268D02*
Y335598D01*
X214405Y331268D02*
Y335598D01*
X212043Y331268D02*
X214405D01*
X185531Y313484D02*
X189862D01*
X185531D02*
Y315847D01*
X189862D01*
Y313484D02*
Y315847D01*
X223618Y309639D02*
X225288Y307968D01*
X223618Y309639D02*
X226680Y312701D01*
X225288Y307968D02*
X228351Y311031D01*
X226680Y312701D02*
X228351Y311031D01*
X181890Y309154D02*
X184252D01*
X181890Y304823D02*
Y309154D01*
X184252Y304823D02*
Y309154D01*
X181890Y304823D02*
X184252D01*
X217224Y335630D02*
X219586D01*
X217224Y331299D02*
Y335630D01*
X219586Y331299D02*
Y335630D01*
X217224Y331299D02*
X219586D01*
X219685Y261516D02*
X222047D01*
X219685Y257185D02*
Y261516D01*
X222047Y257185D02*
Y261516D01*
X219685Y257185D02*
X222047D01*
X213386Y309154D02*
X215748D01*
X213386Y304823D02*
Y309154D01*
X215748Y304823D02*
Y309154D01*
X213386Y304823D02*
X215748D01*
X195275Y310335D02*
X199606D01*
X195275D02*
Y312697D01*
X199606D01*
Y310335D02*
Y312697D01*
X229921Y319784D02*
X234252D01*
X229921D02*
Y322146D01*
X234252D01*
Y319784D02*
Y322146D01*
X175787Y318209D02*
X178150D01*
X175787Y313878D02*
Y318209D01*
X178150Y313878D02*
Y318209D01*
X175787Y313878D02*
X178150D01*
X217323Y313386D02*
X221654D01*
X217323D02*
Y315748D01*
X221654D01*
Y313386D02*
Y315748D01*
X216043Y210827D02*
X220374D01*
X216043D02*
Y213189D01*
X220374D01*
Y210827D02*
Y213189D01*
X208957Y331791D02*
Y338681D01*
Y331791D02*
X212697D01*
X208957Y338681D02*
X212697D01*
Y331791D02*
Y338681D01*
X202461Y331791D02*
Y338681D01*
Y331791D02*
X206201D01*
X202461Y338681D02*
X206201D01*
Y331791D02*
Y338681D01*
X183563Y331693D02*
X190650D01*
X183563Y345079D02*
X190650D01*
X183563Y331693D02*
Y345079D01*
X190650Y331693D02*
Y345079D01*
X173228Y307185D02*
X177559D01*
X173228D02*
Y309547D01*
X177559D01*
Y307185D02*
Y309547D01*
X198327Y320079D02*
X202658D01*
X198327D02*
Y322441D01*
X202658D01*
Y320079D02*
Y322441D01*
X216043Y220815D02*
X220374D01*
X216043D02*
Y223177D01*
X220374D01*
Y220815D02*
Y223177D01*
X216043Y215827D02*
X220374D01*
X216043D02*
Y218189D01*
X220374D01*
Y215827D02*
Y218189D01*
X206976Y335630D02*
X209338D01*
X206976Y331299D02*
Y335630D01*
X209338Y331299D02*
Y335630D01*
X206976Y331299D02*
X209338D01*
X201968Y335531D02*
X204331D01*
X201968Y331201D02*
Y335531D01*
X204331Y331201D02*
Y335531D01*
X201968Y331201D02*
X204331D01*
X202362Y196161D02*
X215748D01*
X202362D02*
Y203248D01*
X215748D01*
Y196161D02*
Y203248D01*
X202374Y224839D02*
Y228579D01*
Y224839D02*
X209263D01*
X202374Y228579D02*
X209263D01*
Y224839D02*
Y228579D01*
X190650Y331693D02*
Y338583D01*
Y331693D02*
X194390D01*
X190650Y338583D02*
X194390D01*
Y331693D02*
Y338583D01*
X221654Y331791D02*
Y338681D01*
Y331791D02*
X225394D01*
X221654Y338681D02*
X225394D01*
Y331791D02*
Y338681D01*
X196949Y335630D02*
X199311D01*
X196949Y331299D02*
Y335630D01*
X199311Y331299D02*
Y335630D01*
X196949Y331299D02*
X199311D01*
X198126Y265249D02*
X199796Y263579D01*
X198126Y265249D02*
X201188Y268311D01*
X199796Y263579D02*
X202858Y266641D01*
X201188Y268311D02*
X202858Y266641D01*
X203937Y308858D02*
X206299D01*
X203937Y304527D02*
Y308858D01*
X206299Y304527D02*
Y308858D01*
X203937Y304527D02*
X206299D01*
X207677Y316634D02*
X212008D01*
X207677D02*
Y318996D01*
X212008D01*
Y316634D02*
Y318996D01*
X204429Y253937D02*
X208760D01*
X204429D02*
Y256299D01*
X208760D01*
Y253937D02*
Y256299D01*
X208366Y308858D02*
X210728D01*
X208366Y304527D02*
Y308858D01*
X210728Y304527D02*
Y308858D01*
X208366Y304527D02*
X210728D01*
X207771Y262099D02*
X209442Y260429D01*
X207771Y262099D02*
X210834Y265161D01*
X209442Y260429D02*
X212504Y263491D01*
X210834Y265161D02*
X212504Y263491D01*
X197638Y258366D02*
X200000D01*
X197638Y254035D02*
Y258366D01*
X200000Y254035D02*
Y258366D01*
X197638Y254035D02*
X200000D01*
X228543Y259154D02*
X230906D01*
X228543Y254823D02*
Y259154D01*
X230906Y254823D02*
Y259154D01*
X228543Y254823D02*
X230906D01*
X198406Y202461D02*
Y206201D01*
Y202461D02*
X205295D01*
X198406Y206201D02*
X205295D01*
Y202461D02*
Y206201D01*
X198406Y196161D02*
Y199901D01*
Y196161D02*
X205295D01*
X198406Y199901D02*
X205295D01*
Y196161D02*
Y199901D01*
X191811Y186614D02*
Y193701D01*
Y186614D02*
X205197D01*
X191811Y193701D02*
X205197D01*
Y186614D02*
Y193701D01*
X204527Y291634D02*
X208858D01*
X204527D02*
Y293996D01*
X208858D01*
Y291634D02*
Y293996D01*
X204527Y285039D02*
X208858D01*
X204527D02*
Y287402D01*
X208858D01*
Y285039D02*
Y287402D01*
X201457Y225000D02*
X205788D01*
X201457D02*
Y227362D01*
X205788D01*
Y225000D02*
Y227362D01*
X201457Y219638D02*
X205788D01*
X201457D02*
Y222000D01*
X205788D01*
Y219638D02*
Y222000D01*
X201457Y214370D02*
X205788D01*
X201457D02*
Y216732D01*
X205788D01*
Y214370D02*
Y216732D01*
X201457Y208957D02*
X205788D01*
X201457D02*
Y211319D01*
X205788D01*
Y208957D02*
Y211319D01*
X364272Y288681D02*
X368602D01*
X364272D02*
Y291043D01*
X368602D01*
Y288681D02*
Y291043D01*
X368799Y293504D02*
X371162D01*
X368799Y289173D02*
Y293504D01*
X371162Y289173D02*
Y293504D01*
X368799Y289173D02*
X371162D01*
X210630Y202461D02*
Y206201D01*
Y202461D02*
X217520D01*
X210630Y206201D02*
X217520D01*
Y202461D02*
Y206201D01*
X210630Y196161D02*
Y199901D01*
Y196161D02*
X217520D01*
X210630Y199901D02*
X217520D01*
Y196161D02*
Y199901D01*
X210728Y186614D02*
X224114D01*
X210728D02*
Y193701D01*
X224114D01*
Y186614D02*
Y193701D01*
X204331Y297736D02*
X208662D01*
X204331D02*
Y300098D01*
X208662D01*
Y297736D02*
Y300098D01*
X210236Y229331D02*
X214567D01*
X210236D02*
Y231693D01*
X214567D01*
Y229331D02*
Y231693D01*
X210335Y224213D02*
X214665D01*
X210335D02*
Y226575D01*
X214665D01*
Y224213D02*
Y226575D01*
X210236Y218996D02*
X214567D01*
X210236D02*
Y221358D01*
X214567D01*
Y218996D02*
Y221358D01*
X210236Y213878D02*
X214567D01*
X210236D02*
Y216240D01*
X214567D01*
Y213878D02*
Y216240D01*
X210335Y208760D02*
X214665D01*
X210335D02*
Y211122D01*
X214665D01*
Y208760D02*
Y211122D01*
X128606Y256016D02*
X130969D01*
X128606Y251685D02*
Y256016D01*
X130969Y251685D02*
Y256016D01*
X128606Y251685D02*
X130969D01*
X123488Y256114D02*
X125850D01*
X123488Y251783D02*
Y256114D01*
X125850Y251783D02*
Y256114D01*
X123488Y251783D02*
X125850D01*
X143862Y269303D02*
X146224D01*
X143862Y264972D02*
Y269303D01*
X146224Y264972D02*
Y269303D01*
X143862Y264972D02*
X146224D01*
X149079Y269303D02*
X151441D01*
X149079Y264972D02*
Y269303D01*
X151441Y264972D02*
Y269303D01*
X149079Y264972D02*
X151441D01*
X118441Y255992D02*
X120803D01*
X118441Y251661D02*
Y255992D01*
X120803Y251661D02*
Y255992D01*
X118441Y251661D02*
X120803D01*
X213386Y277559D02*
X215748D01*
X213386Y273228D02*
Y277559D01*
X215748Y273228D02*
Y277559D01*
X213386Y273228D02*
X215748D01*
X108331Y269205D02*
X110693D01*
X108331Y264874D02*
Y269205D01*
X110693Y264874D02*
Y269205D01*
X108331Y264874D02*
X110693D01*
X113449Y269205D02*
X115811D01*
X113449Y264874D02*
Y269205D01*
X115811Y264874D02*
Y269205D01*
X113449Y264874D02*
X115811D01*
X118468Y269205D02*
X120831D01*
X118468Y264874D02*
Y269205D01*
X120831Y264874D02*
Y269205D01*
X118468Y264874D02*
X120831D01*
X194933Y285008D02*
X199264D01*
X194933D02*
Y287370D01*
X199264D01*
Y285008D02*
Y287370D01*
X213142Y289732D02*
X215504D01*
X213142Y285402D02*
Y289732D01*
X215504Y285402D02*
Y289732D01*
X213142Y285402D02*
X215504D01*
X194835Y291307D02*
X199165D01*
X194835D02*
Y293669D01*
X199165D01*
Y291307D02*
Y293669D01*
X213142Y299280D02*
X215504D01*
X213142Y294949D02*
Y299280D01*
X215504Y294949D02*
Y299280D01*
X213142Y294949D02*
X215504D01*
X195177Y278839D02*
X199508D01*
X195177D02*
Y281201D01*
X199508D01*
Y278839D02*
Y281201D01*
X123488Y269205D02*
X125850D01*
X123488Y264874D02*
Y269205D01*
X125850Y264874D02*
Y269205D01*
X123488Y264874D02*
X125850D01*
X128508Y269205D02*
X130870D01*
X128508Y264874D02*
Y269205D01*
X130870Y264874D02*
Y269205D01*
X128508Y264874D02*
X130870D01*
X133724Y269205D02*
X136086D01*
X133724Y264874D02*
Y269205D01*
X136086Y264874D02*
Y269205D01*
X133724Y264874D02*
X136086D01*
X138744Y269205D02*
X141106D01*
X138744Y264874D02*
Y269205D01*
X141106Y264874D02*
Y269205D01*
X138744Y264874D02*
X141106D01*
X113323Y255992D02*
X115685D01*
X113323Y251661D02*
Y255992D01*
X115685Y251661D02*
Y255992D01*
X113323Y251661D02*
X115685D01*
X108205Y255992D02*
X110567D01*
X108205Y251661D02*
Y255992D01*
X110567Y251661D02*
Y255992D01*
X108205Y251661D02*
X110567D01*
X98523Y250984D02*
X105610D01*
X98523Y264370D02*
X105610D01*
X98523Y250984D02*
Y264370D01*
X105610Y250984D02*
Y264370D01*
X107874Y250984D02*
X114961D01*
X107874Y264370D02*
X114961D01*
X107874Y250984D02*
Y264370D01*
X114961Y250984D02*
Y264370D01*
X117260Y250996D02*
X124346D01*
X117260Y264382D02*
X124346D01*
X117260Y250996D02*
Y264382D01*
X124346Y250996D02*
Y264382D01*
X147307Y263177D02*
Y270067D01*
Y263177D02*
X151047D01*
X147307Y270067D02*
X151047D01*
Y263177D02*
Y270067D01*
X133365Y263177D02*
Y270067D01*
Y263177D02*
X137105D01*
X133365Y270067D02*
X137105D01*
Y263177D02*
Y270067D01*
X140390Y250996D02*
Y257886D01*
Y250996D02*
X144130D01*
X140390Y257886D02*
X144130D01*
Y250996D02*
Y257886D01*
X147181Y250996D02*
Y257886D01*
Y250996D02*
X150921D01*
X147181Y257886D02*
X150921D01*
Y250996D02*
Y257886D01*
X126870Y263189D02*
Y270079D01*
Y263189D02*
X130610D01*
X126870Y270079D02*
X130610D01*
Y263189D02*
Y270079D01*
X143996Y255807D02*
X146358D01*
X143996Y251476D02*
Y255807D01*
X146358Y251476D02*
Y255807D01*
X143996Y251476D02*
X146358D01*
X138843Y255819D02*
X141205D01*
X138843Y251488D02*
Y255819D01*
X141205Y251488D02*
Y255819D01*
X138843Y251488D02*
X141205D01*
X133823Y255917D02*
X136185D01*
X133823Y251586D02*
Y255917D01*
X136185Y251586D02*
Y255917D01*
X133823Y251586D02*
X136185D01*
X133750Y250996D02*
Y257886D01*
Y250996D02*
X137490D01*
X133750Y257886D02*
X137490D01*
Y250996D02*
Y257886D01*
X126817Y250996D02*
Y257886D01*
Y250996D02*
X130557D01*
X126817Y257886D02*
X130557D01*
Y250996D02*
Y257886D01*
X140221Y263177D02*
Y270067D01*
Y263177D02*
X143961D01*
X140221Y270067D02*
X143961D01*
Y263177D02*
Y270067D01*
X89173Y250984D02*
X96260D01*
X89173Y264370D02*
X96260D01*
X89173Y250984D02*
Y264370D01*
X96260Y250984D02*
Y264370D01*
X149114Y255807D02*
X151477D01*
X149114Y251476D02*
Y255807D01*
X151477Y251476D02*
Y255807D01*
X149114Y251476D02*
X151477D01*
X207087Y277461D02*
X209449D01*
X207087Y273130D02*
Y277461D01*
X209449Y273130D02*
Y277461D01*
X207087Y273130D02*
X209449D01*
X337402Y212795D02*
X339764D01*
X337402D02*
Y217126D01*
X339764Y212795D02*
Y217126D01*
X337402D02*
X339764D01*
X323425Y277264D02*
X325787D01*
X323425Y272933D02*
Y277264D01*
X325787Y272933D02*
Y277264D01*
X323425Y272933D02*
X325787D01*
X315551Y269488D02*
X319882D01*
X315551D02*
Y271850D01*
X319882D01*
Y269488D02*
Y271850D01*
X332283Y343996D02*
X336614D01*
X332283D02*
Y346358D01*
X336614D01*
Y343996D02*
Y346358D01*
X325787Y345473D02*
X328150D01*
X325787Y341142D02*
Y345473D01*
X328150Y341142D02*
Y345473D01*
X325787Y341142D02*
X328150D01*
X304134Y343996D02*
X308465D01*
X304134D02*
Y346358D01*
X308465D01*
Y343996D02*
Y346358D01*
X295276Y343996D02*
X299606D01*
X295276D02*
Y346358D01*
X299606D01*
Y343996D02*
Y346358D01*
X317421Y343996D02*
X321752D01*
X317421D02*
Y346358D01*
X321752D01*
Y343996D02*
Y346358D01*
X318701Y331693D02*
X323032D01*
X318701D02*
Y334055D01*
X323032D01*
Y331693D02*
Y334055D01*
X331299Y331693D02*
X335630D01*
X331299D02*
Y334055D01*
X335630D01*
Y331693D02*
Y334055D01*
X340158Y333366D02*
X342520D01*
X340158Y329035D02*
Y333366D01*
X342520Y329035D02*
Y333366D01*
X340158Y329035D02*
X342520D01*
X334055Y343898D02*
X338386D01*
X334055D02*
Y346260D01*
X338386D01*
Y343898D02*
Y346260D01*
X342126Y338484D02*
X346457D01*
X342126D02*
Y340846D01*
X346457D01*
Y338484D02*
Y340846D01*
X345275Y324016D02*
X347638D01*
X345275Y319685D02*
Y324016D01*
X347638Y319685D02*
Y324016D01*
X345275Y319685D02*
X347638D01*
X319488Y305709D02*
X323819D01*
X319488D02*
Y308071D01*
X323819D01*
Y305709D02*
Y308071D01*
X328248Y305709D02*
X332579D01*
X328248D02*
Y308071D01*
X332579D01*
Y305709D02*
Y308071D01*
X294587Y306496D02*
X298917D01*
X294587D02*
Y308858D01*
X298917D01*
Y306496D02*
Y308858D01*
X336417Y300591D02*
X340748D01*
X336417D02*
Y302953D01*
X340748D01*
Y300591D02*
Y302953D01*
X315650Y312795D02*
X319980D01*
X315650D02*
Y315158D01*
X319980D01*
Y312795D02*
Y315158D01*
X337795Y305807D02*
X342126D01*
X337795D02*
Y308170D01*
X342126D01*
Y305807D02*
Y308170D01*
X321850Y319685D02*
X326181D01*
X321850D02*
Y322047D01*
X326181D01*
Y319685D02*
Y322047D01*
X335728Y231201D02*
X338090D01*
X335728Y226870D02*
Y231201D01*
X338090Y226870D02*
Y231201D01*
X335728Y226870D02*
X338090D01*
X340158Y262303D02*
X342520D01*
X340158Y257973D02*
Y262303D01*
X342520Y257973D02*
Y262303D01*
X340158Y257973D02*
X342520D01*
X330413Y269193D02*
X334744D01*
X330413D02*
Y271555D01*
X334744D01*
Y269193D02*
Y271555D01*
X315551Y260925D02*
X319882D01*
X315551D02*
Y263288D01*
X319882D01*
Y260925D02*
Y263288D01*
X331299Y260728D02*
X335630D01*
X331299D02*
Y263091D01*
X335630D01*
Y260728D02*
Y263091D01*
X343406Y275000D02*
X347736D01*
X343406D02*
Y277362D01*
X347736D01*
Y275000D02*
Y277362D01*
X333957Y273032D02*
X338287D01*
X333957D02*
Y275394D01*
X338287D01*
Y273032D02*
Y275394D01*
X306988Y269587D02*
X311319D01*
X306988D02*
Y271949D01*
X311319D01*
Y269587D02*
Y271949D01*
X298130Y267717D02*
X302461D01*
X298130D02*
Y270079D01*
X302461D01*
Y267717D02*
Y270079D01*
X318799Y229626D02*
X323130D01*
X318799D02*
Y231988D01*
X323130D01*
Y229626D02*
Y231988D01*
X341732Y229626D02*
X346063D01*
X341732D02*
Y231988D01*
X346063D01*
Y229626D02*
Y231988D01*
X340059Y253839D02*
X342421D01*
X340059Y249508D02*
Y253839D01*
X342421Y249508D02*
Y253839D01*
X340059Y249508D02*
X342421D01*
X345275Y253839D02*
X347638D01*
X345275Y249508D02*
Y253839D01*
X347638Y249508D02*
Y253839D01*
X345275Y249508D02*
X347638D01*
X327658Y229626D02*
X331988D01*
X327658D02*
Y231988D01*
X331988D01*
Y229626D02*
Y231988D01*
X315551Y241831D02*
X319882D01*
X315551D02*
Y244193D01*
X319882D01*
Y241831D02*
Y244193D01*
X296752Y229626D02*
X301083D01*
X296752D02*
Y231988D01*
X301083D01*
Y229626D02*
Y231988D01*
X346555Y294587D02*
Y301476D01*
Y294587D02*
X350295D01*
X346555Y301476D02*
X350295D01*
Y294587D02*
Y301476D01*
X338287Y287500D02*
X340650D01*
X338287Y283169D02*
Y287500D01*
X340650Y283169D02*
Y287500D01*
X338287Y283169D02*
X340650D01*
X332480Y287500D02*
X334842D01*
X332480Y283169D02*
Y287500D01*
X334842Y283169D02*
Y287500D01*
X332480Y283169D02*
X334842D01*
X346555Y281496D02*
Y288386D01*
Y281496D02*
X350295D01*
X346555Y288386D02*
X350295D01*
Y281496D02*
Y288386D01*
X338287Y296457D02*
X340650D01*
X338287Y292126D02*
Y296457D01*
X340650Y292126D02*
Y296457D01*
X338287Y292126D02*
X340650D01*
X332481Y296457D02*
X334843D01*
X332481Y292126D02*
Y296457D01*
X334843Y292126D02*
Y296457D01*
X332481Y292126D02*
X334843D01*
X237008Y106398D02*
Y113287D01*
Y106398D02*
X240748D01*
X237008Y113287D02*
X240748D01*
Y106398D02*
Y113287D01*
X244390Y106398D02*
Y113287D01*
Y106398D02*
X248130D01*
X244390Y113287D02*
X248130D01*
Y106398D02*
Y113287D01*
X243996Y55709D02*
Y62599D01*
Y55709D02*
X247736D01*
X243996Y62599D02*
X247736D01*
Y55709D02*
Y62599D01*
X237106Y55709D02*
Y62599D01*
Y55709D02*
X240846D01*
X237106Y62599D02*
X240846D01*
Y55709D02*
Y62599D01*
X141831Y91831D02*
Y98721D01*
Y91831D02*
X145571D01*
X141831Y98721D02*
X145571D01*
Y91831D02*
Y98721D01*
X132776Y92126D02*
Y99016D01*
Y92126D02*
X136516D01*
X132776Y99016D02*
X136516D01*
Y92126D02*
Y99016D01*
X42323Y109351D02*
Y113091D01*
Y109351D02*
X49213D01*
X42323Y113091D02*
X49213D01*
Y109351D02*
Y113091D01*
X42323Y115949D02*
Y119689D01*
Y115949D02*
X49213D01*
X42323Y119689D02*
X49213D01*
Y115949D02*
Y119689D01*
X42323Y128937D02*
Y132677D01*
Y128937D02*
X49213D01*
X42323Y132677D02*
X49213D01*
Y128937D02*
Y132677D01*
X42323Y122539D02*
Y126279D01*
Y122539D02*
X49213D01*
X42323Y126279D02*
X49213D01*
Y122539D02*
Y126279D01*
X203150Y149705D02*
X205512D01*
X203150Y145374D02*
Y149705D01*
X205512Y145374D02*
Y149705D01*
X203150Y145374D02*
X205512D01*
X197933Y149705D02*
X200295D01*
X197933Y145374D02*
Y149705D01*
X200295Y145374D02*
Y149705D01*
X197933Y145374D02*
X200295D01*
X192717Y149705D02*
X195079D01*
X192717Y145374D02*
Y149705D01*
X195079Y145374D02*
Y149705D01*
X192717Y145374D02*
X195079D01*
X187402Y149803D02*
X189764D01*
X187402Y145473D02*
Y149803D01*
X189764Y145473D02*
Y149803D01*
X187402Y145473D02*
X189764D01*
X182185Y149803D02*
X184547D01*
X182185Y145473D02*
Y149803D01*
X184547Y145473D02*
Y149803D01*
X182185Y145473D02*
X184547D01*
X176870Y149902D02*
X179232D01*
X176870Y145571D02*
Y149902D01*
X179232Y145571D02*
Y149902D01*
X176870Y145571D02*
X179232D01*
X172748Y30217D02*
X178457D01*
X172748Y38878D02*
X178457D01*
X172748Y30217D02*
Y38878D01*
X178457Y30217D02*
Y38878D01*
X181102Y35925D02*
X183465D01*
X181102Y31595D02*
Y35925D01*
X183465Y31595D02*
Y35925D01*
X181102Y31595D02*
X183465D01*
X186319Y35925D02*
X188681D01*
X186319Y31595D02*
Y35925D01*
X188681Y31595D02*
Y35925D01*
X186319Y31595D02*
X188681D01*
X191437Y35827D02*
X193799D01*
X191437Y31496D02*
Y35827D01*
X193799Y31496D02*
Y35827D01*
X191437Y31496D02*
X193799D01*
X196590Y35866D02*
X198953D01*
X196590Y31535D02*
Y35866D01*
X198953Y31535D02*
Y35866D01*
X196590Y31535D02*
X198953D01*
X171949Y46063D02*
X177658D01*
X171949Y54724D02*
X177658D01*
X171949Y46063D02*
Y54724D01*
X177658Y46063D02*
Y54724D01*
X196260Y52264D02*
X198622D01*
X196260Y47933D02*
Y52264D01*
X198622Y47933D02*
Y52264D01*
X196260Y47933D02*
X198622D01*
X190945Y52362D02*
X193307D01*
X190945Y48032D02*
Y52362D01*
X193307Y48032D02*
Y52362D01*
X190945Y48032D02*
X193307D01*
X185776Y52323D02*
X188138D01*
X185776Y47992D02*
Y52323D01*
X188138Y47992D02*
Y52323D01*
X185776Y47992D02*
X188138D01*
X180512Y52264D02*
X182874D01*
X180512Y47933D02*
Y52264D01*
X182874Y47933D02*
Y52264D01*
X180512Y47933D02*
X182874D01*
X189469Y63681D02*
X193799D01*
X189469D02*
Y66044D01*
X193799D01*
Y63681D02*
Y66044D01*
X188976Y63189D02*
X194685D01*
X188976Y71850D02*
X194685D01*
X188976Y63189D02*
Y71850D01*
X194685Y63189D02*
Y71850D01*
X183760Y72343D02*
X186122D01*
X183760Y68012D02*
Y72343D01*
X186122Y68012D02*
Y72343D01*
X183760Y68012D02*
X186122D01*
X189469Y69488D02*
X193799D01*
X189469D02*
Y71851D01*
X193799D01*
Y69488D02*
Y71851D01*
X204429Y45177D02*
X213091D01*
X204429D02*
Y50886D01*
X213091D01*
Y45177D02*
Y50886D01*
X353347Y107481D02*
Y114370D01*
Y107481D02*
X357087D01*
X353347Y114370D02*
X357087D01*
Y107481D02*
Y114370D01*
X363217Y107284D02*
Y114173D01*
Y107284D02*
X366957D01*
X363217Y114173D02*
X366957D01*
Y107284D02*
Y114173D01*
X360729Y55315D02*
Y62205D01*
Y55315D02*
X364469D01*
X360729Y62205D02*
X364469D01*
Y55315D02*
Y62205D01*
X353937Y55315D02*
Y62205D01*
Y55315D02*
X357677D01*
X353937Y62205D02*
X357677D01*
Y55315D02*
Y62205D01*
X292421Y141831D02*
X298130D01*
X292421Y150492D02*
X298130D01*
X292421Y141831D02*
Y150492D01*
X298130Y141831D02*
Y150492D01*
X301146Y148173D02*
X303508D01*
X301146Y143843D02*
Y148173D01*
X303508Y143843D02*
Y148173D01*
X301146Y143843D02*
X303508D01*
X306496Y148229D02*
X308858D01*
X306496Y143898D02*
Y148229D01*
X308858Y143898D02*
Y148229D01*
X306496Y143898D02*
X308858D01*
X311909Y148229D02*
X314272D01*
X311909Y143898D02*
Y148229D01*
X314272Y143898D02*
Y148229D01*
X311909Y143898D02*
X314272D01*
X317520Y148229D02*
X319882D01*
X317520Y143898D02*
Y148229D01*
X319882Y143898D02*
Y148229D01*
X317520Y143898D02*
X319882D01*
X323031Y148229D02*
X325394D01*
X323031Y143898D02*
Y148229D01*
X325394Y143898D02*
Y148229D01*
X323031Y143898D02*
X325394D01*
X328248Y148229D02*
X330610D01*
X328248Y143898D02*
Y148229D01*
X330610Y143898D02*
Y148229D01*
X328248Y143898D02*
X330610D01*
X289075Y30118D02*
X294784D01*
X289075Y38780D02*
X294784D01*
X289075Y30118D02*
Y38780D01*
X294784Y30118D02*
Y38780D01*
X297681Y36461D02*
X300043D01*
X297681Y32130D02*
Y36461D01*
X300043Y32130D02*
Y36461D01*
X297681Y32130D02*
X300043D01*
X303051Y36319D02*
X305413D01*
X303051Y31988D02*
Y36319D01*
X305413Y31988D02*
Y36319D01*
X303051Y31988D02*
X305413D01*
X308465Y36319D02*
X310827D01*
X308465Y31988D02*
Y36319D01*
X310827Y31988D02*
Y36319D01*
X308465Y31988D02*
X310827D01*
X313779Y36319D02*
X316142D01*
X313779Y31988D02*
Y36319D01*
X316142Y31988D02*
Y36319D01*
X313779Y31988D02*
X316142D01*
X288090Y44193D02*
X293799D01*
X288090Y52854D02*
X293799D01*
X288090Y44193D02*
Y52854D01*
X293799Y44193D02*
Y52854D01*
X312740Y47890D02*
X315103D01*
X312740Y43559D02*
Y47890D01*
X315103Y43559D02*
Y47890D01*
X312740Y43559D02*
X315103D01*
X307284Y47933D02*
X309646D01*
X307284Y43602D02*
Y47933D01*
X309646Y43602D02*
Y47933D01*
X307284Y43602D02*
X309646D01*
X302067Y47933D02*
X304429D01*
X302067Y43602D02*
Y47933D01*
X304429Y43602D02*
Y47933D01*
X302067Y43602D02*
X304429D01*
X296752Y48032D02*
X299114D01*
X296752Y43701D02*
Y48032D01*
X299114Y43701D02*
Y48032D01*
X296752Y43701D02*
X299114D01*
X306693Y63681D02*
X311024D01*
X306693D02*
Y66044D01*
X311024D01*
Y63681D02*
Y66044D01*
X304134Y52461D02*
X309843D01*
X304134Y61122D02*
X309843D01*
X304134Y52461D02*
Y61122D01*
X309843Y52461D02*
Y61122D01*
X299114Y58268D02*
X301477D01*
X299114Y53937D02*
Y58268D01*
X301477Y53937D02*
Y58268D01*
X299114Y53937D02*
X301477D01*
X306693Y69390D02*
X311024D01*
X306693D02*
Y71752D01*
X311024D01*
Y69390D02*
Y71752D01*
X306197Y67217D02*
X314858D01*
X306197D02*
Y72925D01*
X314858D01*
Y67217D02*
Y72925D01*
X214764Y429331D02*
X217126D01*
X214764Y425000D02*
Y429331D01*
X217126Y425000D02*
Y429331D01*
X214764Y425000D02*
X217126D01*
X249213Y414468D02*
X253543D01*
X249213D02*
Y416831D01*
X253543D01*
Y414468D02*
Y416831D01*
X249213Y420177D02*
X253543D01*
X249213D02*
Y422539D01*
X253543D01*
Y420177D02*
Y422539D01*
X249213Y425984D02*
X253543D01*
X249213D02*
Y428346D01*
X253543D01*
Y425984D02*
Y428346D01*
X249213Y431988D02*
X253543D01*
X249213D02*
Y434350D01*
X253543D01*
Y431988D02*
Y434350D01*
X221654Y431398D02*
X225984D01*
X221654D02*
Y433760D01*
X225984D01*
Y431398D02*
Y433760D01*
X237598Y438681D02*
X241929D01*
X237598D02*
Y441043D01*
X241929D01*
Y438681D02*
Y441043D01*
X246555Y434350D02*
X248917D01*
X246555D02*
Y438681D01*
X248917Y434350D02*
Y438681D01*
X246555D02*
X248917D01*
X241535Y445965D02*
X245866D01*
X241535D02*
Y448327D01*
X245866D01*
Y445965D02*
Y448327D01*
X230118Y440847D02*
X234449D01*
X230118D02*
Y443209D01*
X234449D01*
Y440847D02*
Y443209D01*
X250295Y417421D02*
X252657D01*
X250295D02*
Y421752D01*
X252657Y417421D02*
Y421752D01*
X250295D02*
X252657D01*
X249016Y402559D02*
Y406299D01*
Y402559D02*
X255905D01*
X249016Y406299D02*
X255905D01*
Y402559D02*
Y406299D01*
X228150Y400492D02*
X232480D01*
X228150D02*
Y402854D01*
X232480D01*
Y400492D02*
Y402854D01*
X11712Y278051D02*
X25098D01*
X11712D02*
Y288681D01*
X25098D01*
Y278051D02*
Y288681D01*
X11712Y291142D02*
X25098D01*
X11712D02*
Y301772D01*
X25098D01*
Y291142D02*
Y301772D01*
X11614Y304232D02*
X25000D01*
X11614D02*
Y314862D01*
X25000D01*
Y304232D02*
Y314862D01*
X37303Y236811D02*
X41634D01*
X37303D02*
Y239173D01*
X41634D01*
Y236811D02*
Y239173D01*
X68209Y260236D02*
X72539D01*
X68209D02*
Y262598D01*
X72539D01*
Y260236D02*
Y262598D01*
X12106Y303838D02*
X25492D01*
X12106D02*
Y314469D01*
X25492D01*
Y303838D02*
Y314469D01*
X12091Y290850D02*
X25477D01*
X12091D02*
Y301480D01*
X25477D01*
Y290850D02*
Y301480D01*
X11909Y277657D02*
X25295D01*
X11909D02*
Y288287D01*
X25295D01*
Y277657D02*
Y288287D01*
X11909Y264862D02*
X25295D01*
X11909D02*
Y275492D01*
X25295D01*
Y264862D02*
Y275492D01*
X31890Y312894D02*
X34252D01*
X31890Y308563D02*
Y312894D01*
X34252Y308563D02*
Y312894D01*
X31890Y308563D02*
X34252D01*
X47441Y249114D02*
X49803D01*
X47441Y244783D02*
Y249114D01*
X49803Y244783D02*
Y249114D01*
X47441Y244783D02*
X49803D01*
X38583Y247638D02*
X42913D01*
X38583D02*
Y250000D01*
X42913D01*
Y247638D02*
Y250000D01*
X35433Y257087D02*
X37795D01*
X35433Y252756D02*
Y257087D01*
X37795Y252756D02*
Y257087D01*
X35433Y252756D02*
X37795D01*
X41240Y251969D02*
X45571D01*
X41240D02*
Y254331D01*
X45571D01*
Y251969D02*
Y254331D01*
X31201Y246457D02*
X33563D01*
X31201Y242126D02*
Y246457D01*
X33563Y242126D02*
Y246457D01*
X31201Y242126D02*
X33563D01*
X25886Y246358D02*
X28248D01*
X25886Y242027D02*
Y246358D01*
X28248Y242027D02*
Y246358D01*
X25886Y242027D02*
X28248D01*
X11815Y255012D02*
X20477D01*
X11815D02*
Y260720D01*
X20477D01*
Y255012D02*
Y260720D01*
X11811Y246752D02*
X20472D01*
X11811D02*
Y252461D01*
X20472D01*
Y246752D02*
Y252461D01*
X11319Y241732D02*
X15650D01*
X11319D02*
Y244095D01*
X15650D01*
Y241732D02*
Y244095D01*
X11319Y236614D02*
X15650D01*
X11319D02*
Y238977D01*
X15650D01*
Y236614D02*
Y238977D01*
X11220Y231595D02*
X15551D01*
X11220D02*
Y233957D01*
X15551D01*
Y231595D02*
Y233957D01*
X67520Y205807D02*
X71850D01*
X67520D02*
Y208169D01*
X71850D01*
Y205807D02*
Y208169D01*
X227953Y331791D02*
Y345177D01*
Y331791D02*
X238583D01*
X227953Y345177D02*
X238583D01*
Y331791D02*
Y345177D01*
X221949Y187992D02*
Y201378D01*
Y187992D02*
X232579D01*
X221949Y201378D02*
X232579D01*
Y187992D02*
Y201378D01*
X54429Y217716D02*
X58760D01*
X54429D02*
Y220079D01*
X58760D01*
Y217716D02*
Y220079D01*
X54527Y205020D02*
X58858D01*
X54527D02*
Y207382D01*
X58858D01*
Y205020D02*
Y207382D01*
X57480Y229429D02*
X61811D01*
X57480D02*
Y231791D01*
X61811D01*
Y229429D02*
Y231791D01*
X9783Y227913D02*
X11083D01*
X9783Y225433D02*
Y227913D01*
X11083Y225433D02*
Y227913D01*
X9783Y225433D02*
X11083D01*
X42913Y226280D02*
X45276D01*
X42913Y221949D02*
Y226280D01*
X45276Y221949D02*
Y226280D01*
X42913Y221949D02*
X45276D01*
X48819Y229331D02*
X53150D01*
X48819D02*
Y231693D01*
X53150D01*
Y229331D02*
Y231693D01*
X47343Y417815D02*
Y431201D01*
Y417815D02*
X57973D01*
X47343Y431201D02*
X57973D01*
Y417815D02*
Y431201D01*
X60279Y417846D02*
Y431232D01*
Y417846D02*
X70909D01*
X60279Y431232D02*
X70909D01*
Y417846D02*
Y431232D01*
X75468Y198870D02*
X79799D01*
X75468D02*
Y201232D01*
X79799D01*
Y198870D02*
Y201232D01*
X75492Y203937D02*
X79823D01*
X75492D02*
Y206299D01*
X79823D01*
Y203937D02*
Y206299D01*
X75492Y208957D02*
X79823D01*
X75492D02*
Y211319D01*
X79823D01*
Y208957D02*
Y211319D01*
X11712Y238779D02*
Y249410D01*
Y238779D02*
X25098D01*
X11712Y249410D02*
X25098D01*
Y238779D02*
Y249410D01*
X75984Y237894D02*
X84646D01*
X75984D02*
Y243602D01*
X84646D01*
Y237894D02*
Y243602D01*
X66437Y237500D02*
X75099D01*
X66437D02*
Y243209D01*
X75099D01*
Y237500D02*
Y243209D01*
X132480Y228937D02*
X136811D01*
X132480D02*
Y231299D01*
X136811D01*
Y228937D02*
Y231299D01*
X357185Y315650D02*
X370571D01*
X357185D02*
Y326280D01*
X370571D01*
Y315650D02*
Y326280D01*
X357185Y302264D02*
X370571D01*
X357185D02*
Y312894D01*
X370571D01*
Y302264D02*
Y312894D01*
X115453Y237303D02*
X119783D01*
X115453D02*
Y239665D01*
X119783D01*
Y237303D02*
Y239665D01*
X115453Y232283D02*
X119783D01*
X115453D02*
Y234646D01*
X119783D01*
Y232283D02*
Y234646D01*
X129921Y209055D02*
X132284D01*
X129921Y204724D02*
Y209055D01*
X132284Y204724D02*
Y209055D01*
X129921Y204724D02*
X132284D01*
X84488Y210787D02*
X85787D01*
X84488Y208307D02*
Y210787D01*
X85787Y208307D02*
Y210787D01*
X84488Y208307D02*
X85787D01*
X113386Y207087D02*
X117717D01*
X113386D02*
Y209449D01*
X117717D01*
Y207087D02*
Y209449D01*
X113386Y212205D02*
X117717D01*
X113386D02*
Y214567D01*
X117717D01*
Y212205D02*
Y214567D01*
X78445Y263189D02*
Y276575D01*
Y263189D02*
X89075D01*
X78445Y276575D02*
X89075D01*
Y263189D02*
Y276575D01*
X147736Y236417D02*
X161122D01*
X147736D02*
Y247047D01*
X161122D01*
Y236417D02*
Y247047D01*
X37894Y295177D02*
Y305807D01*
Y295177D02*
X51280D01*
X37894Y305807D02*
X51280D01*
Y295177D02*
Y305807D01*
X141437Y238878D02*
X143799D01*
X141437Y234547D02*
Y238878D01*
X143799Y234547D02*
Y238878D01*
X141437Y234547D02*
X143799D01*
X177264Y161220D02*
Y171850D01*
Y161220D02*
X190650D01*
X177264Y171850D02*
X190650D01*
Y161220D02*
Y171850D01*
X174409Y182382D02*
X185039D01*
X174409D02*
Y195768D01*
X185039D01*
Y182382D02*
Y195768D01*
X161319Y224016D02*
X163681D01*
X161319Y219685D02*
Y224016D01*
X163681Y219685D02*
Y224016D01*
X161319Y219685D02*
X163681D01*
X158661Y208071D02*
X162992D01*
X158661D02*
Y210433D01*
X162992D01*
Y208071D02*
Y210433D01*
X147343Y238780D02*
X149705D01*
X147343Y234449D02*
Y238780D01*
X149705Y234449D02*
Y238780D01*
X147343Y234449D02*
X149705D01*
X152362Y238780D02*
X154725D01*
X152362Y234449D02*
Y238780D01*
X154725Y234449D02*
Y238780D01*
X152362Y234449D02*
X154725D01*
X158602Y221417D02*
X159902D01*
X158602Y218937D02*
Y221417D01*
X159902Y218937D02*
Y221417D01*
X158602Y218937D02*
X159902D01*
X162795Y221555D02*
X165157D01*
X162795Y217224D02*
Y221555D01*
X165157Y217224D02*
Y221555D01*
X162795Y217224D02*
X165157D01*
X362697Y244488D02*
X367028D01*
X362697D02*
Y246850D01*
X367028D01*
Y244488D02*
Y246850D01*
X352362Y246555D02*
X365748D01*
X352362D02*
Y257185D01*
X365748D01*
Y246555D02*
Y257185D01*
X360729Y249606D02*
X369390D01*
X360729D02*
Y255315D01*
X369390D01*
Y249606D02*
Y255315D01*
X372047Y282677D02*
X374410D01*
X372047Y278346D02*
Y282677D01*
X374410Y278346D02*
Y282677D01*
X372047Y278346D02*
X374410D01*
X360335Y283563D02*
X364665D01*
X360335D02*
Y285925D01*
X364665D01*
Y283563D02*
Y285925D01*
X360335Y288583D02*
X364665D01*
X360335D02*
Y290945D01*
X364665D01*
Y288583D02*
Y290945D01*
X117224Y191634D02*
X121555D01*
X117224D02*
Y193996D01*
X121555D01*
Y191634D02*
Y193996D01*
X62500Y180906D02*
X64862D01*
X62500Y176575D02*
Y180906D01*
X64862Y176575D02*
Y180906D01*
X62500Y176575D02*
X64862D01*
X276969Y155315D02*
Y159055D01*
Y155315D02*
X283858D01*
X276969Y159055D02*
X283858D01*
Y155315D02*
Y159055D01*
X277658Y146851D02*
Y150591D01*
Y146851D02*
X284547D01*
X277658Y150591D02*
X284547D01*
Y146851D02*
Y150591D01*
X279331Y160728D02*
X283662D01*
X279331D02*
Y163091D01*
X283662D01*
Y160728D02*
Y163091D01*
X151476Y420965D02*
Y428051D01*
Y420965D02*
X164862D01*
X151476Y428051D02*
X164862D01*
Y420965D02*
Y428051D01*
X149508Y385531D02*
X160138D01*
X149508Y398917D02*
X160138D01*
X149508Y385531D02*
Y398917D01*
X160138Y385531D02*
Y398917D01*
X203150Y412205D02*
X205512D01*
X203150Y407874D02*
Y412205D01*
X205512Y407874D02*
Y412205D01*
X203150Y407874D02*
X205512D01*
X173720Y452362D02*
Y459449D01*
Y452362D02*
X187106D01*
X173720Y459449D02*
X187106D01*
Y452362D02*
Y459449D01*
X148425Y444488D02*
Y455118D01*
Y444488D02*
X161811D01*
X148425Y455118D02*
X161811D01*
Y444488D02*
Y455118D01*
X188484Y423031D02*
X199114D01*
X188484D02*
Y436417D01*
X199114D01*
Y423031D02*
Y436417D01*
X195276Y448917D02*
X197638D01*
X195276Y444587D02*
Y448917D01*
X197638Y444587D02*
Y448917D01*
X195276Y444587D02*
X197638D01*
X101476Y433760D02*
Y437500D01*
Y433760D02*
X108366D01*
X101476Y437500D02*
X108366D01*
Y433760D02*
Y437500D01*
X125099Y441142D02*
Y444882D01*
Y441142D02*
X131988D01*
X125099Y444882D02*
X131988D01*
Y441142D02*
Y444882D01*
X40945Y409449D02*
Y416339D01*
Y409449D02*
X44685D01*
X40945Y416339D02*
X44685D01*
Y409449D02*
Y416339D01*
X30906Y390748D02*
Y397638D01*
Y390748D02*
X34646D01*
X30906Y397638D02*
X34646D01*
Y390748D02*
Y397638D01*
X133366Y408170D02*
Y415059D01*
Y408170D02*
X137106D01*
X133366Y415059D02*
X137106D01*
Y408170D02*
Y415059D01*
X125099Y434941D02*
Y438681D01*
Y434941D02*
X131988D01*
X125099Y438681D02*
X131988D01*
Y434941D02*
Y438681D01*
X66831Y422146D02*
X69193D01*
X66831Y417815D02*
Y422146D01*
X69193Y417815D02*
Y422146D01*
X66831Y417815D02*
X69193D01*
X74311Y422146D02*
X76673D01*
X74311Y417815D02*
Y422146D01*
X76673Y417815D02*
Y422146D01*
X74311Y417815D02*
X76673D01*
X49311Y386516D02*
X53642D01*
X49311D02*
Y388878D01*
X53642D01*
Y386516D02*
Y388878D01*
X105118Y414272D02*
X107480D01*
X105118Y409941D02*
Y414272D01*
X107480Y409941D02*
Y414272D01*
X105118Y409941D02*
X107480D01*
X27067Y329134D02*
X31398D01*
X27067D02*
Y331496D01*
X31398D01*
Y329134D02*
Y331496D01*
X100787Y342421D02*
X105118D01*
X100787D02*
Y344783D01*
X105118D01*
Y342421D02*
Y344783D01*
X55315Y405118D02*
X57677D01*
X55315Y400787D02*
Y405118D01*
X57677Y400787D02*
Y405118D01*
X55315Y400787D02*
X57677D01*
X124901Y371358D02*
X127264D01*
X124901Y367028D02*
Y371358D01*
X127264Y367028D02*
Y371358D01*
X124901Y367028D02*
X127264D01*
X27264Y380217D02*
X31595D01*
X27264D02*
Y382579D01*
X31595D01*
Y380217D02*
Y382579D01*
X27362Y372638D02*
X31693D01*
X27362D02*
Y375000D01*
X31693D01*
Y372638D02*
Y375000D01*
X104823Y433465D02*
X107185D01*
X104823Y429134D02*
Y433465D01*
X107185Y429134D02*
Y433465D01*
X104823Y429134D02*
X107185D01*
X27362Y357480D02*
X31693D01*
X27362D02*
Y359842D01*
X31693D01*
Y357480D02*
Y359842D01*
X27461Y365158D02*
X31791D01*
X27461D02*
Y367520D01*
X31791D01*
Y365158D02*
Y367520D01*
X27362Y345374D02*
X31693D01*
X27362D02*
Y347736D01*
X31693D01*
Y345374D02*
Y347736D01*
X24311Y338780D02*
Y342520D01*
Y338780D02*
X31201D01*
X24311Y342520D02*
X31201D01*
Y338780D02*
Y342520D01*
X123622Y392618D02*
X127953D01*
X123622D02*
Y394981D01*
X127953D01*
Y392618D02*
Y394981D01*
X102953Y363583D02*
X105315D01*
X102953Y359252D02*
Y363583D01*
X105315Y359252D02*
Y363583D01*
X102953Y359252D02*
X105315D01*
X117126Y404823D02*
X119488D01*
X117126Y400492D02*
Y404823D01*
X119488Y400492D02*
Y404823D01*
X117126Y400492D02*
X119488D01*
X120669Y386221D02*
Y389961D01*
Y386221D02*
X127559D01*
X120669Y389961D02*
X127559D01*
Y386221D02*
Y389961D01*
X42815Y331890D02*
X45177D01*
X42815Y327559D02*
Y331890D01*
X45177Y327559D02*
Y331890D01*
X42815Y327559D02*
X45177D01*
X48327Y331890D02*
X50689D01*
X48327Y327559D02*
Y331890D01*
X50689Y327559D02*
Y331890D01*
X48327Y327559D02*
X50689D01*
X101575Y351673D02*
X105905D01*
X101575D02*
Y354036D01*
X105905D01*
Y351673D02*
Y354036D01*
X97244Y433366D02*
X99606D01*
X97244Y429036D02*
Y433366D01*
X99606Y429036D02*
Y433366D01*
X97244Y429036D02*
X99606D01*
X97441Y414272D02*
X99803D01*
X97441Y409941D02*
Y414272D01*
X99803Y409941D02*
Y414272D01*
X97441Y409941D02*
X99803D01*
X61614Y335433D02*
X63977D01*
X61614Y331102D02*
Y335433D01*
X63977Y331102D02*
Y335433D01*
X61614Y331102D02*
X63977D01*
X168209Y343996D02*
X170571D01*
X168209Y339665D02*
Y343996D01*
X170571Y339665D02*
Y343996D01*
X168209Y339665D02*
X170571D01*
X151477Y358465D02*
X153839D01*
X151477Y354134D02*
Y358465D01*
X153839Y354134D02*
Y358465D01*
X151477Y354134D02*
X153839D01*
X151673Y333662D02*
X154035D01*
X151673Y329331D02*
Y333662D01*
X154035Y329331D02*
Y333662D01*
X151673Y329331D02*
X154035D01*
X131594Y351477D02*
X133957D01*
X131594Y347146D02*
Y351477D01*
X133957Y347146D02*
Y351477D01*
X131594Y347146D02*
X133957D01*
X113878Y341043D02*
X116240D01*
X113878Y336713D02*
Y341043D01*
X116240Y336713D02*
Y341043D01*
X113878Y336713D02*
X116240D01*
X81693Y329823D02*
X86024D01*
X81693D02*
Y332185D01*
X86024D01*
Y329823D02*
Y332185D01*
X135925Y340650D02*
X138287D01*
X135925Y336319D02*
Y340650D01*
X138287Y336319D02*
Y340650D01*
X135925Y336319D02*
X138287D01*
X42323Y367618D02*
X46654D01*
X42323D02*
Y369981D01*
X46654D01*
Y367618D02*
Y369981D01*
X24508Y382677D02*
Y389567D01*
Y382677D02*
X28248D01*
X24508Y389567D02*
X28248D01*
Y382677D02*
Y389567D01*
X24508Y411024D02*
Y417913D01*
Y411024D02*
X28248D01*
X24508Y417913D02*
X28248D01*
Y411024D02*
Y417913D01*
X49016Y370965D02*
X51378D01*
X49016Y366634D02*
Y370965D01*
X51378Y366634D02*
Y370965D01*
X49016Y366634D02*
X51378D01*
X16634Y382677D02*
Y389567D01*
Y382677D02*
X20374D01*
X16634Y389567D02*
X20374D01*
Y382677D02*
Y389567D01*
X16634Y411024D02*
Y417913D01*
Y411024D02*
X20374D01*
X16634Y417913D02*
X20374D01*
Y411024D02*
Y417913D01*
X183366Y204626D02*
X187697D01*
X183366D02*
Y206988D01*
X187697D01*
Y204626D02*
Y206988D01*
X183465Y199508D02*
X187795D01*
X183465D02*
Y201870D01*
X187795D01*
Y199508D02*
Y201870D01*
X271653Y223228D02*
X274016D01*
X271653Y218898D02*
Y223228D01*
X274016Y218898D02*
Y223228D01*
X271653Y218898D02*
X274016D01*
X382579Y419291D02*
X386910D01*
X382579D02*
Y421653D01*
X386910D01*
Y419291D02*
Y421653D01*
X318996Y420374D02*
X323327D01*
X318996D02*
Y422736D01*
X323327D01*
Y420374D02*
Y422736D01*
X357283Y387008D02*
X361614D01*
X357283D02*
Y389370D01*
X361614D01*
Y387008D02*
Y389370D01*
X298354Y427579D02*
X302685D01*
X298354D02*
Y429941D01*
X302685D01*
Y427579D02*
Y429941D01*
X298327Y422047D02*
X302658D01*
X298327D02*
Y424409D01*
X302658D01*
Y422047D02*
Y424409D01*
X298327Y416536D02*
X302658D01*
X298327D02*
Y418898D01*
X302658D01*
Y416536D02*
Y418898D01*
X298327Y410925D02*
X302658D01*
X298327D02*
Y413287D01*
X302658D01*
Y410925D02*
Y413287D01*
X298327Y405020D02*
X302658D01*
X298327D02*
Y407382D01*
X302658D01*
Y405020D02*
Y407382D01*
X298327Y399705D02*
X302658D01*
X298327D02*
Y402067D01*
X302658D01*
Y399705D02*
Y402067D01*
X298327Y394390D02*
X302658D01*
X298327D02*
Y396752D01*
X302658D01*
Y394390D02*
Y396752D01*
X298327Y388977D02*
X302658D01*
X298327D02*
Y391339D01*
X302658D01*
Y388977D02*
Y391339D01*
X338386Y385630D02*
X340748D01*
X338386Y381299D02*
Y385630D01*
X340748Y381299D02*
Y385630D01*
X338386Y381299D02*
X340748D01*
X331004Y407972D02*
X333366D01*
X331004Y403642D02*
Y407972D01*
X333366Y403642D02*
Y407972D01*
X331004Y403642D02*
X333366D01*
X385728Y384744D02*
X390059D01*
X385728D02*
Y387106D01*
X390059D01*
Y384744D02*
Y387106D01*
X315453Y429921D02*
X319783D01*
X315453D02*
Y432283D01*
X319783D01*
Y429921D02*
Y432283D01*
X357972Y369587D02*
X360334D01*
X357972Y365256D02*
Y369587D01*
X360334Y365256D02*
Y369587D01*
X357972Y365256D02*
X360334D01*
X312500Y441634D02*
X316831D01*
X312500D02*
Y443996D01*
X316831D01*
Y441634D02*
Y443996D01*
X312500Y446850D02*
X316831D01*
X312500D02*
Y449213D01*
X316831D01*
Y446850D02*
Y449213D01*
X397441Y426280D02*
Y433169D01*
Y426280D02*
X401181D01*
X397441Y433169D02*
X401181D01*
Y426280D02*
Y433169D01*
X391043Y426280D02*
Y433169D01*
Y426280D02*
X394783D01*
X391043Y433169D02*
X394783D01*
Y426280D02*
Y433169D01*
X385827Y430020D02*
X388189D01*
X385827Y425689D02*
Y430020D01*
X388189Y425689D02*
Y430020D01*
X385827Y425689D02*
X388189D01*
X380512Y430020D02*
X382874D01*
X380512Y425689D02*
Y430020D01*
X382874Y425689D02*
Y430020D01*
X380512Y425689D02*
X382874D01*
X389961Y407283D02*
Y414173D01*
Y407283D02*
X393701D01*
X389961Y414173D02*
X393701D01*
Y407283D02*
Y414173D01*
X383071Y407283D02*
Y414173D01*
Y407283D02*
X386811D01*
X383071Y414173D02*
X386811D01*
Y407283D02*
Y414173D01*
X377461Y411811D02*
X379823D01*
X377461Y407480D02*
Y411811D01*
X379823Y407480D02*
Y411811D01*
X377461Y407480D02*
X379823D01*
X371752Y411811D02*
X374114D01*
X371752Y407480D02*
Y411811D01*
X374114Y407480D02*
Y411811D01*
X371752Y407480D02*
X374114D01*
X53051Y385039D02*
X57382D01*
X53051D02*
Y387402D01*
X57382D01*
Y385039D02*
Y387402D01*
X232087Y334055D02*
X236417D01*
X232087D02*
Y336417D01*
X236417D01*
Y334055D02*
Y336417D01*
X71752Y284941D02*
X74114D01*
X71752Y280610D02*
Y284941D01*
X74114Y280610D02*
Y284941D01*
X71752Y280610D02*
X74114D01*
X403445Y405217D02*
X406201D01*
X403445D02*
Y413484D01*
X406201Y405217D02*
Y413484D01*
X403445D02*
X406201D01*
X355217Y283170D02*
X360531D01*
X355217Y291831D02*
X360531D01*
X355217Y283170D02*
Y291831D01*
X360531Y283170D02*
Y291831D01*
X124508Y379626D02*
X126673D01*
X124508Y375492D02*
Y379626D01*
X126673Y375492D02*
Y379626D01*
X124508Y375492D02*
X126673D01*
X101870Y337795D02*
X106004D01*
X101870D02*
Y339961D01*
X106004D01*
Y337795D02*
Y339961D01*
X27657Y334154D02*
X31791D01*
X27657D02*
Y336319D01*
X31791D01*
Y334154D02*
Y336319D01*
X104921Y422441D02*
X107087D01*
X104921Y418307D02*
Y422441D01*
X107087Y418307D02*
Y422441D01*
X104921Y418307D02*
X107087D01*
X50394Y404626D02*
X52559D01*
X50394Y400492D02*
Y404626D01*
X52559Y400492D02*
Y404626D01*
X50394Y400492D02*
X52559D01*
X18898Y380414D02*
X23032D01*
X18898D02*
Y382579D01*
X23032D01*
Y380414D02*
Y382579D01*
X18996Y372835D02*
X23130D01*
X18996D02*
Y375000D01*
X23130D01*
Y372835D02*
Y375000D01*
X104429Y441733D02*
X106594D01*
X104429Y437599D02*
Y441733D01*
X106594Y437599D02*
Y441733D01*
X104429Y437599D02*
X106594D01*
X19193Y365256D02*
X23327D01*
X19193D02*
Y367421D01*
X23327D01*
Y365256D02*
Y367421D01*
X19094Y357677D02*
X23228D01*
X19094D02*
Y359842D01*
X23228D01*
Y357677D02*
Y359842D01*
X19587Y350492D02*
X23721D01*
X19587D02*
Y352658D01*
X23721D01*
Y350492D02*
Y352658D01*
X116929Y413091D02*
X119094D01*
X116929Y408957D02*
Y413091D01*
X119094Y408957D02*
Y413091D01*
X116929Y408957D02*
X119094D01*
X124705Y412894D02*
X126870D01*
X124705Y408760D02*
Y412894D01*
X126870Y408760D02*
Y412894D01*
X124705Y408760D02*
X126870D01*
X113287Y363878D02*
X115453D01*
X113287Y359744D02*
Y363878D01*
X115453Y359744D02*
Y363878D01*
X113287Y359744D02*
X115453D01*
X101673Y347146D02*
X105807D01*
X101673D02*
Y349311D01*
X105807D01*
Y347146D02*
Y349311D01*
X97146Y441733D02*
X99311D01*
X97146Y437599D02*
Y441733D01*
X99311Y437599D02*
Y441733D01*
X97146Y437599D02*
X99311D01*
X66339Y335138D02*
X68504D01*
X66339Y331004D02*
Y335138D01*
X68504Y331004D02*
Y335138D01*
X66339Y331004D02*
X68504D01*
X398720Y416732D02*
Y422047D01*
Y416732D02*
X407382D01*
X398720Y422047D02*
X407382D01*
Y416732D02*
Y422047D01*
X391240Y396850D02*
Y402165D01*
Y396850D02*
X399902D01*
X391240Y402165D02*
X399902D01*
Y396850D02*
Y402165D01*
X237697Y433366D02*
X241831D01*
X237697D02*
Y435531D01*
X241831D01*
Y433366D02*
Y435531D01*
X229429Y436221D02*
X231594D01*
X229429Y432087D02*
Y436221D01*
X231594Y432087D02*
Y436221D01*
X229429Y432087D02*
X231594D01*
X107390Y198138D02*
X131390D01*
X107390Y222138D02*
X131390D01*
X107390Y198138D02*
Y222138D01*
X131390Y198138D02*
Y222138D01*
X110335Y224705D02*
X130413D01*
X110335Y244783D02*
X130413D01*
X110335Y224705D02*
Y244783D01*
X130413Y224705D02*
Y244783D01*
X143512Y176681D02*
X167512D01*
X143512D02*
Y200681D01*
X167512D01*
Y176681D02*
Y200681D01*
X168465Y377067D02*
X222480D01*
Y350886D02*
Y377067D01*
X168465Y350886D02*
Y377067D01*
Y350886D02*
X222480D01*
X46358Y359843D02*
X50492D01*
X46358D02*
Y362008D01*
X50492D01*
Y359843D02*
Y362008D01*
X46358Y375591D02*
X50492D01*
X46358D02*
Y377756D01*
X50492D01*
Y375591D02*
Y377756D01*
X19095Y400000D02*
Y403740D01*
Y400000D02*
X25787D01*
X19095Y403740D02*
X25787D01*
Y400000D02*
Y403740D01*
X182894Y123406D02*
Y138406D01*
Y123406D02*
X191319D01*
X182894Y138406D02*
X191319D01*
Y123406D02*
Y138406D01*
X407992Y166358D02*
X416417D01*
Y151358D02*
Y166358D01*
X407992Y151358D02*
Y166358D01*
Y151358D02*
X416417D01*
X408091Y148445D02*
X416516D01*
Y133445D02*
Y148445D01*
X408091Y133445D02*
Y148445D01*
Y133445D02*
X416516D01*
X242008Y183484D02*
X257008D01*
X242008D02*
Y191910D01*
X257008D01*
Y183484D02*
Y191910D01*
X259921Y183583D02*
X274921D01*
X259921D02*
Y192008D01*
X274921D01*
Y183583D02*
Y192008D01*
X277539Y183681D02*
X292539D01*
X277539D02*
Y192106D01*
X292539D01*
Y183681D02*
Y192106D01*
X356909Y218228D02*
X365335D01*
Y203228D02*
Y218228D01*
X356909Y203228D02*
Y218228D01*
Y203228D02*
X365335D01*
X356909Y200610D02*
X365335D01*
Y185610D02*
Y200610D01*
X356909Y185610D02*
Y200610D01*
Y185610D02*
X365335D01*
X84843Y402264D02*
X87008D01*
X84843Y398130D02*
Y402264D01*
X87008Y398130D02*
Y402264D01*
X84843Y398130D02*
X87008D01*
X74410Y402559D02*
X76575D01*
X74410Y398425D02*
Y402559D01*
X76575Y398425D02*
Y402559D01*
X74410Y398425D02*
X76575D01*
X74606Y411221D02*
X76772D01*
X74606Y407087D02*
Y411221D01*
X76772Y407087D02*
Y411221D01*
X74606Y407087D02*
X76772D01*
X67225Y391535D02*
X69390D01*
X67225Y387402D02*
Y391535D01*
X69390Y387402D02*
Y391535D01*
X67225Y387402D02*
X69390D01*
X70571Y335138D02*
X72736D01*
X70571Y331004D02*
Y335138D01*
X72736Y331004D02*
Y335138D01*
X70571Y331004D02*
X72736D01*
X118406Y351870D02*
X122539D01*
X118406D02*
Y354035D01*
X122539D01*
Y351870D02*
Y354035D01*
X101575Y347441D02*
X105709D01*
X101575D02*
Y349606D01*
X105709D01*
Y347441D02*
Y349606D01*
X101575Y351870D02*
X105709D01*
X101575D02*
Y354035D01*
X105709D01*
Y351870D02*
Y354035D01*
X101476Y342914D02*
X105610D01*
X101476D02*
Y345079D01*
X105610D01*
Y342914D02*
Y345079D01*
X101575Y356299D02*
X105709D01*
X101575D02*
Y358465D01*
X105709D01*
Y356299D02*
Y358465D01*
X101378Y338484D02*
X105512D01*
X101378D02*
Y340650D01*
X105512D01*
Y338484D02*
Y340650D01*
X70571Y335236D02*
X72736D01*
X70571Y331102D02*
Y335236D01*
X72736Y331102D02*
Y335236D01*
X70571Y331102D02*
X72736D01*
X44193Y334449D02*
X48327D01*
X44193D02*
Y336614D01*
X48327D01*
Y334449D02*
Y336614D01*
X53051Y325787D02*
X57185D01*
X53051D02*
Y327953D01*
X57185D01*
Y325787D02*
Y327953D01*
X101378Y333957D02*
X105512D01*
X101378D02*
Y336122D01*
X105512D01*
Y333957D02*
Y336122D01*
X56988Y304528D02*
X59154D01*
X56988Y300394D02*
Y304528D01*
X59154Y300394D02*
Y304528D01*
X56988Y300394D02*
X59154D01*
X43504Y304528D02*
X45669D01*
X43504Y300394D02*
Y304528D01*
X45669Y300394D02*
Y304528D01*
X43504Y300394D02*
X45669D01*
X52461Y304528D02*
X54626D01*
X52461Y300394D02*
Y304528D01*
X54626Y300394D02*
Y304528D01*
X52461Y300394D02*
X54626D01*
X47933Y304528D02*
X50099D01*
X47933Y300394D02*
Y304528D01*
X50099Y300394D02*
Y304528D01*
X47933Y300394D02*
X50099D01*
X72047Y391536D02*
X74213D01*
X72047Y387402D02*
Y391536D01*
X74213Y387402D02*
Y391536D01*
X72047Y387402D02*
X74213D01*
X134547Y416437D02*
X136713D01*
X134547Y412303D02*
Y416437D01*
X136713Y412303D02*
Y416437D01*
X134547Y412303D02*
X136713D01*
X143405Y403445D02*
X147539D01*
X143405D02*
Y405610D01*
X147539D01*
Y403445D02*
Y405610D01*
X272244Y421654D02*
X276378D01*
X272244D02*
Y423819D01*
X276378D01*
Y421654D02*
Y423819D01*
X274902Y426181D02*
X279035D01*
X274902D02*
Y428346D01*
X279035D01*
Y426181D02*
Y428346D01*
X265256Y348327D02*
X267421D01*
X265256Y344193D02*
Y348327D01*
X267421Y344193D02*
Y348327D01*
X265256Y344193D02*
X267421D01*
X281004Y412106D02*
X283169D01*
X281004Y407972D02*
Y412106D01*
X283169Y407972D02*
Y412106D01*
X281004Y407972D02*
X283169D01*
X280217Y383563D02*
X284350D01*
X280217D02*
Y385728D01*
X284350D01*
Y383563D02*
Y385728D01*
X269783Y434252D02*
X271949D01*
X269783Y430118D02*
Y434252D01*
X271949Y430118D02*
Y434252D01*
X269783Y430118D02*
X271949D01*
X270965Y377264D02*
X275098D01*
X270965D02*
Y379429D01*
X275098D01*
Y377264D02*
Y379429D01*
X268898Y388287D02*
X273032D01*
X268898D02*
Y390453D01*
X273032D01*
Y388287D02*
Y390453D01*
X275590Y394095D02*
X279725D01*
X275590D02*
Y396260D01*
X279725D01*
Y394095D02*
Y396260D01*
X307283Y229922D02*
X311417D01*
X307283D02*
Y232087D01*
X311417D01*
Y229922D02*
Y232087D01*
X311614Y319784D02*
X315748D01*
X311614D02*
Y321949D01*
X315748D01*
Y319784D02*
Y321949D01*
X308957Y291733D02*
X311122D01*
X308957Y287598D02*
Y291733D01*
X311122Y287598D02*
Y291733D01*
X308957Y287598D02*
X311122D01*
X308858Y277953D02*
X311024D01*
X308858Y273819D02*
Y277953D01*
X311024Y273819D02*
Y277953D01*
X308858Y273819D02*
X311024D01*
X305709Y302559D02*
X307874D01*
X305709Y298425D02*
Y302559D01*
X307874Y298425D02*
Y302559D01*
X305709Y298425D02*
X307874D01*
X296162Y277953D02*
X298327D01*
X296162Y273819D02*
Y277953D01*
X298327Y273819D02*
Y277953D01*
X296162Y273819D02*
X298327D01*
X296850Y302559D02*
X299016D01*
X296850Y298425D02*
Y302559D01*
X299016Y298425D02*
Y302559D01*
X296850Y298425D02*
X299016D01*
X305020Y288288D02*
X307185D01*
X305020Y284154D02*
Y288288D01*
X307185Y284154D02*
Y288288D01*
X305020Y284154D02*
X307185D01*
X296162Y287795D02*
X298327D01*
X296162Y283662D02*
Y287795D01*
X298327Y283662D02*
Y287795D01*
X296162Y283662D02*
X298327D01*
X312992Y288189D02*
X315157D01*
X312992Y284055D02*
Y288189D01*
X315157Y284055D02*
Y288189D01*
X312992Y284055D02*
X315157D01*
X289764Y293898D02*
X291929D01*
X289764Y289764D02*
Y293898D01*
X291929Y289764D02*
Y293898D01*
X289764Y289764D02*
X291929D01*
X288780Y270866D02*
X290945D01*
X288780Y266732D02*
Y270866D01*
X290945Y266732D02*
Y270866D01*
X288780Y266732D02*
X290945D01*
X290453Y302559D02*
X292618D01*
X290453Y298425D02*
Y302559D01*
X292618Y298425D02*
Y302559D01*
X290453Y298425D02*
X292618D01*
X296162Y277953D02*
X298327D01*
X296162Y273819D02*
Y277953D01*
X298327Y273819D02*
Y277953D01*
X296162Y273819D02*
X298327D01*
X301870Y302559D02*
X304035D01*
X301870Y298425D02*
Y302559D01*
X304035Y298425D02*
Y302559D01*
X301870Y298425D02*
X304035D01*
X302658Y277953D02*
X304823D01*
X302658Y273819D02*
Y277953D01*
X304823Y273819D02*
Y277953D01*
X302658Y273819D02*
X304823D01*
X309646Y302559D02*
X311811D01*
X309646Y298425D02*
Y302559D01*
X311811Y298425D02*
Y302559D01*
X309646Y298425D02*
X311811D01*
X302067Y302559D02*
X304232D01*
X302067Y298425D02*
Y302559D01*
X304232Y298425D02*
Y302559D01*
X302067Y298425D02*
X304232D01*
X300591Y288288D02*
X302756D01*
X300591Y284154D02*
Y288288D01*
X302756Y284154D02*
Y288288D01*
X300591Y284154D02*
X302756D01*
X306102Y302559D02*
X308268D01*
X306102Y298425D02*
Y302559D01*
X308268Y298425D02*
Y302559D01*
X306102Y298425D02*
X308268D01*
X317126Y293996D02*
X319291D01*
X317126Y289862D02*
Y293996D01*
X319291Y289862D02*
Y293996D01*
X317126Y289862D02*
X319291D01*
X321457Y302559D02*
X323622D01*
X321457Y298425D02*
Y302559D01*
X323622Y298425D02*
Y302559D01*
X321457Y298425D02*
X323622D01*
X321358Y291536D02*
X323524D01*
X321358Y287402D02*
Y291536D01*
X323524Y287402D02*
Y291536D01*
X321358Y287402D02*
X323524D01*
X325787Y302559D02*
X327953D01*
X325787Y298425D02*
Y302559D01*
X327953Y298425D02*
Y302559D01*
X325787Y298425D02*
X327953D01*
X321457Y302559D02*
X323622D01*
X321457Y298425D02*
Y302559D01*
X323622Y298425D02*
Y302559D01*
X321457Y298425D02*
X323622D01*
X319291Y272933D02*
X323425D01*
X319291D02*
Y275098D01*
X323425D01*
Y272933D02*
Y275098D01*
X292323Y302559D02*
X294488D01*
X292323Y298425D02*
Y302559D01*
X294488Y298425D02*
Y302559D01*
X292323Y298425D02*
X294488D01*
X277067Y44980D02*
X280807D01*
X277067Y51673D02*
X280807D01*
X277067Y44980D02*
Y51673D01*
X280807Y44980D02*
Y51673D01*
X256004Y96063D02*
X259744D01*
X256004Y102756D02*
X259744D01*
X256004Y96063D02*
Y102756D01*
X259744Y96063D02*
Y102756D01*
X253445Y113485D02*
Y117225D01*
Y113485D02*
X260138D01*
X253445Y117225D02*
X260138D01*
Y113485D02*
Y117225D01*
X187303Y90650D02*
X193996D01*
X187303D02*
Y94390D01*
X193996D01*
Y90650D02*
Y94390D01*
X215256Y144981D02*
X218996D01*
X215256Y151673D02*
X218996D01*
X215256Y144981D02*
Y151673D01*
X218996Y144981D02*
Y151673D01*
X188780Y79922D02*
X195472D01*
X188780D02*
Y83662D01*
X195472D01*
Y79922D02*
Y83662D01*
X187402Y97343D02*
X194095D01*
X187402D02*
Y101083D01*
X194095D01*
Y97343D02*
Y101083D01*
X187303Y103937D02*
X193996D01*
X187303D02*
Y107677D01*
X193996D01*
Y103937D02*
Y107677D01*
X272146Y57973D02*
X278839D01*
X272146D02*
Y61713D01*
X278839D01*
Y57973D02*
Y61713D01*
X187402Y110532D02*
X194095D01*
X187402D02*
Y114272D01*
X194095D01*
Y110532D02*
Y114272D01*
X187402Y117028D02*
X194095D01*
X187402D02*
Y120768D01*
X194095D01*
Y117028D02*
Y120768D01*
X278937Y64567D02*
Y68307D01*
Y64567D02*
X285630D01*
X278937Y68307D02*
X285630D01*
Y64567D02*
Y68307D01*
X278937Y71359D02*
Y75099D01*
Y71359D02*
X285630D01*
X278937Y75099D02*
X285630D01*
Y71359D02*
Y75099D01*
X272047Y67815D02*
X278740D01*
X272047D02*
Y71555D01*
X278740D01*
Y67815D02*
Y71555D01*
X272146Y74016D02*
X278839D01*
X272146D02*
Y77756D01*
X278839D01*
Y74016D02*
Y77756D01*
X272146Y80512D02*
X278839D01*
X272146D02*
Y84252D01*
X278839D01*
Y80512D02*
Y84252D01*
X279035Y78150D02*
Y81890D01*
Y78150D02*
X285728D01*
X279035Y81890D02*
X285728D01*
Y78150D02*
Y81890D01*
X266535Y130413D02*
X270275D01*
X266535Y137106D02*
X270275D01*
X266535Y130413D02*
Y137106D01*
X270275Y130413D02*
Y137106D01*
X279232Y85433D02*
Y89173D01*
Y85433D02*
X285925D01*
X279232Y89173D02*
X285925D01*
Y85433D02*
Y89173D01*
X220473Y115748D02*
Y119488D01*
Y115748D02*
X227165D01*
X220473Y119488D02*
X227165D01*
Y115748D02*
Y119488D01*
X278839Y57973D02*
X285531D01*
X278839D02*
Y61713D01*
X285531D01*
Y57973D02*
Y61713D01*
X279134Y92422D02*
Y96162D01*
Y92422D02*
X285827D01*
X279134Y96162D02*
X285827D01*
Y92422D02*
Y96162D01*
X216339Y56201D02*
X223031D01*
X216339D02*
Y59941D01*
X223031D01*
Y56201D02*
Y59941D01*
X278740Y123130D02*
Y126870D01*
Y123130D02*
X285433D01*
X278740Y126870D02*
X285433D01*
Y123130D02*
Y126870D01*
X217421Y69292D02*
X224114D01*
X217421D02*
Y73032D01*
X224114D01*
Y69292D02*
Y73032D01*
X261024Y144981D02*
X264764D01*
X261024Y151673D02*
X264764D01*
X261024Y144981D02*
Y151673D01*
X264764Y144981D02*
Y151673D01*
X251378Y144981D02*
X255118D01*
X251378Y151673D02*
X255118D01*
X251378Y144981D02*
Y151673D01*
X255118Y144981D02*
Y151673D01*
X216437Y62697D02*
X223130D01*
X216437D02*
Y66437D01*
X223130D01*
Y62697D02*
Y66437D01*
X222441Y144882D02*
X226181D01*
X222441Y151575D02*
X226181D01*
X222441Y144882D02*
Y151575D01*
X226181Y144882D02*
Y151575D01*
X229528Y144882D02*
X233268D01*
X229528Y151575D02*
X233268D01*
X229528Y144882D02*
Y151575D01*
X233268Y144882D02*
Y151575D01*
X236122Y144882D02*
X239862D01*
X236122Y151575D02*
X239862D01*
X236122Y144882D02*
Y151575D01*
X239862Y144882D02*
Y151575D01*
X242717Y144882D02*
X246457D01*
X242717Y151575D02*
X246457D01*
X242717Y144882D02*
Y151575D01*
X246457Y144882D02*
Y151575D01*
X203839Y40158D02*
X206004D01*
X203839Y36024D02*
Y40158D01*
X206004Y36024D02*
Y40158D01*
X203839Y36024D02*
X206004D01*
X215354Y89272D02*
X219094D01*
X215354Y95965D02*
X219094D01*
X215354Y89272D02*
Y95965D01*
X219094Y89272D02*
Y95965D01*
X256784Y43307D02*
X260524D01*
X256784Y50000D02*
X260524D01*
X256784Y43307D02*
Y50000D01*
X260524Y43307D02*
Y50000D01*
X243799Y43307D02*
X247539D01*
X243799Y50000D02*
X247539D01*
X243799Y43307D02*
Y50000D01*
X247539Y43307D02*
Y50000D01*
X230414Y43307D02*
X234154D01*
X230414Y50000D02*
X234154D01*
X230414Y43307D02*
Y50000D01*
X234154Y43307D02*
Y50000D01*
X217709Y43307D02*
X221449D01*
X217709Y50000D02*
X221449D01*
X217709Y43307D02*
Y50000D01*
X221449Y43307D02*
Y50000D01*
X263091Y43307D02*
X266831D01*
X263091Y50000D02*
X266831D01*
X263091Y43307D02*
Y50000D01*
X266831Y43307D02*
Y50000D01*
X250197Y43307D02*
X253937D01*
X250197Y50000D02*
X253937D01*
X250197Y43307D02*
Y50000D01*
X253937Y43307D02*
Y50000D01*
X237106Y43307D02*
X240846D01*
X237106Y50000D02*
X240846D01*
X237106Y43307D02*
Y50000D01*
X240846Y43307D02*
Y50000D01*
X223614Y43307D02*
X227354D01*
X223614Y50000D02*
X227354D01*
X223614Y43307D02*
Y50000D01*
X227354Y43307D02*
Y50000D01*
X55118Y109351D02*
X61811D01*
X55118D02*
Y113091D01*
X61811D01*
Y109351D02*
Y113091D01*
X55118Y116043D02*
X61811D01*
X55118D02*
Y119783D01*
X61811D01*
Y116043D02*
Y119783D01*
X55118Y128937D02*
X61811D01*
X55118D02*
Y132677D01*
X61811D01*
Y128937D02*
Y132677D01*
X55020Y122539D02*
X61712D01*
X55020D02*
Y126279D01*
X61712D01*
Y122539D02*
Y126279D01*
X178150Y60827D02*
X184843D01*
X178150D02*
Y64567D01*
X184843D01*
Y60827D02*
Y64567D01*
X202953Y34449D02*
X206693D01*
X202953Y41142D02*
X206693D01*
X202953Y34449D02*
Y41142D01*
X206693Y34449D02*
Y41142D01*
X395768Y114961D02*
Y118701D01*
Y114961D02*
X402461D01*
X395768Y118701D02*
X402461D01*
Y114961D02*
Y118701D01*
X371063Y55020D02*
X377756D01*
X371063D02*
Y58760D01*
X377756D01*
Y55020D02*
Y58760D01*
X332677Y103937D02*
X336417D01*
X332677Y110630D02*
X336417D01*
X332677Y103937D02*
Y110630D01*
X336417Y103937D02*
Y110630D01*
X395473Y108465D02*
Y112205D01*
Y108465D02*
X402165D01*
X395473Y112205D02*
X402165D01*
Y108465D02*
Y112205D01*
X304921Y89666D02*
X311614D01*
X304921D02*
Y93406D01*
X311614D01*
Y89666D02*
Y93406D01*
X335433Y144390D02*
X339173D01*
X335433Y151083D02*
X339173D01*
X335433Y144390D02*
Y151083D01*
X339173Y144390D02*
Y151083D01*
X305315Y78740D02*
X312008D01*
X305315D02*
Y82480D01*
X312008D01*
Y78740D02*
Y82480D01*
X304921Y97146D02*
X311614D01*
X304921D02*
Y100886D01*
X311614D01*
Y97146D02*
Y100886D01*
X304921Y104134D02*
X311614D01*
X304921D02*
Y107874D01*
X311614D01*
Y104134D02*
Y107874D01*
X395374Y55807D02*
Y59547D01*
Y55807D02*
X402067D01*
X395374Y59547D02*
X402067D01*
Y55807D02*
Y59547D01*
X304823Y110925D02*
X311516D01*
X304823D02*
Y114665D01*
X311516D01*
Y110925D02*
Y114665D01*
X305020Y117815D02*
X311713D01*
X305020D02*
Y121555D01*
X311713D01*
Y117815D02*
Y121555D01*
X394488Y58170D02*
X401181D01*
X394488D02*
Y61910D01*
X401181D01*
Y58170D02*
Y61910D01*
X394390Y64862D02*
X401083D01*
X394390D02*
Y68602D01*
X401083D01*
Y64862D02*
Y68602D01*
X395374Y62697D02*
Y66437D01*
Y62697D02*
X402067D01*
X395374Y66437D02*
X402067D01*
Y62697D02*
Y66437D01*
X395374Y69488D02*
Y73228D01*
Y69488D02*
X402067D01*
X395374Y73228D02*
X402067D01*
Y69488D02*
Y73228D01*
X395374Y76378D02*
Y80118D01*
Y76378D02*
X402067D01*
X395374Y80118D02*
X402067D01*
Y76378D02*
Y80118D01*
X394488Y51674D02*
Y55414D01*
Y51674D02*
X401181D01*
X394488Y55414D02*
X401181D01*
Y51674D02*
Y55414D01*
X394291Y71654D02*
X400984D01*
X394291D02*
Y75394D01*
X400984D01*
Y71654D02*
Y75394D01*
X384646Y132185D02*
Y135925D01*
Y132185D02*
X391338D01*
X384646Y135925D02*
X391338D01*
Y132185D02*
Y135925D01*
X394193Y78642D02*
X400886D01*
X394193D02*
Y82382D01*
X400886D01*
Y78642D02*
Y82382D01*
X340846Y118307D02*
Y122047D01*
Y118307D02*
X347539D01*
X340846Y122047D02*
X347539D01*
Y118307D02*
Y122047D01*
X394095Y85236D02*
X400787D01*
X394095D02*
Y88976D01*
X400787D01*
Y85236D02*
Y88976D01*
X334154Y58760D02*
X340846D01*
X334154D02*
Y62500D01*
X340846D01*
Y58760D02*
Y62500D01*
X395768Y121359D02*
Y125099D01*
Y121359D02*
X402461D01*
X395768Y125099D02*
X402461D01*
Y121359D02*
Y125099D01*
X334055Y71555D02*
X340748D01*
X334055D02*
Y75295D01*
X340748D01*
Y71555D02*
Y75295D01*
X379528Y143996D02*
X383268D01*
X379528Y150689D02*
X383268D01*
X379528Y143996D02*
Y150689D01*
X383268Y143996D02*
Y150689D01*
X370866Y144193D02*
X374606D01*
X370866Y150886D02*
X374606D01*
X370866Y144193D02*
Y150886D01*
X374606Y144193D02*
Y150886D01*
X334055Y65355D02*
X340748D01*
X334055D02*
Y69095D01*
X340748D01*
Y65355D02*
Y69095D01*
X342815Y144193D02*
X346555D01*
X342815Y150886D02*
X346555D01*
X342815Y144193D02*
Y150886D01*
X346555Y144193D02*
Y150886D01*
X349902Y143996D02*
X353642D01*
X349902Y150689D02*
X353642D01*
X349902Y143996D02*
Y150689D01*
X353642Y143996D02*
Y150689D01*
X356988Y144095D02*
X360728D01*
X356988Y150787D02*
X360728D01*
X356988Y144095D02*
Y150787D01*
X360728Y144095D02*
Y150787D01*
X363878Y144095D02*
X367618D01*
X363878Y150787D02*
X367618D01*
X363878Y144095D02*
Y150787D01*
X367618Y144095D02*
Y150787D01*
X321162Y37500D02*
X323327D01*
X321162Y33366D02*
Y37500D01*
X323327Y33366D02*
Y37500D01*
X321162Y33366D02*
X323327D01*
X332677Y91044D02*
X336417D01*
X332677Y97736D02*
X336417D01*
X332677Y91044D02*
Y97736D01*
X336417Y91044D02*
Y97736D01*
X374213Y42520D02*
X377953D01*
X374213Y49213D02*
X377953D01*
X374213Y42520D02*
Y49213D01*
X377953Y42520D02*
Y49213D01*
X361614Y42520D02*
X365354D01*
X361614Y49213D02*
X365354D01*
X361614Y42520D02*
Y49213D01*
X365354Y42520D02*
Y49213D01*
X348032Y42520D02*
X351772D01*
X348032Y49213D02*
X351772D01*
X348032Y42520D02*
Y49213D01*
X351772Y42520D02*
Y49213D01*
X335335Y42717D02*
X339075D01*
X335335Y49409D02*
X339075D01*
X335335Y42717D02*
Y49409D01*
X339075Y42717D02*
Y49409D01*
X380709Y42520D02*
X384449D01*
X380709Y49213D02*
X384449D01*
X380709Y42520D02*
Y49213D01*
X384449Y42520D02*
Y49213D01*
X368012Y42520D02*
X371752D01*
X368012Y49213D02*
X371752D01*
X368012Y42520D02*
Y49213D01*
X371752Y42520D02*
Y49213D01*
X354331Y42520D02*
X358071D01*
X354331Y49213D02*
X358071D01*
X354331Y42520D02*
Y49213D01*
X358071Y42520D02*
Y49213D01*
X341732Y42717D02*
X345472D01*
X341732Y49409D02*
X345472D01*
X341732Y42717D02*
Y49409D01*
X345472Y42717D02*
Y49409D01*
X293504Y61614D02*
X300197D01*
X293504D02*
Y65354D01*
X300197D01*
Y61614D02*
Y65354D01*
X293504Y69193D02*
X300197D01*
X293504D02*
Y72933D01*
X300197D01*
Y69193D02*
Y72933D01*
X239862Y403543D02*
X243996D01*
X239862D02*
Y405709D01*
X243996D01*
Y403543D02*
Y405709D01*
X62894Y265453D02*
X65059D01*
X62894Y261319D02*
Y265453D01*
X65059Y261319D02*
Y265453D01*
X62894Y261319D02*
X65059D01*
X32185Y304528D02*
X34350D01*
X32185Y300394D02*
Y304528D01*
X34350Y300394D02*
Y304528D01*
X32185Y300394D02*
X34350D01*
X67913Y264961D02*
X72047D01*
X67913D02*
Y267126D01*
X72047D01*
Y264961D02*
Y267126D01*
X63779Y269587D02*
X67914D01*
X63779D02*
Y271752D01*
X67914D01*
Y269587D02*
Y271752D01*
X27165Y250098D02*
X31299D01*
X27165D02*
Y252264D01*
X31299D01*
Y250098D02*
Y252264D01*
X48720Y257677D02*
X50886D01*
X48720Y253543D02*
Y257677D01*
X50886Y253543D02*
Y257677D01*
X48720Y253543D02*
X50886D01*
X55413Y239075D02*
X59547D01*
X55413D02*
Y241240D01*
X59547D01*
Y239075D02*
Y241240D01*
X27264Y234941D02*
X31398D01*
X27264D02*
Y237106D01*
X31398D01*
Y234941D02*
Y237106D01*
X47539Y239075D02*
X51673D01*
X47539D02*
Y241240D01*
X51673D01*
Y239075D02*
Y241240D01*
X54725Y248327D02*
X56890D01*
X54725Y244193D02*
Y248327D01*
X56890Y244193D02*
Y248327D01*
X54725Y244193D02*
X56890D01*
X67618Y210532D02*
X71752D01*
X67618D02*
Y212697D01*
X71752D01*
Y210532D02*
Y212697D01*
X62205Y210335D02*
X64370D01*
X62205Y206201D02*
Y210335D01*
X64370Y206201D02*
Y210335D01*
X62205Y206201D02*
X64370D01*
X62106Y218307D02*
X64272D01*
X62106Y214173D02*
Y218307D01*
X64272Y214173D02*
Y218307D01*
X62106Y214173D02*
X64272D01*
X57677Y214567D02*
X59842D01*
X57677Y210433D02*
Y214567D01*
X59842Y210433D02*
Y214567D01*
X57677Y210433D02*
X59842D01*
X57283Y224803D02*
X61417D01*
X57283D02*
Y226968D01*
X61417D01*
Y224803D02*
Y226968D01*
X52165Y226181D02*
X54331D01*
X52165Y222047D02*
Y226181D01*
X54331Y222047D02*
Y226181D01*
X52165Y222047D02*
X54331D01*
X64961Y231299D02*
X67126D01*
X64961Y227165D02*
Y231299D01*
X67126Y227165D02*
Y231299D01*
X64961Y227165D02*
X67126D01*
X27264Y230610D02*
X31398D01*
X27264D02*
Y232775D01*
X31398D01*
Y230610D02*
Y232775D01*
X57283Y220079D02*
X61417D01*
X57283D02*
Y222244D01*
X61417D01*
Y220079D02*
Y222244D01*
X135728Y238681D02*
X137894D01*
X135728Y234547D02*
Y238681D01*
X137894Y234547D02*
Y238681D01*
X135728Y234547D02*
X137894D01*
X123819Y228642D02*
X127953D01*
X123819D02*
Y230807D01*
X127953D01*
Y228642D02*
Y230807D01*
X127165Y237795D02*
X129331D01*
X127165Y233661D02*
Y237795D01*
X129331Y233661D02*
Y237795D01*
X127165Y233661D02*
X129331D01*
X122933Y237795D02*
X125098D01*
X122933Y233661D02*
Y237795D01*
X125098Y233661D02*
Y237795D01*
X122933Y233661D02*
X125098D01*
X125394Y216831D02*
X127559D01*
X125394Y212697D02*
Y216831D01*
X127559Y212697D02*
Y216831D01*
X125394Y212697D02*
X127559D01*
X121063Y212795D02*
X123228D01*
X121063Y208661D02*
Y212795D01*
X123228Y208661D02*
Y212795D01*
X121063Y208661D02*
X123228D01*
X130020Y217126D02*
X132185D01*
X130020Y212992D02*
Y217126D01*
X132185Y212992D02*
Y217126D01*
X130020Y212992D02*
X132185D01*
X79528Y211319D02*
X81693D01*
X79528Y207185D02*
Y211319D01*
X81693Y207185D02*
Y211319D01*
X79528Y207185D02*
X81693D01*
X125394Y208858D02*
X127559D01*
X125394Y204724D02*
Y208858D01*
X127559Y204724D02*
Y208858D01*
X125394Y204724D02*
X127559D01*
X142028Y227658D02*
X144193D01*
X142028Y223523D02*
Y227658D01*
X144193Y223523D02*
Y227658D01*
X142028Y223523D02*
X144193D01*
X156693Y223524D02*
X158858D01*
X156693Y219390D02*
Y223524D01*
X158858Y219390D02*
Y223524D01*
X156693Y219390D02*
X158858D01*
X159547Y224705D02*
X163681D01*
X159547D02*
Y226870D01*
X163681D01*
Y224705D02*
Y226870D01*
X156693Y231398D02*
X158858D01*
X156693Y227264D02*
Y231398D01*
X158858Y227264D02*
Y231398D01*
X156693Y227264D02*
X158858D01*
X358858Y273425D02*
X362992D01*
X358858D02*
Y275590D01*
X362992D01*
Y273425D02*
Y275590D01*
X367028Y282677D02*
X369193D01*
X367028Y278543D02*
Y282677D01*
X369193Y278543D02*
Y282677D01*
X367028Y278543D02*
X369193D01*
X75197Y180807D02*
X77362D01*
X75197Y176673D02*
Y180807D01*
X77362Y176673D02*
Y180807D01*
X75197Y176673D02*
X77362D01*
X75197Y173032D02*
X77362D01*
X75197Y168898D02*
Y173032D01*
X77362Y168898D02*
Y173032D01*
X75197Y168898D02*
X77362D01*
X122146Y160236D02*
X124311D01*
X122146Y156102D02*
Y160236D01*
X124311Y156102D02*
Y160236D01*
X122146Y156102D02*
X124311D01*
X86024Y190847D02*
X88189D01*
X86024Y186713D02*
Y190847D01*
X88189Y186713D02*
Y190847D01*
X86024Y186713D02*
X88189D01*
X109055Y191634D02*
X113189D01*
X109055D02*
Y193799D01*
X113189D01*
Y191634D02*
Y193799D01*
X62894Y189272D02*
X65059D01*
X62894Y185138D02*
Y189272D01*
X65059Y185138D02*
Y189272D01*
X62894Y185138D02*
X65059D01*
X77264Y174311D02*
X81398D01*
X77264D02*
Y176476D01*
X81398D01*
Y174311D02*
Y176476D01*
X90453Y190847D02*
X92618D01*
X90453Y186713D02*
Y190847D01*
X92618Y186713D02*
Y190847D01*
X90453Y186713D02*
X92618D01*
X77264Y178937D02*
X81398D01*
X77264D02*
Y181102D01*
X81398D01*
Y178937D02*
Y181102D01*
X131693Y158366D02*
X135827D01*
X131693D02*
Y160531D01*
X135827D01*
Y158366D02*
Y160531D01*
X80118Y184941D02*
X82284D01*
X80118Y180807D02*
Y184941D01*
X82284Y180807D02*
Y184941D01*
X80118Y180807D02*
X82284D01*
X279527Y165453D02*
X283662D01*
X279527D02*
Y167618D01*
X283662D01*
Y165453D02*
Y167618D01*
X272047Y160138D02*
X274213D01*
X272047Y156004D02*
Y160138D01*
X274213Y156004D02*
Y160138D01*
X272047Y156004D02*
X274213D01*
X194783Y416831D02*
X196949D01*
X194783Y412697D02*
Y416831D01*
X196949Y412697D02*
Y416831D01*
X194783Y412697D02*
X196949D01*
X194827Y408961D02*
X196992D01*
X194827Y404827D02*
Y408961D01*
X196992Y404827D02*
Y408961D01*
X194827Y404827D02*
X196992D01*
X203295Y420575D02*
X205461D01*
X203295Y416441D02*
Y420575D01*
X205461Y416441D02*
Y420575D01*
X203295Y416441D02*
X205461D01*
X246358Y369095D02*
X250492D01*
X246358D02*
Y371260D01*
X250492D01*
Y369095D02*
Y371260D01*
X246063Y389764D02*
X250197D01*
X246063D02*
Y391929D01*
X250197D01*
Y389764D02*
Y391929D01*
X92716Y338583D02*
X96851D01*
X92716D02*
Y340748D01*
X96851D01*
Y338583D02*
Y340748D01*
X92618Y342815D02*
X96752D01*
X92618D02*
Y344980D01*
X96752D01*
Y342815D02*
Y344980D01*
X27854Y350394D02*
X31988D01*
X27854D02*
Y352559D01*
X31988D01*
Y350394D02*
Y352559D01*
X124606Y404823D02*
X126772D01*
X124606Y400689D02*
Y404823D01*
X126772Y400689D02*
Y404823D01*
X124606Y400689D02*
X126772D01*
X44390Y335729D02*
X48524D01*
X44390D02*
Y337894D01*
X48524D01*
Y335729D02*
Y337894D01*
X97638Y422441D02*
X99803D01*
X97638Y418307D02*
Y422441D01*
X99803Y418307D02*
Y422441D01*
X97638Y418307D02*
X99803D01*
X81594Y336516D02*
X85728D01*
X81594D02*
Y338681D01*
X85728D01*
Y336516D02*
Y338681D01*
X241043Y311221D02*
X243209D01*
X241043Y307087D02*
Y311221D01*
X243209Y307087D02*
Y311221D01*
X241043Y307087D02*
X243209D01*
X241240Y303445D02*
X243406D01*
X241240Y299311D02*
Y303445D01*
X243406Y299311D02*
Y303445D01*
X241240Y299311D02*
X243406D01*
X234449Y242914D02*
X236614D01*
X234449D02*
Y247047D01*
X236614Y242914D02*
Y247047D01*
X234449D02*
X236614D01*
X244488Y204331D02*
X246654D01*
X244488Y200197D02*
Y204331D01*
X246654Y200197D02*
Y204331D01*
X244488Y200197D02*
X246654D01*
X249311Y204528D02*
X251476D01*
X249311Y200394D02*
Y204528D01*
X251476Y200394D02*
Y204528D01*
X249311Y200394D02*
X251476D01*
X266831Y204626D02*
X268996D01*
X266831Y200492D02*
Y204626D01*
X268996Y200492D02*
Y204626D01*
X266831Y200492D02*
X268996D01*
X239961Y204331D02*
X242126D01*
X239961Y200197D02*
Y204331D01*
X242126Y200197D02*
Y204331D01*
X239961Y200197D02*
X242126D01*
X283760Y204626D02*
X285925D01*
X283760Y200492D02*
Y204626D01*
X285925Y200492D02*
Y204626D01*
X283760Y200492D02*
X285925D01*
X345079Y209547D02*
X349213D01*
X345079D02*
Y211713D01*
X349213D01*
Y209547D02*
Y211713D01*
X345079Y192323D02*
X349213D01*
X345079D02*
Y194488D01*
X349213D01*
Y192323D02*
Y194488D01*
X194390Y237106D02*
X198524D01*
X194390D02*
Y239272D01*
X198524D01*
Y237106D02*
Y239272D01*
X377165Y248425D02*
X381299D01*
X377165D02*
Y250590D01*
X381299D01*
Y248425D02*
Y250590D01*
X267126Y223031D02*
X269291D01*
X267126Y218898D02*
Y223031D01*
X269291Y218898D02*
Y223031D01*
X267126Y218898D02*
X269291D01*
X262894Y223031D02*
X265059D01*
X262894Y218898D02*
Y223031D01*
X265059Y218898D02*
Y223031D01*
X262894Y218898D02*
X265059D01*
X363681Y443996D02*
X365846D01*
X363681Y439862D02*
Y443996D01*
X365846Y439862D02*
Y443996D01*
X363681Y439862D02*
X365846D01*
X365945Y454134D02*
X370079D01*
X365945D02*
Y456299D01*
X370079D01*
Y454134D02*
Y456299D01*
X360138Y425689D02*
X364272D01*
X360138D02*
Y427854D01*
X364272D01*
Y425689D02*
Y427854D01*
X372736Y448524D02*
X374902D01*
X372736Y444390D02*
Y448524D01*
X374902Y444390D02*
Y448524D01*
X372736Y444390D02*
X374902D01*
X346850Y438091D02*
X350984D01*
X346850D02*
Y440256D01*
X350984D01*
Y438091D02*
Y440256D01*
X390748Y428740D02*
X394882D01*
X390748D02*
Y430905D01*
X394882D01*
Y428740D02*
Y430905D01*
X382283Y424311D02*
X386417D01*
X382283D02*
Y426476D01*
X386417D01*
Y424311D02*
Y426476D01*
X337795Y448228D02*
X339961D01*
X337795Y444094D02*
Y448228D01*
X339961Y444094D02*
Y448228D01*
X337795Y444094D02*
X339961D01*
X351969Y448327D02*
X354134D01*
X351969Y444193D02*
Y448327D01*
X354134Y444193D02*
Y448327D01*
X351969Y444193D02*
X354134D01*
X342126Y448228D02*
X344291D01*
X342126Y444094D02*
Y448228D01*
X344291Y444094D02*
Y448228D01*
X342126Y444094D02*
X344291D01*
X390748Y424311D02*
X394882D01*
X390748D02*
Y426476D01*
X394882D01*
Y424311D02*
Y426476D01*
X383071Y405315D02*
X387205D01*
X383071D02*
Y407480D01*
X387205D01*
Y405315D02*
Y407480D01*
X329232Y451673D02*
X333366D01*
X329232D02*
Y453838D01*
X333366D01*
Y451673D02*
Y453838D01*
X365551Y449705D02*
X369685D01*
X365551D02*
Y451870D01*
X369685D01*
Y449705D02*
Y451870D01*
X347736Y449213D02*
X349902D01*
X347736D02*
Y453346D01*
X349902Y449213D02*
Y453346D01*
X347736D02*
X349902D01*
X327264Y429626D02*
X331398D01*
X327264D02*
Y431791D01*
X331398D01*
Y429626D02*
Y431791D01*
X340650Y414665D02*
X342815D01*
X340650D02*
Y418799D01*
X342815Y414665D02*
Y418799D01*
X340650D02*
X342815D01*
X330906Y377461D02*
X333071D01*
X330906D02*
Y381595D01*
X333071Y377461D02*
Y381595D01*
X330906D02*
X333071D01*
X351870Y423819D02*
X356004D01*
X351870D02*
Y425984D01*
X356004D01*
Y423819D02*
Y425984D01*
X370768Y446162D02*
X372933D01*
X370768Y442028D02*
Y446162D01*
X372933Y442028D02*
Y446162D01*
X370768Y442028D02*
X372933D01*
X323622Y446555D02*
X325787D01*
X323622Y442421D02*
Y446555D01*
X325787Y442421D02*
Y446555D01*
X323622Y442421D02*
X325787D01*
X314665Y425295D02*
X318799D01*
X314665D02*
Y427460D01*
X318799D01*
Y425295D02*
Y427460D01*
X374902Y373130D02*
X377067D01*
X374902Y368996D02*
Y373130D01*
X377067Y368996D02*
Y373130D01*
X374902Y368996D02*
X377067D01*
X348032Y380118D02*
X350197D01*
X348032Y375984D02*
Y380118D01*
X350197Y375984D02*
Y380118D01*
X348032Y375984D02*
X350197D01*
X352559Y377756D02*
X354724D01*
X352559Y373622D02*
Y377756D01*
X354724Y373622D02*
Y377756D01*
X352559Y373622D02*
X354724D01*
X374902Y381595D02*
X377067D01*
X374902Y377461D02*
Y381595D01*
X377067Y377461D02*
Y381595D01*
X374902Y377461D02*
X377067D01*
X375492Y224410D02*
Y244882D01*
Y224410D02*
X401083D01*
X375492Y244882D02*
X401083D01*
Y224410D02*
Y244882D01*
X293323Y305610D02*
Y341043D01*
Y305610D02*
X348441D01*
X293323Y341043D02*
X348441D01*
Y305610D02*
Y341043D01*
X327138Y49996D02*
Y128736D01*
Y49996D02*
X382256D01*
X327138Y128736D02*
X382256D01*
Y49996D02*
Y128736D01*
X340531Y79362D02*
Y99835D01*
Y79362D02*
X369665D01*
X340531Y99835D02*
X369665D01*
Y79362D02*
Y99835D01*
X82677Y218701D02*
Y238780D01*
Y218701D02*
X102756D01*
X82677Y238780D02*
X102756D01*
Y218701D02*
Y238780D01*
X123189Y173819D02*
Y179725D01*
Y173819D02*
X135473D01*
X123189Y179725D02*
X135473D01*
Y173819D02*
Y179725D01*
X237067Y356693D02*
Y362598D01*
Y356693D02*
X249351D01*
X237067Y362598D02*
X249351D01*
Y356693D02*
Y362598D01*
X237165Y377559D02*
Y383465D01*
Y377559D02*
X249449D01*
X237165Y383465D02*
X249449D01*
Y377559D02*
Y383465D01*
X119941Y449410D02*
Y455906D01*
Y449410D02*
X125000D01*
X119941Y455906D02*
X125000D01*
Y449410D02*
Y455906D01*
X29453Y404429D02*
Y409488D01*
Y404429D02*
X35949D01*
X29453Y409488D02*
X35949D01*
Y404429D02*
Y409488D01*
X232283Y326870D02*
Y329823D01*
Y326870D02*
X235236D01*
X232283Y329823D02*
X235236D01*
Y326870D02*
Y329823D01*
X64961Y280315D02*
Y283268D01*
Y280315D02*
X67913D01*
X64961Y283268D02*
X67913D01*
Y280315D02*
Y283268D01*
X-9992Y2646D02*
Y68787D01*
Y2646D02*
X92783D01*
X-9992Y68787D02*
X92783D01*
Y2646D02*
Y68787D01*
X7087Y101654D02*
Y134173D01*
Y101654D02*
X27953D01*
X7087Y134173D02*
X27953D01*
Y101654D02*
Y134173D01*
X219807Y442894D02*
Y473524D01*
Y442894D02*
X267807D01*
X219807Y473524D02*
X267807D01*
Y442894D02*
Y473524D01*
X428346Y247933D02*
Y251673D01*
Y247933D02*
X435039D01*
X428346Y251673D02*
X435039D01*
Y247933D02*
Y251673D01*
X428346Y230610D02*
Y234350D01*
Y230610D02*
X435039D01*
X428346Y234350D02*
X435039D01*
Y230610D02*
Y234350D01*
X428346Y265059D02*
Y268799D01*
Y265059D02*
X435039D01*
X428346Y268799D02*
X435039D01*
Y265059D02*
Y268799D01*
X428346Y256398D02*
Y260138D01*
Y256398D02*
X435039D01*
X428346Y260138D02*
X435039D01*
Y256398D02*
Y260138D01*
X419193Y248721D02*
X423327D01*
X419193D02*
Y250886D01*
X423327D01*
Y248721D02*
Y250886D01*
X419193Y231398D02*
X423327D01*
X419193D02*
Y233563D01*
X423327D01*
Y231398D02*
Y233563D01*
X419193Y265945D02*
X423327D01*
X419193D02*
Y268110D01*
X423327D01*
Y265945D02*
Y268110D01*
X419193Y257283D02*
X423327D01*
X419193D02*
Y259449D01*
X423327D01*
Y257283D02*
Y259449D01*
X428346Y239862D02*
Y243602D01*
Y239862D02*
X435039D01*
X428346Y243602D02*
X435039D01*
Y239862D02*
Y243602D01*
X419193Y240650D02*
X423327D01*
X419193D02*
Y242815D01*
X423327D01*
Y240650D02*
Y242815D01*
X28740Y93504D02*
X32874D01*
X28740D02*
Y95669D01*
X32874D01*
Y93504D02*
Y95669D01*
X26280Y139665D02*
X30413D01*
X26280D02*
Y141831D01*
X30413D01*
Y139665D02*
Y141831D01*
X18012Y22835D02*
X20177D01*
X18012Y18701D02*
Y22835D01*
X20177Y18701D02*
Y22835D01*
X18012Y18701D02*
X20177D01*
X18799Y53051D02*
X20965D01*
X18799Y48917D02*
Y53051D01*
X20965Y48917D02*
Y53051D01*
X18799Y48917D02*
X20965D01*
X35138Y184449D02*
Y192913D01*
Y184449D02*
X40650D01*
X35138Y192913D02*
X40650D01*
Y184449D02*
Y192913D01*
X69016Y427973D02*
Y436398D01*
Y427973D02*
X74488D01*
X69016Y436398D02*
X74488D01*
Y427973D02*
Y436398D01*
X133760Y-2559D02*
Y40748D01*
Y-2559D02*
X157382D01*
X133760Y40748D02*
X157382D01*
Y-2559D02*
Y40748D01*
X352658Y440158D02*
Y450000D01*
Y440158D02*
X364469D01*
X352658Y450000D02*
X364469D01*
Y440158D02*
Y450000D01*
X334055Y438878D02*
Y450689D01*
Y438878D02*
X340748D01*
X334055Y450689D02*
X340748D01*
Y438878D02*
Y450689D01*
X325689Y426476D02*
Y435138D01*
Y426476D02*
X331004D01*
X325689Y435138D02*
X331004D01*
Y426476D02*
Y435138D01*
X315157Y383957D02*
Y401673D01*
Y383957D02*
X327362D01*
X315157Y401673D02*
X327362D01*
Y383957D02*
Y401673D01*
X38720Y243543D02*
X41201D01*
X38720D02*
Y244843D01*
X41201D01*
Y243543D02*
Y244843D01*
X375909Y200917D02*
X378272D01*
X375909Y196587D02*
Y200917D01*
X378272Y196587D02*
Y200917D01*
X375909Y196587D02*
X378272D01*
X101772Y261910D02*
Y268799D01*
Y261910D02*
X105512D01*
X101772Y268799D02*
X105512D01*
Y261910D02*
Y268799D01*
X168405Y143307D02*
X174114D01*
X168405Y151969D02*
X174114D01*
X168405Y143307D02*
Y151969D01*
X174114Y143307D02*
Y151969D01*
X91929Y261023D02*
X99016D01*
X91929Y274410D02*
X99016D01*
X91929Y261023D02*
Y274410D01*
X99016Y261023D02*
Y274410D01*
X11712Y264665D02*
X25098D01*
X11712D02*
Y275295D01*
X25098D01*
Y264665D02*
Y275295D01*
X8980Y442992D02*
Y473622D01*
Y442992D02*
X56980D01*
X8980Y473622D02*
X56980D01*
Y442992D02*
Y473622D01*
X395910Y275240D02*
X438571D01*
X395910D02*
Y340740D01*
X438571D01*
Y275240D02*
Y340740D01*
X293323Y234744D02*
Y270177D01*
Y234744D02*
X348441D01*
X293323Y270177D02*
X348441D01*
Y234744D02*
Y270177D01*
X195472Y386516D02*
Y393602D01*
Y386516D02*
X200787D01*
X195472Y393602D02*
X200787D01*
Y386516D02*
Y393602D01*
X278150Y444587D02*
Y454429D01*
Y444587D02*
X299410D01*
Y454429D01*
X278150D02*
X299410D01*
X361221Y373228D02*
Y385433D01*
Y373228D02*
X368110D01*
X361221Y385433D02*
X368110D01*
Y373228D02*
Y385433D01*
X210228Y50736D02*
Y129477D01*
Y50736D02*
X265347D01*
X210228Y129477D02*
X265347D01*
Y50736D02*
Y129477D01*
X336161Y395807D02*
Y431555D01*
Y395807D02*
X371909D01*
X336161Y431555D02*
X371909D01*
Y395807D02*
Y431555D01*
X110630Y57913D02*
X158661D01*
X110630D02*
Y126929D01*
X158661D01*
Y57913D02*
Y126929D01*
X221457Y409646D02*
Y425787D01*
Y409646D02*
X237598D01*
X221457Y425787D02*
X237598D01*
Y409646D02*
Y425787D01*
X298150Y16850D02*
X306575D01*
Y1850D02*
Y16850D01*
X298150Y1850D02*
Y16850D01*
Y1850D02*
X306575D01*
X37106Y47461D02*
X57972D01*
X37106Y14941D02*
X57972D01*
X37106D02*
Y47461D01*
X57972Y14941D02*
Y47461D01*
X283563Y424193D02*
Y464193D01*
Y424193D02*
X297539D01*
X283563Y464193D02*
X297539D01*
Y424193D02*
Y464193D01*
X60276Y248839D02*
Y271437D01*
Y248839D02*
X81654D01*
X60276Y271437D02*
X81654D01*
Y248839D02*
Y271437D01*
X168366Y385039D02*
X222382D01*
Y358858D02*
Y385039D01*
X168366Y358858D02*
Y385039D01*
Y358858D02*
X222382D01*
X46654Y196850D02*
X66732D01*
X46654Y216929D02*
X66732D01*
X46654Y196850D02*
Y216929D01*
X66732Y196850D02*
Y216929D01*
X40756Y224024D02*
X64756D01*
X40756Y248024D02*
X64756D01*
X40756Y224024D02*
Y248024D01*
X64756Y224024D02*
Y248024D01*
X49409Y381988D02*
X53543D01*
X49409D02*
Y384154D01*
X53543D01*
Y381988D02*
Y384154D01*
X32579Y365453D02*
Y372146D01*
Y365453D02*
X36319D01*
X32579Y372146D02*
X36319D01*
Y365453D02*
Y372146D01*
X179527Y242126D02*
Y247441D01*
Y242126D02*
X188189D01*
X179527Y247441D02*
X188189D01*
Y242126D02*
Y247441D01*
X415079Y383445D02*
X423504D01*
X415079Y348445D02*
Y383445D01*
Y348445D02*
X423504D01*
Y383445D01*
X277953Y150591D02*
Y155650D01*
Y150591D02*
X284449D01*
X277953Y155650D02*
X284449D01*
Y150591D02*
Y155650D01*
X122244Y425059D02*
Y430118D01*
Y425059D02*
X128740D01*
X122244Y430118D02*
X128740D01*
Y425059D02*
Y430118D01*
X153248Y337599D02*
Y349606D01*
Y337599D02*
X160138D01*
X153248Y349606D02*
X160138D01*
Y337599D02*
Y349606D01*
X282480Y420965D02*
X286220D01*
X282480D02*
Y427657D01*
X286220D01*
Y420965D02*
Y427657D01*
X129331Y162992D02*
Y166732D01*
Y162992D02*
X136024D01*
X129331Y166732D02*
X136024D01*
Y162992D02*
Y166732D01*
X94980Y327067D02*
Y335531D01*
Y327067D02*
X100492D01*
X94980Y335531D02*
X100492D01*
Y327067D02*
Y335531D01*
X169705Y396063D02*
Y415748D01*
Y396063D02*
X185413D01*
X169705Y415748D02*
X185413D01*
Y396063D02*
Y415748D01*
X15157Y203346D02*
Y223425D01*
Y203346D02*
X35236D01*
X15157Y223425D02*
X35236D01*
Y203346D02*
Y223425D01*
X147638Y222638D02*
Y228543D01*
Y222638D02*
X153543D01*
X147638Y228543D02*
X153543D01*
Y222638D02*
Y228543D01*
X361220Y261319D02*
Y273524D01*
Y261319D02*
X373425D01*
X361220Y273524D02*
X373425D01*
Y261319D02*
Y273524D01*
X31299Y256299D02*
Y280315D01*
Y256299D02*
X55315D01*
X31299Y280315D02*
X55315D01*
Y256299D02*
Y280315D01*
X446063Y397047D02*
Y428740D01*
Y397047D02*
X468110D01*
Y397441D02*
X468307Y397244D01*
Y428740D01*
X446063D02*
X467913D01*
X468307D01*
X39173Y181063D02*
X45079D01*
X39173D02*
Y193346D01*
X45079D01*
Y181063D02*
Y193346D01*
X48425Y186909D02*
Y193602D01*
Y186909D02*
X53543D01*
X48425Y193602D02*
X53543D01*
Y186909D02*
Y193602D01*
X367323Y381299D02*
Y401575D01*
Y381299D02*
X380512D01*
X367323Y401575D02*
X380512D01*
Y381299D02*
Y401575D01*
X168799Y209941D02*
Y239469D01*
Y209941D02*
X189272D01*
X168799Y239469D02*
X189272D01*
Y209941D02*
Y239469D01*
X223811Y79870D02*
Y100343D01*
Y79870D02*
X252945D01*
X223811Y100343D02*
X252945D01*
Y79870D02*
Y100343D01*
X170079Y408071D02*
Y415157D01*
Y408071D02*
X183465D01*
X170079Y415157D02*
X183465D01*
Y408071D02*
Y415157D01*
X11712Y251772D02*
Y262402D01*
Y251772D02*
X25098D01*
X11712Y262402D02*
X25098D01*
Y251772D02*
Y262402D01*
X130807Y132185D02*
Y152657D01*
Y132185D02*
X156398D01*
X130807Y152657D02*
X156398D01*
Y132185D02*
Y152657D01*
X85138Y160039D02*
Y175787D01*
Y160039D02*
X119587D01*
X85138Y175787D02*
X119587D01*
Y160039D02*
Y175787D01*
X292618Y375098D02*
X295374D01*
X292618D02*
Y383366D01*
X295374Y375098D02*
Y383366D01*
X292618D02*
X295374D01*
X178366Y436811D02*
Y456496D01*
Y436811D02*
X194075D01*
X178366Y456496D02*
X194075D01*
Y436811D02*
Y456496D01*
X315650Y277756D02*
X319783D01*
X315650D02*
Y279921D01*
X319783D01*
Y277756D02*
Y279921D01*
X278740Y116831D02*
Y120571D01*
Y116831D02*
X285433D01*
X278740Y120571D02*
X285433D01*
Y116831D02*
Y120571D01*
X145079Y206496D02*
X153740D01*
X145079D02*
Y211811D01*
X153740D01*
Y206496D02*
Y211811D01*
X14843Y425177D02*
Y440177D01*
Y425177D02*
X29843D01*
X14843Y440177D02*
X29843D01*
Y425177D02*
Y440177D01*
X57012Y343158D02*
Y378591D01*
Y343158D02*
X92445D01*
X57012Y378591D02*
X92445D01*
Y343158D02*
Y378591D01*
X-9992Y86996D02*
Y153138D01*
Y86996D02*
X92783D01*
X-9992Y153138D02*
X92783D01*
Y86996D02*
Y153138D01*
X160827Y441339D02*
X167913D01*
X160827Y452559D02*
X167913D01*
X160827Y441339D02*
Y452559D01*
X167913Y441339D02*
Y452559D01*
X200413Y451968D02*
X211595D01*
X200413Y459055D02*
X211595D01*
X200413Y451968D02*
Y459055D01*
X211595Y451968D02*
Y459055D01*
X398425Y171555D02*
Y226870D01*
Y171555D02*
X463189D01*
X398425Y226870D02*
X463189D01*
Y171555D02*
Y226870D01*
X208760Y-15075D02*
Y27406D01*
Y-15075D02*
X283957D01*
X208760Y27406D02*
X283957D01*
Y-15075D02*
Y27406D01*
X303051Y191043D02*
Y214666D01*
Y191043D02*
X334547D01*
X303051Y214666D02*
X334547D01*
Y191043D02*
Y214666D01*
X120669Y333563D02*
X131103D01*
X120669D02*
Y342028D01*
X131103D01*
Y333563D02*
Y342028D01*
X239469Y399016D02*
Y409449D01*
Y399016D02*
X252658D01*
X239469Y409449D02*
X252658D01*
Y399016D02*
Y409449D01*
X55709Y376969D02*
Y379921D01*
Y376969D02*
X58661D01*
X55709Y379921D02*
X58661D01*
Y376969D02*
Y379921D01*
X80118Y168209D02*
Y173721D01*
Y168209D02*
X91929D01*
X80118Y173721D02*
X91929D01*
Y168209D02*
Y173721D01*
X166157Y250449D02*
Y325252D01*
Y250449D02*
X240961D01*
X166157Y325252D02*
X240961D01*
Y250449D02*
Y325252D01*
D98*
X-4626Y468602D02*
Y473228D01*
X468602D01*
Y-5118D02*
Y473228D01*
X-4626Y-5118D02*
X468602D01*
X-4626D02*
Y468602D01*
D101*
X418760Y81575D02*
X438760D01*
X418760D02*
Y96575D01*
X438760D01*
Y81575D02*
Y96575D01*
D406*
X101969Y360925D02*
Y369193D01*
X105709D01*
X101969Y360925D02*
X105709D01*
Y369193D01*
X75492Y331398D02*
X83760D01*
X75492D02*
Y335138D01*
X83760D01*
Y331398D02*
Y335138D01*
X102067Y372146D02*
Y380414D01*
X105807D01*
X102067Y372146D02*
X105807D01*
Y380414D01*
X59449Y331595D02*
X67717D01*
X59449D02*
Y335335D01*
X67717D01*
Y331595D02*
Y335335D01*
X92310Y390380D02*
X98156Y384534D01*
X92310Y390380D02*
X94954Y393025D01*
X100801Y387179D01*
X98156Y384534D02*
X100801Y387179D01*
X86811Y331398D02*
X95079D01*
X86811D02*
Y335138D01*
X95079D01*
Y331398D02*
Y335138D01*
M02*
