%FSLAX25Y25*%
%MOIN*%
G70*
G01*
G75*
G04 Layer_Physical_Order=6*
G04 Layer_Color=128*
%ADD10C,0.01969*%
%ADD11R,0.03543X0.01772*%
%ADD12R,0.18898X0.18898*%
%ADD13R,0.01575X0.01575*%
%ADD14R,0.01772X0.01181*%
%ADD15R,0.01181X0.01181*%
%ADD16R,0.01181X0.01772*%
%ADD17R,0.01181X0.01181*%
%ADD18R,0.26772X0.26772*%
%ADD19R,0.03543X0.03937*%
%ADD20R,0.02165X0.02559*%
%ADD21R,0.01969X0.01969*%
%ADD22R,0.01378X0.01969*%
%ADD23R,0.07087X0.02362*%
%ADD24R,0.02362X0.01181*%
%ADD25R,0.02362X0.07874*%
%ADD26R,0.06299X0.02165*%
%ADD27R,0.01772X0.01378*%
%ADD28R,0.07480X0.07087*%
%ADD29R,0.05315X0.01575*%
%ADD30R,0.06299X0.08268*%
%ADD31O,0.03150X0.00984*%
%ADD32O,0.00984X0.03150*%
%ADD33R,0.05276X0.12284*%
%ADD34R,0.11181X0.12284*%
%ADD35R,0.18071X0.04370*%
%ADD36R,0.02756X0.01181*%
%ADD37R,0.06221X0.09252*%
%ADD38C,0.00984*%
%ADD39R,0.01181X0.03347*%
%ADD40R,0.03347X0.01181*%
%ADD41R,0.13386X0.13386*%
%ADD42R,0.04528X0.02992*%
%ADD43R,0.03937X0.03543*%
%ADD44R,0.02362X0.02362*%
%ADD45R,0.00984X0.01575*%
%ADD46R,0.05512X0.01969*%
%ADD47R,0.07284X0.02913*%
%ADD48R,0.04134X0.05512*%
%ADD49R,0.08661X0.20472*%
%ADD50R,0.18110X0.22047*%
%ADD51R,0.10984X0.07559*%
%ADD52C,0.05906*%
%ADD53R,0.09449X0.02992*%
%ADD54R,0.06693X0.02795*%
%ADD55R,0.01969X0.00984*%
%ADD56R,0.00984X0.01969*%
%ADD57R,0.09055X0.09055*%
%ADD58R,0.07520X0.02992*%
%ADD59O,0.02953X0.00984*%
%ADD60O,0.00984X0.02953*%
%ADD61R,0.17716X0.17716*%
%ADD62O,0.08268X0.01181*%
%ADD63O,0.01181X0.08268*%
%ADD64R,0.01969X0.01969*%
%ADD65R,0.04724X0.02953*%
%ADD66C,0.01378*%
%ADD67R,0.06299X0.19291*%
%ADD68R,0.05906X0.22047*%
%ADD69R,0.05709X0.04528*%
%ADD70R,0.02441X0.02441*%
%ADD71R,0.01811X0.01654*%
%ADD72R,0.03543X0.01575*%
%ADD73R,0.02559X0.02165*%
%ADD74R,0.01575X0.00984*%
%ADD75R,0.01969X0.05512*%
%ADD76R,0.03740X0.05512*%
G04:AMPARAMS|DCode=77|XSize=13.78mil|YSize=19.69mil|CornerRadius=0mil|HoleSize=0mil|Usage=FLASHONLY|Rotation=315.000|XOffset=0mil|YOffset=0mil|HoleType=Round|Shape=Rectangle|*
%AMROTATEDRECTD77*
4,1,4,-0.01183,-0.00209,0.00209,0.01183,0.01183,0.00209,-0.00209,-0.01183,-0.01183,-0.00209,0.0*
%
%ADD77ROTATEDRECTD77*%

%ADD78P,0.02784X4X360.0*%
%ADD79R,0.01969X0.01378*%
%ADD80R,0.02795X0.06693*%
%ADD81R,0.23622X0.07874*%
%ADD82R,0.05512X0.04134*%
%ADD83R,0.01575X0.01575*%
%ADD84R,0.02441X0.02441*%
%ADD85R,0.04528X0.10630*%
%ADD86R,0.10630X0.04528*%
%ADD87R,0.04528X0.07087*%
%ADD88R,0.04528X0.05709*%
%ADD89R,0.01654X0.01811*%
%ADD90R,0.07087X0.04528*%
%ADD91R,0.05512X0.03740*%
%ADD92C,0.01181*%
%ADD93C,0.01000*%
%ADD94C,0.00453*%
%ADD95C,0.03150*%
%ADD96C,0.01969*%
%ADD97C,0.01378*%
%ADD98C,0.03937*%
%ADD99C,0.00996*%
%ADD100C,0.00394*%
%ADD101C,0.00787*%
%ADD102C,0.01181*%
%ADD103C,0.00784*%
%ADD104C,0.00512*%
%ADD105C,0.00600*%
%ADD106R,0.09911X0.06594*%
%ADD107R,0.06791X1.25492*%
%ADD108R,0.18996X0.06496*%
%ADD109R,0.15453X0.49409*%
%ADD110R,0.02854X0.21358*%
%ADD111R,0.13976X0.11319*%
%ADD112R,0.14764X0.11122*%
%ADD113R,0.09153X0.17224*%
%ADD114R,0.08465X0.09843*%
%ADD115R,0.08661X0.12402*%
%ADD116R,0.13386X0.08169*%
%ADD117R,0.05315X0.93799*%
%ADD118R,0.17224X0.04528*%
%ADD119R,0.19193X0.03051*%
%ADD120R,0.10925X0.14469*%
%ADD121R,0.11614X0.04035*%
%ADD122R,0.02264X0.71752*%
%ADD123R,0.34842X0.01969*%
%ADD124R,0.78150X0.02461*%
%ADD125R,0.02461X0.13189*%
%ADD126R,0.16043X0.02264*%
%ADD127R,0.02658X0.42618*%
%ADD128R,0.25098X0.01969*%
%ADD129R,0.02165X0.76575*%
%ADD130R,0.68504X0.02165*%
%ADD131R,0.03347X0.05315*%
%ADD132R,0.02264X0.05512*%
%ADD133R,0.02431X1.19587*%
%ADD134R,0.10728X0.03445*%
%ADD135R,0.03839X0.08661*%
%ADD136R,0.14075X0.03839*%
%ADD137R,0.06594X0.04232*%
%ADD138R,0.13189X0.03051*%
%ADD139R,0.04921X0.18504*%
%ADD140R,0.09843X0.04134*%
%ADD141R,0.11713X0.02953*%
%ADD142R,0.04429X0.02756*%
%ADD143R,0.02362X0.02264*%
%ADD144R,0.08465X0.02854*%
%ADD145R,0.07087X0.21752*%
%ADD146R,0.10531X0.12598*%
%ADD147R,0.05315X0.10728*%
%ADD148R,0.04232X0.02854*%
%ADD149R,0.38287X0.06398*%
%ADD150R,0.38091X0.05118*%
%ADD151R,0.30807X0.08268*%
%ADD152R,0.30315X0.06102*%
%ADD153R,0.27756X0.05413*%
%ADD154R,0.19095X0.03937*%
%ADD155R,0.00886X0.01280*%
%ADD156R,0.39961X0.06594*%
%ADD157R,0.40256X0.05807*%
%ADD158R,0.30315X0.12008*%
%ADD159R,0.30709X0.06299*%
%ADD160R,0.30413X0.06496*%
%ADD161R,0.04134X0.05413*%
%ADD162R,0.02431X0.00820*%
%ADD163R,0.03642X0.11417*%
%ADD164R,0.34449X0.01969*%
%ADD165R,0.02430X0.17389*%
%ADD166R,0.92913X0.01870*%
%ADD167R,0.04429X0.41240*%
%ADD168R,0.03740X0.41043*%
%ADD169R,0.14075X0.18504*%
%ADD170R,0.05807X0.33169*%
%ADD171R,0.60335X0.08465*%
%ADD172R,0.09843X0.11122*%
%ADD173R,0.14370X0.08760*%
%ADD174R,0.03740X0.24016*%
%ADD175R,0.42224X0.07874*%
%ADD176R,0.08563X0.19291*%
%ADD177R,0.16535X0.19291*%
%ADD178R,0.31693X0.08071*%
%ADD179R,0.06299X0.00394*%
%ADD180R,0.03543X0.00787*%
%ADD181R,0.01181X0.00984*%
%ADD182R,0.12303X0.06004*%
%ADD183R,0.08268X0.01476*%
%ADD184R,0.04823X0.07776*%
%ADD185R,0.14075X0.03740*%
%ADD186R,0.12992X0.01870*%
%ADD187C,0.07874*%
%ADD188C,0.04803*%
%ADD189C,0.09882*%
%ADD190C,0.06299*%
%ADD191C,0.15748*%
%ADD192C,0.07087*%
%ADD193C,0.02598*%
%ADD194C,0.01575*%
%ADD195C,0.02165*%
%ADD196C,0.00591*%
%ADD197C,0.04000*%
%ADD198C,0.08071*%
%ADD199C,0.05591*%
%ADD200C,0.10669*%
%ADD201C,0.13386*%
%ADD202C,0.05787*%
%ADD203C,0.02559*%
%ADD204C,0.02362*%
%ADD205C,0.03150*%
%ADD206C,0.02874*%
D10*
X274213Y337894D02*
D03*
X278937Y338484D02*
D03*
X274606Y344783D02*
D03*
X275492Y329035D02*
D03*
X275699Y251565D02*
D03*
X275787Y260236D02*
D03*
X286713Y277756D02*
D03*
X306791Y280118D02*
D03*
X287303Y313878D02*
D03*
X278740Y324213D02*
D03*
X258858Y292618D02*
D03*
X300590Y294980D02*
D03*
X286713Y273819D02*
D03*
X289469Y232480D02*
D03*
X283858Y243799D02*
D03*
X284252Y232480D02*
D03*
X271850Y234350D02*
D03*
X268996Y238976D02*
D03*
X256299Y255610D02*
D03*
X268504Y252067D02*
D03*
X266142Y273819D02*
D03*
X264272Y280217D02*
D03*
X267224Y286221D02*
D03*
X268406Y289370D02*
D03*
X267815Y292618D02*
D03*
X268406Y295866D02*
D03*
X267717Y298917D02*
D03*
X268209Y308465D02*
D03*
X274606Y311713D02*
D03*
X269685Y323524D02*
D03*
X336619Y434863D02*
D03*
X192535Y270528D02*
D03*
X275984Y433957D02*
D03*
X41142Y391535D02*
D03*
X254921Y373917D02*
D03*
X205134Y314622D02*
D03*
X261713Y367224D02*
D03*
X214622Y317772D02*
D03*
X59646Y376772D02*
D03*
X59547Y375098D02*
D03*
X53543Y391535D02*
D03*
X198835Y314622D02*
D03*
Y317772D02*
D03*
X195685Y314622D02*
D03*
Y317772D02*
D03*
X188681Y324311D02*
D03*
X190354Y324016D02*
D03*
X186811Y324508D02*
D03*
X191535Y325590D02*
D03*
X183087Y270528D02*
D03*
X192535Y257929D02*
D03*
X186236Y273677D02*
D03*
X183087Y267378D02*
D03*
X227181Y257929D02*
D03*
X220882Y254780D02*
D03*
X224031Y261079D02*
D03*
X217732Y273677D02*
D03*
X300410Y335925D02*
D03*
X306709D02*
D03*
X237628Y292618D02*
D03*
X341354Y265059D02*
D03*
X309858D02*
D03*
X303559D02*
D03*
X297260D02*
D03*
X335055D02*
D03*
X236630Y261079D02*
D03*
X170528Y314622D02*
D03*
X183126Y320921D02*
D03*
X205134Y302024D02*
D03*
X201984D02*
D03*
X198835D02*
D03*
X195685D02*
D03*
X205134Y257929D02*
D03*
X208283D02*
D03*
X211433D02*
D03*
X214583Y261079D02*
D03*
Y264229D02*
D03*
X198835Y267378D02*
D03*
X195685D02*
D03*
X54823Y350984D02*
D03*
X64862Y346555D02*
D03*
X208283Y314622D02*
D03*
X214610Y305173D02*
D03*
X217760Y314622D02*
D03*
X208323Y317772D02*
D03*
X205134Y308350D02*
D03*
X179937Y311473D02*
D03*
X173638Y292535D02*
D03*
X176815Y302024D02*
D03*
X186276Y298874D02*
D03*
X192535Y302024D02*
D03*
X189386Y311473D02*
D03*
X192563Y305173D02*
D03*
X189386D02*
D03*
X186236Y308323D02*
D03*
X72835Y340846D02*
D03*
X99504Y339666D02*
D03*
X87524Y346520D02*
D03*
X85630Y346457D02*
D03*
X83563D02*
D03*
X89221Y361859D02*
D03*
X89055Y355953D02*
D03*
X89173Y359843D02*
D03*
X89173Y365748D02*
D03*
Y363878D02*
D03*
Y369685D02*
D03*
X63902Y375272D02*
D03*
X60283Y355953D02*
D03*
X60287Y357922D02*
D03*
X60287Y365795D02*
D03*
X60284Y361859D02*
D03*
X69807Y375221D02*
D03*
X73744Y375272D02*
D03*
X67323Y394882D02*
D03*
X54921Y352953D02*
D03*
X67815Y346457D02*
D03*
X79650Y346433D02*
D03*
X77681Y346433D02*
D03*
X73744D02*
D03*
X75713Y346433D02*
D03*
X111811Y319981D02*
D03*
Y335039D02*
D03*
X117323Y326083D02*
D03*
Y337894D02*
D03*
X136516Y348524D02*
D03*
X105463Y391585D02*
D03*
X101870Y392618D02*
D03*
X100886Y393996D02*
D03*
X98228Y394193D02*
D03*
X109646Y375295D02*
D03*
X111024Y359449D02*
D03*
X118012Y368307D02*
D03*
X108169Y343996D02*
D03*
X110433Y307677D02*
D03*
X111417Y311221D02*
D03*
X110330Y306005D02*
D03*
X111122Y304232D02*
D03*
X71776Y337622D02*
D03*
Y346433D02*
D03*
X150394Y323425D02*
D03*
X144980Y319685D02*
D03*
X138976Y357382D02*
D03*
X113189Y350295D02*
D03*
X111713Y316240D02*
D03*
X111614Y314764D02*
D03*
X145571Y312992D02*
D03*
X111122Y291929D02*
D03*
X111516Y298425D02*
D03*
X112008Y275197D02*
D03*
Y287303D02*
D03*
X111122Y293996D02*
D03*
Y302658D02*
D03*
X111413Y309548D02*
D03*
X141142Y275197D02*
D03*
X138583Y281693D02*
D03*
X150591Y293996D02*
D03*
X155217Y307874D02*
D03*
X151673Y299311D02*
D03*
X151083Y314862D02*
D03*
X150591Y304232D02*
D03*
X150295Y295965D02*
D03*
X150787Y309547D02*
D03*
X150591Y306004D02*
D03*
X150394Y302559D02*
D03*
X150099Y298425D02*
D03*
X150443Y287352D02*
D03*
X170488Y261079D02*
D03*
X170473Y264272D02*
D03*
X170488Y295752D02*
D03*
Y292602D02*
D03*
Y257929D02*
D03*
X189386Y302024D02*
D03*
X186236Y302051D02*
D03*
X179976Y302024D02*
D03*
X192535Y292602D02*
D03*
X176787Y298835D02*
D03*
X173638D02*
D03*
X186276Y295725D02*
D03*
X183224D02*
D03*
X176787Y295654D02*
D03*
X173638Y295685D02*
D03*
X179937Y292575D02*
D03*
X180075Y286276D02*
D03*
X192563Y283126D02*
D03*
X192520Y279921D02*
D03*
X179937Y276787D02*
D03*
X189386Y273638D02*
D03*
X179937D02*
D03*
X173638Y273677D02*
D03*
X189386Y270555D02*
D03*
X179965Y270528D02*
D03*
X189425Y267378D02*
D03*
X179937D02*
D03*
X176787Y267339D02*
D03*
X173638Y267378D02*
D03*
X176815Y264229D02*
D03*
X173638D02*
D03*
X186236Y261079D02*
D03*
X173665Y257929D02*
D03*
X211122Y252264D02*
D03*
X202165Y249998D02*
D03*
X214341Y237410D02*
D03*
X209646Y242518D02*
D03*
X216142Y240943D02*
D03*
X219537Y237352D02*
D03*
X218455Y238337D02*
D03*
X217135Y239558D02*
D03*
X214576Y241545D02*
D03*
X211221Y237992D02*
D03*
X211417Y241437D02*
D03*
X208268Y240847D02*
D03*
X206890Y239666D02*
D03*
X205315Y240945D02*
D03*
X224902Y250966D02*
D03*
X217903Y248356D02*
D03*
X223228Y250787D02*
D03*
X205315Y250197D02*
D03*
X221457Y250591D02*
D03*
X214665Y250787D02*
D03*
X208406Y251516D02*
D03*
X208268Y249803D02*
D03*
X211417Y248622D02*
D03*
X233480Y267378D02*
D03*
X236630Y276827D02*
D03*
X312992Y313878D02*
D03*
X325596Y246061D02*
D03*
X325606Y317028D02*
D03*
X319307Y243012D02*
D03*
X316158D02*
D03*
X297260Y239862D02*
D03*
X300410D02*
D03*
X309858D02*
D03*
X331906D02*
D03*
X344504D02*
D03*
Y243012D02*
D03*
X341354Y258760D02*
D03*
X325606Y265059D02*
D03*
X331906Y261910D02*
D03*
Y265059D02*
D03*
X322457Y261910D02*
D03*
X335055D02*
D03*
X341354D02*
D03*
X338205Y265059D02*
D03*
X344504D02*
D03*
X306709D02*
D03*
X300410D02*
D03*
X335055Y313878D02*
D03*
X331906D02*
D03*
Y335925D02*
D03*
X309858D02*
D03*
X303559D02*
D03*
X297260D02*
D03*
X341354Y310729D02*
D03*
X344504D02*
D03*
X322457D02*
D03*
X328756D02*
D03*
X338205D02*
D03*
X331906D02*
D03*
X335055D02*
D03*
X344504Y313878D02*
D03*
X256798Y292884D02*
D03*
X341354Y329626D02*
D03*
X335055Y335925D02*
D03*
Y332776D02*
D03*
X341354D02*
D03*
Y335925D02*
D03*
X344504D02*
D03*
X331906Y332776D02*
D03*
X316158D02*
D03*
X319307D02*
D03*
X297260Y310729D02*
D03*
X303559D02*
D03*
X300410D02*
D03*
X325606Y313878D02*
D03*
Y310729D02*
D03*
X236630Y308323D02*
D03*
X217732Y292575D02*
D03*
Y289425D02*
D03*
X227181Y267378D02*
D03*
X220882Y292575D02*
D03*
X224031Y317772D02*
D03*
X227181Y311473D02*
D03*
X220882Y308323D02*
D03*
X224031Y302024D02*
D03*
X217732D02*
D03*
X214583Y298874D02*
D03*
Y295725D02*
D03*
Y292575D02*
D03*
Y286276D02*
D03*
Y279977D02*
D03*
Y273677D02*
D03*
X220882Y276827D02*
D03*
X217732Y283126D02*
D03*
X224031Y270528D02*
D03*
X289695Y275304D02*
D03*
X341354Y317028D02*
D03*
X233480Y311473D02*
D03*
X338205Y317028D02*
D03*
X233480Y308323D02*
D03*
X328756Y258760D02*
D03*
X257939Y256299D02*
D03*
X233480Y261079D02*
D03*
X325606Y258760D02*
D03*
X259124Y256299D02*
D03*
X233480Y264229D02*
D03*
X224031Y292575D02*
D03*
X341354Y246162D02*
D03*
X233480Y279977D02*
D03*
X338205Y246162D02*
D03*
X233480Y276827D02*
D03*
X316437Y281595D02*
D03*
X316158Y317028D02*
D03*
X316158Y246162D02*
D03*
X227181Y292575D02*
D03*
X319307Y317028D02*
D03*
X318996Y281595D02*
D03*
X319307Y246162D02*
D03*
X233480Y292575D02*
D03*
X328756Y329626D02*
D03*
X233480Y295725D02*
D03*
X325606Y329626D02*
D03*
X254921Y322902D02*
D03*
Y324213D02*
D03*
X285827Y245079D02*
D03*
X292618Y232382D02*
D03*
X284252Y230906D02*
D03*
X293406Y243209D02*
D03*
X328756Y246162D02*
D03*
X287500Y287795D02*
D03*
X266968Y258997D02*
D03*
X272904Y256959D02*
D03*
X269587Y258268D02*
D03*
X266535Y235925D02*
D03*
X274902Y234547D02*
D03*
X268366Y253839D02*
D03*
X272904Y238622D02*
D03*
X271368Y237313D02*
D03*
X275534Y241675D02*
D03*
X279242Y252451D02*
D03*
X277264Y249508D02*
D03*
X284941Y247835D02*
D03*
X286870Y251142D02*
D03*
X268602Y305315D02*
D03*
X281500Y318013D02*
D03*
X287303Y319784D02*
D03*
X287402Y321260D02*
D03*
X284256Y315651D02*
D03*
X269685Y322047D02*
D03*
X284252Y324213D02*
D03*
X275591Y327658D02*
D03*
X275856Y326181D02*
D03*
X269783Y342421D02*
D03*
X272641Y346558D02*
D03*
X278547Y343802D02*
D03*
X288878Y338543D02*
D03*
X286421Y339766D02*
D03*
X282874Y341142D02*
D03*
X280118Y337303D02*
D03*
X277165Y345177D02*
D03*
X271162Y347933D02*
D03*
X274213Y309981D02*
D03*
X267815Y283169D02*
D03*
X267579Y270473D02*
D03*
X268209Y302067D02*
D03*
X270276Y292717D02*
D03*
X284449Y282835D02*
D03*
X266339Y280217D02*
D03*
X293307Y273918D02*
D03*
X293110Y275591D02*
D03*
X292943Y277136D02*
D03*
X292819Y282775D02*
D03*
X293898Y286910D02*
D03*
X293907Y289163D02*
D03*
X293705Y290945D02*
D03*
X276381Y273917D02*
D03*
X277461Y276870D02*
D03*
X278449Y279823D02*
D03*
X284157Y292225D02*
D03*
X280118Y283268D02*
D03*
X282382Y286319D02*
D03*
X274905Y277066D02*
D03*
X273141Y280286D02*
D03*
X271752Y273819D02*
D03*
X269488Y270669D02*
D03*
X271952Y286417D02*
D03*
X269393D02*
D03*
X217858Y286276D02*
D03*
X271654Y289469D02*
D03*
X273232Y298820D02*
D03*
X271162Y295965D02*
D03*
X269787Y299016D02*
D03*
X217732Y279977D02*
D03*
X297441Y298229D02*
D03*
X297260Y329626D02*
D03*
X297315Y258760D02*
D03*
X227181Y270528D02*
D03*
X300410Y317028D02*
D03*
X300689Y281595D02*
D03*
X300398Y246134D02*
D03*
X224031Y273677D02*
D03*
X300410Y329626D02*
D03*
X300410Y258772D02*
D03*
X297441Y294193D02*
D03*
X224031Y276827D02*
D03*
X300410Y332776D02*
D03*
X300412Y261945D02*
D03*
X297342Y296260D02*
D03*
X220882Y279977D02*
D03*
X303559Y313878D02*
D03*
X303642Y278445D02*
D03*
X303563Y242992D02*
D03*
X220882Y283126D02*
D03*
X303559Y332776D02*
D03*
X303559Y261910D02*
D03*
X300689Y297343D02*
D03*
X224031Y283126D02*
D03*
X309941Y298229D02*
D03*
X310201Y267118D02*
D03*
X306736Y261874D02*
D03*
X306709Y332776D02*
D03*
X227181Y286276D02*
D03*
X306709Y329626D02*
D03*
X306693Y294193D02*
D03*
X306740Y258752D02*
D03*
X227181Y289425D02*
D03*
X306709Y313878D02*
D03*
X306791Y278445D02*
D03*
X306709Y243047D02*
D03*
X220882Y286276D02*
D03*
X319307Y329626D02*
D03*
X322933Y294193D02*
D03*
X319252Y258744D02*
D03*
X224031Y298874D02*
D03*
X335055Y317028D02*
D03*
X230331Y317772D02*
D03*
X328756Y317028D02*
D03*
X230331Y302024D02*
D03*
X313008Y329626D02*
D03*
X313287Y294193D02*
D03*
X313008Y258760D02*
D03*
X227181Y298874D02*
D03*
X313008Y332776D02*
D03*
X313287Y297343D02*
D03*
X313008Y261910D02*
D03*
X220882Y295725D02*
D03*
X309858Y329626D02*
D03*
X310039Y294193D02*
D03*
X309858Y258760D02*
D03*
X220882Y289425D02*
D03*
X230331D02*
D03*
X328756Y243012D02*
D03*
X230331Y264229D02*
D03*
X297260Y332776D02*
D03*
X297256Y261910D02*
D03*
X294094Y297343D02*
D03*
X230331Y270528D02*
D03*
X297260Y317028D02*
D03*
X297260Y246169D02*
D03*
X294094Y281595D02*
D03*
X227181Y273677D02*
D03*
X306709Y317028D02*
D03*
X306791Y281595D02*
D03*
X306756Y246146D02*
D03*
X227181Y276827D02*
D03*
X297260Y313878D02*
D03*
X297260Y243036D02*
D03*
X294094Y278445D02*
D03*
X224031Y279977D02*
D03*
X303559Y329626D02*
D03*
X303642Y294193D02*
D03*
X303567Y258748D02*
D03*
X227181Y283126D02*
D03*
X344504Y246162D02*
D03*
X230331Y286276D02*
D03*
X224031D02*
D03*
X233480Y317772D02*
D03*
X224031Y295725D02*
D03*
Y289425D02*
D03*
X233480Y257929D02*
D03*
X230331D02*
D03*
Y261079D02*
D03*
Y267378D02*
D03*
X233480Y270528D02*
D03*
Y273677D02*
D03*
X230331D02*
D03*
Y276827D02*
D03*
Y279977D02*
D03*
X227181D02*
D03*
X230331Y283126D02*
D03*
X233480Y286276D02*
D03*
Y289425D02*
D03*
X230331Y292575D02*
D03*
Y295725D02*
D03*
X227181D02*
D03*
X233480Y298835D02*
D03*
X230331Y298874D02*
D03*
X233480Y302024D02*
D03*
Y305173D02*
D03*
X230331D02*
D03*
Y308323D02*
D03*
Y311473D02*
D03*
Y314622D02*
D03*
Y320921D02*
D03*
X233480Y314622D02*
D03*
Y283126D02*
D03*
X341354Y243012D02*
D03*
X338205D02*
D03*
X335055Y246162D02*
D03*
X331906D02*
D03*
X322457Y239862D02*
D03*
X341354D02*
D03*
X338205D02*
D03*
X335055D02*
D03*
Y243012D02*
D03*
X328756Y239862D02*
D03*
X325606D02*
D03*
X331906Y243012D02*
D03*
X325606D02*
D03*
X303559Y239862D02*
D03*
X322457Y243012D02*
D03*
Y246079D02*
D03*
X344504Y258760D02*
D03*
Y261910D02*
D03*
X338205Y258760D02*
D03*
Y261910D02*
D03*
X335055Y258760D02*
D03*
X331906D02*
D03*
X328756Y261910D02*
D03*
X325606Y335925D02*
D03*
X320866Y337402D02*
D03*
X333563Y337599D02*
D03*
X322457Y332776D02*
D03*
X325606Y261910D02*
D03*
X322457Y258760D02*
D03*
X322457Y317028D02*
D03*
X319307Y261910D02*
D03*
X316158D02*
D03*
X316220Y258756D02*
D03*
X316158Y335925D02*
D03*
X316189Y265063D02*
D03*
X313008Y317028D02*
D03*
X316158Y313878D02*
D03*
X319307D02*
D03*
X316158Y310729D02*
D03*
X309858D02*
D03*
X322457Y313878D02*
D03*
X316154Y239906D02*
D03*
X316158Y329626D02*
D03*
X319253Y266961D02*
D03*
X313016Y246087D02*
D03*
X309858Y332776D02*
D03*
X309858Y261910D02*
D03*
X303559Y317028D02*
D03*
X303547Y246146D02*
D03*
X300410Y313878D02*
D03*
X300429Y242984D02*
D03*
X300689Y278445D02*
D03*
X303642Y281595D02*
D03*
X313287D02*
D03*
X316240Y275295D02*
D03*
X316240Y300492D02*
D03*
X310039Y296063D02*
D03*
X319783Y297343D02*
D03*
X328756Y313878D02*
D03*
X331906Y317028D02*
D03*
X338205Y313878D02*
D03*
X341354D02*
D03*
X344504Y317028D02*
D03*
X322457Y329626D02*
D03*
X331906D02*
D03*
X335055D02*
D03*
X325606Y332776D02*
D03*
X328756D02*
D03*
X338205Y329626D02*
D03*
Y332776D02*
D03*
X344504Y329626D02*
D03*
Y332776D02*
D03*
X329528Y347638D02*
D03*
X240159Y266633D02*
D03*
X217732Y257929D02*
D03*
X224031D02*
D03*
X217732Y261079D02*
D03*
X220882Y264229D02*
D03*
X214583Y267378D02*
D03*
X211433D02*
D03*
X208283D02*
D03*
X205134D02*
D03*
Y270528D02*
D03*
X211433D02*
D03*
X198835Y273677D02*
D03*
X201984Y270528D02*
D03*
X195685D02*
D03*
X201984Y267378D02*
D03*
Y257929D02*
D03*
X195685D02*
D03*
X198835Y261079D02*
D03*
Y270528D02*
D03*
X201984Y261079D02*
D03*
X208283Y264229D02*
D03*
Y270528D02*
D03*
Y273677D02*
D03*
X195685Y264229D02*
D03*
X201984D02*
D03*
X205134Y261079D02*
D03*
X211433D02*
D03*
X214583Y257929D02*
D03*
X198835D02*
D03*
X217732Y267378D02*
D03*
X220882Y261079D02*
D03*
X224031Y264229D02*
D03*
X227181D02*
D03*
X224031Y267378D02*
D03*
X214583Y270528D02*
D03*
X217732D02*
D03*
X220882Y273677D02*
D03*
X211433D02*
D03*
X220882Y270528D02*
D03*
X217732Y264229D02*
D03*
X81618Y346433D02*
D03*
X89126Y371701D02*
D03*
X89126Y357922D02*
D03*
X76476Y391240D02*
D03*
X89764Y376870D02*
D03*
X89122Y350047D02*
D03*
X37402Y332284D02*
D03*
X85555Y375177D02*
D03*
X22343Y422047D02*
D03*
X62599Y323918D02*
D03*
X60433Y324016D02*
D03*
X64567Y323917D02*
D03*
X66536D02*
D03*
X70473D02*
D03*
X76376Y323913D02*
D03*
X78246D02*
D03*
X80413Y323819D02*
D03*
X82085Y323913D02*
D03*
X87599Y323819D02*
D03*
X89664Y323913D02*
D03*
X94095Y323819D02*
D03*
X92028D02*
D03*
X108267Y318204D02*
D03*
X120965Y366043D02*
D03*
X119783Y326083D02*
D03*
X117323Y372244D02*
D03*
X126575Y326280D02*
D03*
X125984Y361713D02*
D03*
X132283Y326083D02*
D03*
Y361319D02*
D03*
X121956Y317914D02*
D03*
X138287Y377264D02*
D03*
X148622Y325492D02*
D03*
X130905Y360138D02*
D03*
X109547Y379429D02*
D03*
X129528Y326280D02*
D03*
X144587D02*
D03*
X205134Y264229D02*
D03*
X198835Y276827D02*
D03*
X195685Y261079D02*
D03*
X227181Y320921D02*
D03*
X224031Y320921D02*
D03*
X205134Y273677D02*
D03*
X201984D02*
D03*
X195685D02*
D03*
X198835Y298874D02*
D03*
X205134D02*
D03*
X211433D02*
D03*
Y286276D02*
D03*
X208283Y289425D02*
D03*
X211433Y292575D02*
D03*
X195685Y295725D02*
D03*
Y289425D02*
D03*
X192535Y286276D02*
D03*
X195685Y283126D02*
D03*
Y276827D02*
D03*
X201984D02*
D03*
X205134D02*
D03*
X208283Y279977D02*
D03*
X205134D02*
D03*
X198835D02*
D03*
X201984Y283126D02*
D03*
X205134D02*
D03*
X208283D02*
D03*
X189386Y276827D02*
D03*
X214583D02*
D03*
X211433D02*
D03*
Y279977D02*
D03*
X214583Y283126D02*
D03*
X205134Y286276D02*
D03*
X201984D02*
D03*
X198835D02*
D03*
X201984Y289425D02*
D03*
X205134D02*
D03*
X214583D02*
D03*
X205134Y292575D02*
D03*
X201984D02*
D03*
X198835D02*
D03*
X208283Y295725D02*
D03*
X201984D02*
D03*
X260728Y314579D02*
D03*
X180315Y323228D02*
D03*
X173425D02*
D03*
X175197Y324508D02*
D03*
X179331Y324410D02*
D03*
X183087Y257929D02*
D03*
X173638Y261079D02*
D03*
X176787Y254780D02*
D03*
X179937Y264229D02*
D03*
X170488Y267378D02*
D03*
X189386Y261079D02*
D03*
X183087Y273677D02*
D03*
X173638Y276827D02*
D03*
X186236Y283126D02*
D03*
X176787Y286276D02*
D03*
X189386Y292575D02*
D03*
X179964Y295725D02*
D03*
X170488Y298874D02*
D03*
X186319Y267323D02*
D03*
X183071Y289370D02*
D03*
X176772Y270571D02*
D03*
X170544Y283071D02*
D03*
X179921Y279921D02*
D03*
X173638Y308323D02*
D03*
X183114Y305173D02*
D03*
X176787Y317732D02*
D03*
X186236Y314622D02*
D03*
X195685Y311473D02*
D03*
X198835Y320921D02*
D03*
X208283Y302024D02*
D03*
X214583D02*
D03*
X208283Y254780D02*
D03*
X211433Y264229D02*
D03*
X224016Y254823D02*
D03*
X192563Y254780D02*
D03*
X235236Y323917D02*
D03*
X201984Y314622D02*
D03*
X211417Y311516D02*
D03*
X192618Y317717D02*
D03*
X198862Y305173D02*
D03*
X214567Y320965D02*
D03*
X189386Y308350D02*
D03*
X198819Y252165D02*
D03*
X208283Y276827D02*
D03*
X111024Y281693D02*
D03*
X224016Y305217D02*
D03*
X31791Y437106D02*
D03*
X214567Y254823D02*
D03*
X186236Y286276D02*
D03*
X195276Y222146D02*
D03*
X189386Y264229D02*
D03*
X193996Y220866D02*
D03*
X220882Y267378D02*
D03*
X230118Y246555D02*
D03*
X227181Y261079D02*
D03*
D96*
X20472Y456299D02*
X89370D01*
X13484Y449311D02*
X20472Y456299D01*
X13484Y425000D02*
Y449311D01*
X17028Y316732D02*
X22244D01*
X18406Y316732D02*
X115157D01*
X121358Y339075D02*
X126083Y343799D01*
X112795Y339173D02*
X112894Y339075D01*
X112795Y339173D02*
Y344587D01*
Y339075D02*
X121358D01*
X102657Y438484D02*
Y446752D01*
X13287Y333169D02*
Y344193D01*
Y354528D02*
X36614D01*
X113681Y398819D02*
Y408957D01*
Y398819D02*
X122146D01*
Y394685D02*
Y398819D01*
X102854Y380807D02*
X114173Y369488D01*
X102854Y380807D02*
Y380906D01*
Y404823D01*
X89272Y456398D02*
X89567Y456103D01*
X89272Y456398D02*
X133957D01*
Y434055D02*
Y456398D01*
X134055Y335630D02*
Y369685D01*
Y381299D02*
Y394390D01*
X122146Y394488D02*
X143405D01*
X115157Y316732D02*
X133957Y335532D01*
X13484Y320276D02*
X16929Y316831D01*
X13484Y320276D02*
Y332973D01*
X102657Y446752D02*
X114173D01*
Y418209D02*
Y446752D01*
X134055Y369685D02*
Y381299D01*
X99606Y344587D02*
X112795D01*
X99606Y331890D02*
Y344587D01*
X36614Y325787D02*
Y344193D01*
X13287D02*
X36614D01*
Y325394D02*
X93110D01*
X99606Y331890D01*
X126083Y343799D02*
Y357185D01*
X114173Y369095D02*
X126083Y357185D01*
X122146Y398819D02*
Y417323D01*
X113976Y408563D02*
Y417913D01*
X102854Y404823D02*
Y445276D01*
X13484Y385532D02*
Y388189D01*
Y355512D02*
Y385532D01*
X36614Y344193D02*
X39567D01*
X48917Y353543D01*
Y426083D01*
X13287Y344193D02*
Y354528D01*
X13484Y388189D02*
Y425000D01*
X36614Y426083D02*
X48917D01*
X36614Y354528D02*
Y426083D01*
X143405Y394390D02*
X143504Y394291D01*
X122146Y416437D02*
Y418603D01*
X143405Y394390D02*
Y418603D01*
X122146D02*
X143405D01*
X133957Y434055D02*
X152756D01*
X207677D01*
X216043Y442421D01*
X251378D01*
X262697Y431102D01*
Y411909D02*
Y431102D01*
X250689Y399902D02*
X262697Y411909D01*
X216929Y399902D02*
X250689D01*
X198228Y418603D02*
X216929Y399902D01*
X143405Y418603D02*
X198228D01*
D101*
X415453Y-1280D02*
X415551Y-1378D01*
X415453Y-1280D02*
Y123032D01*
X328642Y260925D02*
X355512D01*
X281102D02*
X318110D01*
X328150D02*
Y268012D01*
X325590Y270571D02*
X328150Y268012D01*
X320177Y270571D02*
X325590D01*
X318110Y268504D02*
X320177Y270571D01*
X318110Y260925D02*
Y268504D01*
X281102Y309449D02*
X334547D01*
X355118Y334842D02*
X369980Y319980D01*
Y243799D02*
Y319980D01*
X362500Y236319D02*
X369980Y243799D01*
X296850Y236319D02*
X362500D01*
X261122Y272047D02*
X296850Y236319D01*
X212795Y272047D02*
X261122D01*
X213090Y300394D02*
X243898D01*
X294291Y350787D01*
X339173D01*
X355512Y334449D01*
X334449Y279134D02*
X355512D01*
X334449D02*
X334547Y279232D01*
Y309449D01*
X234941Y170867D02*
X253248Y152559D01*
X212992Y233760D02*
Y276870D01*
X160728Y136811D02*
X189075Y165157D01*
X203543Y233858D02*
X203642Y233957D01*
Y303740D01*
X234941Y170866D02*
Y227165D01*
X228248Y233858D02*
X234941Y227165D01*
X212992Y233858D02*
X228248D01*
X189075Y165157D02*
Y230020D01*
X192913Y233858D01*
X203543D01*
X212992Y303740D02*
Y306988D01*
X213287D02*
X216240D01*
Y313189D01*
X219291Y327854D02*
Y336122D01*
X254232Y371063D01*
X363386D01*
X385728Y393406D01*
Y454134D01*
X380709Y459154D02*
X385728Y454134D01*
X318307Y459154D02*
X380709D01*
X313287Y454134D02*
X318307Y459154D01*
X313287Y398228D02*
Y454134D01*
X303642Y388583D02*
X313287Y398228D01*
X302067Y388583D02*
X303642D01*
X255906D02*
X303445D01*
X209842Y342520D02*
X255906Y388583D01*
X209842Y327854D02*
Y342520D01*
X219291Y316240D02*
Y327854D01*
X216339Y316240D02*
X219291D01*
X216240Y316142D02*
X216339Y316240D01*
X216240Y313189D02*
Y316142D01*
X209842Y316240D02*
Y327854D01*
X206693Y316240D02*
X209842D01*
X206594Y316142D02*
X206693Y316240D01*
X206594Y306693D02*
Y316142D01*
X203740Y306693D02*
X206594D01*
X203642Y306594D02*
X203740Y306693D01*
X203642Y303740D02*
Y306594D01*
X212992Y276870D02*
Y303740D01*
X160728Y-1575D02*
Y136811D01*
X253248Y152559D02*
X385925D01*
X415453Y123032D01*
X281102Y260925D02*
Y306201D01*
X355512Y260925D02*
Y279134D01*
X281102Y306398D02*
Y309449D01*
X194291Y300590D02*
X203642D01*
X83465Y249803D02*
Y288976D01*
Y249803D02*
X86319Y246949D01*
X203543D01*
X83465Y288976D02*
X152953D01*
X164616Y300640D01*
X164272Y300590D02*
X194291D01*
X164173Y300492D02*
X164272Y300590D01*
D192*
X50197Y151988D02*
D03*
X55709Y87776D02*
D03*
X147146Y10236D02*
D03*
X50197Y67638D02*
D03*
X55709Y3425D02*
D03*
D197*
X-1673Y469390D02*
X465256Y470079D01*
X-1870Y233858D02*
X-1673Y469390D01*
X-1870Y-1969D02*
Y233858D01*
Y-1969D02*
X464370Y-1870D01*
X465256Y470079D01*
D198*
X264469Y17165D02*
D03*
X246358D02*
D03*
X228248D02*
D03*
D199*
X86693Y143858D02*
D03*
Y135866D02*
D03*
Y127874D02*
D03*
X76693Y131886D02*
D03*
Y123894D02*
D03*
Y139484D02*
D03*
Y115902D02*
D03*
X86693Y103898D02*
D03*
Y111890D02*
D03*
X76693Y99917D02*
D03*
X86693Y95906D02*
D03*
X76693Y107909D02*
D03*
X21693Y147539D02*
D03*
X11693D02*
D03*
X21693Y92224D02*
D03*
X11693D02*
D03*
X86693Y59508D02*
D03*
Y51516D02*
D03*
Y43524D02*
D03*
X76693Y47535D02*
D03*
Y39543D02*
D03*
Y55134D02*
D03*
Y31551D02*
D03*
X86693Y19547D02*
D03*
Y27539D02*
D03*
X76693Y15567D02*
D03*
X86693Y11555D02*
D03*
X76693Y23559D02*
D03*
X21693Y63189D02*
D03*
X11693D02*
D03*
X21693Y7874D02*
D03*
X11693D02*
D03*
D200*
X72716Y87776D02*
D03*
X63189Y151988D02*
D03*
X33189D02*
D03*
X42717Y87776D02*
D03*
X72716Y3425D02*
D03*
X63189Y67638D02*
D03*
X33189D02*
D03*
X42717Y3425D02*
D03*
D201*
X440945Y451673D02*
D03*
X9744Y169980D02*
D03*
X6004Y327658D02*
D03*
X436221Y22146D02*
D03*
D202*
X399323Y302740D02*
D03*
Y312740D02*
D03*
Y292740D02*
D03*
Y332740D02*
D03*
Y322740D02*
D03*
Y282740D02*
D03*
D203*
X51279Y271201D02*
D03*
X46752Y271201D02*
D03*
Y276319D02*
D03*
X46752Y266083D02*
D03*
X51181Y261457D02*
D03*
X43307D02*
D03*
X47244D02*
D03*
X42224Y271201D02*
D03*
X39370Y261457D02*
D03*
X35433D02*
D03*
X123992Y427559D02*
D03*
X126992D02*
D03*
X279701Y153150D02*
D03*
X282701D02*
D03*
X31201Y406988D02*
D03*
X34201D02*
D03*
X122441Y454158D02*
D03*
Y451158D02*
D03*
X74728Y360874D02*
D03*
D204*
X85555Y371701D02*
D03*
Y367370D02*
D03*
Y363039D02*
D03*
X81225Y371701D02*
D03*
X79059Y369536D02*
D03*
X76894Y371701D02*
D03*
X83390Y369536D02*
D03*
Y365205D02*
D03*
X81225Y367370D02*
D03*
Y363039D02*
D03*
X83390Y360874D02*
D03*
X79059Y365205D02*
D03*
X74728Y369536D02*
D03*
X76894Y367370D02*
D03*
X74728Y365205D02*
D03*
X76894Y363039D02*
D03*
X79059Y360874D02*
D03*
X74728D02*
D03*
X85555Y358709D02*
D03*
Y354378D02*
D03*
Y350047D02*
D03*
X81225Y358709D02*
D03*
X83390Y356543D02*
D03*
X79059D02*
D03*
X81225Y354378D02*
D03*
X83390Y352213D02*
D03*
X81225Y350047D02*
D03*
X76894Y358709D02*
D03*
Y354378D02*
D03*
X74728Y356543D02*
D03*
X79059Y352213D02*
D03*
X76894Y350047D02*
D03*
X74728Y352213D02*
D03*
X72563Y371701D02*
D03*
Y367370D02*
D03*
X70398Y369536D02*
D03*
Y365205D02*
D03*
X72563Y363039D02*
D03*
X70398Y360874D02*
D03*
X68232Y371701D02*
D03*
Y367370D02*
D03*
X66067Y369536D02*
D03*
Y365205D02*
D03*
X68232Y363039D02*
D03*
X66067Y360874D02*
D03*
X63902Y371701D02*
D03*
Y367370D02*
D03*
Y363039D02*
D03*
X72563Y358709D02*
D03*
X70398Y356543D02*
D03*
X68232Y358709D02*
D03*
X72563Y354378D02*
D03*
X70398Y352213D02*
D03*
X68232Y354378D02*
D03*
X66067Y356543D02*
D03*
Y352213D02*
D03*
X63902Y354378D02*
D03*
X68232Y350047D02*
D03*
X72563D02*
D03*
X63902Y358709D02*
D03*
Y350047D02*
D03*
X360531Y420177D02*
D03*
X356201D02*
D03*
X360531Y415846D02*
D03*
X356201D02*
D03*
Y411516D02*
D03*
X360531Y407185D02*
D03*
Y411516D02*
D03*
X356201Y407185D02*
D03*
X351870Y415846D02*
D03*
Y420177D02*
D03*
X347539Y415846D02*
D03*
Y420177D02*
D03*
X351870Y411516D02*
D03*
Y407185D02*
D03*
X347539Y411516D02*
D03*
Y407185D02*
D03*
X48622Y341142D02*
D03*
X52559Y341043D02*
D03*
X225000Y439665D02*
D03*
X251673Y447342D02*
D03*
X249114Y447146D02*
D03*
X341762Y209302D02*
D03*
X176673Y418701D02*
D03*
X10236Y215354D02*
D03*
X75590Y294390D02*
D03*
X375295Y92323D02*
D03*
X328051Y142323D02*
D03*
X329429Y150492D02*
D03*
X6791Y257087D02*
D03*
X408169Y232382D02*
D03*
X196590Y214110D02*
D03*
X6988Y269980D02*
D03*
X272835Y436811D02*
D03*
X423740Y153858D02*
D03*
X423898Y163858D02*
D03*
X319390Y435138D02*
D03*
X238189Y349410D02*
D03*
X119882Y272441D02*
D03*
X8366Y232776D02*
D03*
X31988Y239469D02*
D03*
X7382Y242913D02*
D03*
X5610Y290059D02*
D03*
X79137Y112900D02*
D03*
X110925Y89961D02*
D03*
X110945Y84921D02*
D03*
X110984Y69921D02*
D03*
X110905Y74921D02*
D03*
X111018Y103330D02*
D03*
X108163Y102739D02*
D03*
X110886Y114921D02*
D03*
X110866Y119921D02*
D03*
X272835Y444095D02*
D03*
X322539Y375492D02*
D03*
X164961Y332283D02*
D03*
X169390Y325984D02*
D03*
X63386Y280512D02*
D03*
X273031Y455217D02*
D03*
X322146Y373327D02*
D03*
X166240Y326772D02*
D03*
X161319Y331693D02*
D03*
X62992Y282579D02*
D03*
X56988Y389764D02*
D03*
X272638Y441732D02*
D03*
X272736Y439370D02*
D03*
X232874Y126083D02*
D03*
X229134Y181496D02*
D03*
X148327Y379921D02*
D03*
X160925Y334842D02*
D03*
X320177Y16929D02*
D03*
X62795Y287205D02*
D03*
X63386Y297047D02*
D03*
X58858Y289961D02*
D03*
X55512Y289469D02*
D03*
X392126Y123228D02*
D03*
X423898Y135945D02*
D03*
X423799Y145945D02*
D03*
X369193Y65945D02*
D03*
X314862Y18012D02*
D03*
X258366Y54823D02*
D03*
X234055Y62285D02*
D03*
X386122Y380216D02*
D03*
X344882Y305217D02*
D03*
X336319Y271358D02*
D03*
X262205Y267028D02*
D03*
X106004Y273622D02*
D03*
X263289Y94865D02*
D03*
X400787Y144095D02*
D03*
X397736Y146555D02*
D03*
X385039Y138386D02*
D03*
X337965Y124480D02*
D03*
X289469Y16240D02*
D03*
X279232Y130610D02*
D03*
X267421Y140650D02*
D03*
X199114Y131102D02*
D03*
X174803Y125984D02*
D03*
X174702Y136895D02*
D03*
X221055Y122335D02*
D03*
X387008Y180709D02*
D03*
X380118Y205315D02*
D03*
X385039Y200492D02*
D03*
X387205Y183268D02*
D03*
X388681Y209350D02*
D03*
X390748Y192028D02*
D03*
X373524Y257382D02*
D03*
X371161Y233661D02*
D03*
X268110Y210925D02*
D03*
X263878Y210827D02*
D03*
X304823Y394094D02*
D03*
X296358Y401575D02*
D03*
X230118Y251181D02*
D03*
X253346Y226083D02*
D03*
X255807Y223031D02*
D03*
X255020Y210630D02*
D03*
X243110Y249016D02*
D03*
X256693Y209449D02*
D03*
X237795Y197047D02*
D03*
X374587Y188110D02*
D03*
X372421Y205728D02*
D03*
X372657Y198110D02*
D03*
X372224Y215728D02*
D03*
X285138Y175394D02*
D03*
X280039Y175709D02*
D03*
X272421Y175768D02*
D03*
X266437Y175295D02*
D03*
X266831Y172146D02*
D03*
X239961Y182185D02*
D03*
X297047Y379232D02*
D03*
X284350Y418012D02*
D03*
X272342Y426575D02*
D03*
X285531Y412008D02*
D03*
X270374Y404626D02*
D03*
X276279Y419291D02*
D03*
X278937Y419095D02*
D03*
X255906Y386319D02*
D03*
X259350Y367421D02*
D03*
X265453Y337500D02*
D03*
X255118Y367618D02*
D03*
X191535Y244783D02*
D03*
X204232Y398327D02*
D03*
X235335Y384843D02*
D03*
X146162Y358169D02*
D03*
X219587Y425457D02*
D03*
X48917Y313484D02*
D03*
X44390Y313386D02*
D03*
X353051Y428248D02*
D03*
X364862Y434744D02*
D03*
X366831Y402854D02*
D03*
X327362Y437894D02*
D03*
X332185Y424508D02*
D03*
X332283Y410827D02*
D03*
X332185Y400787D02*
D03*
X317421Y375886D02*
D03*
X335925Y375492D02*
D03*
X339665Y400886D02*
D03*
X341240Y399114D02*
D03*
X343209Y399213D02*
D03*
X353051Y399409D02*
D03*
X353642Y369291D02*
D03*
X371063Y379331D02*
D03*
X375984Y365846D02*
D03*
X362303Y400591D02*
D03*
X387106Y402559D02*
D03*
X366732Y406791D02*
D03*
X367914Y416634D02*
D03*
X367913Y418602D02*
D03*
X367913Y422539D02*
D03*
X365748Y423032D02*
D03*
X367421Y426772D02*
D03*
X370079Y438583D02*
D03*
X378150Y448425D02*
D03*
X368356Y447490D02*
D03*
X352264Y451279D02*
D03*
X343209Y451772D02*
D03*
X328051Y448524D02*
D03*
X349508Y424902D02*
D03*
X343602Y435101D02*
D03*
X325886Y452756D02*
D03*
X309941Y442815D02*
D03*
X249606Y430118D02*
D03*
X253642Y410532D02*
D03*
X266240Y378346D02*
D03*
X338878Y452362D02*
D03*
X325098Y374016D02*
D03*
X336417Y431693D02*
D03*
X328642Y424508D02*
D03*
X355807Y384646D02*
D03*
X316339Y421555D02*
D03*
X391043Y420472D02*
D03*
X339567Y377756D02*
D03*
X357087Y427854D02*
D03*
X347342Y424606D02*
D03*
X351083Y428051D02*
D03*
X368209Y444095D02*
D03*
X362500Y453642D02*
D03*
X358563Y453740D02*
D03*
X356594Y453740D02*
D03*
X362500Y434842D02*
D03*
X356594Y436417D02*
D03*
X358563Y436417D02*
D03*
X360532Y434744D02*
D03*
X348524Y446063D02*
D03*
X214567Y418701D02*
D03*
Y416732D02*
D03*
X214665Y414764D02*
D03*
X242618Y420669D02*
D03*
X136221Y436811D02*
D03*
X136811Y445079D02*
D03*
X147244Y408465D02*
D03*
X48130Y355315D02*
D03*
X48228Y358071D02*
D03*
X97638Y331299D02*
D03*
X42717Y363583D02*
D03*
X42815Y374114D02*
D03*
X46457Y374410D02*
D03*
Y363189D02*
D03*
X54626Y367028D02*
D03*
X54626Y370571D02*
D03*
X50984Y312205D02*
D03*
X53347Y307677D02*
D03*
X57382Y307481D02*
D03*
X244390Y156988D02*
D03*
X225098Y229036D02*
D03*
X224803Y226181D02*
D03*
X261713Y89370D02*
D03*
X261614Y91339D02*
D03*
X316339Y96260D02*
D03*
Y94292D02*
D03*
X299016Y91339D02*
D03*
X301280Y106201D02*
D03*
X330610Y160236D02*
D03*
X323819Y165748D02*
D03*
X307579Y162500D02*
D03*
X318307Y168504D02*
D03*
X307776Y170669D02*
D03*
X299705Y120079D02*
D03*
X299311Y113484D02*
D03*
X311860Y174163D02*
D03*
X301132Y176526D02*
D03*
X296457Y99508D02*
D03*
X292421Y216240D02*
D03*
X283469Y212300D02*
D03*
X278445Y212500D02*
D03*
X213681Y177264D02*
D03*
X204134Y174902D02*
D03*
X204429Y170965D02*
D03*
X205807Y179916D02*
D03*
X218701Y181693D02*
D03*
X182352Y92845D02*
D03*
X231102Y156496D02*
D03*
X182087Y113386D02*
D03*
X182324Y118956D02*
D03*
X183957Y107579D02*
D03*
X247736Y253740D02*
D03*
X260728Y308366D02*
D03*
X262598Y254429D02*
D03*
X245669Y336122D02*
D03*
X261519Y338881D02*
D03*
X248327Y243701D02*
D03*
X242126Y244488D02*
D03*
X238780Y245374D02*
D03*
X242224Y246949D02*
D03*
X299016Y210433D02*
D03*
X297047Y200492D02*
D03*
X299016Y205610D02*
D03*
X338858Y210354D02*
D03*
X189567Y208662D02*
D03*
X175394Y230020D02*
D03*
X332776Y84351D02*
D03*
X360433Y107579D02*
D03*
X338189Y110433D02*
D03*
X380807Y57087D02*
D03*
X371260Y60236D02*
D03*
X302165Y80610D02*
D03*
X404823Y110335D02*
D03*
X302327Y150063D02*
D03*
Y141402D02*
D03*
X298862Y29484D02*
D03*
X311414Y60823D02*
D03*
X300295Y51378D02*
D03*
X306988Y50295D02*
D03*
X313189Y57677D02*
D03*
X314071Y74307D02*
D03*
X318016Y70666D02*
D03*
X317819Y62792D02*
D03*
X317622Y58855D02*
D03*
X307087Y74508D02*
D03*
X329134Y78543D02*
D03*
X328937Y68504D02*
D03*
X344705Y71378D02*
D03*
X328937Y66634D02*
D03*
X391437Y86516D02*
D03*
X391339Y84449D02*
D03*
X391240Y78347D02*
D03*
X391339Y66634D02*
D03*
X405807Y68110D02*
D03*
X405905Y77166D02*
D03*
X405217Y120276D02*
D03*
X391240Y62599D02*
D03*
X242569Y106693D02*
D03*
X178051Y152165D02*
D03*
X182283Y29232D02*
D03*
X181693Y55217D02*
D03*
X196850Y61516D02*
D03*
X198819Y54429D02*
D03*
X212303Y57579D02*
D03*
X189862Y75788D02*
D03*
X187992Y75886D02*
D03*
X212008Y67323D02*
D03*
X263484Y77362D02*
D03*
X263583Y69390D02*
D03*
X263484Y53642D02*
D03*
X278642Y56004D02*
D03*
X253346Y104823D02*
D03*
X278937Y42028D02*
D03*
X285236Y121851D02*
D03*
X263583Y115158D02*
D03*
X249803Y115355D02*
D03*
X285433Y63288D02*
D03*
X214075Y68406D02*
D03*
X229724Y71162D02*
D03*
X180708Y98022D02*
D03*
X213780Y82973D02*
D03*
X215650Y81201D02*
D03*
X150295Y98425D02*
D03*
X139173Y92421D02*
D03*
X176280Y142913D02*
D03*
X137106Y334547D02*
D03*
X137697Y350886D02*
D03*
X165453Y339862D02*
D03*
X165847Y347244D02*
D03*
X152854Y327264D02*
D03*
X137205Y343996D02*
D03*
X139862Y420669D02*
D03*
X89764Y391732D02*
D03*
X83464Y402166D02*
D03*
X82185Y393799D02*
D03*
X87992Y385433D02*
D03*
X78666Y380831D02*
D03*
X84055Y394882D02*
D03*
X86122Y393799D02*
D03*
X21752Y340650D02*
D03*
X25492Y346555D02*
D03*
X25098Y330315D02*
D03*
X56496Y407185D02*
D03*
X31299Y356496D02*
D03*
X30315Y363878D02*
D03*
X34449Y375689D02*
D03*
X33661Y381398D02*
D03*
X47343Y387697D02*
D03*
X46654Y327953D02*
D03*
X98622Y408268D02*
D03*
X106299Y408366D02*
D03*
X106004Y427461D02*
D03*
X95965Y429429D02*
D03*
X116240Y400886D02*
D03*
X121555Y393799D02*
D03*
X108563Y359744D02*
D03*
X109153Y351181D02*
D03*
X110138Y342717D02*
D03*
X121653Y331988D02*
D03*
X105807Y331299D02*
D03*
X98327Y324882D02*
D03*
X78642Y411024D02*
D03*
X84646Y327559D02*
D03*
X121653Y368406D02*
D03*
X151083Y333268D02*
D03*
X58956Y327764D02*
D03*
X135236Y399902D02*
D03*
X93996Y435728D02*
D03*
X42815Y420079D02*
D03*
X46654Y383071D02*
D03*
X230512Y429331D02*
D03*
X228543Y405610D02*
D03*
X217520Y420669D02*
D03*
X244882Y439862D02*
D03*
X224606Y429035D02*
D03*
X225689Y405610D02*
D03*
X217421Y412795D02*
D03*
X241437D02*
D03*
X219094Y432579D02*
D03*
X262205Y404429D02*
D03*
X328839Y416437D02*
D03*
X327067Y418602D02*
D03*
X345079Y388681D02*
D03*
X335138Y384941D02*
D03*
X375787Y400886D02*
D03*
X367914Y439961D02*
D03*
X408169Y409350D02*
D03*
X392815Y385925D02*
D03*
X315846Y433760D02*
D03*
X359154Y362992D02*
D03*
X319685Y448032D02*
D03*
X367618Y404823D02*
D03*
X391831Y417028D02*
D03*
X402953Y399508D02*
D03*
X375886Y414665D02*
D03*
X399311Y435925D02*
D03*
X406791Y424016D02*
D03*
X304626Y417717D02*
D03*
X169390Y347736D02*
D03*
X57382Y261417D02*
D03*
X58366Y267224D02*
D03*
X45374Y248917D02*
D03*
X58169Y263386D02*
D03*
X51083Y245177D02*
D03*
X35531Y312500D02*
D03*
X47638Y253150D02*
D03*
X60236Y264370D02*
D03*
X57972Y272736D02*
D03*
X45866Y236614D02*
D03*
X33957Y236024D02*
D03*
X36024Y249705D02*
D03*
X53248Y251772D02*
D03*
X42314Y258259D02*
D03*
X50886Y219291D02*
D03*
X11811Y213189D02*
D03*
X48130Y219390D02*
D03*
X13178Y211406D02*
D03*
X40945Y218110D02*
D03*
Y209646D02*
D03*
X50787Y222736D02*
D03*
X46555D02*
D03*
X64173Y221161D02*
D03*
X34744Y220965D02*
D03*
X13287Y228051D02*
D03*
X10433Y222835D02*
D03*
X24508Y231693D02*
D03*
X21260Y231299D02*
D03*
X10728Y217323D02*
D03*
X21250Y199890D02*
D03*
X27165Y199902D02*
D03*
X38583Y217323D02*
D03*
X134449Y241732D02*
D03*
X139567Y201575D02*
D03*
X81496Y220374D02*
D03*
X74410Y214370D02*
D03*
X82480Y204134D02*
D03*
X79134Y224803D02*
D03*
X90748Y242323D02*
D03*
X96653Y242126D02*
D03*
X92716Y214567D02*
D03*
X94685Y213484D02*
D03*
X76673Y234350D02*
D03*
X78839Y234547D02*
D03*
X74409Y234154D02*
D03*
X150591Y214764D02*
D03*
X155315Y227362D02*
D03*
X157776Y234350D02*
D03*
X163583Y212697D02*
D03*
X153740Y220472D02*
D03*
X151083Y238386D02*
D03*
X142618Y242028D02*
D03*
Y232480D02*
D03*
X143110Y220768D02*
D03*
X214024Y118650D02*
D03*
X213831Y116681D02*
D03*
X213240Y108807D02*
D03*
X213141Y102902D02*
D03*
X213142Y100933D02*
D03*
X212941Y93059D02*
D03*
X199264Y91091D02*
D03*
X199803Y79429D02*
D03*
X215059Y35728D02*
D03*
X219087Y35638D02*
D03*
X221055Y35539D02*
D03*
X226961Y35721D02*
D03*
X230898Y35736D02*
D03*
X232866Y35441D02*
D03*
X238772Y35917D02*
D03*
X244677Y35736D02*
D03*
X250583Y35622D02*
D03*
X254520Y35622D02*
D03*
X262394Y35441D02*
D03*
X263039Y59595D02*
D03*
X262941Y61563D02*
D03*
X263240Y75343D02*
D03*
X263433Y81248D02*
D03*
X263335Y83217D02*
D03*
X278051Y99508D02*
D03*
X263338Y102902D02*
D03*
X263433Y108807D02*
D03*
X263335Y110776D02*
D03*
X263240Y122587D02*
D03*
X263335Y124555D02*
D03*
X263289Y126559D02*
D03*
X258661Y125689D02*
D03*
X252756D02*
D03*
X242709Y125894D02*
D03*
X234835Y125894D02*
D03*
X224992Y125681D02*
D03*
X223024Y125697D02*
D03*
X219087Y125598D02*
D03*
X323201Y129063D02*
D03*
X329918Y117910D02*
D03*
X330016Y115941D02*
D03*
X329721Y108067D02*
D03*
X329720Y102162D02*
D03*
X317224Y101083D02*
D03*
Y91732D02*
D03*
X329524Y90351D02*
D03*
X317028Y77658D02*
D03*
X330512Y39272D02*
D03*
X336221Y38484D02*
D03*
X344488Y54429D02*
D03*
X347807Y54500D02*
D03*
X350886Y54724D02*
D03*
X366535Y52854D02*
D03*
X371555Y52756D02*
D03*
X381201Y38189D02*
D03*
X378346Y61516D02*
D03*
X378445Y63681D02*
D03*
X377464Y74603D02*
D03*
X378146Y80508D02*
D03*
X378153Y82477D02*
D03*
X377661Y90351D02*
D03*
X377563Y94288D02*
D03*
X377457Y102162D02*
D03*
X378252Y108067D02*
D03*
X379531Y110036D02*
D03*
X378055Y121847D02*
D03*
X373398Y125618D02*
D03*
X371429Y124776D02*
D03*
X358957Y125492D02*
D03*
X351744Y126012D02*
D03*
X349114Y125886D02*
D03*
X341902Y125815D02*
D03*
X339961Y124409D02*
D03*
X335996Y125858D02*
D03*
X92323Y183169D02*
D03*
X127657Y159449D02*
D03*
X125591Y186024D02*
D03*
X95768Y167717D02*
D03*
X59744Y173031D02*
D03*
X126575Y192815D02*
D03*
X123228Y164272D02*
D03*
X72047Y181595D02*
D03*
X146555Y225590D02*
D03*
X117618Y189961D02*
D03*
X377264Y275098D02*
D03*
X94784Y186516D02*
D03*
X133071Y187500D02*
D03*
X253642Y356102D02*
D03*
X251870Y357776D02*
D03*
X125492Y153937D02*
D03*
X279134Y112795D02*
D03*
X377756Y115453D02*
D03*
X138583Y183661D02*
D03*
X127067Y142421D02*
D03*
X28543Y193996D02*
D03*
X55709Y194980D02*
D03*
X32579Y193898D02*
D03*
X56102Y190354D02*
D03*
X27264Y182776D02*
D03*
X56890Y183661D02*
D03*
X59153Y184154D02*
D03*
X277658Y385138D02*
D03*
X268996Y387008D02*
D03*
X275689Y392913D02*
D03*
X196260Y244685D02*
D03*
X399803Y413681D02*
D03*
Y409842D02*
D03*
X403839Y429921D02*
D03*
X413484Y407579D02*
D03*
X411516Y418110D02*
D03*
X403150Y364075D02*
D03*
X434646Y375492D02*
D03*
X392028Y363189D02*
D03*
X434449Y365748D02*
D03*
X404567Y380945D02*
D03*
X433760Y356201D02*
D03*
X165157Y116536D02*
D03*
X258260Y39378D02*
D03*
X165157Y118437D02*
D03*
X260531Y39378D02*
D03*
X163976Y86319D02*
D03*
X234736Y39280D02*
D03*
X163976Y88221D02*
D03*
X237008Y39280D02*
D03*
X165059Y103575D02*
D03*
X248721Y39469D02*
D03*
X165059Y101673D02*
D03*
X246449Y39469D02*
D03*
X164173Y72965D02*
D03*
X225098Y39378D02*
D03*
X164173Y71063D02*
D03*
X222827Y39378D02*
D03*
X325394Y230807D02*
D03*
X339665Y227264D02*
D03*
X404665Y350945D02*
D03*
X321260Y436713D02*
D03*
X384260Y251762D02*
D03*
X79232Y227067D02*
D03*
X38484Y213386D02*
D03*
X105807Y226575D02*
D03*
X106102Y223917D02*
D03*
X106496Y231693D02*
D03*
X106791Y228937D02*
D03*
X140650Y231988D02*
D03*
X336614Y198327D02*
D03*
X337303Y206988D02*
D03*
X340846Y410039D02*
D03*
X367520Y434941D02*
D03*
X348819Y443307D02*
D03*
X76477Y432185D02*
D03*
X269685Y437697D02*
D03*
X296752Y420472D02*
D03*
X32579Y163878D02*
D03*
X61614Y164862D02*
D03*
X58563Y167126D02*
D03*
X17323Y444291D02*
D03*
X73701Y438307D02*
D03*
X129528Y317618D02*
D03*
X116535Y370472D02*
D03*
X105610Y395768D02*
D03*
X108858Y395472D02*
D03*
X99410Y395669D02*
D03*
X14370Y444291D02*
D03*
X71063Y438307D02*
D03*
X253248Y353248D02*
D03*
X201279Y174705D02*
D03*
X121850Y359744D02*
D03*
X119390Y317323D02*
D03*
X129331Y313090D02*
D03*
X119291Y313091D02*
D03*
Y307776D02*
D03*
X129232Y307874D02*
D03*
X119291Y304331D02*
D03*
X129232D02*
D03*
X109153Y295374D02*
D03*
X111221Y279823D02*
D03*
X138583D02*
D03*
X139961Y277264D02*
D03*
X110335Y275886D02*
D03*
X152559Y307185D02*
D03*
X154921Y305217D02*
D03*
X150886Y316634D02*
D03*
X150984Y312992D02*
D03*
X144390Y317224D02*
D03*
X163386Y326476D02*
D03*
X135728Y325984D02*
D03*
X139075Y325984D02*
D03*
X105709Y285827D02*
D03*
X119882Y285728D02*
D03*
X157874Y301772D02*
D03*
X113976Y352756D02*
D03*
X122047Y346260D02*
D03*
X65551Y396555D02*
D03*
X106890Y393602D02*
D03*
X79035Y393996D02*
D03*
X202362Y172146D02*
D03*
X213681Y179626D02*
D03*
X217815Y179823D02*
D03*
X228445Y156398D02*
D03*
X242323Y157087D02*
D03*
X324410Y157480D02*
D03*
X329134D02*
D03*
X300295Y178445D02*
D03*
X315354D02*
D03*
X276476Y210827D02*
D03*
X301870Y217717D02*
D03*
X109350Y316142D02*
D03*
X128051Y325197D02*
D03*
X150295Y325295D02*
D03*
X167028Y333465D02*
D03*
X159252Y330709D02*
D03*
X154232Y283268D02*
D03*
X138484Y285925D02*
D03*
X110039Y332185D02*
D03*
X9843Y452559D02*
D03*
X108169Y462598D02*
D03*
X363484Y38484D02*
D03*
X365748D02*
D03*
X79137Y42719D02*
D03*
X377362Y38681D02*
D03*
X375295D02*
D03*
X342224Y38976D02*
D03*
X339862D02*
D03*
X89862Y24409D02*
D03*
X354035Y38681D02*
D03*
X351476D02*
D03*
X58563Y457870D02*
D03*
X199646Y444153D02*
D03*
X433957Y73032D02*
D03*
X433858Y387992D02*
D03*
X408563Y89075D02*
D03*
X216531Y457870D02*
D03*
X260236Y452949D02*
D03*
X35335Y94587D02*
D03*
X263583Y71358D02*
D03*
X32776Y140748D02*
D03*
X22047Y22736D02*
D03*
X23228Y49016D02*
D03*
X391142Y64469D02*
D03*
X391732Y70669D02*
D03*
X440158Y249803D02*
D03*
X420079Y254429D02*
D03*
X427854Y236910D02*
D03*
X347441Y215256D02*
D03*
X350295Y218406D02*
D03*
X348819Y216732D02*
D03*
X415256Y267126D02*
D03*
X263090Y65354D02*
D03*
X16732Y377166D02*
D03*
X16634Y371358D02*
D03*
X16535Y363779D02*
D03*
X16634Y361122D02*
D03*
X16732Y349114D02*
D03*
X24213Y332677D02*
D03*
X55512Y340945D02*
D03*
X44685Y381595D02*
D03*
D205*
X432972Y435630D02*
D03*
X96063Y194095D02*
D03*
X271535Y461693D02*
D03*
X287205Y160827D02*
D03*
X280807Y144783D02*
D03*
X373228Y285827D02*
D03*
X357677Y242421D02*
D03*
X357874Y279626D02*
D03*
X360728Y298031D02*
D03*
X137795Y241929D02*
D03*
X141339Y176181D02*
D03*
X85532Y259154D02*
D03*
X73819Y231102D02*
D03*
X377461Y269291D02*
D03*
X351181Y275787D02*
D03*
X378346Y265453D02*
D03*
X357776Y262795D02*
D03*
X357579Y268406D02*
D03*
X344685Y292520D02*
D03*
X224410Y217913D02*
D03*
X224311Y214764D02*
D03*
X192717Y183366D02*
D03*
X195965Y230315D02*
D03*
X189860Y451378D02*
D03*
X215256Y449016D02*
D03*
X168996Y455905D02*
D03*
X171260Y449154D02*
D03*
X170866Y444095D02*
D03*
X185039Y429528D02*
D03*
X149213Y456594D02*
D03*
X205020Y448819D02*
D03*
X205118Y363681D02*
D03*
X185236Y372244D02*
D03*
X195866Y418799D02*
D03*
X177854Y388484D02*
D03*
X205211Y402073D02*
D03*
X162598Y414468D02*
D03*
X107283Y314173D02*
D03*
X102264Y306791D02*
D03*
X98622Y293012D02*
D03*
X158366Y253543D02*
D03*
X162598Y253740D02*
D03*
X154528Y250098D02*
D03*
X191781Y328396D02*
D03*
X172441Y328642D02*
D03*
X21260Y228051D02*
D03*
X27165Y227953D02*
D03*
X96653Y208858D02*
D03*
X90748Y208858D02*
D03*
X58957Y252264D02*
D03*
X198772Y65500D02*
D03*
X193405Y75000D02*
D03*
X215205Y54035D02*
D03*
X310630Y73917D02*
D03*
X332677Y54921D02*
D03*
X180955Y203297D02*
D03*
X59153Y435039D02*
D03*
X36024Y290453D02*
D03*
X367126Y298031D02*
D03*
X357185Y299114D02*
D03*
X206292Y132291D02*
D03*
X72342Y218504D02*
D03*
X64370Y171457D02*
D03*
X140256Y217224D02*
D03*
X97244Y189862D02*
D03*
X81201Y187795D02*
D03*
X76280Y165453D02*
D03*
X107362Y184075D02*
D03*
Y150413D02*
D03*
X68898Y181693D02*
D03*
X45956Y183846D02*
D03*
X21752Y195472D02*
D03*
X126575Y145866D02*
D03*
X308661Y456693D02*
D03*
X58760Y411614D02*
D03*
X4232Y125394D02*
D03*
X4075Y120413D02*
D03*
X31358Y115413D02*
D03*
X31280Y110413D02*
D03*
X65847Y135236D02*
D03*
X67815Y128248D02*
D03*
X61713Y106496D02*
D03*
X68701Y110925D02*
D03*
D206*
X325886Y209941D02*
D03*
X321161Y205217D02*
D03*
X325886D02*
D03*
X321161Y209941D02*
D03*
X316437Y205217D02*
D03*
X325886Y195768D02*
D03*
X321161Y200492D02*
D03*
X325886D02*
D03*
X316437D02*
D03*
X321161Y195768D02*
D03*
X316437D02*
D03*
X311713Y209941D02*
D03*
X316437D02*
D03*
X311713Y205217D02*
D03*
Y195768D02*
D03*
Y200492D02*
D03*
X367323Y269783D02*
D03*
Y265059D02*
D03*
X29921Y218110D02*
D03*
Y213386D02*
D03*
X25197Y218110D02*
D03*
X29921Y208661D02*
D03*
X25197Y213386D02*
D03*
Y208661D02*
D03*
X20472Y213386D02*
D03*
Y218110D02*
D03*
Y208661D02*
D03*
X231890Y420079D02*
D03*
Y415354D02*
D03*
X227165Y420079D02*
D03*
Y415354D02*
D03*
X358563Y445079D02*
D03*
X97441Y233465D02*
D03*
X92716D02*
D03*
X97441Y228740D02*
D03*
Y224016D02*
D03*
X92716Y228740D02*
D03*
Y224016D02*
D03*
X87992Y233465D02*
D03*
Y228740D02*
D03*
Y224016D02*
D03*
M02*
