%FSLAX25Y25*%
%MOIN*%
G70*
G01*
G75*
G04 Layer_Color=128*
%ADD10C,0.01969*%
%ADD11C,0.01181*%
%ADD12R,0.05906X0.22047*%
%ADD13R,0.06299X0.19291*%
%ADD14R,0.02441X0.02441*%
%ADD15R,0.02559X0.02165*%
%ADD16R,0.02165X0.02559*%
%ADD17R,0.05512X0.03740*%
%ADD18R,0.02441X0.02441*%
%ADD19R,0.07087X0.04528*%
%ADD20R,0.03937X0.03543*%
%ADD21R,0.03543X0.03937*%
%ADD22R,0.04528X0.07087*%
%ADD23R,0.05709X0.04528*%
%ADD24R,0.04528X0.10630*%
%ADD25R,0.04528X0.05709*%
%ADD26R,0.10630X0.04528*%
%ADD27R,0.01654X0.01811*%
%ADD28R,0.01575X0.01575*%
%ADD29R,0.05512X0.04134*%
%ADD30R,0.08661X0.20472*%
%ADD31R,0.23622X0.07874*%
%ADD32R,0.06693X0.02795*%
%ADD33R,0.02795X0.06693*%
%ADD34R,0.01969X0.01969*%
%ADD35R,0.01969X0.01378*%
%ADD36R,0.01969X0.01969*%
%ADD37R,0.01378X0.01969*%
G04:AMPARAMS|DCode=38|XSize=13.78mil|YSize=19.69mil|CornerRadius=0mil|HoleSize=0mil|Usage=FLASHONLY|Rotation=315.000|XOffset=0mil|YOffset=0mil|HoleType=Round|Shape=Rectangle|*
%AMROTATEDRECTD38*
4,1,4,-0.01183,-0.00209,0.00209,0.01183,0.01183,0.00209,-0.00209,-0.01183,-0.01183,-0.00209,0.0*
%
%ADD38ROTATEDRECTD38*%

%ADD39P,0.02784X4X360.0*%
%ADD40R,0.06299X0.02165*%
%ADD41C,0.01378*%
%ADD42O,0.08268X0.01181*%
%ADD43O,0.01181X0.08268*%
%ADD44R,0.03347X0.01181*%
%ADD45R,0.01181X0.03347*%
%ADD46R,0.13386X0.13386*%
%ADD47R,0.03740X0.05512*%
%ADD48R,0.01575X0.00984*%
%ADD49R,0.01969X0.05512*%
%ADD50R,0.00984X0.01575*%
%ADD51R,0.05512X0.01969*%
%ADD52R,0.09449X0.02992*%
%ADD53R,0.03543X0.01575*%
%ADD54R,0.01811X0.01654*%
%ADD55R,0.04724X0.02953*%
%ADD56O,0.02953X0.00984*%
%ADD57O,0.00984X0.02953*%
%ADD58R,0.17716X0.17716*%
%ADD59R,0.07520X0.02992*%
%ADD60R,0.00984X0.01969*%
%ADD61R,0.01969X0.00984*%
%ADD62R,0.09055X0.09055*%
%ADD63C,0.05906*%
%ADD64R,0.10984X0.07559*%
%ADD65R,0.18110X0.22047*%
%ADD66R,0.04134X0.05512*%
%ADD67R,0.07284X0.02913*%
%ADD68R,0.02362X0.02362*%
%ADD69R,0.04528X0.02992*%
%ADD70C,0.00984*%
%ADD71R,0.02756X0.01181*%
%ADD72R,0.06221X0.09252*%
%ADD73O,0.03150X0.00984*%
%ADD74O,0.00984X0.03150*%
%ADD75R,0.18071X0.04370*%
%ADD76R,0.11181X0.12284*%
%ADD77R,0.05276X0.12284*%
%ADD78R,0.06299X0.08268*%
%ADD79R,0.05315X0.01575*%
%ADD80R,0.07480X0.07087*%
%ADD81R,0.01772X0.01378*%
%ADD82R,0.02362X0.07874*%
%ADD83R,0.01181X0.01181*%
%ADD84R,0.02362X0.01181*%
%ADD85R,0.07087X0.02362*%
%ADD86R,0.01772X0.01181*%
%ADD87R,0.01181X0.01772*%
%ADD88R,0.01181X0.01181*%
%ADD89R,0.26772X0.26772*%
%ADD90R,0.01575X0.01575*%
%ADD91R,0.03543X0.01772*%
%ADD92R,0.18898X0.18898*%
%ADD93C,0.00453*%
%ADD94C,0.03150*%
%ADD95C,0.00512*%
%ADD96C,0.01000*%
%ADD97C,0.00394*%
%ADD98C,0.01969*%
%ADD99C,0.01378*%
%ADD100C,0.03937*%
%ADD101C,0.00787*%
%ADD102C,0.00784*%
%ADD103C,0.00996*%
%ADD104C,0.01181*%
%ADD105R,0.09941X0.01870*%
%ADD106R,0.14075X0.03740*%
%ADD107R,0.04823X0.07776*%
%ADD108R,0.08268X0.01476*%
%ADD109R,0.12303X0.06004*%
%ADD110R,0.01181X0.00984*%
%ADD111R,0.03543X0.00787*%
%ADD112R,0.06299X0.00394*%
%ADD113R,0.31693X0.08071*%
%ADD114R,0.16535X0.19291*%
%ADD115R,0.08563X0.19291*%
%ADD116R,0.42224X0.07874*%
%ADD117R,0.03740X0.24016*%
%ADD118R,0.14370X0.08760*%
%ADD119R,0.09843X0.11122*%
%ADD120R,0.60335X0.08465*%
%ADD121R,0.05807X0.33169*%
%ADD122R,0.03740X0.41043*%
%ADD123R,0.04429X0.41240*%
%ADD124R,0.92913X0.01870*%
%ADD125R,0.02430X0.17389*%
%ADD126R,0.34449X0.01969*%
%ADD127R,0.03642X0.11417*%
%ADD128R,0.02431X0.00820*%
%ADD129R,0.04134X0.05413*%
%ADD130R,0.30413X0.06496*%
%ADD131R,0.30709X0.06299*%
%ADD132R,0.30315X0.12008*%
%ADD133R,0.40256X0.05807*%
%ADD134R,0.39961X0.06594*%
%ADD135R,0.00886X0.01280*%
%ADD136R,0.19095X0.03937*%
%ADD137R,0.27756X0.05413*%
%ADD138R,0.30315X0.06102*%
%ADD139R,0.30807X0.08268*%
%ADD140R,0.38091X0.05118*%
%ADD141R,0.38287X0.06398*%
%ADD142R,0.04232X0.02854*%
%ADD143R,0.05315X0.10728*%
%ADD144R,0.10531X0.12598*%
%ADD145R,0.07087X0.21752*%
%ADD146R,0.08465X0.02854*%
%ADD147R,0.02362X0.02264*%
%ADD148R,0.04429X0.02756*%
%ADD149R,0.11713X0.02953*%
%ADD150R,0.09843X0.04134*%
%ADD151R,0.04921X0.18504*%
%ADD152R,0.13189X0.03051*%
%ADD153R,0.06594X0.04232*%
%ADD154R,0.14075X0.03839*%
%ADD155R,0.03839X0.08661*%
%ADD156R,0.10728X0.03445*%
%ADD157R,0.02431X1.19587*%
%ADD158R,0.02264X0.05512*%
%ADD159R,0.03347X0.05315*%
%ADD160R,0.68504X0.02165*%
%ADD161R,0.02165X0.76575*%
%ADD162R,0.25098X0.01969*%
%ADD163R,0.02658X0.42618*%
%ADD164R,0.16043X0.02264*%
%ADD165R,0.02461X0.13189*%
%ADD166R,0.78150X0.02461*%
%ADD167R,0.34842X0.01969*%
%ADD168R,0.02264X0.71752*%
%ADD169R,0.11614X0.04035*%
%ADD170R,0.10925X0.14469*%
%ADD171R,0.19193X0.03051*%
%ADD172R,0.17224X0.04528*%
%ADD173R,0.05315X0.93799*%
%ADD174R,0.13386X0.08169*%
%ADD175R,0.08661X0.12402*%
%ADD176R,0.08465X0.09843*%
%ADD177R,0.09153X0.17224*%
%ADD178R,0.14764X0.11122*%
%ADD179R,0.13976X0.11319*%
%ADD180R,0.02854X0.21358*%
%ADD181R,0.15453X0.49409*%
%ADD182R,0.18996X0.06496*%
%ADD183R,0.06791X1.25492*%
%ADD184R,0.09911X0.06594*%
%ADD185C,0.15748*%
%ADD186C,0.09882*%
%ADD187C,0.06299*%
%ADD188C,0.04803*%
%ADD189C,0.07087*%
%ADD190C,0.07874*%
%ADD191C,0.00591*%
%ADD192C,0.02165*%
%ADD193C,0.01575*%
%ADD194C,0.02598*%
%ADD195C,0.04000*%
%ADD196C,0.13386*%
%ADD197C,0.10669*%
%ADD198C,0.05591*%
%ADD199C,0.05787*%
%ADD200C,0.08071*%
%ADD201C,0.02362*%
%ADD202C,0.03150*%
%ADD203C,0.02559*%
%ADD204C,0.02874*%
%ADD205C,0.00642*%
%ADD206P,0.03452X4X360.0*%
%ADD207R,0.07874X0.23622*%
%ADD208R,0.07087X0.07874*%
%ADD209C,0.00787*%
%ADD210R,0.01614X0.01299*%
%ADD211R,0.10236X0.08661*%
%ADD212R,0.00945X0.03543*%
%ADD213R,0.03543X0.00945*%
%ADD214R,0.05512X0.03937*%
%ADD215R,0.03937X0.02756*%
%ADD216R,0.01969X0.01575*%
%ADD217R,0.01378X0.05118*%
%ADD218R,0.01772X0.05118*%
%ADD219R,0.02362X0.05118*%
%ADD220R,0.08661X0.02913*%
%ADD221R,0.03347X0.01378*%
%ADD222R,0.05079X0.04882*%
%ADD223R,0.07874X0.07087*%
%ADD224R,0.02992X0.06496*%
%ADD225R,0.04724X0.03543*%
%ADD226R,0.03583X0.04803*%
%ADD227R,0.10512X0.10000*%
%ADD228R,0.03000X0.05000*%
%ADD229R,0.07480X0.05512*%
%ADD230R,0.05906X0.03150*%
%ADD231R,0.05512X0.07087*%
%ADD232R,0.01969X0.03248*%
%ADD233R,0.01969X0.01693*%
%ADD234R,0.03071X0.03425*%
%ADD235R,0.01969X0.02756*%
%ADD236R,0.03248X0.28937*%
%ADD237R,0.19193X0.05512*%
%ADD238R,0.02658X0.02953*%
%ADD239R,0.02067X0.02559*%
%ADD240R,0.29232X0.06299*%
%ADD241R,0.16965X0.06606*%
%ADD242R,0.41894X0.10102*%
%ADD243R,0.07284X0.75492*%
%ADD244R,0.02658X1.25984*%
%ADD245R,0.89173X0.01476*%
%ADD246R,0.01476X0.04626*%
%ADD247R,0.51476X0.01378*%
%ADD248R,0.02264X1.46260*%
%ADD249R,0.79823X0.01969*%
%ADD250R,0.02559X0.50984*%
%ADD251R,0.25295X0.01969*%
%ADD252R,0.02165X0.50394*%
%ADD253R,0.13878X0.02264*%
%ADD254R,0.02362X0.28051*%
%ADD255R,0.67618X0.02362*%
%ADD256R,0.34842X0.02067*%
%ADD257R,0.02165X0.73032*%
%ADD258R,0.44783X0.02756*%
%ADD259R,0.11811X0.16732*%
%ADD260R,0.12795X0.08071*%
%ADD261R,0.13681X0.20768*%
%ADD262R,0.23622X0.03740*%
%ADD263R,0.03839X0.93898*%
%ADD264R,0.14862X0.06201*%
%ADD265R,0.14764X0.09153*%
%ADD266R,0.13090X0.08366*%
%ADD267R,0.08465X0.07677*%
%ADD268R,0.13386X0.09055*%
%ADD269R,0.06102X1.26181*%
%ADD270R,0.08268X0.19193*%
%ADD271R,0.15846X0.19488*%
%ADD272R,0.41142X0.08268*%
%ADD273C,0.00984*%
%ADD274C,0.00472*%
%ADD275C,0.02362*%
%ADD276C,0.00100*%
%ADD277C,0.00700*%
%ADD278C,0.00500*%
%ADD279C,0.00591*%
%ADD280R,0.03937X1.20791*%
%ADD281R,0.14370X0.01500*%
%ADD282C,0.02769*%
%ADD283C,0.01981*%
%ADD284R,0.06706X0.22847*%
%ADD285R,0.07099X0.20091*%
%ADD286R,0.03241X0.03241*%
%ADD287R,0.03359X0.02965*%
%ADD288R,0.02965X0.03359*%
%ADD289R,0.06312X0.04540*%
%ADD290R,0.03241X0.03241*%
%ADD291R,0.07887X0.05328*%
%ADD292R,0.04737X0.04343*%
%ADD293R,0.04343X0.04737*%
%ADD294R,0.05328X0.07887*%
%ADD295R,0.06509X0.05328*%
%ADD296R,0.05328X0.11430*%
%ADD297R,0.05328X0.06509*%
%ADD298R,0.11430X0.05328*%
%ADD299R,0.02454X0.02611*%
%ADD300R,0.02375X0.02375*%
%ADD301R,0.06312X0.04934*%
%ADD302R,0.09461X0.21272*%
%ADD303R,0.24422X0.08674*%
%ADD304R,0.07493X0.03595*%
%ADD305R,0.03595X0.07493*%
%ADD306R,0.02769X0.02769*%
%ADD307R,0.02769X0.02178*%
%ADD308R,0.02769X0.02769*%
%ADD309R,0.02178X0.02769*%
G04:AMPARAMS|DCode=310|XSize=21.78mil|YSize=27.69mil|CornerRadius=0mil|HoleSize=0mil|Usage=FLASHONLY|Rotation=315.000|XOffset=0mil|YOffset=0mil|HoleType=Round|Shape=Rectangle|*
%AMROTATEDRECTD310*
4,1,4,-0.01749,-0.00209,0.00209,0.01749,0.01749,0.00209,-0.00209,-0.01749,-0.01749,-0.00209,0.0*
%
%ADD310ROTATEDRECTD310*%

%ADD311P,0.03915X4X360.0*%
%ADD312R,0.07099X0.02965*%
%ADD313C,0.02178*%
%ADD314O,0.09068X0.01981*%
%ADD315O,0.01981X0.09068*%
%ADD316R,0.04147X0.01981*%
%ADD317R,0.01981X0.04147*%
%ADD318R,0.14186X0.14186*%
%ADD319R,0.04540X0.06312*%
%ADD320R,0.02375X0.01784*%
%ADD321R,0.02769X0.06312*%
%ADD322R,0.01784X0.02375*%
%ADD323R,0.06312X0.02769*%
%ADD324R,0.10249X0.03792*%
%ADD325R,0.04343X0.02375*%
%ADD326R,0.02611X0.02454*%
%ADD327R,0.05524X0.03753*%
%ADD328O,0.03753X0.01784*%
%ADD329O,0.01784X0.03753*%
%ADD330R,0.18517X0.18517*%
%ADD331R,0.08320X0.03792*%
%ADD332R,0.01784X0.02769*%
%ADD333R,0.02769X0.01784*%
%ADD334R,0.09855X0.09855*%
%ADD335C,0.06706*%
%ADD336R,0.11784X0.08359*%
%ADD337R,0.18910X0.22847*%
%ADD338R,0.04934X0.06312*%
%ADD339R,0.08083X0.03713*%
%ADD340R,0.03162X0.03162*%
%ADD341R,0.05328X0.03792*%
%ADD342C,0.01784*%
%ADD343R,0.03556X0.01981*%
%ADD344R,0.07021X0.10052*%
%ADD345O,0.03950X0.01784*%
%ADD346O,0.01784X0.03950*%
%ADD347R,0.18871X0.05170*%
%ADD348R,0.11981X0.13084*%
%ADD349R,0.06076X0.13084*%
%ADD350R,0.07099X0.09068*%
%ADD351R,0.06115X0.02375*%
%ADD352R,0.08280X0.07887*%
%ADD353R,0.02572X0.02178*%
%ADD354R,0.03162X0.08674*%
%ADD355R,0.01981X0.01981*%
%ADD356R,0.03162X0.01981*%
%ADD357R,0.07887X0.03162*%
%ADD358R,0.02572X0.01981*%
%ADD359R,0.01981X0.02572*%
%ADD360R,0.01981X0.01981*%
%ADD361R,0.27572X0.27572*%
%ADD362R,0.02375X0.02375*%
%ADD363R,0.04343X0.02572*%
%ADD364R,0.19698X0.19698*%
%ADD365C,0.16548*%
%ADD366C,0.10682*%
%ADD367C,0.07099*%
%ADD368C,0.05603*%
%ADD369C,0.07887*%
%ADD370C,0.08674*%
%ADD371C,0.01391*%
%ADD372C,0.02965*%
%ADD373C,0.02375*%
%ADD374P,0.04583X4X360.0*%
%ADD375R,0.08674X0.24422*%
%ADD376R,0.07887X0.08674*%
%ADD377C,0.01587*%
%ADD378R,0.02414X0.02099*%
%ADD379R,0.11036X0.09461*%
%ADD380R,0.01745X0.04343*%
%ADD381R,0.04343X0.01745*%
%ADD382R,0.06312X0.04737*%
%ADD383R,0.04737X0.03556*%
%ADD384R,0.02769X0.02375*%
%ADD385R,0.02178X0.05918*%
%ADD386R,0.02572X0.05918*%
%ADD387R,0.03162X0.05918*%
%ADD388R,0.09461X0.03713*%
%ADD389R,0.04147X0.02178*%
%ADD390R,0.05879X0.05682*%
%ADD391R,0.08674X0.07887*%
%ADD392R,0.03792X0.07296*%
%ADD393R,0.05524X0.04343*%
%ADD394R,0.04383X0.05603*%
%ADD395R,0.11312X0.10800*%
%ADD396R,0.03800X0.05800*%
%ADD397R,0.08280X0.06312*%
%ADD398R,0.06706X0.03950*%
%ADD399R,0.06312X0.07887*%
%ADD400R,0.02769X0.04048*%
%ADD401R,0.02769X0.02493*%
%ADD402R,0.03871X0.04225*%
%ADD403R,0.02769X0.03556*%
%ADD404C,0.03398*%
D10*
X366732Y293898D02*
D03*
D13*
X102461Y457870D02*
D03*
X68961D02*
D03*
X260039Y457772D02*
D03*
X226539D02*
D03*
X49213Y457870D02*
D03*
X15713D02*
D03*
D14*
X39862Y332087D02*
D03*
Y335630D02*
D03*
X52756Y331988D02*
D03*
Y335532D02*
D03*
X57776Y331988D02*
D03*
Y335532D02*
D03*
X135630Y420472D02*
D03*
Y424016D02*
D03*
X135630Y404725D02*
D03*
Y408268D02*
D03*
X104331Y252067D02*
D03*
Y255610D02*
D03*
X98957Y252067D02*
D03*
Y255610D02*
D03*
X93504Y252067D02*
D03*
Y255610D02*
D03*
X183071Y273622D02*
D03*
Y277165D02*
D03*
X176772Y286319D02*
D03*
Y289862D02*
D03*
X189370Y257480D02*
D03*
Y261024D02*
D03*
X170472Y267421D02*
D03*
Y270965D02*
D03*
X192421Y270473D02*
D03*
Y274016D02*
D03*
X183268Y282973D02*
D03*
Y286516D02*
D03*
X179921Y295571D02*
D03*
Y299114D02*
D03*
X242457Y266646D02*
D03*
Y270189D02*
D03*
X247673Y264579D02*
D03*
Y268122D02*
D03*
X263520Y301390D02*
D03*
Y304933D02*
D03*
X257614Y301390D02*
D03*
Y304933D02*
D03*
X251551Y301390D02*
D03*
Y304933D02*
D03*
X247772Y255720D02*
D03*
Y259264D02*
D03*
X264602Y262315D02*
D03*
Y265858D02*
D03*
X263520Y311035D02*
D03*
Y314579D02*
D03*
X257811Y311035D02*
D03*
Y314579D02*
D03*
X258894Y262315D02*
D03*
Y265858D02*
D03*
X170472Y299016D02*
D03*
Y302559D02*
D03*
X173524Y276772D02*
D03*
Y280315D02*
D03*
X189370Y292618D02*
D03*
Y296161D02*
D03*
X270114Y262315D02*
D03*
Y265858D02*
D03*
X213224Y331662D02*
D03*
Y335205D02*
D03*
X183071Y305217D02*
D03*
Y308760D02*
D03*
X218406Y331693D02*
D03*
Y335236D02*
D03*
X220866Y257579D02*
D03*
Y261122D02*
D03*
X214567Y305217D02*
D03*
Y308760D02*
D03*
X176969Y314272D02*
D03*
Y317815D02*
D03*
X208157Y331693D02*
D03*
Y335236D02*
D03*
X203150Y331594D02*
D03*
Y335138D02*
D03*
X198130Y331693D02*
D03*
Y335236D02*
D03*
X205118Y304921D02*
D03*
Y308465D02*
D03*
X209547Y304921D02*
D03*
Y308465D02*
D03*
X198819Y254429D02*
D03*
Y257972D02*
D03*
X229724Y255217D02*
D03*
Y258760D02*
D03*
X369980Y289567D02*
D03*
Y293110D02*
D03*
X129787Y252079D02*
D03*
Y255622D02*
D03*
X124669Y252177D02*
D03*
Y255720D02*
D03*
X145043Y265366D02*
D03*
Y268909D02*
D03*
X150260Y265366D02*
D03*
Y268909D02*
D03*
X119622Y252055D02*
D03*
Y255598D02*
D03*
X214567Y273622D02*
D03*
Y277165D02*
D03*
X109512Y265268D02*
D03*
Y268811D02*
D03*
X114630Y265268D02*
D03*
Y268811D02*
D03*
X119650Y265268D02*
D03*
Y268811D02*
D03*
X214323Y285795D02*
D03*
Y289338D02*
D03*
Y295343D02*
D03*
Y298886D02*
D03*
X124669Y265268D02*
D03*
Y268811D02*
D03*
X129689Y265268D02*
D03*
Y268811D02*
D03*
X134906Y265268D02*
D03*
Y268811D02*
D03*
X139925Y265268D02*
D03*
Y268811D02*
D03*
X114504Y252055D02*
D03*
Y255598D02*
D03*
X109386Y252055D02*
D03*
Y255598D02*
D03*
X145177Y251870D02*
D03*
Y255413D02*
D03*
X140024Y251882D02*
D03*
Y255425D02*
D03*
X135004Y251980D02*
D03*
Y255523D02*
D03*
X150295Y251870D02*
D03*
Y255413D02*
D03*
X208268Y273524D02*
D03*
Y277067D02*
D03*
X338583Y213189D02*
D03*
Y216732D02*
D03*
X324606Y273327D02*
D03*
Y276870D02*
D03*
X326969Y341536D02*
D03*
Y345079D02*
D03*
X341339Y329429D02*
D03*
Y332973D02*
D03*
X346457Y320079D02*
D03*
Y323622D02*
D03*
X341339Y258366D02*
D03*
Y261910D02*
D03*
X341240Y249902D02*
D03*
Y253445D02*
D03*
X346457Y249902D02*
D03*
Y253445D02*
D03*
X184941Y68406D02*
D03*
Y71949D02*
D03*
X300295Y54331D02*
D03*
Y57874D02*
D03*
X36614Y253150D02*
D03*
Y256693D02*
D03*
X142618Y234941D02*
D03*
Y238484D02*
D03*
X162500Y220079D02*
D03*
Y223622D02*
D03*
X196457Y444980D02*
D03*
Y448524D02*
D03*
X68012Y418209D02*
D03*
Y421752D02*
D03*
X75492Y418209D02*
D03*
Y421752D02*
D03*
X106299Y410335D02*
D03*
Y413878D02*
D03*
X56496Y401181D02*
D03*
Y404724D02*
D03*
X126083Y367421D02*
D03*
Y370965D02*
D03*
X106004Y429528D02*
D03*
Y433071D02*
D03*
X104134Y359646D02*
D03*
Y363189D02*
D03*
X118307Y400886D02*
D03*
Y404429D02*
D03*
X98425Y429429D02*
D03*
Y432972D02*
D03*
X98622Y410335D02*
D03*
Y413878D02*
D03*
X62795Y331496D02*
D03*
Y335039D02*
D03*
X132776Y347540D02*
D03*
Y351083D02*
D03*
X115059Y337106D02*
D03*
Y340650D02*
D03*
X137106Y336713D02*
D03*
Y340256D02*
D03*
X50197Y367028D02*
D03*
Y370571D02*
D03*
X272835Y219291D02*
D03*
Y222834D02*
D03*
X332185Y404036D02*
D03*
Y407579D02*
D03*
X387008Y426083D02*
D03*
Y429626D02*
D03*
X381693Y426083D02*
D03*
Y429626D02*
D03*
X378642Y407874D02*
D03*
Y411417D02*
D03*
X372933Y407874D02*
D03*
Y411417D02*
D03*
X72933Y281004D02*
D03*
Y284547D02*
D03*
D15*
X31398Y185728D02*
D03*
Y189665D02*
D03*
X52461Y183366D02*
D03*
Y187303D02*
D03*
X125591Y375591D02*
D03*
Y379528D02*
D03*
X106004Y418406D02*
D03*
Y422343D02*
D03*
X51476Y400591D02*
D03*
Y404528D02*
D03*
X105512Y437697D02*
D03*
Y441634D02*
D03*
X118012Y409055D02*
D03*
Y412992D02*
D03*
X125787Y408858D02*
D03*
Y412795D02*
D03*
X114370Y359842D02*
D03*
Y363779D02*
D03*
X98228Y437697D02*
D03*
Y441634D02*
D03*
X67421Y331102D02*
D03*
Y335039D02*
D03*
X230512Y432185D02*
D03*
Y436122D02*
D03*
X71653Y331102D02*
D03*
Y335039D02*
D03*
X135630Y412402D02*
D03*
Y416339D02*
D03*
X289862Y266831D02*
D03*
Y270768D02*
D03*
X297244Y273917D02*
D03*
Y277854D02*
D03*
X303150Y298524D02*
D03*
Y302461D02*
D03*
X307185Y298524D02*
D03*
Y302461D02*
D03*
X322539Y298524D02*
D03*
Y302461D02*
D03*
X293406Y298524D02*
D03*
Y302461D02*
D03*
X63976Y261417D02*
D03*
Y265354D02*
D03*
X49803Y253642D02*
D03*
Y257579D02*
D03*
X63287Y206299D02*
D03*
Y210236D02*
D03*
X63189Y214272D02*
D03*
Y218209D02*
D03*
X58760Y210531D02*
D03*
Y214468D02*
D03*
X136811Y234646D02*
D03*
Y238583D02*
D03*
X128248Y233760D02*
D03*
Y237697D02*
D03*
X124016Y233760D02*
D03*
Y237697D02*
D03*
X80610Y207283D02*
D03*
Y211220D02*
D03*
X157776Y219488D02*
D03*
Y223425D02*
D03*
Y227362D02*
D03*
Y231299D02*
D03*
X76280Y176772D02*
D03*
Y180709D02*
D03*
Y168996D02*
D03*
Y172933D02*
D03*
X81201Y180906D02*
D03*
Y184843D02*
D03*
X125689Y400788D02*
D03*
Y404725D02*
D03*
X98721Y418405D02*
D03*
Y422342D02*
D03*
X242126Y307185D02*
D03*
Y311122D02*
D03*
X242323Y299410D02*
D03*
Y303347D02*
D03*
X268209Y218996D02*
D03*
Y222933D02*
D03*
X263976Y218996D02*
D03*
Y222933D02*
D03*
X341732Y414764D02*
D03*
Y418701D02*
D03*
X331988Y377559D02*
D03*
Y381496D02*
D03*
X371850Y442126D02*
D03*
Y446063D02*
D03*
X324705Y442520D02*
D03*
Y446457D02*
D03*
D16*
X101969Y338878D02*
D03*
X105906D02*
D03*
X101772Y348228D02*
D03*
X105709D02*
D03*
X46457Y360925D02*
D03*
X50394D02*
D03*
X46457Y376673D02*
D03*
X50394D02*
D03*
X118504Y352953D02*
D03*
X122441D02*
D03*
X44291Y335532D02*
D03*
X48228D02*
D03*
X53149Y326870D02*
D03*
X57087D02*
D03*
X143504Y404528D02*
D03*
X147441D02*
D03*
X311713Y320866D02*
D03*
X315650D02*
D03*
X68012Y266043D02*
D03*
X71949D02*
D03*
X63878Y270669D02*
D03*
X67815D02*
D03*
X67716Y211614D02*
D03*
X71653D02*
D03*
X123917Y229724D02*
D03*
X127854D02*
D03*
X358957Y274508D02*
D03*
X362894D02*
D03*
X246457Y370177D02*
D03*
X250394D02*
D03*
X246162Y390846D02*
D03*
X250098D02*
D03*
X92815Y339666D02*
D03*
X96752D02*
D03*
X92716Y343898D02*
D03*
X96653D02*
D03*
X81693Y337599D02*
D03*
X85630D02*
D03*
X194488Y238189D02*
D03*
X198425D02*
D03*
X366043Y455217D02*
D03*
X369980D02*
D03*
X360236Y426772D02*
D03*
X364173D02*
D03*
X351968Y424902D02*
D03*
X355905D02*
D03*
D17*
X37795Y183465D02*
D03*
Y190945D02*
D03*
X46457Y187205D02*
D03*
D18*
X143701Y412402D02*
D03*
X147244D02*
D03*
X195473Y298917D02*
D03*
X199016D02*
D03*
X233500Y267335D02*
D03*
X237043D02*
D03*
X176772Y254724D02*
D03*
X180315D02*
D03*
X179823Y264272D02*
D03*
X183366D02*
D03*
X216437Y206988D02*
D03*
X219980D02*
D03*
X185925Y314665D02*
D03*
X189469D02*
D03*
X195669Y311516D02*
D03*
X199213D02*
D03*
X230315Y320965D02*
D03*
X233858D02*
D03*
X217717Y314567D02*
D03*
X221260D02*
D03*
X216437Y212008D02*
D03*
X219980D02*
D03*
X173622Y308366D02*
D03*
X177165D02*
D03*
X198721Y321260D02*
D03*
X202264D02*
D03*
X216437Y221996D02*
D03*
X219980D02*
D03*
X216437Y217008D02*
D03*
X219980D02*
D03*
X208071Y317815D02*
D03*
X211614D02*
D03*
X204823Y255118D02*
D03*
X208366D02*
D03*
X204921Y292815D02*
D03*
X208465D02*
D03*
X204921Y286221D02*
D03*
X208465D02*
D03*
X204725Y298917D02*
D03*
X208268D02*
D03*
X195327Y286189D02*
D03*
X198870D02*
D03*
X195228Y292488D02*
D03*
X198772D02*
D03*
X195571Y280020D02*
D03*
X199114D02*
D03*
X315945Y270669D02*
D03*
X319488D02*
D03*
X332677Y345177D02*
D03*
X336220D02*
D03*
X317815D02*
D03*
X321358D02*
D03*
X319095Y332874D02*
D03*
X322638D02*
D03*
X331693D02*
D03*
X335236D02*
D03*
X342520Y339666D02*
D03*
X346063D02*
D03*
X319882Y306890D02*
D03*
X323425D02*
D03*
X328642D02*
D03*
X332185D02*
D03*
X294980Y307677D02*
D03*
X298524D02*
D03*
X316043Y313977D02*
D03*
X319587D02*
D03*
X338189Y306988D02*
D03*
X341732D02*
D03*
X322244Y320866D02*
D03*
X325787D02*
D03*
X330807Y270374D02*
D03*
X334350D02*
D03*
X315945Y262106D02*
D03*
X319488D02*
D03*
X331693Y261910D02*
D03*
X335236D02*
D03*
X307382Y270768D02*
D03*
X310925D02*
D03*
X298524Y268898D02*
D03*
X302067D02*
D03*
X315945Y243012D02*
D03*
X319488D02*
D03*
X249606Y415650D02*
D03*
X253150D02*
D03*
X249606Y421358D02*
D03*
X253150D02*
D03*
X249606Y427165D02*
D03*
X253150D02*
D03*
X249606Y433169D02*
D03*
X253150D02*
D03*
X241929Y447146D02*
D03*
X245472D02*
D03*
X230512Y442028D02*
D03*
X234055D02*
D03*
X228543Y401673D02*
D03*
X232087D02*
D03*
X68602Y261417D02*
D03*
X72146D02*
D03*
X41634Y253150D02*
D03*
X45177D02*
D03*
X67913Y206988D02*
D03*
X71457D02*
D03*
X54823Y218898D02*
D03*
X58366D02*
D03*
X54921Y206201D02*
D03*
X58464D02*
D03*
X132874Y230118D02*
D03*
X136417D02*
D03*
X115847Y238484D02*
D03*
X119390D02*
D03*
X115847Y233465D02*
D03*
X119390D02*
D03*
X159055Y209252D02*
D03*
X162598D02*
D03*
X360728Y284744D02*
D03*
X364272D02*
D03*
X360728Y289764D02*
D03*
X364272D02*
D03*
X101181Y343602D02*
D03*
X104724D02*
D03*
X124016Y393799D02*
D03*
X127559D02*
D03*
X101969Y352854D02*
D03*
X105512D02*
D03*
X82087Y331004D02*
D03*
X85630D02*
D03*
X183760Y205807D02*
D03*
X187303D02*
D03*
X183858Y200689D02*
D03*
X187401D02*
D03*
X357677Y388189D02*
D03*
X361220D02*
D03*
X386122Y385925D02*
D03*
X389665D02*
D03*
X315846Y431102D02*
D03*
X319390D02*
D03*
X312894Y442815D02*
D03*
X316437D02*
D03*
X312894Y448032D02*
D03*
X316437D02*
D03*
X53445Y386221D02*
D03*
X56988D02*
D03*
X232480Y335236D02*
D03*
X236024D02*
D03*
D19*
X95472Y261811D02*
D03*
Y273622D02*
D03*
D20*
X192520Y331988D02*
D03*
Y338287D02*
D03*
X238878Y106693D02*
D03*
Y112992D02*
D03*
X246260Y106693D02*
D03*
Y112992D02*
D03*
X245866Y56004D02*
D03*
Y62303D02*
D03*
X238976Y56004D02*
D03*
Y62303D02*
D03*
X143701Y92126D02*
D03*
Y98425D02*
D03*
X134646Y92421D02*
D03*
Y98721D02*
D03*
X355217Y107776D02*
D03*
Y114075D02*
D03*
X365087Y107579D02*
D03*
Y113878D02*
D03*
X362598Y55610D02*
D03*
Y61910D02*
D03*
X355807Y55610D02*
D03*
Y61910D02*
D03*
X26378Y382973D02*
D03*
Y389272D02*
D03*
X26378Y411319D02*
D03*
Y417618D02*
D03*
X18504Y382973D02*
D03*
Y389272D02*
D03*
X18504Y411319D02*
D03*
Y417618D02*
D03*
X399311Y426575D02*
D03*
Y432874D02*
D03*
X392913Y426575D02*
D03*
Y432874D02*
D03*
X391831Y407579D02*
D03*
Y413878D02*
D03*
X384941Y407579D02*
D03*
Y413878D02*
D03*
X257874Y96260D02*
D03*
Y102559D02*
D03*
X268406Y130610D02*
D03*
Y136909D02*
D03*
X217224Y89469D02*
D03*
Y95768D02*
D03*
X258653Y43504D02*
D03*
Y49803D02*
D03*
X245669Y43504D02*
D03*
Y49803D02*
D03*
X232283Y43504D02*
D03*
Y49803D02*
D03*
X219579Y43504D02*
D03*
Y49803D02*
D03*
X264961Y43504D02*
D03*
Y49803D02*
D03*
X252067Y43504D02*
D03*
Y49803D02*
D03*
X238976Y43504D02*
D03*
Y49803D02*
D03*
X225484Y43504D02*
D03*
Y49803D02*
D03*
X204823Y34646D02*
D03*
Y40945D02*
D03*
X334547Y104134D02*
D03*
Y110433D02*
D03*
Y91240D02*
D03*
Y97540D02*
D03*
X376083Y42717D02*
D03*
Y49016D02*
D03*
X363484Y42717D02*
D03*
Y49016D02*
D03*
X349902Y42717D02*
D03*
Y49016D02*
D03*
X337205Y42913D02*
D03*
Y49213D02*
D03*
X382579Y42717D02*
D03*
Y49016D02*
D03*
X369882Y42717D02*
D03*
Y49016D02*
D03*
X356201Y42717D02*
D03*
Y49016D02*
D03*
X343602Y42913D02*
D03*
Y49213D02*
D03*
X103642Y262205D02*
D03*
Y268504D02*
D03*
X34449Y365650D02*
D03*
Y371949D02*
D03*
D21*
X202590Y207614D02*
D03*
X208890D02*
D03*
X202590Y214110D02*
D03*
X208890D02*
D03*
X202590Y220508D02*
D03*
X208890D02*
D03*
X202669Y226709D02*
D03*
X208968D02*
D03*
X277264Y157185D02*
D03*
X283563D02*
D03*
X277953Y148721D02*
D03*
X284252D02*
D03*
X120965Y388091D02*
D03*
X127264D02*
D03*
X19291Y401870D02*
D03*
X25591D02*
D03*
X253642Y115355D02*
D03*
X259941D02*
D03*
X272343Y59843D02*
D03*
X278642D02*
D03*
X272244Y69685D02*
D03*
X278543D02*
D03*
X272343Y75886D02*
D03*
X278642D02*
D03*
X272343Y82382D02*
D03*
X278642D02*
D03*
X220669Y117618D02*
D03*
X226969D02*
D03*
X216535Y58071D02*
D03*
X222835D02*
D03*
X217618Y71162D02*
D03*
X223917D02*
D03*
X216634Y64567D02*
D03*
X222933D02*
D03*
X178347Y62697D02*
D03*
X184646D02*
D03*
X371260Y56890D02*
D03*
X377559D02*
D03*
X394685Y60040D02*
D03*
X400984D02*
D03*
X394587Y66732D02*
D03*
X400886D02*
D03*
X394685Y53543D02*
D03*
X400984D02*
D03*
X394488Y73524D02*
D03*
X400787D02*
D03*
X384842Y134055D02*
D03*
X391142D02*
D03*
X394390Y80512D02*
D03*
X400689D02*
D03*
X341043Y120177D02*
D03*
X347342D02*
D03*
X394291Y87106D02*
D03*
X400591D02*
D03*
X334350Y60630D02*
D03*
X340650D02*
D03*
X334252Y73425D02*
D03*
X340551D02*
D03*
X334252Y67225D02*
D03*
X340551D02*
D03*
X293701Y63484D02*
D03*
X300000D02*
D03*
X293701Y71063D02*
D03*
X300000D02*
D03*
D22*
X203150Y190059D02*
D03*
X214961D02*
D03*
X203150Y199705D02*
D03*
X214961D02*
D03*
X174508Y455905D02*
D03*
X186319D02*
D03*
X170866Y411614D02*
D03*
X182677D02*
D03*
D23*
X191831Y63976D02*
D03*
Y71063D02*
D03*
X306988Y53248D02*
D03*
Y60335D02*
D03*
D24*
X12500Y283366D02*
D03*
X24311D02*
D03*
X12500Y296457D02*
D03*
X24311D02*
D03*
X12402Y309547D02*
D03*
X24213D02*
D03*
X12500Y244094D02*
D03*
X24311D02*
D03*
X148523Y241732D02*
D03*
X160335D02*
D03*
X38681Y300492D02*
D03*
X50492D02*
D03*
X353150Y251870D02*
D03*
X364961D02*
D03*
X12500Y269980D02*
D03*
X24311D02*
D03*
X12500Y257087D02*
D03*
X24311D02*
D03*
D25*
X205217Y48032D02*
D03*
X212303D02*
D03*
X306984Y70071D02*
D03*
X314071D02*
D03*
X76772Y240748D02*
D03*
X83858D02*
D03*
D26*
X227264Y188779D02*
D03*
Y200591D02*
D03*
X83760Y263976D02*
D03*
Y275787D02*
D03*
X193799Y423819D02*
D03*
Y435630D02*
D03*
D27*
X85138Y208248D02*
D03*
Y210846D02*
D03*
D47*
X246949Y355315D02*
D03*
X239468D02*
D03*
X243209Y363977D02*
D03*
X247047Y376181D02*
D03*
X239567D02*
D03*
X243307Y384843D02*
D03*
D65*
X171457Y363976D02*
D03*
X219488D02*
D03*
D66*
X399311Y419390D02*
D03*
X406791D02*
D03*
X391831Y399508D02*
D03*
X399311D02*
D03*
X145669Y209154D02*
D03*
X153150D02*
D03*
D83*
X404232Y406004D02*
D03*
Y411122D02*
D03*
X405413Y407579D02*
D03*
Y412697D02*
D03*
D84*
X404823Y409350D02*
D03*
D90*
X99508Y167618D02*
D03*
Y173130D02*
D03*
D98*
X-4626Y468602D02*
Y473228D01*
X468602D01*
Y-5118D02*
Y473228D01*
X-4626Y-5118D02*
X468602D01*
X-4626D02*
Y468602D01*
D206*
X224731Y309082D02*
D03*
X227237Y311587D02*
D03*
X199239Y264692D02*
D03*
X201745Y267198D02*
D03*
X208885Y261543D02*
D03*
X211390Y264048D02*
D03*
D207*
X106201Y210138D02*
D03*
X132579D02*
D03*
X39567Y236024D02*
D03*
X65945D02*
D03*
D208*
X344705Y97473D02*
D03*
X364705Y81725D02*
D03*
X344705D02*
D03*
X364705Y97473D02*
D03*
X227984Y97980D02*
D03*
X247984Y82232D02*
D03*
X227984D02*
D03*
X247984Y97980D02*
D03*
D209*
X232972Y329134D02*
D03*
Y327559D02*
D03*
X234547D02*
D03*
Y329134D02*
D03*
X65650Y282579D02*
D03*
Y281004D02*
D03*
X67224D02*
D03*
Y282579D02*
D03*
X56398Y379232D02*
D03*
Y377658D02*
D03*
X57972D02*
D03*
Y379232D02*
D03*
D210*
X69803Y429626D02*
D03*
Y432185D02*
D03*
Y434744D02*
D03*
X73701Y429626D02*
D03*
Y434744D02*
D03*
Y432185D02*
D03*
D211*
X131791Y6299D02*
D03*
X136516Y31890D02*
D03*
X159350Y6299D02*
D03*
X154626Y31890D02*
D03*
D212*
X356594Y439961D02*
D03*
X354626D02*
D03*
X356594Y450197D02*
D03*
X354626D02*
D03*
X360531Y439961D02*
D03*
X362500D02*
D03*
X358563D02*
D03*
Y450197D02*
D03*
X360531D02*
D03*
X362500D02*
D03*
D213*
X352461Y446063D02*
D03*
Y444095D02*
D03*
X364665D02*
D03*
Y446063D02*
D03*
D214*
X358563Y445079D02*
D03*
D215*
X332283Y441043D02*
D03*
Y448524D02*
D03*
X342520Y441043D02*
D03*
Y448524D02*
D03*
Y444783D02*
D03*
D216*
X324606Y428248D02*
D03*
Y433366D02*
D03*
Y430807D02*
D03*
X332087Y428248D02*
D03*
Y433366D02*
D03*
Y430807D02*
D03*
D217*
X317421Y381595D02*
D03*
Y404035D02*
D03*
X325098Y381595D02*
D03*
X319980D02*
D03*
X322539D02*
D03*
X319980Y404035D02*
D03*
X322539D02*
D03*
X325098D02*
D03*
D218*
X198130Y386122D02*
D03*
D219*
Y393996D02*
D03*
D220*
X282185Y426693D02*
D03*
Y431693D02*
D03*
Y441693D02*
D03*
Y436693D02*
D03*
Y451693D02*
D03*
Y446693D02*
D03*
Y461693D02*
D03*
Y456693D02*
D03*
X298917Y431693D02*
D03*
Y426693D02*
D03*
Y436693D02*
D03*
Y441693D02*
D03*
Y451693D02*
D03*
Y446693D02*
D03*
Y461693D02*
D03*
Y456693D02*
D03*
D221*
X93405Y328740D02*
D03*
Y333858D02*
D03*
Y331299D02*
D03*
X102067Y328740D02*
D03*
Y333858D02*
D03*
Y331299D02*
D03*
D222*
X369488Y386437D02*
D03*
Y396437D02*
D03*
X378346D02*
D03*
Y386437D02*
D03*
D223*
X170768Y214705D02*
D03*
Y234705D02*
D03*
X187303Y214705D02*
D03*
Y234705D02*
D03*
D224*
X17343Y438937D02*
D03*
X27343Y426417D02*
D03*
X17343D02*
D03*
X22343D02*
D03*
Y438937D02*
D03*
X27343D02*
D03*
D225*
X164370Y440591D02*
D03*
Y453307D02*
D03*
D226*
X199567Y455512D02*
D03*
X212441D02*
D03*
D227*
X195955Y411417D02*
D03*
D228*
X205211D02*
D03*
D229*
X407283Y176043D02*
D03*
X403346Y222303D02*
D03*
D230*
X418504Y178799D02*
D03*
Y183130D02*
D03*
X417717Y187461D02*
D03*
Y196122D02*
D03*
X418504Y191791D02*
D03*
Y200453D02*
D03*
X420079Y204784D02*
D03*
X418504Y209114D02*
D03*
D231*
X459055Y181988D02*
D03*
Y204429D02*
D03*
D232*
X121653Y334892D02*
D03*
Y340699D02*
D03*
X130118Y334892D02*
D03*
Y340699D02*
D03*
D233*
X125886Y334114D02*
D03*
Y341477D02*
D03*
D234*
X240098Y401594D02*
D03*
Y406870D02*
D03*
X252028Y401594D02*
D03*
Y406870D02*
D03*
D235*
X89764Y166929D02*
D03*
X82284D02*
D03*
X86024Y175000D02*
D03*
M02*
