%FSLAX25Y25*%
%MOIN*%
G70*
G01*
G75*
G04 Layer_Color=128*
%ADD10R,0.09449X0.02992*%
%ADD11C,0.01969*%
%ADD12R,0.03543X0.01772*%
%ADD13R,0.18898X0.18898*%
%ADD14R,0.01575X0.01575*%
%ADD15R,0.01772X0.01181*%
%ADD16R,0.01181X0.01181*%
%ADD17R,0.01181X0.01772*%
%ADD18R,0.01181X0.01181*%
%ADD19R,0.26772X0.26772*%
%ADD20R,0.03543X0.03937*%
%ADD21R,0.02165X0.02559*%
%ADD22R,0.01969X0.01969*%
%ADD23R,0.01378X0.01969*%
%ADD24R,0.07087X0.02362*%
%ADD25R,0.02362X0.01181*%
%ADD26R,0.02362X0.07874*%
%ADD27R,0.06299X0.02165*%
%ADD28R,0.01772X0.01378*%
%ADD29R,0.07480X0.07087*%
%ADD30R,0.05315X0.01575*%
%ADD31R,0.06299X0.08268*%
%ADD32O,0.03150X0.00984*%
%ADD33O,0.00984X0.03150*%
%ADD34R,0.05276X0.12284*%
%ADD35R,0.11181X0.12284*%
%ADD36R,0.18071X0.04370*%
%ADD37R,0.02756X0.01181*%
%ADD38R,0.06221X0.09252*%
%ADD39C,0.00984*%
%ADD40R,0.01181X0.03347*%
%ADD41R,0.03347X0.01181*%
%ADD42R,0.13386X0.13386*%
%ADD43R,0.04528X0.02992*%
%ADD44R,0.03937X0.03543*%
%ADD45R,0.02362X0.02362*%
%ADD46R,0.00984X0.01575*%
%ADD47R,0.05512X0.01969*%
%ADD48R,0.07284X0.02913*%
%ADD49R,0.04134X0.05512*%
%ADD50R,0.08661X0.20472*%
%ADD51R,0.18110X0.22047*%
%ADD52R,0.10984X0.07559*%
%ADD53C,0.05906*%
%ADD54R,0.06693X0.02795*%
%ADD55R,0.01969X0.00984*%
%ADD56R,0.00984X0.01969*%
%ADD57R,0.09055X0.09055*%
%ADD58R,0.07520X0.02992*%
%ADD59O,0.02953X0.00984*%
%ADD60O,0.00984X0.02953*%
%ADD61R,0.17716X0.17716*%
%ADD62O,0.08268X0.01181*%
%ADD63O,0.01181X0.08268*%
%ADD64R,0.01969X0.01969*%
%ADD65R,0.04724X0.02953*%
%ADD66C,0.01378*%
%ADD67R,0.06299X0.19291*%
%ADD68R,0.05906X0.22047*%
%ADD69R,0.05709X0.04528*%
%ADD70R,0.02441X0.02441*%
%ADD71R,0.01811X0.01654*%
%ADD72R,0.03543X0.01575*%
%ADD73R,0.02559X0.02165*%
%ADD74R,0.01575X0.00984*%
%ADD75R,0.01969X0.05512*%
%ADD76R,0.03740X0.05512*%
G04:AMPARAMS|DCode=77|XSize=13.78mil|YSize=19.69mil|CornerRadius=0mil|HoleSize=0mil|Usage=FLASHONLY|Rotation=315.000|XOffset=0mil|YOffset=0mil|HoleType=Round|Shape=Rectangle|*
%AMROTATEDRECTD77*
4,1,4,-0.01183,-0.00209,0.00209,0.01183,0.01183,0.00209,-0.00209,-0.01183,-0.01183,-0.00209,0.0*
%
%ADD77ROTATEDRECTD77*%

%ADD78P,0.02784X4X360.0*%
%ADD79R,0.01969X0.01378*%
%ADD80R,0.02795X0.06693*%
%ADD81R,0.23622X0.07874*%
%ADD82R,0.05512X0.04134*%
%ADD83R,0.01575X0.01575*%
%ADD84R,0.02441X0.02441*%
%ADD85R,0.04528X0.10630*%
%ADD86R,0.10630X0.04528*%
%ADD87R,0.04528X0.07087*%
%ADD88R,0.04528X0.05709*%
%ADD89R,0.01654X0.01811*%
%ADD90R,0.07087X0.04528*%
%ADD91R,0.05512X0.03740*%
%ADD92C,0.01181*%
%ADD93C,0.00453*%
%ADD94C,0.03937*%
%ADD95C,0.01000*%
%ADD96C,0.03150*%
%ADD97C,0.01969*%
%ADD98C,0.01378*%
%ADD99C,0.00996*%
%ADD100C,0.00394*%
%ADD101C,0.00787*%
%ADD102C,0.01181*%
%ADD103C,0.00784*%
%ADD104C,0.00512*%
%ADD105R,0.09911X0.06594*%
%ADD106R,0.06791X1.25492*%
%ADD107R,0.18996X0.06496*%
%ADD108R,0.15453X0.49409*%
%ADD109R,0.02854X0.21358*%
%ADD110R,0.13976X0.11319*%
%ADD111R,0.14764X0.11122*%
%ADD112R,0.09153X0.17224*%
%ADD113R,0.08465X0.09843*%
%ADD114R,0.08661X0.12402*%
%ADD115R,0.13386X0.08169*%
%ADD116R,0.05315X0.93799*%
%ADD117R,0.17224X0.04528*%
%ADD118R,0.19193X0.03051*%
%ADD119R,0.10925X0.14469*%
%ADD120R,0.11614X0.04035*%
%ADD121R,0.02264X0.71752*%
%ADD122R,0.34842X0.01969*%
%ADD123R,0.78150X0.02461*%
%ADD124R,0.02461X0.13189*%
%ADD125R,0.16043X0.02264*%
%ADD126R,0.02658X0.42618*%
%ADD127R,0.25098X0.01969*%
%ADD128R,0.02165X0.76575*%
%ADD129R,0.68504X0.02165*%
%ADD130R,0.03347X0.05315*%
%ADD131R,0.02264X0.05512*%
%ADD132R,0.02431X1.19587*%
%ADD133R,0.10728X0.03445*%
%ADD134R,0.03839X0.08661*%
%ADD135R,0.14075X0.03839*%
%ADD136R,0.06594X0.04232*%
%ADD137R,0.13189X0.03051*%
%ADD138R,0.04921X0.18504*%
%ADD139R,0.09843X0.04134*%
%ADD140R,0.11713X0.02953*%
%ADD141R,0.04429X0.02756*%
%ADD142R,0.02362X0.02264*%
%ADD143R,0.08465X0.02854*%
%ADD144R,0.07087X0.21752*%
%ADD145R,0.10531X0.12598*%
%ADD146R,0.05315X0.10728*%
%ADD147R,0.04232X0.02854*%
%ADD148R,0.38287X0.06398*%
%ADD149R,0.38091X0.05118*%
%ADD150R,0.30807X0.08268*%
%ADD151R,0.30315X0.06102*%
%ADD152R,0.27756X0.05413*%
%ADD153R,0.19095X0.03937*%
%ADD154R,0.00886X0.01280*%
%ADD155R,0.39961X0.06594*%
%ADD156R,0.40256X0.05807*%
%ADD157R,0.30315X0.12008*%
%ADD158R,0.30709X0.06299*%
%ADD159R,0.30413X0.06496*%
%ADD160R,0.04134X0.05413*%
%ADD161R,0.02431X0.00820*%
%ADD162R,0.03642X0.11417*%
%ADD163R,0.34449X0.01969*%
%ADD164R,0.02430X0.17389*%
%ADD165R,0.92913X0.01870*%
%ADD166R,0.04429X0.41240*%
%ADD167R,0.03740X0.41043*%
%ADD168R,0.05807X0.33169*%
%ADD169R,0.60335X0.08465*%
%ADD170R,0.09843X0.11122*%
%ADD171R,0.14370X0.08760*%
%ADD172R,0.03740X0.24016*%
%ADD173R,0.42224X0.07874*%
%ADD174R,0.08563X0.19291*%
%ADD175R,0.16535X0.19291*%
%ADD176R,0.31693X0.08071*%
%ADD177R,0.06299X0.00394*%
%ADD178R,0.03543X0.00787*%
%ADD179R,0.01181X0.00984*%
%ADD180R,0.12303X0.06004*%
%ADD181R,0.08268X0.01476*%
%ADD182R,0.04823X0.07776*%
%ADD183R,0.14075X0.03740*%
%ADD184R,0.09941X0.01870*%
%ADD185C,0.07874*%
%ADD186C,0.04803*%
%ADD187C,0.09882*%
%ADD188C,0.06299*%
%ADD189C,0.15748*%
%ADD190C,0.07087*%
%ADD191C,0.02165*%
%ADD192C,0.02598*%
%ADD193C,0.01575*%
%ADD194C,0.00591*%
%ADD195C,0.04000*%
%ADD196C,0.08071*%
%ADD197C,0.05591*%
%ADD198C,0.10669*%
%ADD199C,0.13386*%
%ADD200C,0.05787*%
%ADD201C,0.03150*%
%ADD202C,0.02559*%
%ADD203C,0.02362*%
%ADD204C,0.02874*%
%ADD205C,0.00642*%
%ADD206R,0.01969X0.02756*%
%ADD207C,0.00787*%
%ADD208R,0.03071X0.03425*%
%ADD209R,0.01969X0.03248*%
%ADD210R,0.01969X0.01693*%
%ADD211R,0.05512X0.07087*%
%ADD212R,0.05906X0.03150*%
%ADD213R,0.07480X0.05512*%
%ADD214R,0.03000X0.05000*%
%ADD215R,0.10512X0.10000*%
%ADD216R,0.03583X0.04803*%
%ADD217R,0.04724X0.03543*%
%ADD218R,0.02992X0.06496*%
%ADD219R,0.07087X0.07874*%
%ADD220R,0.07874X0.07087*%
%ADD221R,0.05079X0.04882*%
%ADD222R,0.03347X0.01378*%
%ADD223R,0.07874X0.23622*%
%ADD224R,0.08661X0.02913*%
%ADD225R,0.02362X0.05118*%
%ADD226R,0.01772X0.05118*%
%ADD227R,0.01378X0.05118*%
%ADD228R,0.01969X0.01575*%
%ADD229R,0.03937X0.02756*%
%ADD230R,0.00945X0.03543*%
%ADD231R,0.03543X0.00945*%
%ADD232R,0.05512X0.03937*%
%ADD233R,0.10236X0.08661*%
%ADD234R,0.01614X0.01299*%
%ADD235P,0.03452X4X360.0*%
%ADD236R,0.41142X0.08268*%
%ADD237R,0.15846X0.19488*%
%ADD238R,0.08268X0.19193*%
%ADD239R,0.06102X1.26181*%
%ADD240R,0.13386X0.09055*%
%ADD241R,0.08465X0.07677*%
%ADD242R,0.13090X0.08366*%
%ADD243R,0.14764X0.09153*%
%ADD244R,0.14862X0.06201*%
%ADD245R,0.03839X0.93898*%
%ADD246R,0.23622X0.03740*%
%ADD247R,0.13681X0.20768*%
%ADD248R,0.12795X0.08071*%
%ADD249R,0.11811X0.16732*%
%ADD250R,0.44783X0.02756*%
%ADD251R,0.02165X0.73032*%
%ADD252R,0.34842X0.02067*%
%ADD253R,0.67618X0.02362*%
%ADD254R,0.02362X0.28051*%
%ADD255R,0.13878X0.02264*%
%ADD256R,0.02165X0.50394*%
%ADD257R,0.25295X0.01969*%
%ADD258R,0.02559X0.50984*%
%ADD259R,0.79823X0.01969*%
%ADD260R,0.02264X1.46260*%
%ADD261R,0.51476X0.01378*%
%ADD262R,0.01476X0.04626*%
%ADD263R,0.89173X0.01476*%
%ADD264R,0.02658X1.25984*%
%ADD265R,0.07284X0.75492*%
%ADD266R,0.41894X0.10102*%
%ADD267R,0.16965X0.06606*%
%ADD268R,0.29232X0.06299*%
%ADD269R,0.02067X0.02559*%
%ADD270R,0.02658X0.02953*%
%ADD271R,0.19193X0.05512*%
%ADD272R,0.03248X0.28937*%
%ADD273C,0.00984*%
%ADD274C,0.00472*%
%ADD275C,0.02362*%
%ADD276C,0.00500*%
%ADD277C,0.00700*%
%ADD278C,0.00100*%
%ADD279C,0.00591*%
%ADD280R,0.14370X0.01500*%
%ADD281R,0.03937X1.20791*%
%ADD282R,0.10249X0.03792*%
%ADD283C,0.02769*%
%ADD284R,0.04343X0.02572*%
%ADD285R,0.19698X0.19698*%
%ADD286R,0.02375X0.02375*%
%ADD287R,0.02572X0.01981*%
%ADD288R,0.01981X0.01981*%
%ADD289R,0.01981X0.02572*%
%ADD290R,0.01981X0.01981*%
%ADD291R,0.27572X0.27572*%
%ADD292R,0.04343X0.04737*%
%ADD293R,0.02965X0.03359*%
%ADD294R,0.02769X0.02769*%
%ADD295R,0.02178X0.02769*%
%ADD296R,0.07887X0.03162*%
%ADD297R,0.03162X0.01981*%
%ADD298R,0.03162X0.08674*%
%ADD299R,0.07099X0.02965*%
%ADD300R,0.02572X0.02178*%
%ADD301R,0.08280X0.07887*%
%ADD302R,0.06115X0.02375*%
%ADD303R,0.07099X0.09068*%
%ADD304O,0.03950X0.01784*%
%ADD305O,0.01784X0.03950*%
%ADD306R,0.06076X0.13084*%
%ADD307R,0.11981X0.13084*%
%ADD308R,0.18871X0.05170*%
%ADD309R,0.03556X0.01981*%
%ADD310R,0.07021X0.10052*%
%ADD311C,0.01784*%
%ADD312R,0.01981X0.04147*%
%ADD313R,0.04147X0.01981*%
%ADD314R,0.14186X0.14186*%
%ADD315R,0.05328X0.03792*%
%ADD316R,0.04737X0.04343*%
%ADD317R,0.03162X0.03162*%
%ADD318R,0.01784X0.02375*%
%ADD319R,0.06312X0.02769*%
%ADD320R,0.08083X0.03713*%
%ADD321R,0.04934X0.06312*%
%ADD322R,0.09461X0.21272*%
%ADD323R,0.18910X0.22847*%
%ADD324R,0.11784X0.08359*%
%ADD325C,0.06706*%
%ADD326R,0.07493X0.03595*%
%ADD327R,0.02769X0.01784*%
%ADD328R,0.01784X0.02769*%
%ADD329R,0.09855X0.09855*%
%ADD330R,0.08320X0.03792*%
%ADD331O,0.03753X0.01784*%
%ADD332O,0.01784X0.03753*%
%ADD333R,0.18517X0.18517*%
%ADD334O,0.09068X0.01981*%
%ADD335O,0.01981X0.09068*%
%ADD336R,0.02769X0.02769*%
%ADD337R,0.05524X0.03753*%
%ADD338C,0.02178*%
%ADD339R,0.07099X0.20091*%
%ADD340R,0.06706X0.22847*%
%ADD341R,0.06509X0.05328*%
%ADD342R,0.03241X0.03241*%
%ADD343R,0.02611X0.02454*%
%ADD344R,0.04343X0.02375*%
%ADD345R,0.03359X0.02965*%
%ADD346R,0.02375X0.01784*%
%ADD347R,0.02769X0.06312*%
%ADD348R,0.04540X0.06312*%
G04:AMPARAMS|DCode=349|XSize=21.78mil|YSize=27.69mil|CornerRadius=0mil|HoleSize=0mil|Usage=FLASHONLY|Rotation=315.000|XOffset=0mil|YOffset=0mil|HoleType=Round|Shape=Rectangle|*
%AMROTATEDRECTD349*
4,1,4,-0.01749,-0.00209,0.00209,0.01749,0.01749,0.00209,-0.00209,-0.01749,-0.01749,-0.00209,0.0*
%
%ADD349ROTATEDRECTD349*%

%ADD350P,0.03915X4X360.0*%
%ADD351R,0.02769X0.02178*%
%ADD352R,0.03595X0.07493*%
%ADD353R,0.24422X0.08674*%
%ADD354R,0.06312X0.04934*%
%ADD355R,0.02375X0.02375*%
%ADD356R,0.03241X0.03241*%
%ADD357R,0.05328X0.11430*%
%ADD358R,0.11430X0.05328*%
%ADD359R,0.05328X0.07887*%
%ADD360R,0.05328X0.06509*%
%ADD361R,0.02454X0.02611*%
%ADD362R,0.07887X0.05328*%
%ADD363R,0.06312X0.04540*%
%ADD364C,0.01981*%
%ADD365C,0.08674*%
%ADD366C,0.05603*%
%ADD367C,0.10682*%
%ADD368C,0.07099*%
%ADD369C,0.16548*%
%ADD370C,0.07887*%
%ADD371C,0.02965*%
%ADD372C,0.02375*%
%ADD373C,0.01391*%
%ADD374R,0.02769X0.03556*%
%ADD375C,0.01587*%
%ADD376R,0.03871X0.04225*%
%ADD377R,0.02769X0.04048*%
%ADD378R,0.02769X0.02493*%
%ADD379R,0.06312X0.07887*%
%ADD380R,0.06706X0.03950*%
%ADD381R,0.08280X0.06312*%
%ADD382R,0.03800X0.05800*%
%ADD383R,0.11312X0.10800*%
%ADD384R,0.04383X0.05603*%
%ADD385R,0.05524X0.04343*%
%ADD386R,0.03792X0.07296*%
%ADD387R,0.07887X0.08674*%
%ADD388R,0.08674X0.07887*%
%ADD389R,0.05879X0.05682*%
%ADD390R,0.04147X0.02178*%
%ADD391R,0.08674X0.24422*%
%ADD392R,0.09461X0.03713*%
%ADD393R,0.03162X0.05918*%
%ADD394R,0.02572X0.05918*%
%ADD395R,0.02178X0.05918*%
%ADD396R,0.02769X0.02375*%
%ADD397R,0.04737X0.03556*%
%ADD398R,0.01745X0.04343*%
%ADD399R,0.04343X0.01745*%
%ADD400R,0.06312X0.04737*%
%ADD401R,0.11036X0.09461*%
%ADD402R,0.02414X0.02099*%
%ADD403P,0.04583X4X360.0*%
%ADD404C,0.03398*%
D11*
X366732Y293898D02*
D03*
D14*
X99508Y173130D02*
D03*
Y167618D02*
D03*
D16*
X405413Y412697D02*
D03*
Y407579D02*
D03*
X404232Y411122D02*
D03*
Y406004D02*
D03*
D20*
X300000Y71063D02*
D03*
X293701D02*
D03*
X300000Y63484D02*
D03*
X293701D02*
D03*
X340551Y67225D02*
D03*
X334252D02*
D03*
X340551Y73425D02*
D03*
X334252D02*
D03*
X340650Y60630D02*
D03*
X334350D02*
D03*
X400591Y87106D02*
D03*
X394291D02*
D03*
X347342Y120177D02*
D03*
X341043D02*
D03*
X400689Y80512D02*
D03*
X394390D02*
D03*
X391142Y134055D02*
D03*
X384842D02*
D03*
X400787Y73524D02*
D03*
X394488D02*
D03*
X400984Y53543D02*
D03*
X394685D02*
D03*
X400886Y66732D02*
D03*
X394587D02*
D03*
X400984Y60040D02*
D03*
X394685D02*
D03*
X377559Y56890D02*
D03*
X371260D02*
D03*
X184646Y62697D02*
D03*
X178347D02*
D03*
X222933Y64567D02*
D03*
X216634D02*
D03*
X223917Y71162D02*
D03*
X217618D02*
D03*
X222835Y58071D02*
D03*
X216535D02*
D03*
X226969Y117618D02*
D03*
X220669D02*
D03*
X278642Y82382D02*
D03*
X272343D02*
D03*
X278642Y75886D02*
D03*
X272343D02*
D03*
X278543Y69685D02*
D03*
X272244D02*
D03*
X278642Y59843D02*
D03*
X272343D02*
D03*
X259941Y115355D02*
D03*
X253642D02*
D03*
X25591Y401870D02*
D03*
X19291D02*
D03*
X127264Y388091D02*
D03*
X120965D02*
D03*
X284252Y148721D02*
D03*
X277953D02*
D03*
X283563Y157185D02*
D03*
X277264D02*
D03*
X208968Y226709D02*
D03*
X202669D02*
D03*
X208890Y220508D02*
D03*
X202590D02*
D03*
X208890Y214110D02*
D03*
X202590D02*
D03*
X208890Y207614D02*
D03*
X202590D02*
D03*
D21*
X355905Y424902D02*
D03*
X351968D02*
D03*
X364173Y426772D02*
D03*
X360236D02*
D03*
X369980Y455217D02*
D03*
X366043D02*
D03*
X198425Y238189D02*
D03*
X194488D02*
D03*
X85630Y337599D02*
D03*
X81693D02*
D03*
X96653Y343898D02*
D03*
X92716D02*
D03*
X96752Y339666D02*
D03*
X92815D02*
D03*
X250098Y390846D02*
D03*
X246162D02*
D03*
X250394Y370177D02*
D03*
X246457D02*
D03*
X362894Y274508D02*
D03*
X358957D02*
D03*
X127854Y229724D02*
D03*
X123917D02*
D03*
X71653Y211614D02*
D03*
X67716D02*
D03*
X67815Y270669D02*
D03*
X63878D02*
D03*
X71949Y266043D02*
D03*
X68012D02*
D03*
X315650Y320866D02*
D03*
X311713D02*
D03*
X147441Y404528D02*
D03*
X143504D02*
D03*
X57087Y326870D02*
D03*
X53149D02*
D03*
X48228Y335532D02*
D03*
X44291D02*
D03*
X122441Y352953D02*
D03*
X118504D02*
D03*
X50394Y376673D02*
D03*
X46457D02*
D03*
X50394Y360925D02*
D03*
X46457D02*
D03*
X105709Y348228D02*
D03*
X101772D02*
D03*
X105906Y338878D02*
D03*
X101969D02*
D03*
D25*
X404823Y409350D02*
D03*
D44*
X34449Y371949D02*
D03*
Y365650D02*
D03*
X103642Y268504D02*
D03*
Y262205D02*
D03*
X343602Y49213D02*
D03*
Y42913D02*
D03*
X356201Y49016D02*
D03*
Y42717D02*
D03*
X369882Y49016D02*
D03*
Y42717D02*
D03*
X382579Y49016D02*
D03*
Y42717D02*
D03*
X337205Y49213D02*
D03*
Y42913D02*
D03*
X349902Y49016D02*
D03*
Y42717D02*
D03*
X363484Y49016D02*
D03*
Y42717D02*
D03*
X376083Y49016D02*
D03*
Y42717D02*
D03*
X334547Y97540D02*
D03*
Y91240D02*
D03*
Y110433D02*
D03*
Y104134D02*
D03*
X204823Y40945D02*
D03*
Y34646D02*
D03*
X225484Y49803D02*
D03*
Y43504D02*
D03*
X238976Y49803D02*
D03*
Y43504D02*
D03*
X252067Y49803D02*
D03*
Y43504D02*
D03*
X264961Y49803D02*
D03*
Y43504D02*
D03*
X219579Y49803D02*
D03*
Y43504D02*
D03*
X232283Y49803D02*
D03*
Y43504D02*
D03*
X245669Y49803D02*
D03*
Y43504D02*
D03*
X258653Y49803D02*
D03*
Y43504D02*
D03*
X217224Y95768D02*
D03*
Y89469D02*
D03*
X268406Y136909D02*
D03*
Y130610D02*
D03*
X257874Y102559D02*
D03*
Y96260D02*
D03*
X384941Y413878D02*
D03*
Y407579D02*
D03*
X391831Y413878D02*
D03*
Y407579D02*
D03*
X392913Y432874D02*
D03*
Y426575D02*
D03*
X399311Y432874D02*
D03*
Y426575D02*
D03*
X18504Y417618D02*
D03*
Y411319D02*
D03*
X18504Y389272D02*
D03*
Y382973D02*
D03*
X26378Y417618D02*
D03*
Y411319D02*
D03*
X26378Y389272D02*
D03*
Y382973D02*
D03*
X355807Y61910D02*
D03*
Y55610D02*
D03*
X362598Y61910D02*
D03*
Y55610D02*
D03*
X365087Y113878D02*
D03*
Y107579D02*
D03*
X355217Y114075D02*
D03*
Y107776D02*
D03*
X134646Y98721D02*
D03*
Y92421D02*
D03*
X143701Y98425D02*
D03*
Y92126D02*
D03*
X238976Y62303D02*
D03*
Y56004D02*
D03*
X245866Y62303D02*
D03*
Y56004D02*
D03*
X246260Y112992D02*
D03*
Y106693D02*
D03*
X238878Y112992D02*
D03*
Y106693D02*
D03*
X192520Y338287D02*
D03*
Y331988D02*
D03*
D49*
X153150Y209154D02*
D03*
X145669D02*
D03*
X399311Y399508D02*
D03*
X391831D02*
D03*
X406791Y419390D02*
D03*
X399311D02*
D03*
D51*
X219488Y363976D02*
D03*
X171457D02*
D03*
D67*
X15713Y457870D02*
D03*
X49213D02*
D03*
X226539Y457772D02*
D03*
X260039D02*
D03*
X68961Y457870D02*
D03*
X102461D02*
D03*
D69*
X306988Y60335D02*
D03*
Y53248D02*
D03*
X191831Y71063D02*
D03*
Y63976D02*
D03*
D70*
X72933Y284547D02*
D03*
Y281004D02*
D03*
X372933Y411417D02*
D03*
Y407874D02*
D03*
X378642Y411417D02*
D03*
Y407874D02*
D03*
X381693Y429626D02*
D03*
Y426083D02*
D03*
X387008Y429626D02*
D03*
Y426083D02*
D03*
X332185Y407579D02*
D03*
Y404036D02*
D03*
X272835Y222834D02*
D03*
Y219291D02*
D03*
X50197Y370571D02*
D03*
Y367028D02*
D03*
X137106Y340256D02*
D03*
Y336713D02*
D03*
X115059Y340650D02*
D03*
Y337106D02*
D03*
X132776Y351083D02*
D03*
Y347540D02*
D03*
X62795Y335039D02*
D03*
Y331496D02*
D03*
X98622Y413878D02*
D03*
Y410335D02*
D03*
X98425Y432972D02*
D03*
Y429429D02*
D03*
X118307Y404429D02*
D03*
Y400886D02*
D03*
X104134Y363189D02*
D03*
Y359646D02*
D03*
X106004Y433071D02*
D03*
Y429528D02*
D03*
X126083Y370965D02*
D03*
Y367421D02*
D03*
X56496Y404724D02*
D03*
Y401181D02*
D03*
X106299Y413878D02*
D03*
Y410335D02*
D03*
X75492Y421752D02*
D03*
Y418209D02*
D03*
X68012Y421752D02*
D03*
Y418209D02*
D03*
X196457Y448524D02*
D03*
Y444980D02*
D03*
X162500Y223622D02*
D03*
Y220079D02*
D03*
X142618Y238484D02*
D03*
Y234941D02*
D03*
X36614Y256693D02*
D03*
Y253150D02*
D03*
X300295Y57874D02*
D03*
Y54331D02*
D03*
X184941Y71949D02*
D03*
Y68406D02*
D03*
X346457Y253445D02*
D03*
Y249902D02*
D03*
X341240Y253445D02*
D03*
Y249902D02*
D03*
X341339Y261910D02*
D03*
Y258366D02*
D03*
X346457Y323622D02*
D03*
Y320079D02*
D03*
X341339Y332973D02*
D03*
Y329429D02*
D03*
X326969Y345079D02*
D03*
Y341536D02*
D03*
X324606Y276870D02*
D03*
Y273327D02*
D03*
X338583Y216732D02*
D03*
Y213189D02*
D03*
X208268Y277067D02*
D03*
Y273524D02*
D03*
X150295Y255413D02*
D03*
Y251870D02*
D03*
X135004Y255523D02*
D03*
Y251980D02*
D03*
X140024Y255425D02*
D03*
Y251882D02*
D03*
X145177Y255413D02*
D03*
Y251870D02*
D03*
X109386Y255598D02*
D03*
Y252055D02*
D03*
X114504Y255598D02*
D03*
Y252055D02*
D03*
X139925Y268811D02*
D03*
Y265268D02*
D03*
X134906Y268811D02*
D03*
Y265268D02*
D03*
X129689Y268811D02*
D03*
Y265268D02*
D03*
X124669Y268811D02*
D03*
Y265268D02*
D03*
X214323Y298886D02*
D03*
Y295343D02*
D03*
Y289338D02*
D03*
Y285795D02*
D03*
X119650Y268811D02*
D03*
Y265268D02*
D03*
X114630Y268811D02*
D03*
Y265268D02*
D03*
X109512Y268811D02*
D03*
Y265268D02*
D03*
X214567Y277165D02*
D03*
Y273622D02*
D03*
X119622Y255598D02*
D03*
Y252055D02*
D03*
X150260Y268909D02*
D03*
Y265366D02*
D03*
X145043Y268909D02*
D03*
Y265366D02*
D03*
X124669Y255720D02*
D03*
Y252177D02*
D03*
X129787Y255622D02*
D03*
Y252079D02*
D03*
X369980Y293110D02*
D03*
Y289567D02*
D03*
X229724Y258760D02*
D03*
Y255217D02*
D03*
X198819Y257972D02*
D03*
Y254429D02*
D03*
X209547Y308465D02*
D03*
Y304921D02*
D03*
X205118Y308465D02*
D03*
Y304921D02*
D03*
X198130Y335236D02*
D03*
Y331693D02*
D03*
X203150Y335138D02*
D03*
Y331594D02*
D03*
X208157Y335236D02*
D03*
Y331693D02*
D03*
X176969Y317815D02*
D03*
Y314272D02*
D03*
X214567Y308760D02*
D03*
Y305217D02*
D03*
X220866Y261122D02*
D03*
Y257579D02*
D03*
X218406Y335236D02*
D03*
Y331693D02*
D03*
X183071Y308760D02*
D03*
Y305217D02*
D03*
X213224Y335205D02*
D03*
Y331662D02*
D03*
X270114Y265858D02*
D03*
Y262315D02*
D03*
X189370Y296161D02*
D03*
Y292618D02*
D03*
X173524Y280315D02*
D03*
Y276772D02*
D03*
X170472Y302559D02*
D03*
Y299016D02*
D03*
X258894Y265858D02*
D03*
Y262315D02*
D03*
X257811Y314579D02*
D03*
Y311035D02*
D03*
X263520Y314579D02*
D03*
Y311035D02*
D03*
X264602Y265858D02*
D03*
Y262315D02*
D03*
X247772Y259264D02*
D03*
Y255720D02*
D03*
X251551Y304933D02*
D03*
Y301390D02*
D03*
X257614Y304933D02*
D03*
Y301390D02*
D03*
X263520Y304933D02*
D03*
Y301390D02*
D03*
X247673Y268122D02*
D03*
Y264579D02*
D03*
X242457Y270189D02*
D03*
Y266646D02*
D03*
X179921Y299114D02*
D03*
Y295571D02*
D03*
X183268Y286516D02*
D03*
Y282973D02*
D03*
X192421Y274016D02*
D03*
Y270473D02*
D03*
X170472Y270965D02*
D03*
Y267421D02*
D03*
X189370Y261024D02*
D03*
Y257480D02*
D03*
X176772Y289862D02*
D03*
Y286319D02*
D03*
X183071Y277165D02*
D03*
Y273622D02*
D03*
X93504Y255610D02*
D03*
Y252067D02*
D03*
X98957Y255610D02*
D03*
Y252067D02*
D03*
X104331Y255610D02*
D03*
Y252067D02*
D03*
X135630Y408268D02*
D03*
Y404725D02*
D03*
X135630Y424016D02*
D03*
Y420472D02*
D03*
X57776Y335532D02*
D03*
Y331988D02*
D03*
X52756Y335532D02*
D03*
Y331988D02*
D03*
X39862Y335630D02*
D03*
Y332087D02*
D03*
D73*
X324705Y446457D02*
D03*
Y442520D02*
D03*
X371850Y446063D02*
D03*
Y442126D02*
D03*
X331988Y381496D02*
D03*
Y377559D02*
D03*
X341732Y418701D02*
D03*
Y414764D02*
D03*
X263976Y222933D02*
D03*
Y218996D02*
D03*
X268209Y222933D02*
D03*
Y218996D02*
D03*
X242323Y303347D02*
D03*
Y299410D02*
D03*
X242126Y311122D02*
D03*
Y307185D02*
D03*
X98721Y422342D02*
D03*
Y418405D02*
D03*
X125689Y404725D02*
D03*
Y400788D02*
D03*
X81201Y184843D02*
D03*
Y180906D02*
D03*
X76280Y172933D02*
D03*
Y168996D02*
D03*
Y180709D02*
D03*
Y176772D02*
D03*
X157776Y231299D02*
D03*
Y227362D02*
D03*
Y223425D02*
D03*
Y219488D02*
D03*
X80610Y211220D02*
D03*
Y207283D02*
D03*
X124016Y237697D02*
D03*
Y233760D02*
D03*
X128248Y237697D02*
D03*
Y233760D02*
D03*
X136811Y238583D02*
D03*
Y234646D02*
D03*
X58760Y214468D02*
D03*
Y210531D02*
D03*
X63189Y218209D02*
D03*
Y214272D02*
D03*
X63287Y210236D02*
D03*
Y206299D02*
D03*
X49803Y257579D02*
D03*
Y253642D02*
D03*
X63976Y265354D02*
D03*
Y261417D02*
D03*
X293406Y302461D02*
D03*
Y298524D02*
D03*
X322539Y302461D02*
D03*
Y298524D02*
D03*
X307185Y302461D02*
D03*
Y298524D02*
D03*
X303150Y302461D02*
D03*
Y298524D02*
D03*
X297244Y277854D02*
D03*
Y273917D02*
D03*
X289862Y270768D02*
D03*
Y266831D02*
D03*
X135630Y416339D02*
D03*
Y412402D02*
D03*
X71653Y335039D02*
D03*
Y331102D02*
D03*
X230512Y436122D02*
D03*
Y432185D02*
D03*
X67421Y335039D02*
D03*
Y331102D02*
D03*
X98228Y441634D02*
D03*
Y437697D02*
D03*
X114370Y363779D02*
D03*
Y359842D02*
D03*
X125787Y412795D02*
D03*
Y408858D02*
D03*
X118012Y412992D02*
D03*
Y409055D02*
D03*
X105512Y441634D02*
D03*
Y437697D02*
D03*
X51476Y404528D02*
D03*
Y400591D02*
D03*
X106004Y422343D02*
D03*
Y418406D02*
D03*
X125591Y379528D02*
D03*
Y375591D02*
D03*
X52461Y187303D02*
D03*
Y183366D02*
D03*
X31398Y189665D02*
D03*
Y185728D02*
D03*
D76*
X243307Y384843D02*
D03*
X239567Y376181D02*
D03*
X247047D02*
D03*
X243209Y363977D02*
D03*
X239468Y355315D02*
D03*
X246949D02*
D03*
D84*
X236024Y335236D02*
D03*
X232480D02*
D03*
X56988Y386221D02*
D03*
X53445D02*
D03*
X316437Y448032D02*
D03*
X312894D02*
D03*
X316437Y442815D02*
D03*
X312894D02*
D03*
X319390Y431102D02*
D03*
X315846D02*
D03*
X389665Y385925D02*
D03*
X386122D02*
D03*
X361220Y388189D02*
D03*
X357677D02*
D03*
X187401Y200689D02*
D03*
X183858D02*
D03*
X187303Y205807D02*
D03*
X183760D02*
D03*
X85630Y331004D02*
D03*
X82087D02*
D03*
X105512Y352854D02*
D03*
X101969D02*
D03*
X127559Y393799D02*
D03*
X124016D02*
D03*
X104724Y343602D02*
D03*
X101181D02*
D03*
X364272Y289764D02*
D03*
X360728D02*
D03*
X364272Y284744D02*
D03*
X360728D02*
D03*
X162598Y209252D02*
D03*
X159055D02*
D03*
X119390Y233465D02*
D03*
X115847D02*
D03*
X119390Y238484D02*
D03*
X115847D02*
D03*
X136417Y230118D02*
D03*
X132874D02*
D03*
X58464Y206201D02*
D03*
X54921D02*
D03*
X58366Y218898D02*
D03*
X54823D02*
D03*
X71457Y206988D02*
D03*
X67913D02*
D03*
X45177Y253150D02*
D03*
X41634D02*
D03*
X72146Y261417D02*
D03*
X68602D02*
D03*
X232087Y401673D02*
D03*
X228543D02*
D03*
X234055Y442028D02*
D03*
X230512D02*
D03*
X245472Y447146D02*
D03*
X241929D02*
D03*
X253150Y433169D02*
D03*
X249606D02*
D03*
X253150Y427165D02*
D03*
X249606D02*
D03*
X253150Y421358D02*
D03*
X249606D02*
D03*
X253150Y415650D02*
D03*
X249606D02*
D03*
X319488Y243012D02*
D03*
X315945D02*
D03*
X302067Y268898D02*
D03*
X298524D02*
D03*
X310925Y270768D02*
D03*
X307382D02*
D03*
X335236Y261910D02*
D03*
X331693D02*
D03*
X319488Y262106D02*
D03*
X315945D02*
D03*
X334350Y270374D02*
D03*
X330807D02*
D03*
X325787Y320866D02*
D03*
X322244D02*
D03*
X341732Y306988D02*
D03*
X338189D02*
D03*
X319587Y313977D02*
D03*
X316043D02*
D03*
X298524Y307677D02*
D03*
X294980D02*
D03*
X332185Y306890D02*
D03*
X328642D02*
D03*
X323425D02*
D03*
X319882D02*
D03*
X346063Y339666D02*
D03*
X342520D02*
D03*
X335236Y332874D02*
D03*
X331693D02*
D03*
X322638D02*
D03*
X319095D02*
D03*
X321358Y345177D02*
D03*
X317815D02*
D03*
X336220D02*
D03*
X332677D02*
D03*
X319488Y270669D02*
D03*
X315945D02*
D03*
X199114Y280020D02*
D03*
X195571D02*
D03*
X198772Y292488D02*
D03*
X195228D02*
D03*
X198870Y286189D02*
D03*
X195327D02*
D03*
X208268Y298917D02*
D03*
X204725D02*
D03*
X208465Y286221D02*
D03*
X204921D02*
D03*
X208465Y292815D02*
D03*
X204921D02*
D03*
X208366Y255118D02*
D03*
X204823D02*
D03*
X211614Y317815D02*
D03*
X208071D02*
D03*
X219980Y217008D02*
D03*
X216437D02*
D03*
X219980Y221996D02*
D03*
X216437D02*
D03*
X202264Y321260D02*
D03*
X198721D02*
D03*
X177165Y308366D02*
D03*
X173622D02*
D03*
X219980Y212008D02*
D03*
X216437D02*
D03*
X221260Y314567D02*
D03*
X217717D02*
D03*
X233858Y320965D02*
D03*
X230315D02*
D03*
X199213Y311516D02*
D03*
X195669D02*
D03*
X189469Y314665D02*
D03*
X185925D02*
D03*
X219980Y206988D02*
D03*
X216437D02*
D03*
X183366Y264272D02*
D03*
X179823D02*
D03*
X180315Y254724D02*
D03*
X176772D02*
D03*
X237043Y267335D02*
D03*
X233500D02*
D03*
X199016Y298917D02*
D03*
X195473D02*
D03*
X147244Y412402D02*
D03*
X143701D02*
D03*
D85*
X24311Y257087D02*
D03*
X12500D02*
D03*
X24311Y269980D02*
D03*
X12500D02*
D03*
X364961Y251870D02*
D03*
X353150D02*
D03*
X50492Y300492D02*
D03*
X38681D02*
D03*
X160335Y241732D02*
D03*
X148523D02*
D03*
X24311Y244094D02*
D03*
X12500D02*
D03*
X24213Y309547D02*
D03*
X12402D02*
D03*
X24311Y296457D02*
D03*
X12500D02*
D03*
X24311Y283366D02*
D03*
X12500D02*
D03*
D86*
X193799Y435630D02*
D03*
Y423819D02*
D03*
X83760Y275787D02*
D03*
Y263976D02*
D03*
X227264Y200591D02*
D03*
Y188779D02*
D03*
D87*
X182677Y411614D02*
D03*
X170866D02*
D03*
X186319Y455905D02*
D03*
X174508D02*
D03*
X214961Y199705D02*
D03*
X203150D02*
D03*
X214961Y190059D02*
D03*
X203150D02*
D03*
D88*
X83858Y240748D02*
D03*
X76772D02*
D03*
X314071Y70071D02*
D03*
X306984D02*
D03*
X212303Y48032D02*
D03*
X205217D02*
D03*
D89*
X85138Y210846D02*
D03*
Y208248D02*
D03*
D90*
X95472Y273622D02*
D03*
Y261811D02*
D03*
D91*
X46457Y187205D02*
D03*
X37795Y190945D02*
D03*
Y183465D02*
D03*
D97*
X-4626Y-5118D02*
Y468602D01*
Y-5118D02*
X468602D01*
Y473228D01*
X-4626D02*
X468602D01*
X-4626Y468602D02*
Y473228D01*
D206*
X86024Y175000D02*
D03*
X82284Y166929D02*
D03*
X89764D02*
D03*
D207*
X57972Y379232D02*
D03*
Y377658D02*
D03*
X56398D02*
D03*
Y379232D02*
D03*
X67224Y282579D02*
D03*
Y281004D02*
D03*
X65650D02*
D03*
Y282579D02*
D03*
X234547Y329134D02*
D03*
Y327559D02*
D03*
X232972D02*
D03*
Y329134D02*
D03*
D208*
X252028Y406870D02*
D03*
Y401594D02*
D03*
X240098Y406870D02*
D03*
Y401594D02*
D03*
D209*
X130118Y340699D02*
D03*
Y334892D02*
D03*
X121653Y340699D02*
D03*
Y334892D02*
D03*
D210*
X125886Y341477D02*
D03*
Y334114D02*
D03*
D211*
X436909Y204429D02*
D03*
Y181988D02*
D03*
D212*
X396358Y209114D02*
D03*
X397933Y204784D02*
D03*
X396358Y200453D02*
D03*
Y191791D02*
D03*
X395571Y196122D02*
D03*
Y187461D02*
D03*
X396358Y183130D02*
D03*
Y178799D02*
D03*
D213*
X381201Y222303D02*
D03*
X385138Y176043D02*
D03*
D214*
X205211Y411417D02*
D03*
D215*
X195955D02*
D03*
D216*
X212441Y455512D02*
D03*
X199567D02*
D03*
D217*
X164370Y453307D02*
D03*
Y440591D02*
D03*
D218*
X27343Y438937D02*
D03*
X22343D02*
D03*
Y426417D02*
D03*
X17343D02*
D03*
X27343D02*
D03*
X17343Y438937D02*
D03*
D219*
X247984Y97980D02*
D03*
X227984Y82232D02*
D03*
X247984D02*
D03*
X227984Y97980D02*
D03*
X364705Y97473D02*
D03*
X344705Y81725D02*
D03*
X364705D02*
D03*
X344705Y97473D02*
D03*
D220*
X187303Y234705D02*
D03*
Y214705D02*
D03*
X170768Y234705D02*
D03*
Y214705D02*
D03*
D221*
X378346Y386437D02*
D03*
Y396437D02*
D03*
X369488D02*
D03*
Y386437D02*
D03*
D222*
X102067Y331299D02*
D03*
Y333858D02*
D03*
Y328740D02*
D03*
X93405Y331299D02*
D03*
Y333858D02*
D03*
Y328740D02*
D03*
D223*
X65945Y236024D02*
D03*
X39567D02*
D03*
X132579Y210138D02*
D03*
X106201D02*
D03*
D224*
X298917Y456693D02*
D03*
Y461693D02*
D03*
Y446693D02*
D03*
Y451693D02*
D03*
Y441693D02*
D03*
Y436693D02*
D03*
Y426693D02*
D03*
Y431693D02*
D03*
X282185Y456693D02*
D03*
Y461693D02*
D03*
Y446693D02*
D03*
Y451693D02*
D03*
Y436693D02*
D03*
Y441693D02*
D03*
Y431693D02*
D03*
Y426693D02*
D03*
D225*
X198130Y393996D02*
D03*
D226*
Y386122D02*
D03*
D227*
X325098Y404035D02*
D03*
X322539D02*
D03*
X319980D02*
D03*
X322539Y381595D02*
D03*
X319980D02*
D03*
X325098D02*
D03*
X317421Y404035D02*
D03*
Y381595D02*
D03*
D228*
X332087Y430807D02*
D03*
Y433366D02*
D03*
Y428248D02*
D03*
X324606Y430807D02*
D03*
Y433366D02*
D03*
Y428248D02*
D03*
D229*
X342520Y444783D02*
D03*
Y448524D02*
D03*
Y441043D02*
D03*
X332283Y448524D02*
D03*
Y441043D02*
D03*
D230*
X362500Y450197D02*
D03*
X360531D02*
D03*
X358563D02*
D03*
Y439961D02*
D03*
X362500D02*
D03*
X360531D02*
D03*
X354626Y450197D02*
D03*
X356594D02*
D03*
X354626Y439961D02*
D03*
X356594D02*
D03*
D231*
X364665Y446063D02*
D03*
Y444095D02*
D03*
X352461D02*
D03*
Y446063D02*
D03*
D232*
X358563Y445079D02*
D03*
D233*
X154626Y31890D02*
D03*
X159350Y6299D02*
D03*
X136516Y31890D02*
D03*
X131791Y6299D02*
D03*
D234*
X73701Y432185D02*
D03*
Y434744D02*
D03*
Y429626D02*
D03*
X69803Y434744D02*
D03*
Y432185D02*
D03*
Y429626D02*
D03*
D235*
X211390Y264048D02*
D03*
X208885Y261543D02*
D03*
X201745Y267198D02*
D03*
X199239Y264692D02*
D03*
X227237Y311587D02*
D03*
X224731Y309082D02*
D03*
M02*
