%FSLAX25Y25*%
%MOIN*%
G70*
G01*
G75*
G04 Layer_Physical_Order=10*
G04 Layer_Color=6736896*
%ADD10C,0.01969*%
%ADD11R,0.03543X0.01772*%
%ADD12R,0.18898X0.18898*%
%ADD13R,0.01575X0.01575*%
%ADD14R,0.01772X0.01181*%
%ADD15R,0.01181X0.01181*%
%ADD16R,0.01181X0.01772*%
%ADD17R,0.01181X0.01181*%
%ADD18R,0.26772X0.26772*%
%ADD19R,0.03543X0.03937*%
%ADD20R,0.02165X0.02559*%
%ADD21R,0.01969X0.01969*%
%ADD22R,0.01378X0.01969*%
%ADD23R,0.07087X0.02362*%
%ADD24R,0.02362X0.01181*%
%ADD25R,0.02362X0.07874*%
%ADD26R,0.06299X0.02165*%
%ADD27R,0.01772X0.01378*%
%ADD28R,0.07480X0.07087*%
%ADD29R,0.05315X0.01575*%
%ADD30R,0.06299X0.08268*%
%ADD31O,0.03150X0.00984*%
%ADD32O,0.00984X0.03150*%
%ADD33R,0.05276X0.12284*%
%ADD34R,0.11181X0.12284*%
%ADD35R,0.18071X0.04370*%
%ADD36R,0.02756X0.01181*%
%ADD37R,0.06221X0.09252*%
%ADD38C,0.00984*%
%ADD39R,0.01181X0.03347*%
%ADD40R,0.03347X0.01181*%
%ADD41R,0.13386X0.13386*%
%ADD42R,0.04528X0.02992*%
%ADD43R,0.03937X0.03543*%
%ADD44R,0.02362X0.02362*%
%ADD45R,0.00984X0.01575*%
%ADD46R,0.05512X0.01969*%
%ADD47R,0.07284X0.02913*%
%ADD48R,0.04134X0.05512*%
%ADD49R,0.08661X0.20472*%
%ADD50R,0.18110X0.22047*%
%ADD51R,0.10984X0.07559*%
%ADD52C,0.05906*%
%ADD53R,0.09449X0.02992*%
%ADD54R,0.06693X0.02795*%
%ADD55R,0.01969X0.00984*%
%ADD56R,0.00984X0.01969*%
%ADD57R,0.09055X0.09055*%
%ADD58R,0.07520X0.02992*%
%ADD59O,0.02953X0.00984*%
%ADD60O,0.00984X0.02953*%
%ADD61R,0.17716X0.17716*%
%ADD62O,0.08268X0.01181*%
%ADD63O,0.01181X0.08268*%
%ADD64R,0.01969X0.01969*%
%ADD65R,0.04724X0.02953*%
%ADD66C,0.01378*%
%ADD67R,0.06299X0.19291*%
%ADD68R,0.05906X0.22047*%
%ADD69R,0.05709X0.04528*%
%ADD70R,0.02441X0.02441*%
%ADD71R,0.01811X0.01654*%
%ADD72R,0.03543X0.01575*%
%ADD73R,0.02559X0.02165*%
%ADD74R,0.01575X0.00984*%
%ADD75R,0.01969X0.05512*%
%ADD76R,0.03740X0.05512*%
G04:AMPARAMS|DCode=77|XSize=13.78mil|YSize=19.69mil|CornerRadius=0mil|HoleSize=0mil|Usage=FLASHONLY|Rotation=315.000|XOffset=0mil|YOffset=0mil|HoleType=Round|Shape=Rectangle|*
%AMROTATEDRECTD77*
4,1,4,-0.01183,-0.00209,0.00209,0.01183,0.01183,0.00209,-0.00209,-0.01183,-0.01183,-0.00209,0.0*
%
%ADD77ROTATEDRECTD77*%

%ADD78P,0.02784X4X360.0*%
%ADD79R,0.01969X0.01378*%
%ADD80R,0.02795X0.06693*%
%ADD81R,0.23622X0.07874*%
%ADD82R,0.05512X0.04134*%
%ADD83R,0.01575X0.01575*%
%ADD84R,0.02441X0.02441*%
%ADD85R,0.04528X0.10630*%
%ADD86R,0.10630X0.04528*%
%ADD87R,0.04528X0.07087*%
%ADD88R,0.04528X0.05709*%
%ADD89R,0.01654X0.01811*%
%ADD90R,0.07087X0.04528*%
%ADD91R,0.05512X0.03740*%
%ADD92C,0.01181*%
%ADD93C,0.00453*%
%ADD94C,0.03937*%
%ADD95C,0.01000*%
%ADD96C,0.03150*%
%ADD97C,0.01969*%
%ADD98C,0.01378*%
%ADD99C,0.00996*%
%ADD100C,0.00394*%
%ADD101C,0.00787*%
%ADD102C,0.01181*%
%ADD103C,0.00784*%
%ADD104C,0.00512*%
%ADD105R,0.09911X0.06594*%
%ADD106R,0.06791X1.25492*%
%ADD107R,0.18996X0.06496*%
%ADD108R,0.15453X0.49409*%
%ADD109R,0.02854X0.21358*%
%ADD110R,0.13976X0.11319*%
%ADD111R,0.14764X0.11122*%
%ADD112R,0.09153X0.17224*%
%ADD113R,0.08465X0.09843*%
%ADD114R,0.08661X0.12402*%
%ADD115R,0.13386X0.08169*%
%ADD116R,0.05315X0.93799*%
%ADD117R,0.17224X0.04528*%
%ADD118R,0.19193X0.03051*%
%ADD119R,0.10925X0.14469*%
%ADD120R,0.11614X0.04035*%
%ADD121R,0.02264X0.71752*%
%ADD122R,0.34842X0.01969*%
%ADD123R,0.78150X0.02461*%
%ADD124R,0.02461X0.13189*%
%ADD125R,0.16043X0.02264*%
%ADD126R,0.02658X0.42618*%
%ADD127R,0.25098X0.01969*%
%ADD128R,0.02165X0.76575*%
%ADD129R,0.68504X0.02165*%
%ADD130R,0.03347X0.05315*%
%ADD131R,0.02264X0.05512*%
%ADD132R,0.02431X1.19587*%
%ADD133R,0.10728X0.03445*%
%ADD134R,0.03839X0.08661*%
%ADD135R,0.14075X0.03839*%
%ADD136R,0.06594X0.04232*%
%ADD137R,0.13189X0.03051*%
%ADD138R,0.04921X0.18504*%
%ADD139R,0.09843X0.04134*%
%ADD140R,0.11713X0.02953*%
%ADD141R,0.04429X0.02756*%
%ADD142R,0.02362X0.02264*%
%ADD143R,0.08465X0.02854*%
%ADD144R,0.07087X0.21752*%
%ADD145R,0.10531X0.12598*%
%ADD146R,0.05315X0.10728*%
%ADD147R,0.04232X0.02854*%
%ADD148R,0.38287X0.06398*%
%ADD149R,0.38091X0.05118*%
%ADD150R,0.30807X0.08268*%
%ADD151R,0.30315X0.06102*%
%ADD152R,0.27756X0.05413*%
%ADD153R,0.19095X0.03937*%
%ADD154R,0.00886X0.01280*%
%ADD155R,0.39961X0.06594*%
%ADD156R,0.40256X0.05807*%
%ADD157R,0.30315X0.12008*%
%ADD158R,0.30709X0.06299*%
%ADD159R,0.30413X0.06496*%
%ADD160R,0.04134X0.05413*%
%ADD161R,0.02431X0.00820*%
%ADD162R,0.03642X0.11417*%
%ADD163R,0.34449X0.01969*%
%ADD164R,0.02430X0.17389*%
%ADD165R,0.92913X0.01870*%
%ADD166R,0.04429X0.41240*%
%ADD167R,0.03740X0.41043*%
%ADD168R,0.05807X0.33169*%
%ADD169R,0.60335X0.08465*%
%ADD170R,0.09843X0.11122*%
%ADD171R,0.14370X0.08760*%
%ADD172R,0.03740X0.24016*%
%ADD173R,0.42224X0.07874*%
%ADD174R,0.08563X0.19291*%
%ADD175R,0.16535X0.19291*%
%ADD176R,0.31693X0.08071*%
%ADD177R,0.06299X0.00394*%
%ADD178R,0.03543X0.00787*%
%ADD179R,0.01181X0.00984*%
%ADD180R,0.12303X0.06004*%
%ADD181R,0.08268X0.01476*%
%ADD182R,0.04823X0.07776*%
%ADD183R,0.14075X0.03740*%
%ADD184R,0.09941X0.01870*%
%ADD185C,0.07874*%
%ADD186C,0.04803*%
%ADD187C,0.09882*%
%ADD188C,0.06299*%
%ADD189C,0.15748*%
%ADD190C,0.07087*%
%ADD191C,0.02598*%
%ADD192C,0.01575*%
%ADD193C,0.02165*%
%ADD194C,0.00591*%
%ADD195C,0.04000*%
%ADD196C,0.08071*%
%ADD197C,0.05591*%
%ADD198C,0.10669*%
%ADD199C,0.13386*%
%ADD200C,0.05787*%
%ADD201C,0.02559*%
%ADD202C,0.03150*%
%ADD203C,0.02362*%
%ADD204C,0.02874*%
%ADD205C,0.00642*%
D10*
X51279Y271201D02*
D03*
X46752Y271201D02*
D03*
Y276319D02*
D03*
X46752Y266083D02*
D03*
X51181Y261457D02*
D03*
X43307D02*
D03*
X47244D02*
D03*
X42224Y271201D02*
D03*
X36909Y276319D02*
D03*
Y271201D02*
D03*
Y266083D02*
D03*
X39370Y261457D02*
D03*
X35433D02*
D03*
X360531Y420177D02*
D03*
X356201D02*
D03*
X360531Y415846D02*
D03*
X356201D02*
D03*
Y411516D02*
D03*
X360531Y407185D02*
D03*
Y411516D02*
D03*
X356201Y407185D02*
D03*
X351870Y415846D02*
D03*
Y420177D02*
D03*
X347539Y415846D02*
D03*
Y420177D02*
D03*
X351870Y411516D02*
D03*
Y407185D02*
D03*
X347539Y411516D02*
D03*
Y407185D02*
D03*
X42815Y406201D02*
D03*
D92*
X48622Y341142D02*
D03*
X225000Y439665D02*
D03*
X251673Y447342D02*
D03*
X249114Y447146D02*
D03*
X341762Y209302D02*
D03*
X176673Y418701D02*
D03*
X10236Y215354D02*
D03*
X75590Y294390D02*
D03*
X375295Y92323D02*
D03*
X328051Y142323D02*
D03*
X329429Y150492D02*
D03*
X6791Y257087D02*
D03*
X408169Y232382D02*
D03*
X196590Y214110D02*
D03*
X6988Y269980D02*
D03*
X272835Y436811D02*
D03*
X423740Y153858D02*
D03*
X423898Y163858D02*
D03*
X319390Y435138D02*
D03*
X238189Y349410D02*
D03*
X119882Y272441D02*
D03*
X8366Y232776D02*
D03*
X31988Y239469D02*
D03*
X7382Y242913D02*
D03*
X5610Y290059D02*
D03*
X79137Y112900D02*
D03*
X110925Y89961D02*
D03*
X110945Y84921D02*
D03*
X110984Y69921D02*
D03*
X110905Y74921D02*
D03*
X111018Y103330D02*
D03*
X108163Y102739D02*
D03*
X110886Y114921D02*
D03*
X110866Y119921D02*
D03*
X272835Y444095D02*
D03*
X322539Y375492D02*
D03*
X164961Y332283D02*
D03*
X169390Y325984D02*
D03*
X63386Y280512D02*
D03*
X273031Y455217D02*
D03*
X322146Y373327D02*
D03*
X166240Y326772D02*
D03*
X161319Y331693D02*
D03*
X62992Y282579D02*
D03*
X56988Y389764D02*
D03*
X272638Y441732D02*
D03*
X272736Y439370D02*
D03*
X232874Y126083D02*
D03*
X229134Y181496D02*
D03*
X148327Y379921D02*
D03*
X160925Y334842D02*
D03*
X320177Y16929D02*
D03*
X62795Y287205D02*
D03*
X63386Y297047D02*
D03*
X58858Y289961D02*
D03*
X55512Y289469D02*
D03*
X392126Y123228D02*
D03*
X423898Y135945D02*
D03*
X423799Y145945D02*
D03*
X369193Y65945D02*
D03*
X314862Y18012D02*
D03*
X258366Y54823D02*
D03*
X234055Y62285D02*
D03*
X386122Y380216D02*
D03*
X344882Y305217D02*
D03*
X336319Y271358D02*
D03*
X262205Y267028D02*
D03*
X106004Y273622D02*
D03*
X263289Y94865D02*
D03*
X400787Y144095D02*
D03*
X397736Y146555D02*
D03*
X385039Y138386D02*
D03*
X337965Y124480D02*
D03*
X289469Y16240D02*
D03*
X279232Y130610D02*
D03*
X267421Y140650D02*
D03*
X199114Y131102D02*
D03*
X174803Y125984D02*
D03*
X174702Y136895D02*
D03*
X221055Y122335D02*
D03*
X387008Y180709D02*
D03*
X380118Y205315D02*
D03*
X385039Y200492D02*
D03*
X387205Y183268D02*
D03*
X388681Y209350D02*
D03*
X390748Y192028D02*
D03*
X373524Y257382D02*
D03*
X371161Y233661D02*
D03*
X268110Y210925D02*
D03*
X263878Y210827D02*
D03*
X304823Y394094D02*
D03*
X296358Y401575D02*
D03*
X230118Y251181D02*
D03*
X253346Y226083D02*
D03*
X255807Y223031D02*
D03*
X255020Y210630D02*
D03*
X243110Y249016D02*
D03*
X256693Y209449D02*
D03*
X237795Y197047D02*
D03*
X374587Y188110D02*
D03*
X372421Y205728D02*
D03*
X372657Y198110D02*
D03*
X372224Y215728D02*
D03*
X285138Y175394D02*
D03*
X280039Y175709D02*
D03*
X272421Y175768D02*
D03*
X266437Y175295D02*
D03*
X266831Y172146D02*
D03*
X239961Y182185D02*
D03*
X297047Y379232D02*
D03*
X284350Y418012D02*
D03*
X272342Y426575D02*
D03*
X285531Y412008D02*
D03*
X270374Y404626D02*
D03*
X276279Y419291D02*
D03*
X278937Y419095D02*
D03*
X255906Y386319D02*
D03*
X259350Y367421D02*
D03*
X265453Y337500D02*
D03*
X255118Y367618D02*
D03*
X191535Y244783D02*
D03*
X204232Y398327D02*
D03*
X235335Y384843D02*
D03*
X146162Y358169D02*
D03*
X219587Y425457D02*
D03*
X48917Y313484D02*
D03*
X44390Y313386D02*
D03*
X353051Y428248D02*
D03*
X364862Y434744D02*
D03*
X366831Y402854D02*
D03*
X327362Y437894D02*
D03*
X332185Y424508D02*
D03*
X332283Y410827D02*
D03*
X332185Y400787D02*
D03*
X317421Y375886D02*
D03*
X335925Y375492D02*
D03*
X339665Y400886D02*
D03*
X341240Y399114D02*
D03*
X343209Y399213D02*
D03*
X353051Y399409D02*
D03*
X353642Y369291D02*
D03*
X371063Y379331D02*
D03*
X375984Y365846D02*
D03*
X362303Y400591D02*
D03*
X387106Y402559D02*
D03*
X366732Y406791D02*
D03*
X367914Y416634D02*
D03*
X367913Y418602D02*
D03*
X367913Y422539D02*
D03*
X365748Y423032D02*
D03*
X367421Y426772D02*
D03*
X370079Y438583D02*
D03*
X378150Y448425D02*
D03*
X368356Y447490D02*
D03*
X352264Y451279D02*
D03*
X343209Y451772D02*
D03*
X328051Y448524D02*
D03*
X349508Y424902D02*
D03*
X343602Y435101D02*
D03*
X325886Y452756D02*
D03*
X309941Y442815D02*
D03*
X249606Y430118D02*
D03*
X253642Y410532D02*
D03*
X266240Y378346D02*
D03*
X338878Y452362D02*
D03*
X325098Y374016D02*
D03*
X336417Y431693D02*
D03*
X328642Y424508D02*
D03*
X355807Y384646D02*
D03*
X316339Y421555D02*
D03*
X391043Y420472D02*
D03*
X339567Y377756D02*
D03*
X368799Y391831D02*
D03*
X339272Y391338D02*
D03*
X330217Y420571D02*
D03*
X375984D02*
D03*
X357087Y427854D02*
D03*
X347342Y424606D02*
D03*
X351083Y428051D02*
D03*
X368209Y444095D02*
D03*
X362500Y453642D02*
D03*
X358563Y453740D02*
D03*
X356594Y453740D02*
D03*
X362500Y434842D02*
D03*
X356594Y436417D02*
D03*
X358563Y436417D02*
D03*
X360532Y434744D02*
D03*
X348524Y446063D02*
D03*
X214567Y418701D02*
D03*
Y416732D02*
D03*
X214665Y414764D02*
D03*
X242618Y420669D02*
D03*
X136221Y436811D02*
D03*
X136811Y445079D02*
D03*
X121457Y436811D02*
D03*
X121358Y443012D02*
D03*
X111122Y337205D02*
D03*
X24311Y335236D02*
D03*
X147244Y408465D02*
D03*
X48130Y355315D02*
D03*
X48228Y358071D02*
D03*
X97638Y331299D02*
D03*
X42717Y363583D02*
D03*
X42815Y374114D02*
D03*
X46457Y374410D02*
D03*
Y363189D02*
D03*
X54626Y367028D02*
D03*
X54626Y370571D02*
D03*
X50984Y312205D02*
D03*
X53347Y307677D02*
D03*
X57382Y307481D02*
D03*
X244390Y156988D02*
D03*
X225098Y229036D02*
D03*
X224803Y226181D02*
D03*
X261713Y89370D02*
D03*
X261614Y91339D02*
D03*
X316339Y96260D02*
D03*
Y94292D02*
D03*
X299016Y91339D02*
D03*
X301280Y106201D02*
D03*
X330610Y160236D02*
D03*
X323819Y165748D02*
D03*
X307579Y162500D02*
D03*
X318307Y168504D02*
D03*
X307776Y170669D02*
D03*
X299705Y120079D02*
D03*
X299311Y113484D02*
D03*
X311860Y174163D02*
D03*
X301132Y176526D02*
D03*
X296457Y99508D02*
D03*
X292421Y216240D02*
D03*
X283469Y212300D02*
D03*
X278445Y212500D02*
D03*
X213681Y177264D02*
D03*
X204134Y174902D02*
D03*
X204429Y170965D02*
D03*
X205807Y179916D02*
D03*
X218701Y181693D02*
D03*
X182352Y92845D02*
D03*
X231102Y156496D02*
D03*
X182087Y113386D02*
D03*
X182324Y118956D02*
D03*
X183957Y107579D02*
D03*
X247736Y253740D02*
D03*
X260728Y308366D02*
D03*
X262598Y254429D02*
D03*
X245669Y336122D02*
D03*
X261519Y338881D02*
D03*
X248327Y243701D02*
D03*
X242126Y244488D02*
D03*
X238780Y245374D02*
D03*
X242224Y246949D02*
D03*
X299016Y210433D02*
D03*
X297047Y200492D02*
D03*
X299016Y205610D02*
D03*
X338858Y210354D02*
D03*
X189567Y208662D02*
D03*
X175394Y230020D02*
D03*
X332776Y84351D02*
D03*
X360433Y107579D02*
D03*
X338189Y110433D02*
D03*
X380807Y57087D02*
D03*
X371260Y60236D02*
D03*
X302165Y80610D02*
D03*
X404823Y110335D02*
D03*
X302327Y150063D02*
D03*
Y141402D02*
D03*
X298862Y29484D02*
D03*
X311414Y60823D02*
D03*
X289764Y41536D02*
D03*
X300295Y51378D02*
D03*
X306988Y50295D02*
D03*
X313189Y57677D02*
D03*
X314071Y74307D02*
D03*
X318016Y70666D02*
D03*
X317819Y62792D02*
D03*
X317622Y58855D02*
D03*
X307087Y74508D02*
D03*
X329134Y78543D02*
D03*
X328937Y68504D02*
D03*
X344705Y71378D02*
D03*
X328937Y66634D02*
D03*
X391437Y86516D02*
D03*
X391339Y84449D02*
D03*
X391240Y78347D02*
D03*
X391339Y66634D02*
D03*
X405807Y68110D02*
D03*
X405905Y77166D02*
D03*
X405217Y120276D02*
D03*
X391240Y62599D02*
D03*
X242569Y106693D02*
D03*
X178051Y152165D02*
D03*
X182283Y38976D02*
D03*
Y29232D02*
D03*
X181693Y55217D02*
D03*
X173622Y43012D02*
D03*
X196850Y61516D02*
D03*
X198819Y54429D02*
D03*
X198917Y38878D02*
D03*
X212303Y57579D02*
D03*
X189862Y75788D02*
D03*
X187992Y75886D02*
D03*
X212008Y67323D02*
D03*
X263484Y77362D02*
D03*
X263583Y69390D02*
D03*
X263484Y53642D02*
D03*
X278642Y56004D02*
D03*
X253346Y104823D02*
D03*
X278937Y42028D02*
D03*
X285236Y121851D02*
D03*
X263583Y115158D02*
D03*
X249803Y115355D02*
D03*
X285433Y63288D02*
D03*
X214075Y68406D02*
D03*
X229724Y71162D02*
D03*
X180708Y98022D02*
D03*
X213780Y82973D02*
D03*
X215650Y81201D02*
D03*
X150295Y98425D02*
D03*
X139173Y92421D02*
D03*
X176280Y142913D02*
D03*
X213878Y139961D02*
D03*
X246358Y139469D02*
D03*
X263290Y120661D02*
D03*
X263335Y100933D02*
D03*
X262795Y87303D02*
D03*
X263484Y73327D02*
D03*
X252658Y53937D02*
D03*
X240740Y39280D02*
D03*
X228929Y39461D02*
D03*
X217118Y39477D02*
D03*
X213181Y39477D02*
D03*
X198228Y69193D02*
D03*
X212941Y110776D02*
D03*
X181693Y43996D02*
D03*
X186957Y43949D02*
D03*
X297933Y40945D02*
D03*
X316728Y110036D02*
D03*
X361587Y126012D02*
D03*
X332059Y126110D02*
D03*
X379425Y119878D02*
D03*
X379524Y100193D02*
D03*
X379721Y88382D02*
D03*
X379721Y72634D02*
D03*
X371162Y38878D02*
D03*
X359350Y38386D02*
D03*
X346654Y39075D02*
D03*
X334028Y39496D02*
D03*
X327559Y45866D02*
D03*
X329228Y72634D02*
D03*
X137106Y334547D02*
D03*
X137697Y350886D02*
D03*
X165453Y339862D02*
D03*
X165847Y347244D02*
D03*
X152854Y327264D02*
D03*
X137205Y343996D02*
D03*
X139862Y420669D02*
D03*
X89764Y391732D02*
D03*
X83464Y402166D02*
D03*
X82185Y393799D02*
D03*
X87992Y385433D02*
D03*
X78666Y380831D02*
D03*
X84055Y394882D02*
D03*
X86122Y393799D02*
D03*
X21752Y340650D02*
D03*
X25492Y346555D02*
D03*
X25098Y330315D02*
D03*
X56496Y407185D02*
D03*
X31299Y356496D02*
D03*
X30315Y363878D02*
D03*
X34449Y375689D02*
D03*
X33661Y381398D02*
D03*
X47343Y387697D02*
D03*
X46654Y327953D02*
D03*
X98622Y408268D02*
D03*
X106299Y408366D02*
D03*
X106004Y427461D02*
D03*
X95965Y429429D02*
D03*
X116240Y400886D02*
D03*
X121555Y393799D02*
D03*
X108563Y359744D02*
D03*
X109153Y351181D02*
D03*
X110138Y342717D02*
D03*
X121653Y331988D02*
D03*
X105807Y331299D02*
D03*
X98327Y324882D02*
D03*
X78642Y411024D02*
D03*
X84646Y327559D02*
D03*
X121653Y368406D02*
D03*
X151083Y333268D02*
D03*
X118012Y415945D02*
D03*
X128839Y412795D02*
D03*
X128543Y382481D02*
D03*
X117520Y359842D02*
D03*
X122441Y350492D02*
D03*
X109350Y347047D02*
D03*
X73721Y328150D02*
D03*
X58956Y327764D02*
D03*
X55709Y342961D02*
D03*
X16732Y379134D02*
D03*
X16142Y373917D02*
D03*
X16535Y366339D02*
D03*
X16634Y358760D02*
D03*
X16732Y351575D02*
D03*
X98721Y424311D02*
D03*
X109055Y422343D02*
D03*
X51476Y407185D02*
D03*
X129035Y416043D02*
D03*
X135236Y399902D02*
D03*
X93996Y435728D02*
D03*
X42815Y420079D02*
D03*
X46654Y383071D02*
D03*
X32701Y400024D02*
D03*
X230512Y429331D02*
D03*
X228543Y405610D02*
D03*
X217520Y420669D02*
D03*
X232480Y405709D02*
D03*
X241634Y418701D02*
D03*
X235925Y431201D02*
D03*
X244882Y439862D02*
D03*
X224606Y429035D02*
D03*
X225689Y405610D02*
D03*
X217421Y412795D02*
D03*
X241437D02*
D03*
X257087Y427165D02*
D03*
X257480Y421358D02*
D03*
X257579Y415650D02*
D03*
X256594Y433169D02*
D03*
X219094Y432579D02*
D03*
X262205Y404429D02*
D03*
X328839Y416437D02*
D03*
X327067Y418602D02*
D03*
X345079Y388681D02*
D03*
X335138Y384941D02*
D03*
X375787Y400886D02*
D03*
X367914Y439961D02*
D03*
X408169Y409350D02*
D03*
X392815Y385925D02*
D03*
X315846Y433760D02*
D03*
X359154Y362992D02*
D03*
X319685Y448032D02*
D03*
X367618Y404823D02*
D03*
X391831Y417028D02*
D03*
X402953Y399508D02*
D03*
X375886Y414665D02*
D03*
X399311Y435925D02*
D03*
X406791Y424016D02*
D03*
X304626Y417717D02*
D03*
X169390Y347736D02*
D03*
X57382Y261417D02*
D03*
X58366Y267224D02*
D03*
X45374Y248917D02*
D03*
X58169Y263386D02*
D03*
X51083Y245177D02*
D03*
X35531Y312500D02*
D03*
X47638Y253150D02*
D03*
X60236Y264370D02*
D03*
X57972Y272736D02*
D03*
X45866Y236614D02*
D03*
X33957Y236024D02*
D03*
X36024Y249705D02*
D03*
X53248Y251772D02*
D03*
X42314Y258259D02*
D03*
X50886Y219291D02*
D03*
X11811Y213189D02*
D03*
X48130Y219390D02*
D03*
X13178Y211406D02*
D03*
X40945Y218110D02*
D03*
Y209646D02*
D03*
X50787Y222736D02*
D03*
X46555D02*
D03*
X64173Y221161D02*
D03*
X34744Y220965D02*
D03*
X13287Y228051D02*
D03*
X10433Y222835D02*
D03*
X24508Y231693D02*
D03*
X21260Y231299D02*
D03*
X10728Y217323D02*
D03*
X21250Y199890D02*
D03*
X27165Y199902D02*
D03*
X38583Y217323D02*
D03*
X134449Y241732D02*
D03*
X139567Y201575D02*
D03*
X81496Y220374D02*
D03*
X74410Y214370D02*
D03*
X82480Y204134D02*
D03*
X79134Y224803D02*
D03*
X90748Y242323D02*
D03*
X96653Y242126D02*
D03*
X92716Y214567D02*
D03*
X94685Y213484D02*
D03*
X76673Y234350D02*
D03*
X78839Y234547D02*
D03*
X74409Y234154D02*
D03*
X150591Y214764D02*
D03*
X155315Y227362D02*
D03*
X157776Y234350D02*
D03*
X163583Y212697D02*
D03*
X153740Y220472D02*
D03*
X151083Y238386D02*
D03*
X142618Y242028D02*
D03*
Y232480D02*
D03*
X143110Y220768D02*
D03*
X214024Y118650D02*
D03*
X213831Y116681D02*
D03*
X213240Y108807D02*
D03*
X213141Y102902D02*
D03*
X213142Y100933D02*
D03*
X212941Y93059D02*
D03*
X199264Y91091D02*
D03*
X199803Y79429D02*
D03*
X215059Y35728D02*
D03*
X219087Y35638D02*
D03*
X221055Y35539D02*
D03*
X226961Y35721D02*
D03*
X230898Y35736D02*
D03*
X232866Y35441D02*
D03*
X238772Y35917D02*
D03*
X244677Y35736D02*
D03*
X250583Y35622D02*
D03*
X254520Y35622D02*
D03*
X262394Y35441D02*
D03*
X263039Y59595D02*
D03*
X262941Y61563D02*
D03*
X263240Y75343D02*
D03*
X263433Y81248D02*
D03*
X263335Y83217D02*
D03*
X278051Y99508D02*
D03*
X263338Y102902D02*
D03*
X263433Y108807D02*
D03*
X263335Y110776D02*
D03*
X263240Y122587D02*
D03*
X263335Y124555D02*
D03*
X263289Y126559D02*
D03*
X258661Y125689D02*
D03*
X252756D02*
D03*
X242709Y125894D02*
D03*
X234835Y125894D02*
D03*
X224992Y125681D02*
D03*
X223024Y125697D02*
D03*
X219087Y125598D02*
D03*
X323201Y129063D02*
D03*
X329918Y117910D02*
D03*
X330016Y115941D02*
D03*
X329721Y108067D02*
D03*
X329720Y102162D02*
D03*
X317224Y101083D02*
D03*
Y91732D02*
D03*
X329524Y90351D02*
D03*
X317028Y77658D02*
D03*
X330512Y39272D02*
D03*
X336221Y38484D02*
D03*
X344488Y54429D02*
D03*
X347807Y54500D02*
D03*
X350886Y54724D02*
D03*
X366535Y52854D02*
D03*
X371555Y52756D02*
D03*
X381201Y38189D02*
D03*
X378346Y61516D02*
D03*
X378445Y63681D02*
D03*
X377464Y74603D02*
D03*
X378146Y80508D02*
D03*
X378153Y82477D02*
D03*
X377661Y90351D02*
D03*
X377563Y94288D02*
D03*
X377457Y102162D02*
D03*
X378252Y108067D02*
D03*
X379531Y110036D02*
D03*
X378055Y121847D02*
D03*
X373398Y125618D02*
D03*
X371429Y124776D02*
D03*
X358957Y125492D02*
D03*
X351744Y126012D02*
D03*
X349114Y125886D02*
D03*
X341902Y125815D02*
D03*
X339961Y124409D02*
D03*
X335996Y125858D02*
D03*
X92323Y183169D02*
D03*
X127657Y159449D02*
D03*
X125591Y186024D02*
D03*
X95768Y167717D02*
D03*
X59744Y173031D02*
D03*
X126575Y192815D02*
D03*
X123228Y164272D02*
D03*
X72047Y181595D02*
D03*
X146555Y225590D02*
D03*
X117618Y189961D02*
D03*
X377264Y275098D02*
D03*
X94784Y186516D02*
D03*
X133071Y187500D02*
D03*
X253642Y356102D02*
D03*
X251870Y357776D02*
D03*
X125492Y153937D02*
D03*
X279134Y112795D02*
D03*
X377756Y115453D02*
D03*
X138583Y183661D02*
D03*
X14764Y182579D02*
D03*
X127067Y142421D02*
D03*
X28543Y193996D02*
D03*
X55709Y194980D02*
D03*
X32579Y193898D02*
D03*
X56102Y190354D02*
D03*
X27264Y182776D02*
D03*
X56890Y183661D02*
D03*
X59153Y184154D02*
D03*
X277658Y385138D02*
D03*
X268996Y387008D02*
D03*
X275689Y392913D02*
D03*
X196260Y244685D02*
D03*
X399803Y413681D02*
D03*
Y409842D02*
D03*
X403839Y429921D02*
D03*
X413484Y407579D02*
D03*
X411516Y418110D02*
D03*
X403150Y364075D02*
D03*
X434646Y375492D02*
D03*
X392028Y363189D02*
D03*
X434449Y365748D02*
D03*
X404567Y380945D02*
D03*
X433760Y356201D02*
D03*
X165157Y116536D02*
D03*
X258260Y39378D02*
D03*
X165157Y118437D02*
D03*
X260531Y39378D02*
D03*
X163976Y86319D02*
D03*
X234736Y39280D02*
D03*
X163976Y88221D02*
D03*
X237008Y39280D02*
D03*
X165059Y103575D02*
D03*
X248721Y39469D02*
D03*
X165059Y101673D02*
D03*
X246449Y39469D02*
D03*
X164173Y72965D02*
D03*
X225098Y39378D02*
D03*
X164173Y71063D02*
D03*
X222827Y39378D02*
D03*
X325394Y230807D02*
D03*
X339665Y227264D02*
D03*
X404665Y350945D02*
D03*
X321260Y436713D02*
D03*
X384260Y251762D02*
D03*
X79232Y227067D02*
D03*
X38484Y213386D02*
D03*
X105807Y226575D02*
D03*
X106102Y223917D02*
D03*
X106496Y231693D02*
D03*
X106791Y228937D02*
D03*
X140650Y231988D02*
D03*
X336614Y198327D02*
D03*
X337303Y206988D02*
D03*
X340846Y410039D02*
D03*
X367520Y434941D02*
D03*
X348819Y443307D02*
D03*
X76477Y432185D02*
D03*
X110039Y430610D02*
D03*
X94587Y439173D02*
D03*
X269685Y437697D02*
D03*
X296752Y420472D02*
D03*
X32579Y163878D02*
D03*
X61614Y164862D02*
D03*
X58563Y167126D02*
D03*
X17323Y444291D02*
D03*
X73701Y438307D02*
D03*
X129528Y317618D02*
D03*
X116535Y370472D02*
D03*
X105610Y395768D02*
D03*
X108858Y395472D02*
D03*
X99410Y395669D02*
D03*
X14370Y444291D02*
D03*
X71063Y438307D02*
D03*
X253248Y353248D02*
D03*
X201279Y174705D02*
D03*
X121850Y359744D02*
D03*
X119390Y317323D02*
D03*
X129331Y313090D02*
D03*
X119291Y313091D02*
D03*
Y307776D02*
D03*
X129232Y307874D02*
D03*
X119291Y304331D02*
D03*
X129232D02*
D03*
X109153Y295374D02*
D03*
X111221Y279823D02*
D03*
X138583D02*
D03*
X139961Y277264D02*
D03*
X110335Y275886D02*
D03*
X152559Y307185D02*
D03*
X154921Y305217D02*
D03*
X150886Y316634D02*
D03*
X150984Y312992D02*
D03*
X144390Y317224D02*
D03*
X163386Y326476D02*
D03*
X135728Y325984D02*
D03*
X139075Y325984D02*
D03*
X105709Y285827D02*
D03*
X119882Y285728D02*
D03*
X157874Y301772D02*
D03*
X113976Y352756D02*
D03*
X122047Y346260D02*
D03*
X65551Y396555D02*
D03*
X106890Y393602D02*
D03*
X79035Y393996D02*
D03*
X202362Y172146D02*
D03*
X213681Y179626D02*
D03*
X217815Y179823D02*
D03*
X228445Y156398D02*
D03*
X242323Y157087D02*
D03*
X324410Y157480D02*
D03*
X329134D02*
D03*
X300295Y178445D02*
D03*
X315354D02*
D03*
X276476Y210827D02*
D03*
X301870Y217717D02*
D03*
X109350Y316142D02*
D03*
X128051Y325197D02*
D03*
X150295Y325295D02*
D03*
X167028Y333465D02*
D03*
X159252Y330709D02*
D03*
X154232Y283268D02*
D03*
X138484Y285925D02*
D03*
X110039Y332185D02*
D03*
X9843Y452559D02*
D03*
X108169Y462598D02*
D03*
X363484Y38484D02*
D03*
X365748D02*
D03*
X79137Y42719D02*
D03*
X377362Y38681D02*
D03*
X375295D02*
D03*
X342224Y38976D02*
D03*
X339862D02*
D03*
X89862Y24409D02*
D03*
X354035Y38681D02*
D03*
X351476D02*
D03*
X58563Y457870D02*
D03*
X199646Y444153D02*
D03*
X433957Y73032D02*
D03*
X433858Y387992D02*
D03*
X408563Y89075D02*
D03*
X216531Y457870D02*
D03*
X260236Y452949D02*
D03*
X35335Y94587D02*
D03*
X263583Y71358D02*
D03*
X32776Y140748D02*
D03*
X22047Y22736D02*
D03*
X23228Y49016D02*
D03*
X391142Y64469D02*
D03*
X391732Y70669D02*
D03*
X440158Y249803D02*
D03*
X420079Y254429D02*
D03*
X427854Y236910D02*
D03*
X347441Y215256D02*
D03*
X350295Y218406D02*
D03*
X348819Y216732D02*
D03*
X415256Y267126D02*
D03*
X263090Y65354D02*
D03*
X16732Y377166D02*
D03*
X16634Y371358D02*
D03*
X16535Y363779D02*
D03*
X16634Y361122D02*
D03*
X16732Y349114D02*
D03*
X24213Y332677D02*
D03*
X44685Y381595D02*
D03*
D93*
X188681Y323819D02*
Y324311D01*
Y323819D02*
X190650Y321850D01*
X187795Y285980D02*
Y321555D01*
X186811Y322539D02*
Y324508D01*
Y322539D02*
X187795Y321555D01*
X190650Y286516D02*
Y321850D01*
X191496Y267398D02*
Y325551D01*
X191535Y325590D01*
X187152Y274593D02*
Y283018D01*
X190650Y286516D01*
X186236Y273677D02*
X187152Y274593D01*
X189945Y265846D02*
X191496Y267398D01*
X183087Y267378D02*
X184618Y265846D01*
X189945D01*
X193996Y253642D02*
Y326673D01*
X190325Y249971D02*
X193996Y253642D01*
X190325Y243239D02*
Y249971D01*
X276840Y28868D02*
X289469Y16240D01*
X276840Y28868D02*
Y128218D01*
X279232Y130610D01*
X278839Y135630D02*
X281890Y132579D01*
X143799Y135630D02*
X278839D01*
X246654Y356102D02*
X253642D01*
X241339Y350787D02*
X246654Y356102D01*
X241339Y330610D02*
Y350787D01*
X238287Y327559D02*
X241339Y330610D01*
X194882Y327559D02*
X238287D01*
X193996Y326673D02*
X194882Y327559D01*
X134586Y187500D02*
X190325Y243239D01*
X133071Y187500D02*
X134586D01*
X219685Y272481D02*
X220882Y273677D01*
X219685Y266929D02*
Y272481D01*
X218701Y265945D02*
X219685Y266929D01*
X201279Y265945D02*
X218701D01*
X200144Y264809D02*
X201279Y265945D01*
X200144Y245518D02*
Y264809D01*
X196850Y242224D02*
X200144Y245518D01*
X197933Y269094D02*
X216535D01*
X197244Y268406D02*
X197933Y269094D01*
X197244Y248184D02*
Y268406D01*
X196260Y247200D02*
X197244Y248184D01*
X145571Y312992D02*
X146850Y311713D01*
X133661Y274410D02*
X139173Y268898D01*
X187906D01*
X146850Y295079D02*
X151083Y290847D01*
X146850Y295079D02*
Y311713D01*
X151083Y290847D02*
X168732D01*
X170603Y301870D02*
Y304890D01*
X167618Y307874D02*
X170603Y304890D01*
X151673Y298130D02*
Y299311D01*
X155807Y293996D02*
X184547D01*
X151673Y298130D02*
X155807Y293996D01*
X140748Y284843D02*
X147244Y278347D01*
X124409Y270276D02*
X128937Y265748D01*
X123228Y259646D02*
X184803D01*
X114862Y268012D02*
X123228Y259646D01*
X168732Y290847D02*
X170488Y292602D01*
X170603Y301870D02*
X173638Y298835D01*
X147244Y278347D02*
X178378D01*
X179937Y276787D01*
X184803Y259646D02*
X186236Y261079D01*
X128937Y265748D02*
X172008D01*
X173638Y267378D01*
X184547Y293996D02*
X186276Y295725D01*
X187906Y268898D02*
X189425Y267378D01*
X226181Y294193D02*
X255610D01*
X256798Y293006D01*
Y292884D02*
Y293006D01*
X223798Y291043D02*
X225098D01*
X222441Y287835D02*
Y289686D01*
X223798Y291043D01*
X314849Y297441D02*
Y314420D01*
Y263750D02*
Y297441D01*
X313008Y261910D02*
X314849Y263750D01*
X314750Y297343D02*
X314849Y297441D01*
X313287Y297343D02*
X314750D01*
X314849Y314420D02*
X314862Y314434D01*
Y329057D01*
X314849Y329070D02*
X314862Y329057D01*
X314849Y329070D02*
Y330935D01*
X313008Y332776D02*
X314849Y330935D01*
X311614Y297343D02*
Y330315D01*
Y268532D02*
Y297343D01*
X310201Y267118D02*
X311614Y268532D01*
X310827Y297343D02*
X311614D01*
X309941Y298229D02*
X310827Y297343D01*
X310630Y331299D02*
X311614Y330315D01*
X308185Y331299D02*
X310630D01*
X306709Y332776D02*
X308185Y331299D01*
X306740Y258752D02*
X308366Y260378D01*
Y294193D02*
Y327969D01*
Y260378D02*
Y294193D01*
X306693D02*
X308366D01*
X306709Y329626D02*
X308366Y327969D01*
X305315Y294193D02*
Y327870D01*
Y260496D02*
Y294193D01*
X303559Y329626D02*
X305315Y327870D01*
X303642Y294193D02*
X305315D01*
X303567Y258748D02*
X305315Y260496D01*
X302067Y297342D02*
Y331283D01*
Y263402D02*
Y297342D01*
X300689Y297343D02*
X300689Y297342D01*
X302067D01*
Y263402D02*
X303559Y261910D01*
X302067Y331283D02*
X303559Y332776D01*
X299016Y294291D02*
Y328232D01*
Y260166D02*
Y294291D01*
Y260166D02*
X300410Y258772D01*
X298917Y294193D02*
X299016Y294291D01*
X297441Y294193D02*
X298917D01*
X299016Y328232D02*
X300410Y329626D01*
X295768Y297340D02*
Y331283D01*
Y263398D02*
Y297340D01*
X294094Y297343D02*
X294097Y297340D01*
X295768D01*
Y263398D02*
X297256Y261910D01*
X295768Y331283D02*
X297260Y332776D01*
X258008Y256368D02*
Y259055D01*
X254858Y262205D02*
X258008Y259055D01*
X257939Y256299D02*
X258008Y256368D01*
X234606Y262205D02*
X254858D01*
X233480Y261079D02*
X234606Y262205D01*
X259055Y256368D02*
X259124Y256299D01*
X255292Y263252D02*
X259055Y259489D01*
X233480Y264229D02*
X234457Y263252D01*
X259055Y256368D02*
Y259489D01*
X234457Y263252D02*
X255292D01*
X246398Y300394D02*
X280413D01*
X246398D02*
Y301336D01*
X245492D02*
X246398D01*
X245492Y300394D02*
Y301336D01*
X244587Y300394D02*
X245492D01*
X244587D02*
Y301336D01*
X243681D02*
X244587D01*
X243681Y300394D02*
Y301336D01*
X242776Y300394D02*
X243681D01*
X242776D02*
Y301336D01*
X241870D02*
X242776D01*
X241870Y300394D02*
Y301336D01*
X240965Y300394D02*
X241870D01*
X240965D02*
Y301336D01*
X240059D02*
X240965D01*
X240059Y300394D02*
Y301336D01*
X239154Y300394D02*
X240059D01*
X239154D02*
Y301336D01*
X238248D02*
X239154D01*
X238248Y300394D02*
Y301336D01*
X225551Y300394D02*
X238248D01*
X231988Y297343D02*
X239193D01*
X246437D02*
X268113D01*
X246437Y296437D02*
Y297343D01*
X245532Y296437D02*
X246437D01*
X245532D02*
Y298289D01*
X244626D02*
X245532D01*
X244626Y296437D02*
Y298289D01*
X243721Y296437D02*
X244626D01*
X243721D02*
Y298289D01*
X242815D02*
X243721D01*
X242815Y296437D02*
Y298289D01*
X241910Y296437D02*
X242815D01*
X241910D02*
Y298289D01*
X241004D02*
X241910D01*
X241004Y296437D02*
Y298289D01*
X240099Y296437D02*
X241004D01*
X240099D02*
Y298289D01*
X239193D02*
X240099D01*
X239193Y297343D02*
Y298289D01*
X256299Y281817D02*
X266142D01*
X222191D02*
X240000D01*
X256299D02*
Y282739D01*
X255394D02*
X256299D01*
X255394Y280896D02*
Y282739D01*
X254488Y280896D02*
X255394D01*
X254488D02*
Y281817D01*
X253583D02*
X254488D01*
X253583Y280896D02*
Y281817D01*
X252677Y280896D02*
X253583D01*
X252677D02*
Y281817D01*
X251772D02*
X252677D01*
X251772Y280896D02*
Y281817D01*
X250866Y280896D02*
X251772D01*
X250866D02*
Y281817D01*
X249961D02*
X250866D01*
X249961Y280896D02*
Y281817D01*
X249055Y280896D02*
X249961D01*
X249055D02*
Y281817D01*
X248150D02*
X249055D01*
X248150Y280896D02*
Y281817D01*
X247244Y280896D02*
X248150D01*
X247244D02*
Y281817D01*
X246339D02*
X247244D01*
X246339Y280896D02*
Y281817D01*
X245433Y280896D02*
X246339D01*
X245433D02*
Y281817D01*
X244528D02*
X245433D01*
X244528Y280896D02*
Y281817D01*
X243622Y280896D02*
X244528D01*
X243622D02*
Y281817D01*
X242717D02*
X243622D01*
X242717Y280896D02*
Y281817D01*
X241811Y280896D02*
X242717D01*
X241811D02*
Y281817D01*
X240906D02*
X241811D01*
X240906Y280896D02*
Y281817D01*
X240000Y280896D02*
X240906D01*
X240000D02*
Y281817D01*
X258858Y287795D02*
X270965D01*
X258858Y286890D02*
Y287795D01*
X257953Y286890D02*
X258858D01*
X257953D02*
Y287795D01*
X257047D02*
X257953D01*
X257047Y286890D02*
Y287795D01*
X256142Y286890D02*
X257047D01*
X256142D02*
Y287795D01*
X255236D02*
X256142D01*
X255236Y286890D02*
Y287795D01*
X254331Y286890D02*
X255236D01*
X254331D02*
Y287795D01*
X253425D02*
X254331D01*
X253425Y286890D02*
Y287795D01*
X252520Y286890D02*
X253425D01*
X252520D02*
Y287795D01*
X251614D02*
X252520D01*
X251614Y286890D02*
Y287795D01*
X250709Y286890D02*
X251614D01*
X250709D02*
Y287795D01*
X249803D02*
X250709D01*
X249803Y286890D02*
Y287795D01*
X248898Y286890D02*
X249803D01*
X248898D02*
Y287795D01*
X247992D02*
X248898D01*
X247992Y286890D02*
Y287795D01*
X247087Y286890D02*
X247992D01*
X247087D02*
Y287795D01*
X246181D02*
X247087D01*
X246181Y286890D02*
Y287795D01*
X245276Y286890D02*
X246181D01*
X245276D02*
Y287795D01*
X244370D02*
X245276D01*
X244370Y286890D02*
Y287795D01*
X243465Y286890D02*
X244370D01*
X243465D02*
Y287795D01*
X242559D02*
X243465D01*
X242559Y286890D02*
Y287795D01*
X241654Y286890D02*
X242559D01*
X241654D02*
Y287795D01*
X240748D02*
X241654D01*
X240748Y286890D02*
Y287795D01*
X239843Y286890D02*
X240748D01*
X239843D02*
Y287795D01*
X228701D02*
X239843D01*
X248504Y268996D02*
X268996D01*
X248504D02*
Y269903D01*
X247599D02*
X248504D01*
X247599Y268051D02*
Y269903D01*
X246693Y268051D02*
X247599D01*
X246693D02*
Y269903D01*
X245788D02*
X246693D01*
X245788Y268051D02*
Y269903D01*
X244882Y268051D02*
X245788D01*
X244882D02*
Y269903D01*
X243976D02*
X244882D01*
X243976Y268051D02*
Y269903D01*
X243071Y268051D02*
X243976D01*
X243071D02*
Y269903D01*
X242165D02*
X243071D01*
X242165Y268051D02*
Y269903D01*
X241260Y268051D02*
X242165D01*
X241260D02*
Y269903D01*
X240354D02*
X241260D01*
X240354Y268051D02*
Y269903D01*
X239449Y268051D02*
X240354D01*
X239449D02*
Y269942D01*
X238543D02*
X239449D01*
X238543Y268996D02*
Y269942D01*
X228713Y268996D02*
X238543D01*
X222315Y278543D02*
X239067D01*
X253555D02*
X272441D01*
X253555Y277634D02*
Y278543D01*
X252650Y277634D02*
X253555D01*
X252650D02*
Y279493D01*
X251744D02*
X252650D01*
X251744Y277634D02*
Y279493D01*
X250839Y277634D02*
X251744D01*
X250839D02*
Y279493D01*
X249933D02*
X250839D01*
X249933Y277634D02*
Y279493D01*
X249028Y277634D02*
X249933D01*
X249028D02*
Y279493D01*
X248122D02*
X249028D01*
X248122Y277634D02*
Y279493D01*
X247217Y277634D02*
X248122D01*
X247217D02*
Y279493D01*
X246311D02*
X247217D01*
X246311Y277634D02*
Y279493D01*
X245406Y277634D02*
X246311D01*
X245406D02*
Y279493D01*
X244500D02*
X245406D01*
X244500Y277634D02*
Y279493D01*
X243595Y277634D02*
X244500D01*
X243595D02*
Y279493D01*
X242689D02*
X243595D01*
X242689Y277634D02*
Y279493D01*
X241783Y277634D02*
X242689D01*
X241783D02*
Y279493D01*
X240878D02*
X241783D01*
X240878Y277634D02*
Y279493D01*
X239972Y277634D02*
X240878D01*
X239972D02*
Y279493D01*
X239067D02*
X239972D01*
X239067Y278543D02*
Y279493D01*
X253524Y275394D02*
X273622D01*
X225465D02*
X239036D01*
X253524Y274428D02*
Y275394D01*
X252618Y274428D02*
X253524D01*
X252618D02*
Y276360D01*
X251713D02*
X252618D01*
X251713Y274428D02*
Y276360D01*
X250807Y274428D02*
X251713D01*
X250807D02*
Y276360D01*
X249902D02*
X250807D01*
X249902Y274428D02*
Y276360D01*
X248996Y274428D02*
X249902D01*
X248996D02*
Y276360D01*
X248091D02*
X248996D01*
X248091Y274428D02*
Y276360D01*
X247185Y274428D02*
X248091D01*
X247185D02*
Y276360D01*
X246280D02*
X247185D01*
X246280Y274428D02*
Y276360D01*
X245374Y274428D02*
X246280D01*
X245374D02*
Y276360D01*
X244469D02*
X245374D01*
X244469Y274428D02*
Y276360D01*
X243563Y274428D02*
X244469D01*
X243563D02*
Y276360D01*
X242657D02*
X243563D01*
X242657Y274428D02*
Y276360D01*
X241752Y274428D02*
X242657D01*
X241752D02*
Y276360D01*
X240846D02*
X241752D01*
X240846Y274428D02*
Y276360D01*
X239941Y274428D02*
X240846D01*
X239941D02*
Y276360D01*
X239036D02*
X239941D01*
X239036Y275394D02*
Y276360D01*
X225551Y284646D02*
X238996D01*
X253484D02*
X270669D01*
X253484Y283662D02*
Y284646D01*
X252579Y283662D02*
X253484D01*
X252579D02*
Y285630D01*
X251673D02*
X252579D01*
X251673Y283662D02*
Y285630D01*
X250768Y283662D02*
X251673D01*
X250768D02*
Y285630D01*
X249862D02*
X250768D01*
X249862Y283662D02*
Y285630D01*
X248957Y283662D02*
X249862D01*
X248957D02*
Y285630D01*
X248051D02*
X248957D01*
X248051Y283662D02*
Y285630D01*
X247146Y283662D02*
X248051D01*
X247146D02*
Y285630D01*
X246240D02*
X247146D01*
X246240Y283662D02*
Y285630D01*
X245335Y283662D02*
X246240D01*
X245335D02*
Y285630D01*
X244429D02*
X245335D01*
X244429Y283662D02*
Y285630D01*
X243524Y283662D02*
X244429D01*
X243524D02*
Y285630D01*
X242618D02*
X243524D01*
X242618Y283662D02*
Y285630D01*
X241713Y283662D02*
X242618D01*
X241713D02*
Y285630D01*
X240807D02*
X241713D01*
X240807Y283662D02*
Y285630D01*
X239902Y283662D02*
X240807D01*
X239902D02*
Y285630D01*
X238996D02*
X239902D01*
X238996Y284646D02*
Y285630D01*
X228602Y290847D02*
X238839D01*
X256949D02*
X282677D01*
X256949Y289906D02*
Y290847D01*
X256044Y289906D02*
X256949D01*
X256044D02*
Y291787D01*
X255138D02*
X256044D01*
X255138Y289906D02*
Y291787D01*
X254233Y289906D02*
X255138D01*
X254233D02*
Y291787D01*
X253327D02*
X254233D01*
X253327Y289906D02*
Y291787D01*
X252421Y289906D02*
X253327D01*
X252421D02*
Y291787D01*
X251516D02*
X252421D01*
X251516Y289906D02*
Y291787D01*
X250610Y289906D02*
X251516D01*
X250610D02*
Y291787D01*
X249705D02*
X250610D01*
X249705Y289906D02*
Y291787D01*
X248799Y289906D02*
X249705D01*
X248799D02*
Y291787D01*
X247894D02*
X248799D01*
X247894Y289906D02*
Y291787D01*
X246988Y289906D02*
X247894D01*
X246988D02*
Y291787D01*
X246083D02*
X246988D01*
X246083Y289906D02*
Y291787D01*
X245177Y289906D02*
X246083D01*
X245177D02*
Y291787D01*
X244272D02*
X245177D01*
X244272Y289906D02*
Y291787D01*
X243366Y289906D02*
X244272D01*
X243366D02*
Y291787D01*
X242461D02*
X243366D01*
X242461Y289906D02*
Y291787D01*
X241555Y289906D02*
X242461D01*
X241555D02*
Y291787D01*
X240650D02*
X241555D01*
X240650Y289906D02*
Y291787D01*
X239744Y289906D02*
X240650D01*
X239744D02*
Y291787D01*
X238839D02*
X239744D01*
X238839Y290847D02*
Y291787D01*
X225563Y272146D02*
X238937D01*
X257047D02*
X274604D01*
X257047Y271181D02*
Y272146D01*
X256142Y271181D02*
X257047D01*
X256142D02*
Y273110D01*
X255236D02*
X256142D01*
X255236Y271181D02*
Y273110D01*
X254331Y271181D02*
X255236D01*
X254331D02*
Y273110D01*
X253425D02*
X254331D01*
X253425Y271181D02*
Y273110D01*
X252520Y271181D02*
X253425D01*
X252520D02*
Y273110D01*
X251614D02*
X252520D01*
X251614Y271181D02*
Y273110D01*
X250709Y271181D02*
X251614D01*
X250709D02*
Y273110D01*
X249803D02*
X250709D01*
X249803Y271181D02*
Y273110D01*
X248898Y271181D02*
X249803D01*
X248898D02*
Y273110D01*
X247992D02*
X248898D01*
X247992Y271181D02*
Y273110D01*
X247087Y271181D02*
X247992D01*
X247087D02*
Y273110D01*
X246181D02*
X247087D01*
X246181Y271181D02*
Y273110D01*
X245276Y271181D02*
X246181D01*
X245276D02*
Y273110D01*
X244370D02*
X245276D01*
X244370Y271181D02*
Y273110D01*
X243465Y271181D02*
X244370D01*
X243465D02*
Y273110D01*
X242559D02*
X243465D01*
X242559Y271181D02*
Y273110D01*
X241654Y271181D02*
X242559D01*
X241654D02*
Y273110D01*
X240748D02*
X241654D01*
X240748Y271181D02*
Y273110D01*
X239843Y271181D02*
X240748D01*
X239843D02*
Y273110D01*
X238937D02*
X239843D01*
X238937Y272146D02*
Y273110D01*
X293406Y243209D02*
X294587Y244390D01*
X340354D01*
X340748Y244784D01*
X343126D02*
X344504Y246162D01*
X340748Y244784D02*
X343126D01*
X266142Y281988D02*
X267323Y283169D01*
X267815D01*
X268209Y302067D02*
X280732D01*
X293636Y289163D01*
X293907D01*
X280413Y300394D02*
X293898Y286910D01*
X284700Y293534D02*
X292819Y285414D01*
Y282775D02*
Y285414D01*
X270276Y292717D02*
X282793D01*
X283611Y293534D01*
X284700D01*
X284449Y282835D02*
X289705D01*
X285060Y281595D02*
X288287D01*
X284991Y281526D02*
X285060Y281595D01*
X283907Y281526D02*
X284991D01*
X283838Y281595D02*
X283907Y281526D01*
X267717Y281595D02*
X283838D01*
X288287D02*
X292746Y277136D01*
X292943D01*
X289705Y282835D02*
X294094Y278445D01*
X266339Y280217D02*
X267717Y281595D01*
X266142Y281817D02*
Y281988D01*
X274604Y272146D02*
X274606Y272143D01*
X276381Y273918D01*
X276381Y273917D01*
X282677Y290847D02*
X284055Y292225D01*
X284157D01*
X273622Y275394D02*
X274905Y276677D01*
Y277066D01*
X272441Y278543D02*
X273141Y279243D01*
Y280286D01*
X268996Y268996D02*
X269488Y269488D01*
Y270669D01*
X270669Y284646D02*
X271952Y285929D01*
Y286417D01*
X270965Y287795D02*
X271654Y288484D01*
Y289469D01*
X268113Y297343D02*
X269787Y299016D01*
X230370Y295725D02*
X231988Y297343D01*
X230331Y295725D02*
X230370D01*
X227181Y270528D02*
X228713Y268996D01*
X224031Y273677D02*
X225563Y272146D01*
X224031Y276827D02*
X225465Y275394D01*
X220882Y279977D02*
X222315Y278543D01*
X220882Y283126D02*
X222191Y281817D01*
X224031Y283126D02*
X225551Y284646D01*
X227181Y286276D02*
X228701Y287795D01*
X227181Y289425D02*
X228602Y290847D01*
X225591Y291536D02*
Y293602D01*
X226181Y294193D01*
X225098Y291043D02*
X225591Y291536D01*
X220882Y286276D02*
X222441Y287835D01*
X224031Y298874D02*
X225551Y300394D01*
X87599Y320768D02*
Y323819D01*
X85039Y318209D02*
X87599Y320768D01*
X109055Y312205D02*
X111614Y314764D01*
X87894Y315158D02*
X92028Y319291D01*
X114862Y268012D02*
Y315945D01*
X112500Y318307D02*
X114862Y315945D01*
X108370Y318307D02*
X112500D01*
X108267Y318204D02*
X108370Y318307D01*
X121956Y317914D02*
X124409Y315460D01*
X140748Y317618D02*
X148622Y325492D01*
X129528Y326280D02*
X133661Y322146D01*
X208286Y247342D02*
X213040Y252097D01*
X203642Y247342D02*
X208286D01*
X138583Y183661D02*
Y185985D01*
X132570Y186289D02*
X135463D01*
X59153Y184154D02*
X88091D01*
X95571Y191634D01*
X127225D02*
X132570Y186289D01*
X95571Y191634D02*
X126044D01*
X126073Y191604D01*
X127076D01*
X127106Y191634D01*
X127225D01*
X125492Y153937D02*
X143799Y135630D01*
X374183Y111880D02*
X377756Y115453D01*
X138583Y185985D02*
X193247Y240650D01*
X196949D01*
X203642Y247342D01*
X135463Y186289D02*
X191398Y242224D01*
X196850D01*
X196260Y244685D02*
Y247200D01*
X216535Y269094D02*
X217732Y270291D01*
Y270528D01*
X124409Y312963D02*
X125197D01*
Y311722D02*
Y312963D01*
X123622Y311722D02*
X125197D01*
X123622Y310482D02*
Y311722D01*
Y310482D02*
X125197D01*
Y309242D02*
Y310482D01*
X123622Y309242D02*
X125197D01*
X123622Y308002D02*
Y309242D01*
Y308002D02*
X125197D01*
Y306762D02*
Y308002D01*
X123622Y306762D02*
X125197D01*
X123622Y305522D02*
Y306762D01*
Y305522D02*
X125197D01*
Y304281D02*
Y305522D01*
X123622Y304281D02*
X125197D01*
X123622Y303041D02*
Y304281D01*
Y303041D02*
X125197D01*
Y301801D02*
Y303041D01*
X123622Y301801D02*
X125197D01*
X123622Y300561D02*
Y301801D01*
Y300561D02*
X125197D01*
Y299321D02*
Y300561D01*
X123622Y299321D02*
X125197D01*
X123622Y298081D02*
Y299321D01*
Y298081D02*
X125197D01*
Y296841D02*
Y298081D01*
X123622Y296841D02*
X125197D01*
X123622Y295600D02*
Y296841D01*
Y295600D02*
X125197D01*
Y294360D02*
Y295600D01*
X123622Y294360D02*
X125197D01*
X123622Y293120D02*
Y294360D01*
Y293120D02*
X124409D01*
Y270276D02*
Y293120D01*
Y312963D02*
Y315460D01*
X140748Y316211D02*
X141535D01*
Y314970D02*
Y316211D01*
X139961Y314970D02*
X141535D01*
X139961Y313730D02*
Y314970D01*
Y313730D02*
X141535D01*
Y312490D02*
Y313730D01*
X139961Y312490D02*
X141535D01*
X139961Y311250D02*
Y312490D01*
Y311250D02*
X141535D01*
Y310010D02*
Y311250D01*
X139961Y310010D02*
X141535D01*
X139961Y308770D02*
Y310010D01*
Y308770D02*
X141535D01*
Y307529D02*
Y308770D01*
X139961Y307529D02*
X141535D01*
X139961Y306289D02*
Y307529D01*
Y306289D02*
X141535D01*
Y305049D02*
Y306289D01*
X139961Y305049D02*
X141535D01*
X139961Y303809D02*
Y305049D01*
Y303809D02*
X140748D01*
Y284843D02*
Y303809D01*
Y316211D02*
Y317618D01*
X133661Y314646D02*
Y322146D01*
Y314646D02*
X134449D01*
Y313405D02*
Y314646D01*
X132874Y313405D02*
X134449D01*
X132874Y312165D02*
Y313405D01*
Y312165D02*
X134449D01*
Y310925D02*
Y312165D01*
X132874Y310925D02*
X134449D01*
X132874Y309685D02*
Y310925D01*
Y309685D02*
X134449D01*
Y308445D02*
Y309685D01*
X132874Y308445D02*
X134449D01*
X132874Y307205D02*
Y308445D01*
Y307205D02*
X133661D01*
Y274410D02*
Y307205D01*
X155217Y307874D02*
X167618D01*
X92028Y319291D02*
Y323819D01*
X109055Y310039D02*
Y312205D01*
X81299Y313484D02*
X82973Y315158D01*
X87894D01*
X81299Y306594D02*
Y313484D01*
Y306594D02*
X83760Y304134D01*
X103149D02*
X109055Y310039D01*
X104331Y295866D02*
X111122Y302658D01*
X78937Y318209D02*
X85039D01*
X77658Y308268D02*
X85830Y300095D01*
X77658Y308268D02*
Y316929D01*
X78937Y318209D01*
X102372Y300095D02*
X104232D01*
X102372D02*
Y301201D01*
X101132D02*
X102372D01*
X101132Y298989D02*
Y301201D01*
X99892Y298989D02*
X101132D01*
X99892D02*
Y300095D01*
X85830D02*
X99892D01*
X108422Y304284D02*
X109204Y303502D01*
X108327Y302625D02*
X109204Y303502D01*
X107545Y303407D02*
X108327Y302625D01*
X106763Y304189D02*
X107545Y303407D01*
X105886Y303312D02*
X106763Y304189D01*
X105886Y303312D02*
X106668Y302530D01*
X107450Y301748D01*
X106573Y300871D02*
X107450Y301748D01*
X105009Y302435D02*
X106573Y300871D01*
X104132Y301558D02*
X105009Y302435D01*
X104132Y301558D02*
X104914Y300777D01*
X104232Y300095D02*
X104914Y300777D01*
X108422Y304284D02*
X110039Y305902D01*
X101545Y303346D02*
Y304134D01*
X100305Y303346D02*
X101545D01*
X100305D02*
Y304921D01*
X99065D02*
X100305D01*
X99065Y303346D02*
Y304921D01*
X97825Y303346D02*
X99065D01*
X97825D02*
Y304134D01*
X83760D02*
X97825D01*
X101545D02*
X103149D01*
X62599Y321358D02*
Y323917D01*
Y321358D02*
X88090Y295866D01*
X97707Y295079D02*
Y295866D01*
X96466Y295079D02*
X97707D01*
X96466D02*
Y295866D01*
X88090D02*
X96466D01*
X97707D02*
X104331D01*
X220036Y257929D02*
X224031D01*
X213040Y252097D02*
X214203D01*
X220036Y257929D01*
X279134Y112795D02*
X280049Y111880D01*
X374183D01*
X281890Y116929D02*
Y132579D01*
X279134Y114173D02*
X281890Y116929D01*
X279134Y112795D02*
Y114173D01*
X183087Y270528D02*
X185039Y272480D01*
Y282087D01*
D94*
X62185Y51457D02*
X74016Y63287D01*
X62185Y38701D02*
Y51457D01*
X62520Y23701D02*
Y38366D01*
X255472Y8169D02*
X264469Y17165D01*
X162697Y8169D02*
X255472D01*
X93898Y76968D02*
X162697Y8169D01*
X76673Y76968D02*
X93898D01*
X74016Y74311D02*
X76673Y76968D01*
X74016Y63287D02*
Y74311D01*
X62185Y38701D02*
X62520Y38366D01*
D95*
X56890Y183661D02*
X57587Y184358D01*
Y250839D01*
X56980Y251445D02*
X57587Y250839D01*
X56980Y251445D02*
Y258917D01*
X60236Y262173D02*
Y264370D01*
X56980Y258917D02*
X60236Y262173D01*
X68898Y181693D02*
X72539Y178051D01*
X86319D01*
X95768Y168602D01*
Y167717D02*
Y168602D01*
X34321Y195480D02*
X45956Y183846D01*
X22744Y195480D02*
X34321D01*
X22736Y195472D02*
X22744Y195480D01*
X21752Y195472D02*
X22736D01*
X45956Y183846D02*
X47624Y182177D01*
X62350D01*
X78295Y166232D01*
X106307D01*
X126575Y145965D01*
Y145866D02*
Y145965D01*
X56988Y389764D02*
X174508D01*
X205413Y420669D01*
X217520D01*
D97*
X304429Y173032D02*
X309252D01*
X300000Y168603D02*
X304429Y173032D01*
X102953Y168603D02*
X300000D01*
X377264Y275098D02*
X382283Y270079D01*
Y200394D02*
Y270079D01*
X94784Y176772D02*
X102953Y168603D01*
X94784Y176772D02*
Y186516D01*
X309252Y173032D02*
X310531Y171752D01*
X353642D01*
X382283Y200394D01*
X-4626Y-5118D02*
Y468602D01*
Y-5118D02*
X468602D01*
Y473228D01*
X-4626D02*
X468602D01*
X-4626Y468602D02*
Y473228D01*
D100*
X312590Y342945D02*
G03*
X308850Y342706I-1775J-1607D01*
G01*
X306749D02*
G03*
X308850Y342706I1051J732D01*
G01*
X300717D02*
G03*
X300260Y342945I-457J-318D01*
G01*
X306749Y342706D02*
G03*
X302818Y342706I-1965J-1368D01*
G01*
X300717D02*
G03*
X302818Y342706I1051J732D01*
G01*
X277079Y331781D02*
G03*
X273149Y331781I-1965J-1368D01*
G01*
X282921Y332020D02*
G03*
X279181Y331781I-1775J-1607D01*
G01*
X271048D02*
G03*
X267118Y331781I-1965J-1368D01*
G01*
X271048D02*
G03*
X273149Y331781I1051J732D01*
G01*
X277079D02*
G03*
X279181Y331781I1051J732D01*
G01*
X265016D02*
G03*
X267118Y331781I1051J732D01*
G01*
X258985D02*
G03*
X255245Y332020I-1965J-1368D01*
G01*
X265016Y331781D02*
G03*
X261086Y331781I-1965J-1368D01*
G01*
X258985D02*
G03*
X261086Y331781I1051J732D01*
G01*
X311866Y342070D02*
G03*
X312323Y341831I457J318D01*
G01*
X311866Y342070D02*
G03*
X309764Y342070I-1051J-732D01*
G01*
X305834D02*
G03*
X309764Y342070I1965J1368D01*
G01*
X305834D02*
G03*
X303733Y342070I-1051J-732D01*
G01*
X299993Y341831D02*
G03*
X303733Y342070I1775J1607D01*
G01*
X282196Y331144D02*
G03*
X280095Y331144I-1051J-732D01*
G01*
X282196D02*
G03*
X282653Y330906I457J318D01*
G01*
X270133Y331144D02*
G03*
X268032Y331144I-1051J-732D01*
G01*
X276165D02*
G03*
X274063Y331144I-1051J-732D01*
G01*
X264102D02*
G03*
X262000Y331144I-1051J-732D01*
G01*
X258070D02*
G03*
X262000Y331144I1965J1368D01*
G01*
X270133D02*
G03*
X274063Y331144I1965J1368D01*
G01*
X276165D02*
G03*
X280095Y331144I1965J1368D01*
G01*
X264102D02*
G03*
X268032Y331144I1965J1368D01*
G01*
X258070D02*
G03*
X255969Y331144I-1051J-732D01*
G01*
X255512Y330906D02*
G03*
X255969Y331144I0J557D01*
G01*
X312590Y342945D02*
X323591Y342945D01*
X295503D02*
X300260Y342945D01*
X282921Y332020D02*
X284578D01*
X282921D02*
X282921D01*
X282921D02*
X282921D01*
X252590Y332020D02*
X255245D01*
X312323Y341831D02*
X323130D01*
X295965D02*
X299993D01*
X282653Y330906D02*
X285039D01*
X253051D02*
X255512D01*
X58169Y367520D02*
X58760Y366929D01*
X58169Y367520D02*
Y375295D01*
X58760Y355217D02*
Y366929D01*
Y355217D02*
X60138Y353839D01*
Y326279D02*
Y353839D01*
X60138Y283760D02*
Y320669D01*
X59547Y321260D02*
X60138Y320669D01*
X59547Y321260D02*
Y325689D01*
X60138Y326279D01*
X60925Y287005D02*
X61713Y287792D01*
X60925Y284646D02*
Y287005D01*
X61713Y287792D02*
Y324284D01*
X61910Y324481D01*
Y370110D01*
X59547Y372472D02*
X61910Y370110D01*
X58169Y375295D02*
X59646Y376772D01*
X59547Y372472D02*
Y375098D01*
X60138Y283760D02*
X63386Y280512D01*
X60925Y284646D02*
X62992Y282579D01*
X225492Y263583D02*
Y265917D01*
X224031Y267378D02*
X225492Y265917D01*
Y263583D02*
X226476Y262598D01*
X253346Y223031D02*
Y226083D01*
Y223031D02*
X255020Y221358D01*
X255807Y223031D02*
X256693Y222146D01*
X255807Y223031D02*
X255807D01*
X255020Y210630D02*
Y221358D01*
X256693Y209449D02*
Y222146D01*
X337291Y318172D02*
X338644D01*
X337291Y317311D02*
Y318172D01*
X338644D02*
X339173Y318701D01*
X337291Y317311D02*
X337574Y317028D01*
X338205D01*
X339173Y318701D02*
Y338780D01*
X340287Y318012D02*
Y339241D01*
X278642Y341272D02*
X283366Y345996D01*
X340287Y318012D02*
X341272Y317028D01*
X341354D01*
X244291Y329399D02*
X256165Y341272D01*
X278642D01*
X244291Y312325D02*
Y329399D01*
X242421Y310455D02*
X244291Y312325D01*
X234498Y310455D02*
X242421D01*
X233480Y311473D02*
X234498Y310455D01*
X279103Y340158D02*
X283827Y344882D01*
X256626Y340158D02*
X279103D01*
X245406Y328937D02*
X256626Y340158D01*
X245406Y311863D02*
Y328937D01*
X242883Y309341D02*
X245406Y311863D01*
X234498Y309341D02*
X242883D01*
X233480Y308323D02*
X234498Y309341D01*
X333533Y345996D02*
X340287Y339241D01*
X283366Y345996D02*
X333533D01*
X333071Y344882D02*
X339173Y338780D01*
X283827Y344882D02*
X333071D01*
X316158Y317028D02*
X317175Y316010D01*
Y281595D02*
Y316010D01*
X316437Y281595D02*
X317175D01*
Y247180D02*
Y281595D01*
X316158Y246162D02*
X317175Y247180D01*
X318290Y316010D02*
X319307Y317028D01*
X318290Y281595D02*
Y316010D01*
Y281595D02*
X318996D01*
X318290Y247179D02*
Y281595D01*
Y247179D02*
X319307Y246162D01*
X324311Y331102D02*
X325837D01*
X323819Y330610D02*
X324311Y331102D01*
X323819Y328839D02*
Y330610D01*
X250720Y322114D02*
X254134D01*
X324311Y328347D02*
X325197D01*
X325606Y328756D01*
Y329626D01*
X323819Y328839D02*
X324311Y328347D01*
X325837Y331102D02*
X326624Y331890D01*
X323130Y341831D02*
X323917Y341043D01*
X323591Y342945D02*
X325031Y341505D01*
X285039Y330906D02*
X295965Y341831D01*
X284578Y332020D02*
X295503Y342945D01*
X250197Y328051D02*
X253051Y330906D01*
X250197Y324213D02*
Y328051D01*
Y324213D02*
X251181Y323229D01*
X253533D01*
X254518Y324213D01*
X249409Y328839D02*
X252590Y332020D01*
X254921Y322902D02*
X255020Y323000D01*
X254134Y322114D02*
X254921Y322902D01*
X327738Y330644D02*
X328756Y329626D01*
X326624Y331890D02*
Y338288D01*
X250393Y322441D02*
X250720Y322114D01*
X250393Y322441D02*
X250393D01*
X254518Y324213D02*
X254921D01*
X249409Y323425D02*
X250393Y322441D01*
X249409Y323425D02*
Y323425D01*
X249083Y323751D02*
X249409Y323425D01*
X249083Y323751D02*
Y328513D01*
X249409Y328839D01*
Y328839D01*
X325031Y341456D02*
Y341505D01*
Y341456D02*
X327738Y338749D01*
Y330644D02*
Y338749D01*
X323917Y340994D02*
Y341043D01*
Y340994D02*
X326624Y338288D01*
X185039Y283957D02*
X185531Y284449D01*
X187205D02*
X187795Y285039D01*
Y285980D01*
X185039Y282087D02*
Y283957D01*
X185531Y284449D02*
X187205D01*
X226476Y262598D02*
X231299D01*
X231890Y262008D01*
Y252953D02*
Y262008D01*
X230118Y251181D02*
X231890Y252953D01*
X224508Y259547D02*
X226181Y257874D01*
X222441Y260236D02*
X223130Y259547D01*
X226181Y247244D02*
X228150Y245276D01*
X226181Y247244D02*
Y257874D01*
X223130Y259547D02*
X224508D01*
X220882Y267378D02*
X222441Y265819D01*
Y260236D02*
Y265819D01*
X244919Y227362D02*
X331890D01*
X235039Y237241D02*
X244919Y227362D01*
X235039Y237241D02*
Y243406D01*
X228150Y245276D02*
X233169D01*
X235039Y243406D01*
X245245Y228150D02*
X332216D01*
X235827Y237568D02*
X245245Y228150D01*
X230610Y246063D02*
X233495D01*
X230118Y246555D02*
X230610Y246063D01*
X235827Y237568D02*
Y243732D01*
X233495Y246063D02*
X235827Y243732D01*
X228937Y249409D02*
X231496Y246850D01*
X233822D02*
X236614Y244058D01*
X231496Y246850D02*
X233822D01*
X228937Y249409D02*
Y259323D01*
X227181Y261079D02*
X228937Y259323D01*
X245571Y228937D02*
X332542D01*
X343074Y218406D01*
X236614Y237894D02*
X245571Y228937D01*
X236614Y237894D02*
Y244058D01*
X331890Y227362D02*
X343996Y215256D01*
X347441D01*
X343074Y218406D02*
X350295D01*
X332216Y228150D02*
X343633Y216732D01*
X348819D01*
D185*
X264469Y17165D02*
D03*
X246358D02*
D03*
X228248D02*
D03*
D186*
X86693Y143858D02*
D03*
Y135866D02*
D03*
Y127874D02*
D03*
X76693Y131886D02*
D03*
Y123894D02*
D03*
Y139484D02*
D03*
Y115902D02*
D03*
X86693Y103898D02*
D03*
Y111890D02*
D03*
X76693Y99917D02*
D03*
X86693Y95906D02*
D03*
X76693Y107909D02*
D03*
X21693Y147539D02*
D03*
X11693D02*
D03*
X21693Y92224D02*
D03*
X11693D02*
D03*
X399323Y302740D02*
D03*
Y312740D02*
D03*
Y292740D02*
D03*
Y332740D02*
D03*
Y322740D02*
D03*
Y282740D02*
D03*
X86693Y59508D02*
D03*
Y51516D02*
D03*
Y43524D02*
D03*
X76693Y47535D02*
D03*
Y39543D02*
D03*
Y55134D02*
D03*
Y31551D02*
D03*
X86693Y19547D02*
D03*
Y27539D02*
D03*
X76693Y15567D02*
D03*
X86693Y11555D02*
D03*
X76693Y23559D02*
D03*
X21693Y63189D02*
D03*
X11693D02*
D03*
X21693Y7874D02*
D03*
X11693D02*
D03*
D187*
X72716Y87776D02*
D03*
X63189Y151988D02*
D03*
X33189D02*
D03*
X42717Y87776D02*
D03*
X72716Y3425D02*
D03*
X63189Y67638D02*
D03*
X33189D02*
D03*
X42717Y3425D02*
D03*
D188*
X50197Y151988D02*
D03*
X55709Y87776D02*
D03*
X50197Y67638D02*
D03*
X55709Y3425D02*
D03*
D189*
X440945Y451673D02*
D03*
X9744Y169980D02*
D03*
X6004Y327658D02*
D03*
X436221Y22146D02*
D03*
D190*
X147146Y10236D02*
D03*
D191*
X325886Y209941D02*
D03*
X321161Y205217D02*
D03*
X325886D02*
D03*
X321161Y209941D02*
D03*
X316437Y205217D02*
D03*
X325886Y195768D02*
D03*
X321161Y200492D02*
D03*
X325886D02*
D03*
X316437D02*
D03*
X321161Y195768D02*
D03*
X316437D02*
D03*
X311713Y209941D02*
D03*
X316437D02*
D03*
X311713Y205217D02*
D03*
Y195768D02*
D03*
Y200492D02*
D03*
X367323Y269783D02*
D03*
Y265059D02*
D03*
X29921Y218110D02*
D03*
Y213386D02*
D03*
X25197Y218110D02*
D03*
X29921Y208661D02*
D03*
X25197Y213386D02*
D03*
Y208661D02*
D03*
X20472Y213386D02*
D03*
Y218110D02*
D03*
Y208661D02*
D03*
X231890Y420079D02*
D03*
Y415354D02*
D03*
X227165Y420079D02*
D03*
Y415354D02*
D03*
X358563Y445079D02*
D03*
X97441Y233465D02*
D03*
X92716D02*
D03*
X97441Y228740D02*
D03*
Y224016D02*
D03*
X92716Y228740D02*
D03*
Y224016D02*
D03*
X87992Y233465D02*
D03*
Y228740D02*
D03*
Y224016D02*
D03*
D192*
X85555Y371701D02*
D03*
Y367370D02*
D03*
Y363039D02*
D03*
X81225Y371701D02*
D03*
X79059Y369536D02*
D03*
X76894Y371701D02*
D03*
X83390Y369536D02*
D03*
Y365205D02*
D03*
X81225Y367370D02*
D03*
Y363039D02*
D03*
X83390Y360874D02*
D03*
X79059Y365205D02*
D03*
X74728Y369536D02*
D03*
X76894Y367370D02*
D03*
X74728Y365205D02*
D03*
X76894Y363039D02*
D03*
X79059Y360874D02*
D03*
X74728D02*
D03*
X85555Y358709D02*
D03*
Y354378D02*
D03*
Y350047D02*
D03*
X81225Y358709D02*
D03*
X83390Y356543D02*
D03*
X79059D02*
D03*
X81225Y354378D02*
D03*
X83390Y352213D02*
D03*
X81225Y350047D02*
D03*
X76894Y358709D02*
D03*
Y354378D02*
D03*
X74728Y356543D02*
D03*
X79059Y352213D02*
D03*
X76894Y350047D02*
D03*
X74728Y352213D02*
D03*
X72563Y371701D02*
D03*
Y367370D02*
D03*
X70398Y369536D02*
D03*
Y365205D02*
D03*
X72563Y363039D02*
D03*
X70398Y360874D02*
D03*
X68232Y371701D02*
D03*
Y367370D02*
D03*
X66067Y369536D02*
D03*
Y365205D02*
D03*
X68232Y363039D02*
D03*
X66067Y360874D02*
D03*
X63902Y371701D02*
D03*
Y367370D02*
D03*
Y363039D02*
D03*
X72563Y358709D02*
D03*
X70398Y356543D02*
D03*
X68232Y358709D02*
D03*
X72563Y354378D02*
D03*
X70398Y352213D02*
D03*
X68232Y354378D02*
D03*
X66067Y356543D02*
D03*
Y352213D02*
D03*
X63902Y354378D02*
D03*
X68232Y350047D02*
D03*
X72563D02*
D03*
X63902Y358709D02*
D03*
Y350047D02*
D03*
X123992Y427559D02*
D03*
X126992D02*
D03*
X279701Y153150D02*
D03*
X282701D02*
D03*
X31201Y406988D02*
D03*
X34201D02*
D03*
X122441Y454158D02*
D03*
Y451158D02*
D03*
X74728Y360874D02*
D03*
D193*
X62520Y23701D02*
D03*
X62343Y28701D02*
D03*
X62165Y33701D02*
D03*
X62185Y38701D02*
D03*
X32264Y23701D02*
D03*
X32342Y28701D02*
D03*
X32342Y33701D02*
D03*
X32756Y38701D02*
D03*
X432972Y435630D02*
D03*
X96063Y194095D02*
D03*
X40059Y310433D02*
D03*
X271535Y461693D02*
D03*
X39370Y76673D02*
D03*
X287205Y160827D02*
D03*
X280807Y144783D02*
D03*
X373228Y285827D02*
D03*
X357677Y242421D02*
D03*
X357874Y279626D02*
D03*
X364272Y281496D02*
D03*
Y293898D02*
D03*
X359154Y259252D02*
D03*
X360728Y298031D02*
D03*
X137795Y241929D02*
D03*
X195276Y175394D02*
D03*
X141339Y176181D02*
D03*
X159744Y249606D02*
D03*
X85532Y259154D02*
D03*
X73819Y231102D02*
D03*
X377461Y269291D02*
D03*
X351181Y275787D02*
D03*
X378346Y265453D02*
D03*
X357776Y262795D02*
D03*
X357579Y268406D02*
D03*
X350984Y265453D02*
D03*
X351181Y271358D02*
D03*
X344685Y292520D02*
D03*
X224410Y217913D02*
D03*
X224311Y214764D02*
D03*
X199508Y231201D02*
D03*
X192717Y183366D02*
D03*
X199311Y182776D02*
D03*
X195965Y230315D02*
D03*
X189860Y451378D02*
D03*
X215256Y449016D02*
D03*
X168996Y455905D02*
D03*
X171260Y449154D02*
D03*
X170866Y444095D02*
D03*
X185039Y429528D02*
D03*
X149213Y456594D02*
D03*
X204528Y426870D02*
D03*
X149508Y441043D02*
D03*
X205020Y448819D02*
D03*
X205118Y363681D02*
D03*
X185236Y372244D02*
D03*
X195866Y418799D02*
D03*
X177854Y388484D02*
D03*
X205211Y402073D02*
D03*
X162598Y414468D02*
D03*
X327559Y287500D02*
D03*
X331201Y300984D02*
D03*
X327953Y281299D02*
D03*
X285377Y289892D02*
D03*
X292323Y263583D02*
D03*
X107283Y314173D02*
D03*
X102264Y306791D02*
D03*
X98622Y293012D02*
D03*
X158366Y253543D02*
D03*
X162598Y253740D02*
D03*
X154429Y253642D02*
D03*
X154528Y250098D02*
D03*
X191781Y328396D02*
D03*
X172441Y328642D02*
D03*
X21260Y228051D02*
D03*
X27165Y227953D02*
D03*
X96653Y208858D02*
D03*
X90748Y208858D02*
D03*
X58957Y252264D02*
D03*
X198772Y65500D02*
D03*
X193405Y75000D02*
D03*
X215205Y54035D02*
D03*
X310630Y73917D02*
D03*
X332677Y54921D02*
D03*
X180955Y203297D02*
D03*
X59153Y435039D02*
D03*
X36024Y290453D02*
D03*
X367126Y298031D02*
D03*
X357185Y299114D02*
D03*
X206292Y132291D02*
D03*
X72342Y218504D02*
D03*
X64370Y171457D02*
D03*
X140256Y217224D02*
D03*
X97244Y189862D02*
D03*
X81201Y187795D02*
D03*
X76280Y165453D02*
D03*
X107362Y184075D02*
D03*
Y150413D02*
D03*
X68898Y181693D02*
D03*
X45956Y183846D02*
D03*
X21752Y195472D02*
D03*
X126575Y145866D02*
D03*
X308661Y456693D02*
D03*
X58760Y411614D02*
D03*
X4232Y125394D02*
D03*
X4075Y120413D02*
D03*
X31358Y115413D02*
D03*
X31280Y110413D02*
D03*
X65847Y135236D02*
D03*
X67815Y128248D02*
D03*
X61713Y106496D02*
D03*
X68701Y110925D02*
D03*
D194*
X274213Y337894D02*
D03*
X278937Y338484D02*
D03*
X274606Y344783D02*
D03*
X275492Y329035D02*
D03*
X275699Y251565D02*
D03*
X275787Y260236D02*
D03*
X286713Y277756D02*
D03*
X306791Y280118D02*
D03*
X287303Y313878D02*
D03*
X278740Y324213D02*
D03*
X258858Y292618D02*
D03*
X300590Y294980D02*
D03*
X286713Y273819D02*
D03*
X289469Y232480D02*
D03*
X283858Y243799D02*
D03*
X284252Y232480D02*
D03*
X271850Y234350D02*
D03*
X268996Y238976D02*
D03*
X256299Y255610D02*
D03*
X268504Y252067D02*
D03*
X266142Y273819D02*
D03*
X264272Y280217D02*
D03*
X267224Y286221D02*
D03*
X268406Y289370D02*
D03*
X267815Y292618D02*
D03*
X268406Y295866D02*
D03*
X267717Y298917D02*
D03*
X268209Y308465D02*
D03*
X274606Y311713D02*
D03*
X269685Y323524D02*
D03*
X336619Y434863D02*
D03*
X192535Y270528D02*
D03*
X275984Y433957D02*
D03*
X300605Y273341D02*
D03*
X41142Y391535D02*
D03*
X254921Y373917D02*
D03*
X205134Y314622D02*
D03*
X261713Y367224D02*
D03*
X214622Y317772D02*
D03*
X59646Y376772D02*
D03*
X59547Y375098D02*
D03*
X53543Y391535D02*
D03*
X198835Y314622D02*
D03*
Y317772D02*
D03*
X195685Y314622D02*
D03*
Y317772D02*
D03*
X188681Y324311D02*
D03*
X190354Y324016D02*
D03*
X186811Y324508D02*
D03*
X191535Y325590D02*
D03*
X183087Y270528D02*
D03*
X192535Y257929D02*
D03*
X186236Y273677D02*
D03*
X183087Y267378D02*
D03*
X227181Y257929D02*
D03*
X220882Y254780D02*
D03*
X224031Y261079D02*
D03*
X217732Y273677D02*
D03*
X300410Y335925D02*
D03*
X306709D02*
D03*
X237628Y292618D02*
D03*
X341354Y265059D02*
D03*
X309858D02*
D03*
X303559D02*
D03*
X297260D02*
D03*
X335055D02*
D03*
X236630Y261079D02*
D03*
X170528Y314622D02*
D03*
X183126Y320921D02*
D03*
X205134Y302024D02*
D03*
X201984D02*
D03*
X198835D02*
D03*
X195685D02*
D03*
X205134Y257929D02*
D03*
X208283D02*
D03*
X211433D02*
D03*
X214583Y261079D02*
D03*
Y264229D02*
D03*
X198835Y267378D02*
D03*
X195685D02*
D03*
X309858Y243012D02*
D03*
X54823Y350984D02*
D03*
X64862Y346555D02*
D03*
X208283Y314622D02*
D03*
X214610Y305173D02*
D03*
X217760Y314622D02*
D03*
X208323Y317772D02*
D03*
X205134Y308350D02*
D03*
X179937Y311473D02*
D03*
X173638Y292535D02*
D03*
X176815Y302024D02*
D03*
X186276Y298874D02*
D03*
X192535Y302024D02*
D03*
X189386Y311473D02*
D03*
X192563Y305173D02*
D03*
X189386D02*
D03*
X186236Y308323D02*
D03*
X83071Y341240D02*
D03*
X95720Y351032D02*
D03*
X72835Y340846D02*
D03*
X99504Y339666D02*
D03*
X87524Y346520D02*
D03*
X85630Y346457D02*
D03*
X83563D02*
D03*
X89221Y361859D02*
D03*
X89055Y355953D02*
D03*
X89173Y359843D02*
D03*
X89173Y365748D02*
D03*
Y363878D02*
D03*
Y369685D02*
D03*
X63902Y375272D02*
D03*
X60283Y355953D02*
D03*
X60287Y357922D02*
D03*
X60287Y365795D02*
D03*
X60284Y361859D02*
D03*
X69807Y375221D02*
D03*
X73744Y375272D02*
D03*
X67323Y394882D02*
D03*
X54921Y352953D02*
D03*
X67815Y346457D02*
D03*
X79650Y346433D02*
D03*
X77681Y346433D02*
D03*
X73744D02*
D03*
X75713Y346433D02*
D03*
X111811Y319981D02*
D03*
Y335039D02*
D03*
X117323Y326083D02*
D03*
Y337894D02*
D03*
X136516Y348524D02*
D03*
X105463Y391585D02*
D03*
X101870Y392618D02*
D03*
X100886Y393996D02*
D03*
X98228Y394193D02*
D03*
X109646Y375295D02*
D03*
X111024Y359449D02*
D03*
X118012Y368307D02*
D03*
X108169Y343996D02*
D03*
X110433Y307677D02*
D03*
X111417Y311221D02*
D03*
X110330Y306005D02*
D03*
X111122Y304232D02*
D03*
X71776Y337622D02*
D03*
Y346433D02*
D03*
X150394Y323425D02*
D03*
X144980Y319685D02*
D03*
X138976Y357382D02*
D03*
X113189Y350295D02*
D03*
X111713Y316240D02*
D03*
X111614Y314764D02*
D03*
X145571Y312992D02*
D03*
X111122Y291929D02*
D03*
X111516Y298425D02*
D03*
X112008Y275197D02*
D03*
Y287303D02*
D03*
X111122Y293996D02*
D03*
Y302658D02*
D03*
X111413Y309548D02*
D03*
X141142Y275197D02*
D03*
X138583Y281693D02*
D03*
X150591Y293996D02*
D03*
X155217Y307874D02*
D03*
X151673Y299311D02*
D03*
X151083Y314862D02*
D03*
X150591Y304232D02*
D03*
X150295Y295965D02*
D03*
X150787Y309547D02*
D03*
X150591Y306004D02*
D03*
X150394Y302559D02*
D03*
X150099Y298425D02*
D03*
X150443Y287352D02*
D03*
X170488Y261079D02*
D03*
X170473Y264272D02*
D03*
X170488Y295752D02*
D03*
Y292602D02*
D03*
Y257929D02*
D03*
X189386Y302024D02*
D03*
X186236Y302051D02*
D03*
X179976Y302024D02*
D03*
X192535Y292602D02*
D03*
X176787Y298835D02*
D03*
X173638D02*
D03*
X186276Y295725D02*
D03*
X183224D02*
D03*
X176787Y295654D02*
D03*
X173638Y295685D02*
D03*
X179937Y292575D02*
D03*
X180075Y286276D02*
D03*
X192563Y283126D02*
D03*
X192520Y279921D02*
D03*
X179937Y276787D02*
D03*
X189386Y273638D02*
D03*
X179937D02*
D03*
X173638Y273677D02*
D03*
X189386Y270555D02*
D03*
X179965Y270528D02*
D03*
X189425Y267378D02*
D03*
X179937D02*
D03*
X176787Y267339D02*
D03*
X173638Y267378D02*
D03*
X176815Y264229D02*
D03*
X173638D02*
D03*
X186236Y261079D02*
D03*
X173665Y257929D02*
D03*
X211122Y252264D02*
D03*
X202165Y249998D02*
D03*
X214341Y237410D02*
D03*
X209646Y242518D02*
D03*
X216142Y240943D02*
D03*
X219537Y237352D02*
D03*
X218455Y238337D02*
D03*
X217135Y239558D02*
D03*
X214576Y241545D02*
D03*
X211221Y237992D02*
D03*
X211417Y241437D02*
D03*
X208268Y240847D02*
D03*
X206890Y239666D02*
D03*
X205315Y240945D02*
D03*
X224902Y250966D02*
D03*
X217903Y248356D02*
D03*
X223228Y250787D02*
D03*
X205315Y250197D02*
D03*
X221457Y250591D02*
D03*
X214665Y250787D02*
D03*
X208406Y251516D02*
D03*
X208268Y249803D02*
D03*
X211417Y248622D02*
D03*
X233480Y267378D02*
D03*
X236630Y276827D02*
D03*
X312992Y313878D02*
D03*
X322457Y335925D02*
D03*
X322457Y265059D02*
D03*
X325596Y246061D02*
D03*
X325606Y317028D02*
D03*
X319307Y243012D02*
D03*
X316158D02*
D03*
X297260Y239862D02*
D03*
X300410D02*
D03*
X309858D02*
D03*
X331906D02*
D03*
X344504D02*
D03*
Y243012D02*
D03*
X341354Y258760D02*
D03*
X325606Y265059D02*
D03*
X331906Y261910D02*
D03*
Y265059D02*
D03*
X322457Y261910D02*
D03*
X335055D02*
D03*
X341354D02*
D03*
X338205Y265059D02*
D03*
X344504D02*
D03*
X306709D02*
D03*
X300410D02*
D03*
X335055Y313878D02*
D03*
X331906D02*
D03*
Y335925D02*
D03*
X309858D02*
D03*
X303559D02*
D03*
X297260D02*
D03*
X341354Y310729D02*
D03*
X344504D02*
D03*
X322457D02*
D03*
X328756D02*
D03*
X338205D02*
D03*
X331906D02*
D03*
X335055D02*
D03*
X344504Y313878D02*
D03*
X256798Y292884D02*
D03*
X341354Y329626D02*
D03*
X335055Y335925D02*
D03*
Y332776D02*
D03*
X341354D02*
D03*
Y335925D02*
D03*
X344504D02*
D03*
X331906Y332776D02*
D03*
X316158D02*
D03*
X319307D02*
D03*
X297260Y310729D02*
D03*
X303559D02*
D03*
X300410D02*
D03*
X325606Y313878D02*
D03*
Y310729D02*
D03*
X236630Y308323D02*
D03*
X217732Y292575D02*
D03*
Y289425D02*
D03*
X227181Y267378D02*
D03*
X220882Y292575D02*
D03*
X224031Y317772D02*
D03*
X227181Y311473D02*
D03*
X220882Y308323D02*
D03*
X224031Y302024D02*
D03*
X217732D02*
D03*
X214583Y298874D02*
D03*
Y295725D02*
D03*
X217732D02*
D03*
X214583Y292575D02*
D03*
Y286276D02*
D03*
Y279977D02*
D03*
Y273677D02*
D03*
X220882Y276827D02*
D03*
X217732Y283126D02*
D03*
Y276827D02*
D03*
X224031Y270528D02*
D03*
X289695Y275304D02*
D03*
X341354Y317028D02*
D03*
X233480Y311473D02*
D03*
X338205Y317028D02*
D03*
X233480Y308323D02*
D03*
X328756Y258760D02*
D03*
X257939Y256299D02*
D03*
X233480Y261079D02*
D03*
X325606Y258760D02*
D03*
X259124Y256299D02*
D03*
X233480Y264229D02*
D03*
X224031Y292575D02*
D03*
X341354Y246162D02*
D03*
X233480Y279977D02*
D03*
X338205Y246162D02*
D03*
X233480Y276827D02*
D03*
X316437Y281595D02*
D03*
X316158Y317028D02*
D03*
X316158Y246162D02*
D03*
X227181Y292575D02*
D03*
X319307Y317028D02*
D03*
X318996Y281595D02*
D03*
X319307Y246162D02*
D03*
X233480Y292575D02*
D03*
X328756Y329626D02*
D03*
X233480Y295725D02*
D03*
X325606Y329626D02*
D03*
X254921Y322902D02*
D03*
Y324213D02*
D03*
X285827Y245079D02*
D03*
X292618Y232382D02*
D03*
X284252Y230906D02*
D03*
X293406Y243209D02*
D03*
X328756Y246162D02*
D03*
X287500Y287795D02*
D03*
X266968Y258997D02*
D03*
X272904Y256959D02*
D03*
X269587Y258268D02*
D03*
X266535Y235925D02*
D03*
X274902Y234547D02*
D03*
X268366Y253839D02*
D03*
X272904Y238622D02*
D03*
X271368Y237313D02*
D03*
X275534Y241675D02*
D03*
X279242Y252451D02*
D03*
X277264Y249508D02*
D03*
X284941Y247835D02*
D03*
X286870Y251142D02*
D03*
X268602Y305315D02*
D03*
X281500Y318013D02*
D03*
X287303Y319784D02*
D03*
X287402Y321260D02*
D03*
X284256Y315651D02*
D03*
X269685Y322047D02*
D03*
X284252Y324213D02*
D03*
X275591Y327658D02*
D03*
X275856Y326181D02*
D03*
X269783Y342421D02*
D03*
X272641Y346558D02*
D03*
X278547Y343802D02*
D03*
X288878Y338543D02*
D03*
X286421Y339766D02*
D03*
X282874Y341142D02*
D03*
X280118Y337303D02*
D03*
X277165Y345177D02*
D03*
X271162Y347933D02*
D03*
X274213Y309981D02*
D03*
X267815Y283169D02*
D03*
X267579Y270473D02*
D03*
X268209Y302067D02*
D03*
X270276Y292717D02*
D03*
X284449Y282835D02*
D03*
X266339Y280217D02*
D03*
X293307Y273918D02*
D03*
X293110Y275591D02*
D03*
X292943Y277136D02*
D03*
X292819Y282775D02*
D03*
X293898Y286910D02*
D03*
X293907Y289163D02*
D03*
X293705Y290945D02*
D03*
X276381Y273917D02*
D03*
X277461Y276870D02*
D03*
X278449Y279823D02*
D03*
X284157Y292225D02*
D03*
X280118Y283268D02*
D03*
X282382Y286319D02*
D03*
X274905Y277066D02*
D03*
X273141Y280286D02*
D03*
X271752Y273819D02*
D03*
X269488Y270669D02*
D03*
X271952Y286417D02*
D03*
X269393D02*
D03*
X217858Y286276D02*
D03*
X271654Y289469D02*
D03*
X273232Y298820D02*
D03*
X271162Y295965D02*
D03*
X269787Y299016D02*
D03*
X217732Y279977D02*
D03*
X297441Y298229D02*
D03*
X297260Y329626D02*
D03*
X297315Y258760D02*
D03*
X227181Y270528D02*
D03*
X300410Y317028D02*
D03*
X300689Y281595D02*
D03*
X300398Y246134D02*
D03*
X224031Y273677D02*
D03*
X300410Y329626D02*
D03*
X300410Y258772D02*
D03*
X297441Y294193D02*
D03*
X224031Y276827D02*
D03*
X300410Y332776D02*
D03*
X300412Y261945D02*
D03*
X297342Y296260D02*
D03*
X220882Y279977D02*
D03*
X303559Y313878D02*
D03*
X303642Y278445D02*
D03*
X303563Y242992D02*
D03*
X220882Y283126D02*
D03*
X303559Y332776D02*
D03*
X303559Y261910D02*
D03*
X300689Y297343D02*
D03*
X224031Y283126D02*
D03*
X309941Y298229D02*
D03*
X310201Y267118D02*
D03*
X306736Y261874D02*
D03*
X306709Y332776D02*
D03*
X227181Y286276D02*
D03*
X306709Y329626D02*
D03*
X306693Y294193D02*
D03*
X306740Y258752D02*
D03*
X227181Y289425D02*
D03*
X306709Y313878D02*
D03*
X306791Y278445D02*
D03*
X306709Y243047D02*
D03*
X220882Y286276D02*
D03*
X319307Y329626D02*
D03*
X322933Y294193D02*
D03*
X319252Y258744D02*
D03*
X224031Y298874D02*
D03*
X335055Y317028D02*
D03*
X230331Y317772D02*
D03*
X328756Y317028D02*
D03*
X230331Y302024D02*
D03*
X313008Y329626D02*
D03*
X313287Y294193D02*
D03*
X313008Y258760D02*
D03*
X227181Y298874D02*
D03*
X313008Y332776D02*
D03*
X313287Y297343D02*
D03*
X313008Y261910D02*
D03*
X220882Y295725D02*
D03*
X309858Y329626D02*
D03*
X310039Y294193D02*
D03*
X309858Y258760D02*
D03*
X220882Y289425D02*
D03*
X230331D02*
D03*
X328756Y243012D02*
D03*
X230331Y264229D02*
D03*
X297260Y332776D02*
D03*
X297256Y261910D02*
D03*
X294094Y297343D02*
D03*
X230331Y270528D02*
D03*
X297260Y317028D02*
D03*
X297260Y246169D02*
D03*
X294094Y281595D02*
D03*
X227181Y273677D02*
D03*
X306709Y317028D02*
D03*
X306791Y281595D02*
D03*
X306756Y246146D02*
D03*
X227181Y276827D02*
D03*
X297260Y313878D02*
D03*
X297260Y243036D02*
D03*
X294094Y278445D02*
D03*
X224031Y279977D02*
D03*
X303559Y329626D02*
D03*
X303642Y294193D02*
D03*
X303567Y258748D02*
D03*
X227181Y283126D02*
D03*
X344504Y246162D02*
D03*
X230331Y286276D02*
D03*
X224031D02*
D03*
X233480Y317772D02*
D03*
X224031Y295725D02*
D03*
Y289425D02*
D03*
X233480Y257929D02*
D03*
X230331D02*
D03*
Y261079D02*
D03*
Y267378D02*
D03*
X233480Y270528D02*
D03*
Y273677D02*
D03*
X230331D02*
D03*
Y276827D02*
D03*
Y279977D02*
D03*
X227181D02*
D03*
X230331Y283126D02*
D03*
X233480Y286276D02*
D03*
Y289425D02*
D03*
X230331Y292575D02*
D03*
Y295725D02*
D03*
X227181D02*
D03*
X233480Y298835D02*
D03*
X230331Y298874D02*
D03*
X233480Y302024D02*
D03*
Y305173D02*
D03*
X230331D02*
D03*
Y308323D02*
D03*
Y311473D02*
D03*
Y314622D02*
D03*
Y320921D02*
D03*
X233480Y314622D02*
D03*
Y283126D02*
D03*
X341354Y243012D02*
D03*
X338205D02*
D03*
X335055Y246162D02*
D03*
X331906D02*
D03*
X322457Y239862D02*
D03*
X341354D02*
D03*
X338205D02*
D03*
X335055D02*
D03*
Y243012D02*
D03*
X328756Y239862D02*
D03*
X325606D02*
D03*
X331906Y243012D02*
D03*
X325606D02*
D03*
X303559Y239862D02*
D03*
X322457Y243012D02*
D03*
Y246079D02*
D03*
X344504Y258760D02*
D03*
Y261910D02*
D03*
X338205Y258760D02*
D03*
Y261910D02*
D03*
X335055Y258760D02*
D03*
X331906D02*
D03*
X328756Y261910D02*
D03*
X325606Y335925D02*
D03*
X320866Y337402D02*
D03*
X333563Y337599D02*
D03*
X322457Y332776D02*
D03*
X325606Y261910D02*
D03*
X322457Y258760D02*
D03*
X322457Y317028D02*
D03*
X319307Y261910D02*
D03*
X316158D02*
D03*
X316220Y258756D02*
D03*
X316158Y335925D02*
D03*
X316189Y265063D02*
D03*
X313008Y317028D02*
D03*
X316158Y313878D02*
D03*
X319307D02*
D03*
X316158Y310729D02*
D03*
X309858Y313878D02*
D03*
Y310729D02*
D03*
X322457Y313878D02*
D03*
X316154Y239906D02*
D03*
X316158Y329626D02*
D03*
X319253Y266961D02*
D03*
X313016Y246087D02*
D03*
X309858Y332776D02*
D03*
X309858Y261910D02*
D03*
X303559Y317028D02*
D03*
X303547Y246146D02*
D03*
X300410Y313878D02*
D03*
X300429Y242984D02*
D03*
X300689Y278445D02*
D03*
X303642Y281595D02*
D03*
X313287D02*
D03*
X316240Y275295D02*
D03*
X316240Y300492D02*
D03*
X310039Y296063D02*
D03*
X319783Y297343D02*
D03*
X328756Y313878D02*
D03*
X331906Y317028D02*
D03*
X338205Y313878D02*
D03*
X341354D02*
D03*
X344504Y317028D02*
D03*
X322457Y329626D02*
D03*
X331906D02*
D03*
X335055D02*
D03*
X325606Y332776D02*
D03*
X328756D02*
D03*
X338205Y329626D02*
D03*
Y332776D02*
D03*
X344504Y329626D02*
D03*
Y332776D02*
D03*
X329528Y347638D02*
D03*
X240159Y266633D02*
D03*
X217732Y257929D02*
D03*
X224031D02*
D03*
X217732Y261079D02*
D03*
X220882Y264229D02*
D03*
X214583Y267378D02*
D03*
X211433D02*
D03*
X208283D02*
D03*
X205134D02*
D03*
Y270528D02*
D03*
X211433D02*
D03*
X198835Y273677D02*
D03*
X201984Y270528D02*
D03*
X195685D02*
D03*
X201984Y267378D02*
D03*
Y257929D02*
D03*
X195685D02*
D03*
X198835Y261079D02*
D03*
Y270528D02*
D03*
X201984Y261079D02*
D03*
X208283Y264229D02*
D03*
Y270528D02*
D03*
Y273677D02*
D03*
X195685Y264229D02*
D03*
X201984D02*
D03*
X205134Y261079D02*
D03*
X211433D02*
D03*
X214583Y257929D02*
D03*
X198835D02*
D03*
X217732Y267378D02*
D03*
X220882Y261079D02*
D03*
X224031Y264229D02*
D03*
X227181D02*
D03*
X224031Y267378D02*
D03*
X214583Y270528D02*
D03*
X217732D02*
D03*
X220882Y273677D02*
D03*
X211433D02*
D03*
X220882Y270528D02*
D03*
X217732Y264229D02*
D03*
X81618Y346433D02*
D03*
X89126Y371701D02*
D03*
X89126Y357922D02*
D03*
X76476Y391240D02*
D03*
X89764Y376870D02*
D03*
X89122Y350047D02*
D03*
X37402Y332284D02*
D03*
X85555Y375177D02*
D03*
X22343Y422047D02*
D03*
X62599Y323918D02*
D03*
X60433Y324016D02*
D03*
X64567Y323917D02*
D03*
X66536D02*
D03*
X70473D02*
D03*
X76376Y323913D02*
D03*
X78246D02*
D03*
X80413Y323819D02*
D03*
X82085Y323913D02*
D03*
X87599Y323819D02*
D03*
X89664Y323913D02*
D03*
X94095Y323819D02*
D03*
X92028D02*
D03*
X108267Y318204D02*
D03*
X120965Y366043D02*
D03*
X119783Y326083D02*
D03*
X117323Y372244D02*
D03*
X126575Y326280D02*
D03*
X125984Y361713D02*
D03*
X132283Y326083D02*
D03*
Y361319D02*
D03*
X121956Y317914D02*
D03*
X138287Y377264D02*
D03*
X148622Y325492D02*
D03*
X130905Y360138D02*
D03*
X109547Y379429D02*
D03*
X129528Y326280D02*
D03*
X144587D02*
D03*
X205134Y264229D02*
D03*
X198835Y276827D02*
D03*
X195685Y261079D02*
D03*
X227181Y320921D02*
D03*
X224031Y320921D02*
D03*
X205134Y273677D02*
D03*
X201984D02*
D03*
X195685D02*
D03*
Y298874D02*
D03*
X198835D02*
D03*
X205134D02*
D03*
X211433D02*
D03*
Y295725D02*
D03*
X208283Y298874D02*
D03*
X211433Y302024D02*
D03*
X205134Y295725D02*
D03*
X208283Y292575D02*
D03*
X211433Y289425D02*
D03*
X208283Y286276D02*
D03*
X211433D02*
D03*
X208283Y289425D02*
D03*
X211433Y292575D02*
D03*
X195685Y295725D02*
D03*
Y292575D02*
D03*
Y289425D02*
D03*
X192535Y286276D02*
D03*
X195685D02*
D03*
Y283126D02*
D03*
Y279977D02*
D03*
Y276827D02*
D03*
X201984D02*
D03*
X205134D02*
D03*
X208283Y279977D02*
D03*
X205134D02*
D03*
X201984D02*
D03*
X198835D02*
D03*
Y283126D02*
D03*
X201984D02*
D03*
X205134D02*
D03*
X208283D02*
D03*
X189386Y276827D02*
D03*
X214583D02*
D03*
X211433D02*
D03*
Y279977D02*
D03*
Y283126D02*
D03*
X214583D02*
D03*
X205134Y286276D02*
D03*
X201984D02*
D03*
X198835D02*
D03*
Y289425D02*
D03*
X201984D02*
D03*
X205134D02*
D03*
X214583D02*
D03*
X205134Y292575D02*
D03*
X201984D02*
D03*
X198835D02*
D03*
X208283Y295725D02*
D03*
X201984D02*
D03*
X198835D02*
D03*
X260728Y314579D02*
D03*
X180315Y323228D02*
D03*
X173425D02*
D03*
X175197Y324508D02*
D03*
X179331Y324410D02*
D03*
X183087Y257929D02*
D03*
X173638Y261079D02*
D03*
X176787Y254780D02*
D03*
X179937Y264229D02*
D03*
X170488Y267378D02*
D03*
X189386Y261079D02*
D03*
X183087Y273677D02*
D03*
X173638Y276827D02*
D03*
X186236Y283126D02*
D03*
X176787Y286276D02*
D03*
X189386Y292575D02*
D03*
X179964Y295725D02*
D03*
X170488Y298874D02*
D03*
X186319Y267323D02*
D03*
X183071Y289370D02*
D03*
X176772Y270571D02*
D03*
X170544Y283071D02*
D03*
X179921Y279921D02*
D03*
X173638Y308323D02*
D03*
X183114Y305173D02*
D03*
X176787Y317732D02*
D03*
X186236Y314622D02*
D03*
X195685Y311473D02*
D03*
X198835Y320921D02*
D03*
X208283Y302024D02*
D03*
X214583D02*
D03*
X208283Y254780D02*
D03*
X211433Y264229D02*
D03*
X224016Y254823D02*
D03*
X192563Y254780D02*
D03*
X235236Y323917D02*
D03*
X201984Y314622D02*
D03*
X211417Y311516D02*
D03*
X192618Y317717D02*
D03*
X198862Y305173D02*
D03*
X214567Y320965D02*
D03*
X189386Y308350D02*
D03*
X198819Y252165D02*
D03*
X208283Y276827D02*
D03*
X111024Y281693D02*
D03*
X224016Y305217D02*
D03*
X31791Y437106D02*
D03*
X214567Y254823D02*
D03*
X186236Y286276D02*
D03*
X195276Y222146D02*
D03*
X189386Y264229D02*
D03*
X193996Y220866D02*
D03*
X220882Y267378D02*
D03*
X230118Y246555D02*
D03*
X227181Y261079D02*
D03*
M02*
