M48
;Layer_Color=9474304
;FILE_FORMAT=2:5
INCH,TZ
;TYPE=PLATED
T1F00S00C0.00394
T2F00S00C0.00787
T3F00S00C0.00984
T4F00S00C0.01299
T5F00S00C0.01575
T6F00S00C0.04016
T7F00S00C0.04213
T8F00S00C0.05512
T9F00S00C0.06496
T10F00S00C0.09094
T11F00S00C0.11811
%
T01
X266535Y235925
X268996Y238976
X271368Y237313
X272904Y238622
X271850Y234350
X274902Y234547
X275534Y241675
X277264Y249508
X275699Y251565
X279242Y252451
X286870Y251142
X284941Y247835
X285827Y245079
X283858Y243799
X293406Y243209
X297260Y243036
Y246169
X300398Y246134
X303547Y246146
X303563Y242992
X303559Y239862
X300410
X300429Y242984
X297260Y239862
X292618Y232382
X289469Y232480
X284252
X284252Y230906
X309858Y239862
Y243012
X306709Y243047
X306756Y246146
X313016Y246087
X316158Y246162
X319307
Y243012
X322457
Y246079
X325596Y246061
X325606Y243012
Y239862
X328756
Y243012
X331906
X335055
Y239862
X338205
X341354
Y243012
X338205
Y246162
X335055
X331906
X328756
X331906Y239862
X322457
X316154Y239906
X316158Y243012
X316220Y258756
X319252Y258744
X319307Y261910
X316158
X313008
X309858
Y258760
X306740Y258752
X306736Y261874
X303559Y261910
X303559Y265059
X300410
X300412Y261945
X300410Y258772
X297315Y258760
X297256Y261910
X297260Y265059
X306709
X309858
X310201Y267118
X316189Y265063
X319253Y266961
X322457Y265059
Y261910
Y258760
X325606
Y261910
X328756
Y258760
X331906
X335055
X338205
Y261910
Y265059
X335055
Y261910
X331906
Y265059
X325606
X341354
X344504
Y261910
Y258760
X341354
Y261910
Y246162
X344504
Y243012
Y239862
X313008Y258760
X303567Y258748
X275787Y260236
X272904Y256959
X269587Y258268
X266968Y258997
X268366Y253839
X268504Y252067
X259124Y256299
X257939
X256299Y255610
X267579Y270473
X269488Y270669
X240159Y266633
X233480Y267378
Y270528
X230331
Y267378
Y264229
X227181
X224031
Y267378
Y270528
X220882Y270528
Y267378
X220882Y264229
X217732
Y267378
Y270528
X214583
X211433
X208283
X205134
X201984
X198835
X195685
Y267378
Y264229
X195685Y261079
X195685Y257929
X198835
Y261079
X201984
X205134
Y264229
X201984
Y267378
X205134
X208283
Y264229
X211433Y264229
X211433Y261079
X214583
Y257929
X214567Y254823
X214665Y250787
X211122Y252264
X208406Y251516
X208268Y249803
X205315Y250197
X202165Y249998
X198819Y252165
X192563Y254780
X192535Y257929
X189386Y261079
Y264229
X189425Y267378
X186319Y267323
X183087Y267378
X179937
Y264229
X176815
X176787Y267339
X173638Y267378
X170488
X170473Y264272
X173638Y264229
Y261079
X170488
Y257929
X173665
X176787Y254780
X183087Y257929
X186236Y261079
X183087Y270528
X179965
X176772Y270571
X189386Y270555
X192535Y270528
X198835Y267378
X201984Y257929
X205134
X208283
X211433
X217732
Y261079
X220882
X224031Y261079
X224031Y257929
X224016Y254823
X220882Y254780
X221457Y250591
X223228Y250787
X224902Y250966
X227181Y257929
Y261079
X230331Y261079
Y257929
X233480
Y261079
Y264229
X236630Y261079
X227181Y267378
Y270528
X214583Y267378
X211433
X214583Y264229
X208283Y254780
X211417Y248622
X217903Y248356
X216142Y240943
X214576Y241545
X211417Y241437
X209646Y242518
X208268Y240847
X206890Y239666
X205315Y240945
X211221Y237992
X214341Y237410
X217135Y239558
X218455Y238337
X219537Y237352
X230118Y246555
X195276Y222146
X193996Y220866
X80413Y323819
X78246Y323913
X76376
X70473Y323917
X66536
X64567
X62599Y323918
X60433Y324016
X71776Y337622
X72835Y340846
X73744Y346433
X71776Y346433
X75713Y346433
X77681Y346433
X79650Y346433
X67815Y346457
X64862Y346555
X60283Y355953
X60287Y357922
X60284Y361859
X60287Y365795
X59547Y375098
X59646Y376772
X63902Y375272
X69807Y375221
X73744Y375272
X76476Y391240
X67323Y394882
X53543Y391535
X41142
X22343Y422047
X54921Y352953
X54823Y350984
X37402Y332284
X82085Y323913
X87599Y323819
X89664Y323913
X92028Y323819
X94095
X108267Y318204
X111811Y319981
X111713Y316240
X111614Y314764
X111417Y311221
X111413Y309548
X110433Y307677
X110330Y306005
X111122Y304232
Y302658
X111516Y298425
X111122Y293996
Y291929
X112008Y287303
X111024Y281693
X112008Y275197
X141142
X138583Y281693
X150443Y287352
X150591Y293996
X150295Y295965
X150099Y298425
X151673Y299311
X150394Y302559
X150591Y304232
Y306004
X150787Y309547
X151083Y314862
X145571Y312992
X144980Y319685
X144587Y326280
X148622Y325492
X150394Y323425
X155217Y307874
X173638Y308323
X170528Y314622
X176787Y317732
X175197Y324508
X173425Y323228
X180315
X179331Y324410
X183126Y320921
X186811Y324508
X188681Y324311
X190354Y324016
X191535Y325590
X192618Y317717
X195685Y317772
Y314622
Y311473
X189386
Y308350
Y305173
Y302024
X192535
X195685
Y298874
Y295725
X198835
X201984
Y292575
X198835
Y289425
X201984
X205134
Y292575
X208283
Y289425
Y286276
X205134
Y283126
X208283
X211433
Y286276
X214583
X214583Y283126
X217732
X220882
Y286276
X217858
X217732Y289425
X214583Y289425
X211433
Y292575
X214583Y292575
Y295725
X217732
X220882
X224031
X227181
X230331
Y298874
X227181
X224031
Y302024
X224016Y305217
X220882Y308323
X214610Y305173
X214583Y302024
X211433
Y298874
X208283
Y302024
X205134
Y298874
Y295725
X208283
X211433
X214583Y298874
X217732Y302024
Y292575
X220882
Y289425
X224031
Y286276
X227181
X230331
X233480
Y283126
X230331
Y279977
X227181
Y283126
X224031
Y279977
X220882
X217732
Y276827
X214583Y276827
X214583Y273677
X211433
X211433Y276827
X208283
Y273677
X205134Y273677
Y276827
Y279977
X208283
X211433
X214583Y279977
X220882Y276827
Y273677
X224031
X227181
X230331
Y276827
X227181
X224031
X233480
Y273677
Y279977
X236630Y276827
X233480Y289425
X230331
Y292575
X233480
Y295725
Y298835
Y302024
Y305173
X230331
Y308323
Y311473
Y314622
X233480
Y317772
X230331
Y320921
X227181
X224031Y320921
X224031Y317772
X214622Y317772
X214567Y320965
X208323Y317772
X208283Y314622
X205134
X201984
X198835
Y317772
Y320921
X198862Y305173
X198835Y302024
Y298874
X201984Y302024
X205134Y308350
X211417Y311516
X217760Y314622
X227181Y311473
X233480
Y308323
X236630
X230331Y302024
X227181Y292575
Y289425
X224031Y292575
X217732Y273677
X201984
Y276827
X198835
X198835Y273677
X195685Y273677
Y276827
Y279977
X198835
X201984
Y283126
Y286276
X198835
Y283126
X195685
X192563
X192535Y286276
X195685
Y289425
Y292575
X192535Y292602
X189386Y292575
X186276Y295725
X183224
X179964
X179937Y292575
X176787Y295654
X173638Y295685
Y298835
X176787
X176815Y302024
X179976
X183114Y305173
X186236Y302051
X186276Y298874
X186236Y308323
Y314622
X179937Y311473
X192563Y305173
X186236Y286276
Y283126
X180075Y286276
X176787
X183071Y289370
X179921Y279921
X179937Y276787
Y273638
X183087Y273677
X186236
X189386Y273638
Y276827
X192520Y279921
X173638Y276827
Y273677
X170544Y283071
X170488Y292602
Y295752
Y298874
X173638Y292535
X132283Y326083
X129528Y326280
X126575
X119783Y326083
X117323Y326083
Y337894
X111811Y335039
X108169Y343996
X113189Y350295
X111024Y359449
X118012Y368307
X117323Y372244
X120965Y366043
X125984Y361713
X130905Y360138
X132283Y361319
X138976Y357382
X136516Y348524
X138287Y377264
X109646Y375295
X109547Y379429
X105463Y391585
X101870Y392618
X100886Y393996
X98228Y394193
X89764Y376870
X89126Y371701
X89173Y369685
Y365748
Y363878
X89221Y361859
X89173Y359843
X89126Y357922
X89055Y355953
X89122Y350047
X87524Y346520
X85630Y346457
X83563
X81618Y346433
X83071Y341240
X99504Y339666
X95720Y351032
X85555Y375177
X121956Y317914
X235236Y323917
X254921Y324213
Y322902
X260728Y314579
X268209Y308465
X268602Y305315
X268209Y302067
X267717Y298917
X269787Y299016
X273232Y298820
X271162Y295965
X268406Y295866
X267815Y292618
X270276Y292717
X271654Y289469
X268406Y289370
X269393Y286417
X267224Y286221
X267815Y283169
X266339Y280217
X264272Y280217
X266142Y273819
X271752Y273819
X276381Y273917
X277461Y276870
X274905Y277066
X273141Y280286
X278449Y279823
X280118Y283268
X284449Y282835
X282382Y286319
X287500Y287795
X293898Y286910
X293907Y289163
X293705Y290945
X294094Y297343
X297441Y298229
X297342Y296260
X297441Y294193
X300590Y294980
X300689Y297343
X303642Y294193
X306693
X310039
X310039Y296063
X309941Y298229
X313287Y297343
Y294193
X316240Y300492
X319783Y297343
X322933Y294193
X318996Y281595
X316437
X313287
X306791
Y280118
Y278445
X303642
X300689
Y281595
X303642
X294094
X292819Y282775
X294094Y278445
X292943Y277136
X293110Y275591
X293307Y273918
X289695Y275304
X286713Y273819
X286713Y277756
X284157Y292225
X271952Y286417
X258858Y292618
X256798Y292884
X237628Y292618
X274213Y309981
X274606Y311713
X281500Y318013
X284256Y315651
X287303Y313878
X287303Y319784
X287402Y321260
X284252Y324213
X278740Y324213
X275856Y326181
X275591Y327658
X275492Y329035
X274213Y337894
X278937Y338484
X280118Y337303
X282874Y341142
X286421Y339766
X288878Y338543
X297260Y335925
Y332776
X300410
X303559
Y329626
X306709
X309858
Y332776
X313008
Y329626
X316158
X319307
X322457
Y332776
X325606
X328756
Y329626
X331906
X335055
X338205
Y332776
X341354
X344504
Y329626
X341354
Y335925
X344504
X335055
Y332776
X331906
Y335925
X333563Y337599
X325606Y335925
X322457
X320866Y337402
X316158Y335925
Y332776
X319307
X325606Y329626
Y317028
X322457
Y313878
X319307
X316158
Y310729
X309858
Y313878
X312992
X313008Y317028
X316158
X319307
X325606Y313878
X328756
Y310729
X325606
X322457
X331906
X335055
X338205
Y313878
X341354
Y317028
X344504
Y313878
Y310729
X341354
X338205Y317028
X335055
X331906
X328756
X331906Y313878
X335055
X306709
Y317028
X303559
Y313878
X300410
X297260
Y317028
X300410
Y310729
X303559
X297260
Y329626
X300410
Y335925
X303559
X306709
Y332776
X309858Y335925
X329528Y347638
X278547Y343802
X277165Y345177
X274606Y344783
X272641Y346558
X271162Y347933
X269783Y342421
X269685Y323524
X269685Y322047
X261713Y367224
X254921Y373917
X300605Y273341
X316240Y275295
X336619Y434863
X275984Y433957
X31791Y437106
T02
X22047Y22736
X23228Y49016
X35335Y94587
X79137Y112900
Y42719
X89862Y24409
X110984Y69921
X110905Y74921
X110945Y84921
X110925Y89961
X111018Y103330
X108163Y102739
X139173Y92421
X150295Y98425
X165059Y101673
Y103575
X163976Y88221
Y86319
X164173Y72965
Y71063
X187992Y75886
X189862Y75788
X199803Y79429
X198228Y69193
X196850Y61516
X198819Y54429
X198917Y38878
X213181Y39477
X217118Y39477
X222827Y39378
X225098
X228929Y39461
X230898Y35736
X232866Y35441
X234736Y39280
X237008
X226961Y35721
X221055Y35539
X219087Y35638
X215059Y35728
X212303Y57579
X212008Y67323
X214075Y68406
X215650Y81201
X213780Y82973
X212941Y93059
X213142Y100933
X213141Y102902
X213240Y108807
X212941Y110776
X183957Y107579
X182087Y113386
X180708Y98022
X182352Y92845
X199264Y91091
X229724Y71162
X234055Y62285
X181693Y55217
Y43996
X186957Y43949
X182283Y38976
Y29232
X173622Y43012
X240740Y39280
X238772Y35917
X244677Y35736
X246449Y39469
X248721
X250583Y35622
X254520Y35622
X258260Y39378
X260531
X262394Y35441
X263484Y53642
X258366Y54823
X252658Y53937
X263039Y59595
X262941Y61563
X263090Y65354
X263583Y69390
Y71358
X263484Y73327
X263240Y75343
X263484Y77362
X263433Y81248
X263335Y83217
X262795Y87303
X261713Y89370
X261614Y91339
X263289Y94865
X263335Y100933
X263338Y102902
X263433Y108807
X263335Y110776
X253346Y104823
X242569Y106693
X279134Y112795
X278051Y99508
X296457Y99508
X299016Y91339
X302165Y80610
X307087Y74508
X314071Y74307
X317028Y77658
X318016Y70666
X317819Y62792
X317622Y58855
X313189Y57677
X311414Y60823
X306988Y50295
X300295Y51378
X297933Y40945
X289764Y41536
X278937Y42028
X278642Y56004
X285433Y63288
X328937Y66634
Y68504
X329228Y72634
X329134Y78543
X332776Y84351
X329524Y90351
X329720Y102162
X329721Y108067
X338189Y110433
X316728Y110036
X317224Y101083
X316339Y96260
Y94292
X317224Y91732
X301280Y106201
X299311Y113484
X360433Y107579
X378252Y108067
X379531Y110036
X379524Y100193
X377457Y102162
X377563Y94288
X377661Y90351
X379721Y88382
X378153Y82477
X378146Y80508
X377464Y74603
X379721Y72634
X378445Y63681
X378346Y61516
X380807Y57087
X371260Y60236
X369193Y65945
X371555Y52756
X366535Y52854
X365748Y38484
X363484
X359350Y38386
X354035Y38681
X351476
X346654Y39075
X342224Y38976
X339862
X336221Y38484
X334028Y39496
X330512Y39272
X327559Y45866
X344488Y54429
X347807Y54500
X350886Y54724
X344705Y71378
X391732Y70669
X391339Y66634
X391142Y64469
X391240Y62599
Y78347
X391339Y84449
X391437Y86516
X375295Y92323
X375295Y38681
X377362
X381201Y38189
X371162Y38878
X320177Y16929
X314862Y18012
X289469Y16240
X298862Y29484
X405807Y68110
X405905Y77166
X408563Y89075
X404823Y110335
X433957Y73032
X423898Y135945
X423799Y145945
X423740Y153858
X423898Y163858
X400787Y144095
X397736Y146555
X405217Y120276
X408169Y232382
X427854Y236910
X440158Y249803
X420079Y254429
X415256Y267126
X384260Y251762
X373524Y257382
X371161Y233661
X372224Y215728
X372421Y205728
X372657Y198110
X374587Y188110
X387205Y183268
X387008Y180709
X390748Y192028
X385039Y200492
X380118Y205315
X388681Y209350
X341762Y209302
X338858Y210354
X337303Y206988
X336614Y198327
X347441Y215256
X348819Y216732
X350295Y218406
X339665Y227264
X325394Y230807
X301870Y217717
X299016Y210433
Y205610
X297047Y200492
X292421Y216240
X283469Y212300
X278445Y212500
X276476Y210827
X268110Y210925
X263878Y210827
X256693Y209449
X255020Y210630
X255807Y223031
X253346Y226083
X248327Y243701
X242126Y244488
X242224Y246949
X243110Y249016
X238780Y245374
X247736Y253740
X262598Y254429
X262205Y267028
X237795Y197047
X239961Y182185
X242323Y157087
X244390Y156988
X246358Y139469
X242709Y125894
X252756Y125689
X258661
X263289Y126559
X263335Y124555
X263240Y122587
X263290Y120661
X263583Y115158
X249803Y115355
X285236Y121851
X279232Y130610
X267421Y140650
X266831Y172146
X266437Y175295
X272421Y175768
X280039Y175709
X285138Y175394
X301132Y176526
X300295Y178445
X315354
X311860Y174163
X307776Y170669
X307579Y162500
X318307Y168504
X323819Y165748
X324410Y157480
X329134
X330610Y160236
X329429Y150492
X328051Y142323
X323201Y129063
X332059Y126110
X335996Y125858
X337965Y124480
X339961Y124409
X341902Y125815
X349114Y125886
X351744Y126012
X358957Y125492
X361587Y126012
X371429Y124776
X373398Y125618
X378055Y121847
X379425Y119878
X377756Y115453
X392126Y123228
X385039Y138386
X329918Y117910
X330016Y115941
X299705Y120079
X302327Y141402
Y150063
X231102Y156496
X228445Y156398
X229134Y181496
X218701Y181693
X217815Y179823
X213681Y179626
X213681Y177264
X205807Y179916
X204134Y174902
X201279Y174705
X202362Y172146
X204429Y170965
X213878Y139961
X219087Y125598
X223024Y125697
X224992Y125681
X221055Y122335
X214024Y118650
X213831Y116681
X232874Y126083
X234835Y125894
X199114Y131102
X182324Y118956
X174803Y125984
X174702Y136895
X176280Y142913
X178051Y152165
X165157Y118437
Y116536
X110886Y114921
X110866Y119921
X127067Y142421
X125492Y153937
X127657Y159449
X123228Y164272
X125591Y186024
X126575Y192815
X133071Y187500
X138583Y183661
X139567Y201575
X143110Y220768
X146555Y225590
X155315Y227362
X153740Y220472
X150591Y214764
X163583Y212697
X157776Y234350
X151083Y238386
X142618Y242028
X134449Y241732
X140650Y231988
X142618Y232480
X175394Y230020
X191535Y244783
X196260Y244685
X196590Y214110
X189567Y208662
X224803Y226181
X225098Y229036
X230118Y251181
X96653Y242126
X90748Y242323
X106496Y231693
X106791Y228937
X105807Y226575
X106102Y223917
X94685Y213484
X92716Y214567
X81496Y220374
X82480Y204134
X94784Y186516
X92323Y183169
X95768Y167717
X117618Y189961
X72047Y181595
X59153Y184154
X56890Y183661
X56102Y190354
X55709Y194980
X32579Y193898
X28543Y193996
X27165Y199902
X21250Y199890
X13178Y211406
X11811Y213189
X10236Y215354
X10728Y217323
X10433Y222835
X13287Y228051
X8366Y232776
X7382Y242913
X6791Y257087
X6988Y269980
X42314Y258259
X47638Y253150
X45374Y248917
X51083Y245177
X53248Y251772
X57382Y261417
X58169Y263386
X60236Y264370
X58366Y267224
X36024Y249705
X31988Y239469
X33957Y236024
X45866Y236614
X46555Y222736
X50787
X50886Y219291
X48130Y219390
X40945Y218110
X38583Y217323
X38484Y213386
X40945Y209646
X34744Y220965
X24508Y231693
X21260Y231299
X64173Y221161
X74410Y214370
X79134Y224803
X79232Y227067
X78839Y234547
X76673Y234350
X74409Y234154
X59744Y173031
X58563Y167126
X61614Y164862
X32579Y163878
X32776Y140748
X27264Y182776
X14764Y182579
X5610Y290059
X55512Y289469
X58858Y289961
X62795Y287205
X62992Y282579
X63386Y280512
X57972Y272736
X63386Y297047
X75590Y294390
X57382Y307481
X53347Y307677
X50984Y312205
X48917Y313484
X44390Y313386
X35531Y312500
X46654Y327953
X58956Y327764
X73721Y328150
X72563Y350047
X74728Y352213
X70398
X68232Y350047
X63902
X66067Y352213
X63902Y354378
X66067Y356543
X63902Y358709
X66067Y360874
X68232Y358709
Y363039
X63902
X66067Y365205
X63902Y367370
Y371701
X66067Y369536
X68232Y371701
Y367370
X70398Y365205
X74728
X72563Y363039
Y358709
X74728Y360874
X70398
Y356543
X74728
X72563Y354378
X76894
Y350047
X79059Y352213
Y356543
Y360874
X76894Y358709
Y363039
Y367370
X72563
Y371701
X74728Y369536
X70398
X76894Y371701
X79059Y369536
Y365205
X78666Y380831
X79035Y393996
X65551Y396555
X56988Y389764
X47343Y387697
X46654Y383071
X44685Y381595
X46457Y374410
X42815Y374114
X34449Y375689
X33661Y381398
X16732Y379134
X16732Y377166
X16142Y373917
X16634Y371358
X16535Y366339
Y363779
X16634Y361122
X16634Y358760
X16732Y351575
X16732Y349114
X25492Y346555
X21752Y340650
X24311Y335236
X24213Y332677
X25098Y330315
X31299Y356496
X30315Y363878
X42717Y363583
X46457Y363189
X48228Y358071
X48130Y355315
X48622Y341142
X55709Y342961
X68232Y354378
X54626Y367028
X54626Y370571
X56496Y407185
X51476Y407185
X42815Y420079
X32701Y400024
X78642Y411024
X83464Y402166
X84055Y394882
X82185Y393799
X86122
X89764Y391732
X87992Y385433
X85555Y371701
X83390Y369536
X81225Y371701
Y367370
X85555
X83390Y365205
X85555Y363039
Y358709
X83390Y360874
Y356543
X85555Y354378
X83390Y352213
X85555Y350047
X81225
Y354378
Y358709
Y363039
X108563Y359744
X117520Y359842
X121850Y359744
X121653Y368406
X116535Y370472
X113976Y352756
X109153Y351181
X109350Y347047
X110138Y342717
X111122Y337205
X110039Y332185
X105807Y331299
X97638
X98327Y324882
X84646Y327559
X109350Y316142
X119390Y317323
X119291Y313091
Y307776
Y304331
X129232
Y307874
X129331Y313090
X129528Y317618
X128051Y325197
X135728Y325984
X139075Y325984
X137106Y334547
X137205Y343996
X137697Y350886
X122441Y350492
X122047Y346260
X121653Y331988
X151083Y333268
X152854Y327264
X150295Y325295
X150886Y316634
X150984Y312992
X152559Y307185
X154921Y305217
X157874Y301772
X154232Y283268
X138484Y285925
X138583Y279823
X139961Y277264
X119882Y272441
X110335Y275886
X111221Y279823
X106004Y273622
X105709Y285827
X109153Y295374
X119882Y285728
X144390Y317224
X163386Y326476
X166240Y326772
X169390Y325984
X167028Y333465
X164961Y332283
X161319Y331693
X159252Y330709
X160925Y334842
X165453Y339862
X165847Y347244
X169390Y347736
X146162Y358169
X148327Y379921
X128543Y382481
X121555Y393799
X116240Y400886
X108858Y395472
X105610Y395768
X106890Y393602
X99410Y395669
X98622Y408268
X106299Y408366
X109055Y422343
X98721Y424311
X118012Y415945
X129035Y416043
X128839Y412795
X139862Y420669
X147244Y408465
X135236Y399902
X176673Y418701
X214567Y418701
Y416732
X214665Y414764
X217421Y412795
X217520Y420669
X219587Y425457
X225689Y405610
X228543Y405610
X232480Y405709
X235335Y384843
X204232Y398327
X241437Y412795
X241634Y418701
X242618Y420669
X257480Y421358
X257579Y415650
X253642Y410532
X262205Y404429
X270374Y404626
X275689Y392913
X277658Y385138
X268996Y387008
X266240Y378346
X259350Y367421
X255118Y367618
X253642Y356102
X253248Y353248
X251870Y357776
X238189Y349410
X245669Y336122
X261519Y338881
X265453Y337500
X260728Y308366
X255906Y386319
X297047Y379232
X304823Y394094
X296358Y401575
X296752Y420472
X304626Y417717
X316339Y421555
X327067Y418602
X328839Y416437
X330217Y420571
X328642Y424508
X332185Y424508
X332283Y410827
X340846Y410039
X347539Y411516
Y415846
Y420177
X351870
X356201
Y415846
X351870
Y411516
X356201
Y407185
X351870
X347539
X343209Y399213
X341240Y399114
X339665Y400886
X332185Y400787
X339272Y391338
X345079Y388681
X335138Y384941
X335925Y375492
X339567Y377756
X325098Y374016
X322146Y373327
X322539Y375492
X317421Y375886
X353642Y369291
X359154Y362992
X375984Y365846
X371063Y379331
X368799Y391831
X366831Y402854
X367618Y404823
X366732Y406791
X360531Y407185
Y411516
Y415846
Y420177
X365748Y423032
X367913Y422539
X367913Y418602
X367914Y416634
X375886Y414665
X375984Y420571
X367421Y426772
X349508Y424902
X347342Y424606
X353051Y399409
X362303Y400591
X375787Y400886
X387106Y402559
X391831Y417028
X391043Y420472
X392815Y385925
X386122Y380216
X392028Y363189
X355807Y384646
X344882Y305217
X336319Y271358
X377264Y275098
X285531Y412008
X284350Y418012
X278937Y419095
X276279Y419291
X272342Y426575
X406791Y424016
X411516Y418110
X408169Y409350
X413484Y407579
X399803Y409842
Y413681
X402953Y399508
X404567Y380945
X403150Y364075
X404665Y350945
X433760Y356201
X434449Y365748
X434646Y375492
X433858Y387992
X403839Y429921
X399311Y435925
X370079Y438583
X367914Y439961
X368209Y444095
X368356Y447490
X378150Y448425
X362500Y453642
X358563Y453740
X356594Y453740
X352264Y451279
X348524Y446063
X348819Y443307
X343602Y435101
X336417Y431693
X327362Y437894
X321260Y436713
X319390Y435138
X315846Y433760
X309941Y442815
X319685Y448032
X328051Y448524
X325886Y452756
X338878Y452362
X343209Y451772
X356594Y436417
X358563Y436417
X360532Y434744
X362500Y434842
X364862Y434744
X367520Y434941
X357087Y427854
X353051Y428248
X351083Y428051
X272835Y436811
X272736Y439370
X272638Y441732
X272835Y444095
X269685Y437697
X256594Y433169
X257087Y427165
X249606Y430118
X244882Y439862
X249114Y447146
X251673Y447342
X260236Y452949
X273031Y455217
X216531Y457870
X225000Y439665
X224606Y429035
X230512Y429331
X235925Y431201
X219094Y432579
X199646Y444153
X136811Y445079
X136221Y436811
X121457
X121358Y443012
X110039Y430610
X106004Y427461
X95965Y429429
X93996Y435728
X94587Y439173
X108169Y462598
X58563Y457870
X71063Y438307
X73701Y438307
X76477Y432185
X17323Y444291
X14370
X9843Y452559
T03
X279701Y153150
X282701
X51181Y261457
X47244
X43307
X39370
X35433
X36909Y266083
X46752
X46752Y271201
X42224
X36909
Y276319
X46752
X51279Y271201
X74728Y360874
X34201Y406988
X31201
X123992Y427559
X126992
X122441Y451158
Y454158
T04
X311713Y195768
Y200492
Y205217
Y209941
X316437
Y205217
Y200492
Y195768
X321161
Y200492
X325886
Y195768
Y205217
X321161
Y209941
X325886
X367323Y265059
Y269783
X97441Y233465
Y228740
X92716
X87992
Y224016
X92716
X97441
X92716Y233465
X87992
X29921Y218110
X25197
X20472
Y213386
Y208661
X25197
Y213386
X29921
Y208661
X227165Y415354
Y420079
X231890
Y415354
X358563Y445079
T05
X32264Y23701
X32342Y28701
X32342Y33701
X32756Y38701
X62185
X62165Y33701
X62343Y28701
X62520Y23701
X39370Y76673
X31280Y110413
X61713Y106496
X68701Y110925
X193405Y75000
X198772Y65500
X215205Y54035
X310630Y73917
X332677Y54921
X280807Y144783
X287205Y160827
X292323Y263583
X350984Y265453
X357776Y262795
X359154Y259252
X357579Y268406
X377461Y269291
X378346Y265453
X357677Y242421
X224410Y217913
X224311Y214764
X199508Y231201
X195965Y230315
X180955Y203297
X192717Y183366
X199311Y182776
X195276Y175394
X206292Y132291
X126575Y145866
X107362Y150413
Y184075
X97244Y189862
X96063Y194095
X96653Y208858
X90748Y208858
X81201Y187795
X141339Y176181
X140256Y217224
X137795Y241929
X154528Y250098
X154429Y253642
X158366Y253543
X162598Y253740
X159744Y249606
X85532Y259154
X58957Y252264
X73819Y231102
X72342Y218504
X68898Y181693
X64370Y171457
X76280Y165453
X65847Y135236
X67815Y128248
X31358Y115413
X4075Y120413
X4232Y125394
X21752Y195472
X21260Y228051
X27165Y227953
X45956Y183846
X36024Y290453
X40059Y310433
X42815Y406201
X58760Y411614
X162598Y414468
X195866Y418799
X204528Y426870
X205211Y402073
X205118Y363681
X185236Y372244
X177854Y388484
X172441Y328642
X191781Y328396
X107283Y314173
X102264Y306791
X98622Y293012
X285377Y289892
X327559Y287500
X327953Y281299
X331201Y300984
X344685Y292520
X357185Y299114
X360728Y298031
X367126Y298031
X364272Y293898
Y281496
X357874Y279626
X351181Y275787
X351181Y271358
X373228Y285827
X432972Y435630
X308661Y456693
X271535Y461693
X215256Y449016
X205020Y448819
X189860Y451378
X171260Y449154
X170866Y444095
X168996Y455905
X149213Y456594
X149508Y441043
X185039Y429528
X59153Y435039
T06
X11693Y7874
X21693
Y63189
X11693
Y92224
X21693
X76693Y99917
Y107909
Y55134
Y47535
Y39543
Y31551
Y23559
Y15567
X86693Y19547
Y27539
Y11555
Y43524
Y51516
Y59508
Y95906
Y103898
Y111890
Y127874
Y135866
Y143858
X76693Y139484
Y131886
Y123894
Y115902
X21693Y147539
X11693
T07
X399323Y282740
Y292740
Y302740
Y312740
Y322740
Y332740
T08
X55709Y3425
X50197Y67638
X55709Y87776
X147146Y10236
X50197Y151988
T09
X228248Y17165
X246358
X264469
T10
X42717Y3425
X72716
X63189Y67638
X72716Y87776
X42717
X33189Y67638
Y151988
X63189
T11
X436221Y22146
X9744Y169980
X6004Y327658
X440945Y451673
M30
